<?xml version="1.0" encoding="utf-8"?>
<!-- Generator: Adobe Illustrator 15.0.2, SVG Export Plug-In . SVG Version: 6.00 Build 0)  -->
<!DOCTYPE svg PUBLIC "-//W3C//DTD SVG 1.1//EN" "http://www.w3.org/Graphics/SVG/1.1/DTD/svg11.dtd">
<svg version="1.1" id="Layer_1" xmlns="http://www.w3.org/2000/svg" xmlns:xlink="http://www.w3.org/1999/xlink" x="0px" y="0px"
	 width="30px" height="30px" viewBox="0 0 30 30" enable-background="new 0 0 30 30" xml:space="preserve">
<g id="DO_NOT_EDIT_-_BOUNDING_BOX">
	<rect id="BOUNDING_BOX" fill="none" width="30" height="30"/>
</g>
<rect fill="none" width="30" height="30"/>
<path opacity="0.15" enable-background="new    " d="M13,21c-0.552,0-1-0.447-1-1v-3H9c-0.552,0-1-0.447-1-1v-3c0-0.552,0.448-1,1-1
	h3V9c0-0.552,0.448-1,1-1h3c0.553,0,1,0.448,1,1v3h3c0.553,0,1,0.448,1,1v3c0,0.553-0.447,1-1,1h-3v3c0,0.553-0.447,1-1,1H13z"/>
<polygon fill="#FFFFFF" points="16,14 16,10 13,10 13,14 9,14 9,17 13,17 13,21 16,21 16,17 20,17 20,14 "/>
<polygon fill="#282828" points="16,13 16,9 13,9 13,13 9,13 9,16 13,16 13,20 16,20 16,16 20,16 20,13 "/>
</svg>
