<?xml version="1.0" encoding="utf-8"?>
<!-- Generator: Adobe Illustrator 15.0.2, SVG Export Plug-In . SVG Version: 6.00 Build 0)  -->
<!DOCTYPE svg PUBLIC "-//W3C//DTD SVG 1.1//EN" "http://www.w3.org/Graphics/SVG/1.1/DTD/svg11.dtd">
<svg version="1.1" id="Layer_1" xmlns="http://www.w3.org/2000/svg" xmlns:xlink="http://www.w3.org/1999/xlink" x="0px" y="0px"
	 width="30px" height="30px" viewBox="0 0 30 30" enable-background="new 0 0 30 30" xml:space="preserve">
<path fill-opacity="0.06" d="M15,27.312c-0.256,0-0.512-0.098-0.707-0.293l-1.768-1.768c-0.386-0.386-0.391-1.008-0.015-1.398
	l-0.163,0.162c-1.271,1.271-2.965,1.971-4.773,1.971c-1.808,0-3.502-0.699-4.772-1.971c-2.632-2.632-2.632-6.914,0-9.547
	L12.879,4.393c1.694-1.693,3.954-2.626,6.364-2.626c2.409,0,4.669,0.933,6.362,2.626c3.508,3.51,3.508,9.22,0,12.729l-9.898,9.897
	C15.512,27.215,15.256,27.312,15,27.312z M5.984,17.652c-0.425,0.425-0.659,0.988-0.659,1.591c0,0.602,0.234,1.167,0.659,1.592
	c0.424,0.424,0.989,0.657,1.591,0.657c0.602,0,1.167-0.233,1.591-0.657l0.164-0.164c-0.193,0.187-0.443,0.279-0.693,0.279
	c-0.256,0-0.512-0.099-0.707-0.293l-1.77-1.769c-0.188-0.188-0.293-0.441-0.293-0.707c0-0.246,0.091-0.483,0.254-0.666L5.984,17.652
	z M18.891,6.616c1.203,0,2.332,0.466,3.18,1.312c1.744,1.746,1.755,4.577,0.033,6.333l0.32-0.321
	c0.85-0.849,1.316-1.979,1.316-3.182c0-1.204-0.467-2.333-1.316-3.183c-0.849-0.849-1.979-1.316-3.182-1.316
	s-2.333,0.467-3.182,1.316l-2.528,2.528l2.174-2.174C16.555,7.082,17.686,6.616,18.891,6.616z"/>
<g id="DO_NOT_EDIT_-_BOUNDING_BOX">
	<rect id="BOUNDING_BOX" fill="none" width="30" height="30"/>
</g>
<path fill="#FFFFFF" fill-opacity="0.5" d="M24.898,6.101c-3.111-3.111-8.201-3.109-11.313,0L3.51,16.176
	c-2.236,2.236-2.236,5.896,0,8.133c2.234,2.236,5.895,2.236,8.131,0l9.722-9.722c1.361-1.361,1.361-3.589,0-4.951
	c-1.36-1.359-3.588-1.359-4.948,0.002l-9.547,9.544l1.77,1.77l9.545-9.545c0.385-0.383,1.03-0.383,1.414,0
	c0.385,0.384,0.385,1.031,0.002,1.414l-9.726,9.724c-1.268,1.268-3.328,1.268-4.596,0c-1.27-1.27-1.27-3.329,0-4.598L15.354,7.869
	c2.145-2.146,5.632-2.146,7.777,0c2.146,2.146,2.146,5.634,0,7.778l-9.898,9.897L15,27.312l9.898-9.897
	C28.01,14.303,28.01,9.212,24.898,6.101z"/>
<rect fill="none" width="30" height="30"/>
<path fill="#282828" fill-opacity="0.5" d="M24.898,5.101c-3.111-3.111-8.201-3.109-11.313,0L3.51,15.176
	c-2.236,2.236-2.236,5.896,0,8.133c2.234,2.236,5.895,2.236,8.131,0l9.722-9.722c1.361-1.361,1.361-3.589,0-4.951
	c-1.36-1.359-3.588-1.359-4.948,0.002l-9.547,9.544l1.77,1.77l9.545-9.545c0.385-0.383,1.03-0.383,1.414,0
	c0.385,0.384,0.385,1.031,0.002,1.414l-9.726,9.724c-1.268,1.268-3.328,1.268-4.596,0c-1.27-1.27-1.27-3.329,0-4.598L15.354,6.869
	c2.145-2.146,5.632-2.146,7.777,0c2.146,2.146,2.146,5.634,0,7.778l-9.898,9.897L15,26.312l9.898-9.897
	C28.01,13.303,28.01,8.212,24.898,5.101z"/>
</svg>
