<?xml version="1.0" encoding="utf-8"?>
<!-- Generator: Adobe Illustrator 15.0.2, SVG Export Plug-In . SVG Version: 6.00 Build 0)  -->
<!DOCTYPE svg PUBLIC "-//W3C//DTD SVG 1.1//EN" "http://www.w3.org/Graphics/SVG/1.1/DTD/svg11.dtd">
<svg version="1.1" id="Layer_1" xmlns="http://www.w3.org/2000/svg" xmlns:xlink="http://www.w3.org/1999/xlink" x="0px" y="0px"
	 width="30px" height="30px" viewBox="0 0 30 30" enable-background="new 0 0 30 30" xml:space="preserve">
<g id="DO_NOT_EDIT_-_BOUNDING_BOX">
	<rect id="BOUNDING_BOX" fill="none" width="30" height="30"/>
</g>
<rect fill="none" width="30" height="30"/>
<path fill-opacity="0.5" d="M15,27.312c-0.266,0-0.52-0.105-0.708-0.293l-1.767-1.771c-0.38-0.381-0.39-0.991-0.029-1.384
	l-0.148,0.146c-1.271,1.271-2.966,1.971-4.773,1.971c-1.808,0-3.503-0.698-4.772-1.971c-2.631-2.632-2.631-6.914,0-9.547
	L12.878,4.393c1.695-1.693,3.955-2.625,6.365-2.625c2.409,0,4.669,0.933,6.362,2.625c3.508,3.509,3.508,9.219,0,12.729l-9.898,9.897
	C15.52,27.207,15.265,27.312,15,27.312L15,27.312z M5.985,17.652c-0.425,0.425-0.66,0.99-0.66,1.592s0.234,1.166,0.66,1.592
	c0.424,0.424,0.989,0.658,1.591,0.658s1.167-0.234,1.591-0.658l0.155-0.154c-0.192,0.18-0.438,0.271-0.684,0.271
	c-0.256,0-0.512-0.1-0.707-0.293l-1.77-1.771c-0.188-0.188-0.293-0.439-0.293-0.707c0-0.248,0.093-0.486,0.258-0.671L5.985,17.652z
	 M18.891,6.616c1.203,0,2.334,0.466,3.18,1.312c1.738,1.739,1.757,4.557,0.053,6.314l0.303-0.303
	c0.852-0.849,1.316-1.978,1.316-3.181c0-1.203-0.469-2.333-1.316-3.183c-0.849-0.849-1.979-1.316-3.182-1.316
	s-2.332,0.467-3.182,1.316l-4.917,4.918L15.71,7.93C16.555,7.083,17.686,6.616,18.891,6.616z"/>
<path fill-opacity="0.5" d="M24.898,4.101c-3.111-3.111-8.201-3.109-11.313,0L3.51,14.176c-2.236,2.236-2.236,5.896,0,8.132
	c2.234,2.236,5.895,2.236,8.131,0l9.722-9.722c1.361-1.361,1.361-3.589,0-4.951c-1.36-1.359-3.588-1.359-4.948,0.002l-9.547,9.544
	l1.77,1.77l9.545-9.545c0.385-0.383,1.028-0.383,1.414,0c0.385,0.384,0.385,1.031,0.002,1.414l-9.728,9.724
	c-1.268,1.268-3.328,1.268-4.596,0c-1.27-1.27-1.27-3.329,0-4.598L15.354,5.869c2.145-2.146,5.632-2.146,7.777,0
	c2.146,2.146,2.146,5.634,0,7.778l-9.898,9.895L15,25.312l9.898-9.897C28.01,12.303,28.01,7.212,24.898,4.101z"/>
<path fill="#FFFFFF" fill-opacity="0.5" d="M24.898,5.1c-3.111-3.111-8.201-3.109-11.313,0L3.51,15.176
	c-2.236,2.236-2.236,5.896,0,8.133c2.234,2.236,5.895,2.236,8.131,0l9.722-9.723c1.361-1.361,1.361-3.589,0-4.951
	c-1.36-1.359-3.588-1.359-4.948,0.002l-9.547,9.544l1.77,1.77l9.545-9.546c0.385-0.383,1.028-0.383,1.414,0
	c0.385,0.384,0.385,1.031,0.002,1.414l-9.728,9.724c-1.268,1.268-3.328,1.268-4.596,0c-1.27-1.27-1.27-3.329,0-4.598L15.354,6.868
	c2.146-2.146,5.632-2.146,7.777,0c2.146,2.146,2.146,5.634,0,7.778l-9.898,9.898L15,26.312l9.898-9.897
	C28.01,13.303,28.01,8.212,24.898,5.1z"/>
</svg>
