<?xml version="1.0" encoding="utf-8"?>
<!-- Generator: Adobe Illustrator 15.0.2, SVG Export Plug-In . SVG Version: 6.00 Build 0)  -->
<!DOCTYPE svg PUBLIC "-//W3C//DTD SVG 1.1//EN" "http://www.w3.org/Graphics/SVG/1.1/DTD/svg11.dtd">
<svg version="1.1" id="Layer_1" xmlns="http://www.w3.org/2000/svg" xmlns:xlink="http://www.w3.org/1999/xlink" x="0px" y="0px"
	 width="30px" height="30px" viewBox="0 0 30 30" enable-background="new 0 0 30 30" xml:space="preserve">
<g id="DO_NOT_EDIT_-_BOUNDING_BOX">
	<rect id="BOUNDING_BOX" fill="none" width="30" height="30"/>
</g>
<path opacity="0.15" enable-background="new    " d="M19,29.001c-0.264,0-0.521-0.104-0.713-0.299L5.347,15.541
	c-0.318-0.312-0.716-0.923-0.748-1.578L4.425,9.074L1.292,5.94C0.903,5.55,0.902,4.919,1.29,4.528l0.918-0.925
	C2.396,3.415,2.65,3.309,2.916,3.308c0.001,0,0.001,0,0.002,0c0.199,0,0.392,0.059,0.555,0.168C3.216,3.088,3.258,2.561,3.599,2.219
	l0.922-0.925C4.708,1.106,4.963,1,5.228,1c0,0,0,0,0.001,0c0.265,0,0.52,0.105,0.707,0.293l3.149,3.149l4.86,0.16
	c0.634,0.034,1.259,0.406,1.606,0.76L28.7,18.287c0.288,0.283,0.378,0.716,0.225,1.092S28.404,20,27.999,20h-8v8
	c0,0.406-0.245,0.771-0.621,0.926C19.256,28.977,19.128,29.001,19,29.001z"/>
<path fill="#FFFFFF" d="M14.838,7.063c-0.217-0.221-0.623-0.445-0.926-0.461l-5.31-0.175L8.629,6.4L5.229,3L4.307,3.925l0.933,0.93
	L3.853,6.241L2.918,5.308L2,6.233l3.4,3.402l0.009-0.01l0.189,5.289c0.016,0.32,0.235,0.703,0.462,0.926L19,29.001v-9h9
	L14.838,7.063z"/>
<path fill="#282828" d="M14.838,6.063c-0.217-0.221-0.623-0.445-0.926-0.461l-5.31-0.175L8.629,5.4L5.229,2L4.307,2.925l0.933,0.93
	L3.853,5.241L2.918,4.308L2,5.233l3.4,3.402l0.009-0.01l0.189,5.289c0.016,0.32,0.235,0.703,0.462,0.926L19,28.001v-9h9
	L14.838,6.063z"/>
<rect fill="none" width="30" height="30"/>
</svg>
