<?xml version="1.0" encoding="utf-8"?>
<!-- Generator: Adobe Illustrator 15.0.2, SVG Export Plug-In . SVG Version: 6.00 Build 0)  -->
<!DOCTYPE svg PUBLIC "-//W3C//DTD SVG 1.1//EN" "http://www.w3.org/Graphics/SVG/1.1/DTD/svg11.dtd">
<svg version="1.1" id="Layer_1" xmlns="http://www.w3.org/2000/svg" xmlns:xlink="http://www.w3.org/1999/xlink" x="0px" y="0px"
	 width="30px" height="30px" viewBox="0 0 30 30" enable-background="new 0 0 30 30" xml:space="preserve">
<g id="DO_NOT_EDIT_-_BOUNDING_BOX">
	<rect id="BOUNDING_BOX" fill="none" width="30" height="30"/>
</g>
<path opacity="0.15" enable-background="new    " d="M21.652,29c-1.282,0-2.234-0.245-2.273-0.255
	c-4.362-0.815-8.063-3.8-9.944-5.582c-0.049-0.034-0.096-0.072-0.14-0.116L7.45,21.203c-0.03-0.029-0.058-0.062-0.083-0.094
	c-1.318-1.303-5.176-5.48-6.125-10.555c-0.022-0.074-0.891-3.491,0.8-6.312c0.962-1.605,2.53-2.676,4.659-3.183
	C6.862,1.02,7.026,1.001,7.189,1.001c1.315,0,1.992,1.206,2.064,1.344c0.02,0.038,0.038,0.078,0.053,0.118l1.591,4.26
	c0.611,1.229,0.076,2.224-0.358,2.65c0,0-1.715,2.069-1.721,2.076c-0.013,0.019-0.954,1.724,3.367,6.181
	c0.012,0.013,0.263,0.267,0.263,0.267c3.104,3.009,4.872,3.459,5.647,3.459c0.33,0,0.489-0.084,0.522-0.104l1.995-1.782
	c0.189-0.196,0.716-0.644,1.548-0.644c0.372,0,0.746,0.092,1.114,0.273l4.263,1.596c0.039,0.016,0.078,0.033,0.114,0.053
	c0.625,0.329,1.6,1.234,1.289,2.548C27.762,28.26,23.868,29,21.652,29L21.652,29z"/>
<path fill="#FFFFFF" d="M27.189,22.633l-4.314-1.615c-0.982-0.514-1.561,0.168-1.561,0.168l-2.104,1.879
	c0.158-0.184-1.797,2.037-7.469-3.461H11.74l-0.273-0.273l0.001-0.002c-5.501-5.674-3.28-7.627-3.46-7.469L9.81,9.688
	c0,0,0.685-0.579,0.17-1.56L8.37,3.813c0,0-0.528-0.998-1.437-0.781C0.442,4.578,2.225,11.37,2.225,11.37
	c0.91,4.864,4.668,8.882,5.937,10.118l-0.005,0.008l1.845,1.844l0.009-0.009c1.625,1.56,5.288,4.634,9.621,5.446
	c0,0,6.793,1.779,8.339-4.711C28.186,23.157,27.189,22.633,27.189,22.633z"/>
<path fill="#282828" d="M27.189,21.632l-4.314-1.615c-0.982-0.514-1.561,0.168-1.561,0.168l-2.104,1.879
	c0.158-0.184-1.797,2.037-7.469-3.461H11.74l-0.273-0.273l0.001-0.002c-5.501-5.675-3.28-7.627-3.46-7.47L9.81,8.687
	c0,0,0.685-0.579,0.17-1.56L8.37,2.812c0,0-0.528-0.998-1.437-0.781c-6.491,1.546-4.708,8.338-4.708,8.338
	c0.91,4.865,4.668,8.882,5.937,10.119l-0.005,0.008l1.845,1.844l0.009-0.009c1.625,1.56,5.288,4.634,9.621,5.446
	c0,0,6.793,1.779,8.339-4.711C28.186,22.156,27.189,21.632,27.189,21.632z"/>
<rect fill="none" width="30" height="30"/>
</svg>
