<?xml version="1.0" encoding="utf-8"?>
<!-- Generator: Adobe Illustrator 15.0.2, SVG Export Plug-In . SVG Version: 6.00 Build 0)  -->
<!DOCTYPE svg PUBLIC "-//W3C//DTD SVG 1.1//EN" "http://www.w3.org/Graphics/SVG/1.1/DTD/svg11.dtd">
<svg version="1.1" id="Layer_1" xmlns="http://www.w3.org/2000/svg" xmlns:xlink="http://www.w3.org/1999/xlink" x="0px" y="0px"
	 width="30px" height="30px" viewBox="0 0 30 30" enable-background="new 0 0 30 30" xml:space="preserve">
<g id="DO_NOT_EDIT_-_BOUNDING_BOX">
	<rect id="BOUNDING_BOX" fill="none" width="30" height="30"/>
</g>
<path opacity="0.15" d="M23.772,28.001c-0.544,0-1.055-0.213-1.438-0.599L15,20.068l-7.334,7.336
	c-0.384,0.385-0.895,0.597-1.438,0.597s-1.055-0.212-1.439-0.597l-2.192-2.193c-0.793-0.793-0.793-2.084,0-2.877L9.932,15
	L2.596,7.665C2.212,7.282,2,6.771,2,6.226S2.213,5.17,2.598,4.787l2.191-2.191C5.173,2.211,5.684,2,6.228,2s1.054,0.211,1.438,0.596
	L15,9.93l7.336-7.334C22.718,2.212,23.229,2,23.772,2c0.543,0,1.054,0.211,1.438,0.595l2.193,2.194
	C27.788,5.17,28,5.681,28.001,6.226c0,0.545-0.212,1.057-0.598,1.441L20.068,15l7.336,7.334c0.793,0.793,0.793,2.084,0,2.877
	l-2.193,2.193C24.826,27.789,24.315,28.001,23.772,28.001z"/>
<path fill="#FFFFFF" d="M18.654,16l8.043-8.042c0.404-0.403,0.404-1.06,0-1.462l-2.193-2.193c-0.404-0.404-1.059-0.404-1.461,0
	L15,12.344L6.959,4.303c-0.404-0.404-1.059-0.404-1.463,0L3.303,6.496c-0.404,0.402-0.404,1.059,0,1.462L11.346,16l-8.043,8.041
	c-0.404,0.404-0.404,1.059,0,1.463l2.193,2.193c0.404,0.404,1.059,0.404,1.463,0L15,19.654l8.043,8.043
	c0.402,0.404,1.057,0.404,1.461,0l2.193-2.193c0.404-0.404,0.404-1.059,0-1.463L18.654,16z"/>
<path fill="#282828" d="M18.654,15l8.043-8.042c0.404-0.403,0.404-1.06,0-1.462l-2.193-2.193c-0.404-0.404-1.059-0.404-1.461,0
	L15,11.344L6.959,3.303c-0.404-0.404-1.059-0.404-1.463,0L3.303,5.496c-0.404,0.402-0.404,1.059,0,1.462L11.346,15l-8.043,8.041
	c-0.404,0.404-0.404,1.059,0,1.463l2.193,2.193c0.404,0.404,1.059,0.404,1.463,0L15,18.654l8.043,8.043
	c0.402,0.404,1.057,0.404,1.461,0l2.193-2.193c0.404-0.404,0.404-1.059,0-1.463L18.654,15z"/>
<rect fill="none" width="30" height="30"/>
</svg>
