<?xml version="1.0" encoding="utf-8"?>
<!-- Generator: Adobe Illustrator 15.0.2, SVG Export Plug-In . SVG Version: 6.00 Build 0)  -->
<!DOCTYPE svg PUBLIC "-//W3C//DTD SVG 1.1//EN" "http://www.w3.org/Graphics/SVG/1.1/DTD/svg11.dtd">
<svg version="1.1" id="Layer_1" xmlns="http://www.w3.org/2000/svg" xmlns:xlink="http://www.w3.org/1999/xlink" x="0px" y="0px"
	 width="30px" height="30px" viewBox="0 0 30 30" enable-background="new 0 0 30 30" xml:space="preserve">
<path opacity="0.15" d="M5,29c-1.103,0-2-0.897-2-2V3c0-1.103,0.897-2,2-2h16c0.266,0,0.52,0.105,0.707,0.293l5,5
	C26.895,6.48,27,6.735,27,7v20c0,1.103-0.897,2-2,2H5z M7.902,20.971h14.193H7.904H7.902z M7.902,16.971h14.193H7.904H7.902z
	 M7.902,12.971h14.193H7.904H7.902z M7.902,8.971h14.193H7.904H7.902z"/>
<path fill="#FFFFFF" d="M21,3H5C4.451,3,4,3.45,4,4v24c0,0.55,0.451,1,1,1h20c0.551,0,1-0.45,1-1V8L21,3z M22.096,22.971H7.904
	c-0.553,0-1-0.447-1-1s0.447-1,1-1h14.192c0.553,0,1,0.447,1,1S22.648,22.971,22.096,22.971z M22.096,18.971H7.904
	c-0.553,0-1-0.447-1-1s0.447-1,1-1h14.192c0.553,0,1,0.447,1,1S22.648,18.971,22.096,18.971z M22.096,14.971H7.904
	c-0.553,0-1-0.447-1-1c0-0.553,0.447-1,1-1h14.192c0.553,0,1,0.447,1,1C23.096,14.524,22.648,14.971,22.096,14.971z M22.096,10.971
	H7.904c-0.553,0-1-0.447-1-1c0-0.553,0.447-1,1-1h14.192c0.553,0,1,0.447,1,1C23.096,10.524,22.648,10.971,22.096,10.971z"/>
<path fill="#282828" d="M21,2H5C4.451,2,4,2.45,4,3v24c0,0.55,0.451,1,1,1h20c0.551,0,1-0.45,1-1V7L21,2z M22.096,21.971H7.904
	c-0.553,0-1-0.447-1-1s0.447-1,1-1h14.192c0.553,0,1,0.447,1,1S22.648,21.971,22.096,21.971z M22.096,17.971H7.904
	c-0.553,0-1-0.447-1-1s0.447-1,1-1h14.192c0.553,0,1,0.447,1,1S22.648,17.971,22.096,17.971z M22.096,13.971H7.904
	c-0.553,0-1-0.447-1-1c0-0.553,0.447-1,1-1h14.192c0.553,0,1,0.447,1,1C23.096,13.524,22.648,13.971,22.096,13.971z M22.096,9.971
	H7.904c-0.553,0-1-0.447-1-1c0-0.553,0.447-1,1-1h14.192c0.553,0,1,0.447,1,1C23.096,9.524,22.648,9.971,22.096,9.971z"/>
<g id="DO_NOT_EDIT_-_BOUNDING_BOX">
	<rect id="BOUNDING_BOX" fill="none" width="30" height="30"/>
</g>
</svg>
