<?xml version="1.0" encoding="utf-8"?>
<!-- Generator: Adobe Illustrator 15.0.2, SVG Export Plug-In . SVG Version: 6.00 Build 0)  -->
<!DOCTYPE svg PUBLIC "-//W3C//DTD SVG 1.1//EN" "http://www.w3.org/Graphics/SVG/1.1/DTD/svg11.dtd">
<svg version="1.1" id="Ebene_1" xmlns="http://www.w3.org/2000/svg" xmlns:xlink="http://www.w3.org/1999/xlink" x="0px" y="0px"
	 width="30px" height="30px" viewBox="0 0 30 30" enable-background="new 0 0 30 30" xml:space="preserve">
<g id="DO_NOT_EDIT_-_BOUNDING_BOX">
	<rect id="BOUNDING_BOX" fill="none" width="30" height="30"/>
</g>
<path opacity="0.15" d="M2.422,28.999c-0.475,0-0.896-0.207-1.157-0.568C1.1,28.2,0.858,27.704,1.104,26.965l2.309-6.928
	c0.232-0.693,0.798-1.608,1.316-2.129L17.844,4.804c0.195-0.195,0.451-0.292,0.707-0.292c0.24,0,0.48,0.086,0.671,0.258
	c-0.358-0.392-0.349-1,0.03-1.38l1.479-1.483C21.318,1.321,22.097,1,22.926,1s1.607,0.321,2.192,0.904l2.976,2.977
	C28.679,5.465,29.001,6.245,29,7.076c0,0.831-0.322,1.609-0.907,2.192l-1.476,1.48c-0.188,0.188-0.441,0.294-0.707,0.294h-0.001
	c-0.255,0-0.499-0.097-0.685-0.271c0.176,0.186,0.273,0.431,0.273,0.687c0,0.266-0.105,0.52-0.293,0.708L12.094,25.27
	c-0.525,0.519-1.438,1.083-2.129,1.316l-6.931,2.309C2.827,28.964,2.62,28.999,2.422,28.999L2.422,28.999z M5.922,24.113
	l1.977-0.691l-1.317-1.32l-0.691,1.979L5.922,24.113z"/>
<path fill="#FFFFFF" d="M5.438,19.613c-0.408,0.41-0.893,1.193-1.076,1.74l-2.309,6.928c-0.182,0.547,0.117,0.848,0.666,0.664
	l6.926-2.307c0.549-0.186,1.33-0.669,1.742-1.076l13.111-13.104l-5.947-5.947L5.438,19.613z M8.811,25.162l-3.154,1.104L4.74,25.342
	l1.102-3.154l0.619-0.623l2.971,2.979L8.811,25.162z M27.387,6.588l-2.975-2.976c-0.818-0.816-2.154-0.816-2.973,0L19.96,5.095
	l5.949,5.947l1.478-1.482C28.205,8.745,28.205,7.406,27.387,6.588z"/>
<path fill="#282828" d="M5.438,18.613c-0.408,0.41-0.893,1.193-1.076,1.74l-2.309,6.928c-0.182,0.547,0.117,0.848,0.666,0.664
	l6.926-2.307c0.549-0.186,1.33-0.669,1.742-1.076l13.111-13.104l-5.947-5.947L5.438,18.613z M8.811,24.162l-3.154,1.104L4.74,24.342
	l1.102-3.154l0.619-0.623l2.971,2.979L8.811,24.162z M27.387,5.588l-2.975-2.976c-0.818-0.816-2.154-0.816-2.973,0L19.96,4.095
	l5.949,5.947l1.478-1.482C28.205,7.745,28.205,6.406,27.387,5.588z"/>
<rect fill="none" width="30" height="30"/>
</svg>
