<?xml version="1.0" encoding="utf-8"?>
<!-- Generator: Adobe Illustrator 15.0.2, SVG Export Plug-In . SVG Version: 6.00 Build 0)  -->
<!DOCTYPE svg PUBLIC "-//W3C//DTD SVG 1.1//EN" "http://www.w3.org/Graphics/SVG/1.1/DTD/svg11.dtd">
<svg version="1.1" id="Layer_1" xmlns="http://www.w3.org/2000/svg" xmlns:xlink="http://www.w3.org/1999/xlink" x="0px" y="0px"
	 width="30px" height="30px" viewBox="0 0 30 30" enable-background="new 0 0 30 30" xml:space="preserve">
<g id="DO_NOT_EDIT_-_BOUNDING_BOX">
	<rect id="BOUNDING_BOX" fill="none" width="30" height="30"/>
</g>
<path fill-opacity="0.5" d="M23.062,29.126c-0.426,0-0.842-0.146-1.203-0.422C21.828,28.684,15,23.811,15,23.811L8.079,28.75
	c-0.051,0.035-0.104,0.066-0.159,0.092c-0.311,0.188-0.644,0.283-0.99,0.283c-1.091,0-1.978-0.878-1.978-1.957
	c0-0.268,0.058-0.527,0.178-0.795l2.576-7.768l-6.729-4.79c-0.024-0.017-0.047-0.035-0.069-0.054C0.349,13.405,0,12.787,0,12.124
	c0-1.082,0.886-1.962,1.976-1.962c0.021,0,8.522,0.006,8.522,0.006l2.632-7.962c0.028-0.086,0.068-0.167,0.117-0.241
	c0.331-0.661,1.012-1.09,1.76-1.09c0.841,0,1.591,0.537,1.863,1.336l2.631,7.957c0,0,8.495-0.006,8.521-0.006
	c0.045,0,0.092,0.003,0.139,0.01c1.056,0.089,1.84,0.924,1.84,1.952c0,0.559-0.254,1.092-0.688,1.463
	c-0.045,0.05-0.098,0.095-0.152,0.136l-6.861,4.882c0,0,2.633,7.944,2.639,7.965c0.017,0.05,0.028,0.101,0.037,0.15
	c0.032,0.117,0.068,0.264,0.068,0.447C25.042,28.248,24.154,29.126,23.062,29.126z"/>
<path fill-opacity="0.5" d="M29,11.124c0-0.526-0.428-0.945-0.957-0.959h-0.01c-0.004,0-0.008-0.003-0.012-0.003
	c-0.006,0-0.01,0.003-0.016,0.003l-9.229,0.003l-2.854-8.633c-0.13-0.38-0.486-0.66-0.917-0.66c-0.425,0-0.777,0.271-0.912,0.645
	H14.08l-2.859,8.648l-9.157-0.003L2.06,10.176c-0.03,0-0.054-0.014-0.084-0.014C1.438,10.162,1,10.592,1,11.124
	c0,0.381,0.231,0.706,0.563,0.861l-0.007,0.017l7.331,5.218l-2.826,8.522c-0.064,0.132-0.109,0.269-0.109,0.426
	c0,0.527,0.438,0.957,0.978,0.957c0.212,0,0.398-0.08,0.559-0.195l0.009,0.006L15,21.583l7.369,5.259
	c0.008,0.008,0.02,0.012,0.027,0.02l0.062,0.045h0.002c0.168,0.13,0.369,0.221,0.602,0.221c0.541,0,0.979-0.429,0.979-0.957
	c0-0.086-0.027-0.16-0.049-0.238L24,25.926l-0.021-0.064c-0.01-0.029-0.016-0.062-0.027-0.094l-2.834-8.548l7.463-5.312
	l-0.004-0.014C28.826,11.721,29,11.447,29,11.124z"/>
<path fill="#FFFFFF" fill-opacity="0.5" d="M29,12.124c0-0.526-0.428-0.945-0.957-0.959h-0.01c-0.004,0-0.008-0.003-0.012-0.003
	c-0.006,0-0.01,0.003-0.016,0.003l-9.229,0.003l-2.854-8.633c-0.13-0.38-0.486-0.66-0.917-0.66c-0.425,0-0.777,0.271-0.912,0.645
	H14.08l-2.859,8.648l-9.157-0.003L2.06,11.176c-0.03,0-0.054-0.014-0.084-0.014C1.438,11.162,1,11.592,1,12.124
	c0,0.381,0.231,0.706,0.563,0.861l-0.007,0.017l7.331,5.218l-2.826,8.522c-0.064,0.132-0.109,0.269-0.109,0.426
	c0,0.527,0.438,0.957,0.978,0.957c0.212,0,0.398-0.08,0.559-0.195l0.009,0.006L15,22.583l7.369,5.259
	c0.008,0.008,0.02,0.012,0.027,0.02l0.062,0.045h0.002c0.168,0.13,0.369,0.221,0.602,0.221c0.541,0,0.979-0.429,0.979-0.957
	c0-0.086-0.027-0.16-0.049-0.238L24,26.926l-0.021-0.064c-0.01-0.029-0.016-0.062-0.027-0.094l-2.834-8.548l7.463-5.312
	l-0.004-0.014C28.826,12.721,29,12.447,29,12.124z"/>
</svg>
