<?xml version="1.0" encoding="utf-8"?>
<!-- Generator: Adobe Illustrator 15.0.2, SVG Export Plug-In . SVG Version: 6.00 Build 0)  -->
<!DOCTYPE svg PUBLIC "-//W3C//DTD SVG 1.1//EN" "http://www.w3.org/Graphics/SVG/1.1/DTD/svg11.dtd">
<svg version="1.1" id="Layer_1" xmlns="http://www.w3.org/2000/svg" xmlns:xlink="http://www.w3.org/1999/xlink" x="0px" y="0px"
	 width="30px" height="30px" viewBox="0 0 30 30" enable-background="new 0 0 30 30" xml:space="preserve">
<path fill-opacity="0.06" d="M23.062,29.125c-0.42,0-0.832-0.145-1.19-0.414C21.834,28.688,15,23.812,15,23.812L8.077,28.75
	c-0.049,0.035-0.102,0.064-0.155,0.091c-0.312,0.188-0.645,0.284-0.993,0.284c-1.09,0-1.978-0.878-1.978-1.957
	c0-0.27,0.059-0.529,0.179-0.796l2.575-7.767l-6.729-4.79c-0.023-0.017-0.046-0.035-0.068-0.054C0.349,13.405,0,12.786,0,12.124
	c0-1.082,0.887-1.962,1.977-1.962c0.021,0,8.522,0.006,8.522,0.006l2.633-7.962c0.028-0.086,0.067-0.166,0.116-0.238
	c0.331-0.662,1.013-1.092,1.761-1.092c0.841,0,1.591,0.537,1.863,1.336l2.632,7.957c0,0,8.493-0.006,8.518-0.006
	c0.045,0,0.092,0.003,0.138,0.01C29.215,10.258,30,11.094,30,12.124c0,0.569-0.25,1.094-0.693,1.468
	c-0.043,0.048-0.094,0.092-0.147,0.131l-6.861,4.882c0,0,2.632,7.935,2.638,7.963c0.017,0.045,0.027,0.092,0.035,0.138
	c0.032,0.112,0.073,0.271,0.073,0.462C25.043,28.247,24.154,29.125,23.062,29.125z"/>
<g id="DO_NOT_EDIT_-_BOUNDING_BOX">
	<rect id="BOUNDING_BOX" fill="none" width="30" height="30"/>
</g>
<path fill="#FFFFFF" fill-opacity="0.5" d="M29,13.124c0-0.526-0.428-0.945-0.957-0.959h-0.01c-0.004,0-0.008-0.003-0.012-0.003
	c-0.006,0-0.01,0.003-0.015,0.003l-9.228,0.003l-2.854-8.633c-0.13-0.38-0.486-0.66-0.917-0.66c-0.425,0-0.777,0.271-0.912,0.645
	H14.08l-2.859,8.648l-9.157-0.003L2.06,12.176c-0.03,0-0.054-0.014-0.084-0.014C1.438,12.162,1,12.592,1,13.124
	c0,0.381,0.231,0.706,0.563,0.861l-0.007,0.017l7.331,5.218l-2.826,8.522c-0.064,0.132-0.109,0.269-0.109,0.426
	c0,0.527,0.438,0.957,0.978,0.957c0.212,0,0.398-0.08,0.559-0.195l0.009,0.006L15,23.583l7.369,5.259
	c0.008,0.008,0.02,0.012,0.027,0.02l0.063,0.044h0.002c0.168,0.13,0.369,0.221,0.601,0.221c0.541,0,0.979-0.429,0.979-0.957
	c0-0.086-0.028-0.16-0.049-0.239L24,27.926l-0.021-0.064c-0.01-0.03-0.016-0.063-0.028-0.094l-2.834-8.548l7.463-5.312l-0.004-0.014
	C28.826,13.721,29,13.447,29,13.124z"/>
<path fill="#282828" fill-opacity="0.5" d="M29,12.124c0-0.526-0.428-0.945-0.957-0.959h-0.01c-0.004,0-0.008-0.003-0.012-0.003
	c-0.006,0-0.01,0.003-0.015,0.003l-9.228,0.003l-2.854-8.633c-0.13-0.38-0.485-0.66-0.917-0.66c-0.425,0-0.777,0.271-0.912,0.645
	H14.08l-2.859,8.648l-9.157-0.003L2.06,11.176c-0.03,0-0.054-0.014-0.084-0.014C1.438,11.162,1,11.592,1,12.124
	c0,0.381,0.231,0.706,0.563,0.861l-0.007,0.017l7.331,5.218l-2.826,8.522c-0.064,0.132-0.109,0.269-0.109,0.426
	c0,0.527,0.438,0.957,0.978,0.957c0.212,0,0.398-0.08,0.559-0.195l0.009,0.006L15,22.583l7.369,5.259
	c0.008,0.008,0.02,0.012,0.027,0.02l0.063,0.044h0.002c0.168,0.13,0.369,0.221,0.601,0.221c0.541,0,0.979-0.429,0.979-0.957
	c0-0.086-0.028-0.16-0.049-0.239L24,26.926l-0.021-0.064c-0.01-0.03-0.016-0.063-0.028-0.094l-2.834-8.548l7.463-5.312l-0.004-0.014
	C28.826,12.721,29,12.447,29,12.124z"/>
</svg>
