<?xml version="1.0"?>
<!-- Converted with SVG Converter - Version 0.9.5 (Compiled Mon May 30 09:25:05 2011) - Copyright (C) 2011 Nokia -->
<svg xmlns="http://www.w3.org/2000/svg" width="20px" x="0px" version="1.1" y="0px" height="20px" viewBox="0 0 20 20" xmlns:xlink="http://www.w3.org/1999/xlink" baseProfile="tiny" id="Layer_1" xml:space="preserve">
 <path fill-opacity="0.15" d="M10,1c-6.477,0-9,2.523-9,9s2.523,9,9,9s9-2.523,9-9S16.477,1,10,1L10,1z"/>
 <path fill="#F7931E" d="M18,10c0,5.925-2.072,8-8,8c-5.93,0-8-2.075-8-8c0-5.929,2.07-8,8-8C15.928,2,18,4.071,18,10z"/>
 <g stroke-opacity="0.2" fill-opacity="0.2">
  <linearGradient id="SVGID_1_" y1="2" x1="9.9995" y2="18.0005" gradientUnits="userSpaceOnUse" x2="9.9995">
   <stop offset="0" style="stop-color:#FFFFFF"/>
   <stop offset="1" style="stop-color:#FFFFFF;stop-opacity:0"/>
  </linearGradient>
  <path fill="url(#SVGID_1_)" d="M18,10c0,5.925-2.072,8-8,8c-5.93,0-8-2.075-8-8c0-5.929,2.07-8,8-8C15.928,2,18,4.071,18,10z"/>
 </g>
 <rect width="16" x="2" y="2" fill="none" height="16" id="BOUNDING_BOX_3_"/>
 <linearGradient id="SVGID_2_" y1="12" x1="10.8843" y2="5.7573" gradientUnits="userSpaceOnUse" x2="10.8843">
  <stop offset="0" style="stop-color:#FFFFFF"/>
  <stop offset="1" style="stop-color:#FFFFFF;stop-opacity:0.6"/>
 </linearGradient>
 <path fill="url(#SVGID_2_)" d="M14.949,6.05c-0.391-0.391-1.023-0.391-1.414,0L10,9.585L8.232,7.818&#xd;&#xa;&#x9;c-0.391-0.391-1.023-0.391-1.414,0s-0.391,1.023,0,1.414l2.473,2.472c0,0.001,0,0.002,0.002,0.003C9.488,11.902,9.744,12,10,12l0,0&#xd;&#xa;&#x9;l0,0c0.256,0,0.512-0.098,0.707-0.293c0.002-0.001,0.002-0.002,0.002-0.003l4.24-4.24C15.34,7.073,15.34,6.44,14.949,6.05z"/>
</svg>
