<?xml version="1.0"?>
<!-- Converted with SVG Converter - Version 0.9.5 (Compiled Mon May 30 09:25:05 2011) - Copyright (C) 2011 Nokia -->
<svg xmlns="http://www.w3.org/2000/svg" width="20px" x="0px" version="1.1" y="0px" height="20px" viewBox="0 0 20 20" xmlns:xlink="http://www.w3.org/1999/xlink" baseProfile="tiny" id="Layer_1" xml:space="preserve">
 <rect width="20" fill="none" height="20" id="BOUNDING_BOX_3_"/>
 <path fill="#E43430" d="M16.928,8.5h-4.331l2.164-3.75c0.414-0.718,0.169-1.635-0.549-2.049c-0.717-0.412-1.635-0.168-2.049,0.549&#xd;&#xa;&#x9;L9.999,6.999L7.835,3.25c-0.414-0.717-1.33-0.964-2.049-0.549C5.069,3.115,4.823,4.033,5.237,4.75L7.402,8.5h-4.33&#xd;&#xa;&#x9;c-0.829,0-1.5,0.671-1.5,1.5s0.671,1.5,1.5,1.5h4.329l-2.165,3.75c-0.414,0.718-0.168,1.635,0.549,2.049&#xd;&#xa;&#x9;C6.022,17.436,6.28,17.5,6.535,17.5c0.519,0,1.023-0.269,1.301-0.75L10,13l2.165,3.75c0.277,0.481,0.782,0.75,1.3,0.75&#xd;&#xa;&#x9;c0.255,0,0.513-0.064,0.749-0.201c0.718-0.414,0.963-1.331,0.549-2.049l-2.165-3.75h4.33c0.828,0,1.5-0.671,1.5-1.5&#xd;&#xa;&#x9;S17.756,8.5,16.928,8.5z"/>
</svg>
