<?xml version="1.0"?>
<!-- Converted with SVG Converter - Version 0.9.5 (Compiled Mon May 30 09:25:05 2011) - Copyright (C) 2011 Nokia -->
<svg xmlns="http://www.w3.org/2000/svg" width="20px" x="0px" version="1.1" y="0px" height="20px" viewBox="0 0 20 20" xmlns:xlink="http://www.w3.org/1999/xlink" baseProfile="tiny" id="Layer_1" xml:space="preserve">
 <rect width="20" fill="none" height="20" id="BOUNDING_BOX_1_"/>
 <path fill="#1080DD" d="M10,1.375c-2.757,0-5,2.243-5,5v8.75c0,1.93,1.57,3.5,3.5,3.5s3.5-1.57,3.5-3.5v-8.75c0-1.103-0.897-2-2-2&#xd;&#xa;&#x9;c-1.103,0-2,0.897-2,2V15h1.25V6.375c0-0.414,0.336-0.75,0.75-0.75s0.75,0.336,0.75,0.75v8.75c0,1.24-1.009,2.25-2.25,2.25&#xd;&#xa;&#x9;s-2.25-1.01-2.25-2.25v-8.75c0-2.068,1.682-3.75,3.75-3.75c2.067,0,3.75,1.682,3.75,3.75V15H15V6.375&#xd;&#xa;&#x9;C15,3.618,12.757,1.375,10,1.375z"/>
</svg>
