<?xml version="1.0" encoding="utf-8"?>
<!-- Generator: Adobe Illustrator 15.0.2, SVG Export Plug-In . SVG Version: 6.00 Build 0)  -->
<!DOCTYPE svg PUBLIC "-//W3C//DTD SVG 1.1//EN" "http://www.w3.org/Graphics/SVG/1.1/DTD/svg11.dtd">
<svg version="1.1" id="Layer_1" xmlns="http://www.w3.org/2000/svg" xmlns:xlink="http://www.w3.org/1999/xlink" x="0px" y="0px"
	 width="30px" height="30px" viewBox="0 0 30 30" enable-background="new 0 0 30 30" xml:space="preserve">
<g id="DO_NOT_EDIT_-_BOUNDING_BOX">
	<rect id="BOUNDING_BOX" fill="none" width="30" height="30"/>
</g>
<path opacity="0.15" d="M15,29C7.28,29,1,22.72,1,15S7.28,1,15,1s14,6.28,14,14S22.72,29,15,29z M12,13c1.103,0,2,0.897,2,2v9h2V13
	H12z M15.001,6C14.173,6,13.5,6.673,13.5,7.5S14.173,9,15.001,9C15.827,9,16.5,8.327,16.5,7.5S15.827,6,15.001,6z"/>
<path fill="#FFFFFF" d="M15,3C7.82,3,2,8.82,2,16c0,7.18,5.82,13,13,13c7.18,0,13-5.82,13-13C28,8.82,22.18,3,15,3z M17,25
	c0,0.551-0.451,1-1,1h-2c-0.55,0-1-0.449-1-1v-9c0-0.549-0.45-1-1-1h-1c-0.55,0-1-0.449-1-1c0-0.549,0.45-1,1-1h5
	c0.549,0,1,0.451,1,1V25z M15.001,11c-1.38,0-2.501-1.121-2.501-2.5S13.621,6,15.001,6S17.5,7.121,17.5,8.5S16.381,11,15.001,11z"/>
<path fill="#282828" d="M15,2C7.82,2,2,7.82,2,15c0,7.18,5.82,13,13,13c7.18,0,13-5.82,13-13C28,7.82,22.18,2,15,2z M17,24
	c0,0.551-0.451,1-1,1h-2c-0.55,0-1-0.449-1-1v-9c0-0.549-0.45-1-1-1h-1c-0.55,0-1-0.449-1-1c0-0.549,0.45-1,1-1h5
	c0.549,0,1,0.451,1,1V24z M15.001,10c-1.38,0-2.501-1.121-2.501-2.5S13.621,5,15.001,5S17.5,6.121,17.5,7.5S16.381,10,15.001,10z"/>
</svg>
