<?xml version="1.0" encoding="utf-8"?>
<!-- Generator: Adobe Illustrator 15.1.0, SVG Export Plug-In . SVG Version: 6.00 Build 0)  -->
<!DOCTYPE svg PUBLIC "-//W3C//DTD SVG 1.1//EN" "http://www.w3.org/Graphics/SVG/1.1/DTD/svg11.dtd">
<svg version="1.1" id="Layer_1" xmlns="http://www.w3.org/2000/svg" xmlns:xlink="http://www.w3.org/1999/xlink" x="0px" y="0px"
	 width="30px" height="30px" viewBox="0 0 30 30" enable-background="new 0 0 30 30" xml:space="preserve">
<path opacity="0.15" enable-background="new    " d="M16,26.584c0.535,0,1.037-0.207,1.414-0.584L27,16.414
	c0.779-0.779,0.779-2.049,0-2.828L17.414,4C17.037,3.623,16.535,3.416,16,3.416S14.963,3.623,14.586,4L13,5.586
	c-0.779,0.779-0.779,2.049,0,2.828L16.586,12H4c-1.104,0-2,0.896-2,2v2c0,1.104,0.896,2,2,2h12.586L13,21.586
	c-0.779,0.779-0.779,2.049,0,2.828L14.586,26C14.963,26.377,15.465,26.584,16,26.584L16,26.584z"/>
<path fill="#FFFFFF" enable-background="new    " d="M4,14h15l-5.293-5.293c-0.389-0.388-0.389-1.025,0-1.414l1.586-1.586
	c0.389-0.388,1.025-0.388,1.414,0l9.586,9.586c0.389,0.389,0.389,1.026,0,1.415l-9.586,9.586c-0.389,0.389-1.025,0.389-1.414,0
	l-1.586-1.586c-0.389-0.389-0.389-1.025,0-1.414L19,18H4c-0.55,0-1-0.449-1-1v-2C3,14.451,3.45,14,4,14z"/>
<path fill="#282828" d="M4,13h15l-5.293-5.293c-0.389-0.388-0.389-1.025,0-1.414l1.586-1.586c0.389-0.388,1.025-0.388,1.414,0
	l9.586,9.586c0.389,0.389,0.389,1.026,0,1.414l-9.586,9.586c-0.389,0.389-1.025,0.389-1.414,0l-1.586-1.586
	c-0.389-0.389-0.389-1.025,0-1.414L19,17H4c-0.55,0-1-0.45-1-1v-2C3,13.451,3.45,13,4,13z"/>
<rect fill="none" width="30" height="30"/>
</svg>
