<?xml version="1.0" encoding="utf-8"?>
<!-- Generator: Adobe Illustrator 15.1.0, SVG Export Plug-In . SVG Version: 6.00 Build 0)  -->
<!DOCTYPE svg PUBLIC "-//W3C//DTD SVG 1.1//EN" "http://www.w3.org/Graphics/SVG/1.1/DTD/svg11.dtd">
<svg version="1.1" id="Layer_1" xmlns="http://www.w3.org/2000/svg" xmlns:xlink="http://www.w3.org/1999/xlink" x="0px" y="0px"
	 width="30px" height="30px" viewBox="0 0 30 30" enable-background="new 0 0 30 30" xml:space="preserve">
<path opacity="0.15" enable-background="new    " d="M22,4c1.104,0,2,0.896,2,2v18c0,1.104-0.896,2-2,2h-3c-1.104,0-2-0.896-2-2V6
	c0-1.104,0.896-2,2-2H22z M11,4c1.103,0,2,0.896,2,2v18c0,1.104-0.897,2-2,2H8c-1.103,0-2-0.896-2-2V6c0-1.104,0.897-2,2-2H11z"/>
<g id="DO_NOT_EDIT_-_BOUNDING_BOX">
	<rect id="BOUNDING_BOX" fill="none" width="30" height="30"/>
</g>
<g id="PLACE_YOUR_GRAPHIC_HERE">
	<path fill="#FFFFFF" enable-background="new    " d="M12,25V7c0-0.553-0.447-1-1-1H8C7.447,6,7,6.447,7,7v18c0,0.553,0.447,1,1,1h3
		C11.553,26,12,25.553,12,25z M23,25V7c0-0.553-0.447-1-1-1h-3c-0.553,0-1,0.447-1,1v18c0,0.553,0.447,1,1,1h3
		C22.553,26,23,25.553,23,25z"/>
	<path opacity="0.15" enable-background="new    " d="M12,24V6c0-0.553-0.447-1-1-1H8C7.447,5,7,5.447,7,6v18c0,0.553,0.447,1,1,1h3
		C11.553,25,12,24.553,12,24z M23,24V6c0-0.553-0.447-1-1-1h-3c-0.553,0-1,0.447-1,1v18c0,0.553,0.447,1,1,1h3
		C22.553,25,23,24.553,23,24z"/>
	<path fill="#282828" d="M12,24V6c0-0.553-0.447-1-1-1H8C7.447,5,7,5.447,7,6v18c0,0.553,0.447,1,1,1h3C11.553,25,12,24.553,12,24z
		 M23,24V6c0-0.553-0.447-1-1-1h-3c-0.553,0-1,0.447-1,1v18c0,0.553,0.447,1,1,1h3C22.553,25,23,24.553,23,24z"/>
</g>
</svg>
