<?xml version="1.0" encoding="utf-8"?>
<!-- Generator: Adobe Illustrator 15.1.0, SVG Export Plug-In . SVG Version: 6.00 Build 0)  -->
<!DOCTYPE svg PUBLIC "-//W3C//DTD SVG 1.1//EN" "http://www.w3.org/Graphics/SVG/1.1/DTD/svg11.dtd">
<svg version="1.1" id="Layer_1" xmlns="http://www.w3.org/2000/svg" xmlns:xlink="http://www.w3.org/1999/xlink" x="0px" y="0px"
	 width="30px" height="30px" viewBox="0 0 30 30" enable-background="new 0 0 30 30" xml:space="preserve">
<path opacity="0.15" enable-background="new    " d="M14,26.584c-0.535,0-1.037-0.207-1.414-0.584L3,16.414
	c-0.779-0.779-0.779-2.049,0-2.828L12.586,4C12.963,3.623,13.465,3.416,14,3.416S15.037,3.623,15.414,4L17,5.586
	c0.779,0.779,0.779,2.049,0,2.828L13.414,12H26c1.104,0,2,0.896,2,2v2c0,1.104-0.896,2-2,2H13.414L17,21.586
	c0.779,0.779,0.779,2.049,0,2.828L15.414,26C15.037,26.377,14.535,26.584,14,26.584L14,26.584z"/>
<path fill="#FFFFFF" enable-background="new    " d="M26,14H11l5.293-5.293c0.389-0.388,0.389-1.025,0-1.414l-1.586-1.586
	c-0.389-0.388-1.025-0.388-1.414,0l-9.586,9.586c-0.389,0.389-0.389,1.026,0,1.415l9.586,9.586c0.389,0.389,1.025,0.389,1.414,0
	l1.586-1.586c0.389-0.389,0.389-1.025,0-1.414L11,18h15c0.55,0,1-0.449,1-1v-2C27,14.451,26.55,14,26,14z"/>
<path fill="#282828" d="M26,13H11l5.293-5.293c0.389-0.388,0.389-1.025,0-1.414l-1.586-1.586c-0.389-0.388-1.025-0.388-1.414,0
	l-9.586,9.586c-0.389,0.389-0.389,1.026,0,1.414l9.586,9.586c0.389,0.389,1.025,0.389,1.414,0l1.586-1.586
	c0.389-0.389,0.389-1.025,0-1.414L11,17h15c0.55,0,1-0.45,1-1v-2C27,13.451,26.55,13,26,13z"/>
<rect fill="none" width="30" height="30"/>
</svg>
