<?xml version="1.0" encoding="utf-8"?>
<!-- Generator: Adobe Illustrator 15.0.2, SVG Export Plug-In . SVG Version: 6.00 Build 0)  -->
<!DOCTYPE svg PUBLIC "-//W3C//DTD SVG 1.1//EN" "http://www.w3.org/Graphics/SVG/1.1/DTD/svg11.dtd">
<svg version="1.1" id="Layer_1" xmlns="http://www.w3.org/2000/svg" xmlns:xlink="http://www.w3.org/1999/xlink" x="0px" y="0px"
	 width="70px" height="70px" viewBox="0 0 70 70" enable-background="new 0 0 70 70" xml:space="preserve">
<g>
	<g>
		<rect fill="none" width="70" height="70"/>
		<path fill-opacity="0.05" d="M62,35c0,20.006-6.998,27-27,27C14.992,62,8,55.006,8,35C8,14.998,14.992,8,35,8
			C55.002,8,62,14.998,62,35"/>
		<linearGradient id="SVGID_1_" gradientUnits="userSpaceOnUse" x1="35.0005" y1="61.5" x2="35.0005" y2="8.5005">
			<stop  offset="0" style="stop-color:#CCCCCC;stop-opacity:0.5"/>
			<stop  offset="0.0234" style="stop-color:#CECECE;stop-opacity:0.5094"/>
			<stop  offset="0.404" style="stop-color:#E9E9E9;stop-opacity:0.6616"/>
			<stop  offset="0.7418" style="stop-color:#F9F9F9;stop-opacity:0.7967"/>
			<stop  offset="1" style="stop-color:#FFFFFF;stop-opacity:0.9"/>
		</linearGradient>
		<path fill="url(#SVGID_1_)" d="M35,8.5C15.186,8.5,8.5,15.188,8.5,35S15.186,61.5,35,61.5c19.812,0,26.5-6.688,26.5-26.5
			S54.812,8.5,35,8.5z"/>
		<linearGradient id="SVGID_2_" gradientUnits="userSpaceOnUse" x1="35.0005" y1="35.4995" x2="35.0005" y2="8.5">
			<stop  offset="0" style="stop-color:#FFFFFF;stop-opacity:0"/>
			<stop  offset="1" style="stop-color:#FFFFFF"/>
		</linearGradient>
		<path fill="url(#SVGID_2_)" fill-opacity="0.15" d="M35,9.5c19.643,0,26.381,6.58,26.494,26c0.002-0.169,0.006-0.33,0.006-0.5
			c0-19.812-6.688-26.5-26.5-26.5C15.186,8.5,8.5,15.188,8.5,35c0,0.17,0.004,0.331,0.006,0.5C8.619,16.08,15.355,9.5,35,9.5z"/>
		<linearGradient id="SVGID_3_" gradientUnits="userSpaceOnUse" x1="35.0005" y1="61.5" x2="35.0005" y2="34.5005">
			<stop  offset="0" style="stop-color:#000000"/>
			<stop  offset="1" style="stop-color:#000000;stop-opacity:0"/>
		</linearGradient>
		<path fill="url(#SVGID_3_)" fill-opacity="0.15" d="M35,60.499c-19.643,0-26.381-6.581-26.494-25.999
			C8.504,34.668,8.5,34.83,8.5,35c0,19.812,6.686,26.5,26.5,26.5c19.812,0,26.5-6.688,26.5-26.5c0-0.17-0.004-0.332-0.006-0.5
			C61.381,53.918,54.643,60.499,35,60.499z"/>
	</g>
	<path fill="#282828" d="M35.031,22.723c3.961,0,6.898,2.046,6.898,6.205c0,2.574-1.023,4.62-3.531,5.544
		c2.838,0.892,3.928,3.169,3.928,6.007c0,4.456-2.871,6.799-7.359,6.799c-4.424,0-7.295-2.376-7.295-6.799
		c0-2.739,1.123-5.215,3.928-6.007c-2.508-0.924-3.498-2.97-3.498-5.544C28.102,24.769,31.039,22.723,35.031,22.723z M34.967,35.693
		c-2.74,0-3.83,1.914-3.83,4.488c0,2.607,0.957,4.785,3.83,4.785c2.969,0,3.895-2.078,3.895-4.785
		C38.861,37.641,37.605,35.693,34.967,35.693z M34.967,25.033c-2.543,0-3.467,1.881-3.467,4.191s1.023,4.191,3.467,4.191
		c2.508,0,3.564-1.815,3.564-4.191C38.531,26.748,37.605,25.033,34.967,25.033z"/>
</g>
</svg>
