<?xml version="1.0" encoding="utf-8"?>
<!-- Generator: Adobe Illustrator 15.0.0, SVG Export Plug-In  -->
<!DOCTYPE svg PUBLIC "-//W3C//DTD SVG 1.1//EN" "http://www.w3.org/Graphics/SVG/1.1/DTD/svg11.dtd" [
	<!ENTITY ns_flows "http://ns.adobe.com/Flows/1.0/">
]>
<svg version="1.1"
	 xmlns="http://www.w3.org/2000/svg" xmlns:xlink="http://www.w3.org/1999/xlink" xmlns:a="http://ns.adobe.com/AdobeSVGViewerExtensions/3.0/"
	 x="0px" y="0px" width="70px" height="70px" viewBox="0 0 70 70" enable-background="new 0 0 70 70" xml:space="preserve">
<defs>
</defs>
<rect fill="none" width="70" height="70"/>
<path fill-opacity="0.05" d="M62,35c0,20.006-6.998,27-27,27C14.992,62,8,55.006,8,35C8,14.998,14.992,8,35,8
	C55.002,8,62,14.998,62,35"/>
<linearGradient id="SVGID_1_" gradientUnits="userSpaceOnUse" x1="35.0747" y1="9.3799" x2="35.0747" y2="62.3804" gradientTransform="matrix(1 0 0 -1 -0.0752 70.8799)">
	<stop  offset="0" style="stop-color:#CCCCCC;stop-opacity:0.5"/>
	<stop  offset="0.0234" style="stop-color:#CECECE;stop-opacity:0.5094"/>
	<stop  offset="0.404" style="stop-color:#E9E9E9;stop-opacity:0.6616"/>
	<stop  offset="0.7418" style="stop-color:#F9F9F9;stop-opacity:0.7967"/>
	<stop  offset="1" style="stop-color:#FFFFFF;stop-opacity:0.9"/>
</linearGradient>
<path fill="url(#SVGID_1_)" d="M35,8.5C15.187,8.5,8.5,15.188,8.5,35c0,19.813,6.687,26.5,26.5,26.5c19.813,0,26.5-6.688,26.5-26.5
	C61.5,15.188,54.813,8.5,35,8.5z"/>
<linearGradient id="SVGID_2_" gradientUnits="userSpaceOnUse" x1="35.0752" y1="35.3799" x2="35.0752" y2="62.3799" gradientTransform="matrix(1 0 0 -1 -0.0752 70.8799)">
	<stop  offset="0" style="stop-color:#FFFFFF;stop-opacity:0"/>
	<stop  offset="1" style="stop-color:#FFFFFF"/>
</linearGradient>
<path fill="url(#SVGID_2_)" fill-opacity="0.15" d="M35,9.5c19.643,0,26.381,6.58,26.494,26c0.002-0.169,0.006-0.33,0.006-0.5
	c0-19.812-6.688-26.5-26.5-26.5C15.187,8.5,8.5,15.188,8.5,35c0,0.17,0.004,0.331,0.006,0.5C8.619,16.08,15.354,9.5,35,9.5z"/>
<linearGradient id="SVGID_3_" gradientUnits="userSpaceOnUse" x1="35.0752" y1="9.3799" x2="35.0752" y2="36.3799" gradientTransform="matrix(1 0 0 -1 -0.0752 70.8799)">
	<stop  offset="0" style="stop-color:#000000"/>
	<stop  offset="1" style="stop-color:#000000;stop-opacity:0"/>
</linearGradient>
<path fill="url(#SVGID_3_)" fill-opacity="0.15" d="M35,60.499c-19.644,0-26.381-6.581-26.494-25.999C8.504,34.668,8.5,34.83,8.5,35
	c0,19.813,6.687,26.5,26.5,26.5c19.813,0,26.5-6.688,26.5-26.5c0-0.17-0.004-0.332-0.006-0.5C61.381,53.918,54.643,60.499,35,60.499
	z"/>
<path fill="#282828" d="M33.049,47.379H19.815v-2.311h5.017V26.387l-5.017,1.222v-2.31l6.634-2.146h1.815v21.915h4.785V47.379z"/>
<path fill="#282828" d="M43.164,47.277c-6.533,0-7.129-6.402-7.129-12.574c0-5.578,0.76-11.98,7.194-11.98
	c6.338,0,7.031,6.369,7.031,11.98C50.261,40.875,49.634,47.277,43.164,47.277z M43.164,25.033c-3.332,0-3.629,4.719-3.629,9.67
	c0,5.939,0.395,10.264,3.629,10.264c3.202,0,3.597-4.322,3.597-10.264C46.761,29.785,46.431,25.033,43.164,25.033z"/>
</svg>
