<?xml version="1.0" encoding="utf-8"?>
<!-- Generator: Adobe Illustrator 15.0.2, SVG Export Plug-In . SVG Version: 6.00 Build 0)  -->
<!DOCTYPE svg PUBLIC "-//W3C//DTD SVG 1.1//EN" "http://www.w3.org/Graphics/SVG/1.1/DTD/svg11.dtd">
<svg version="1.1" id="Layer_1" xmlns="http://www.w3.org/2000/svg" xmlns:xlink="http://www.w3.org/1999/xlink" x="0px" y="0px"
	 width="70px" height="70px" viewBox="0 0 70 70" enable-background="new 0 0 70 70" xml:space="preserve">
<g>
	<g>
		<rect fill="none" width="70" height="69.999"/>
		<path fill-opacity="0.05" d="M62,34.999c0,20.006-6.998,27-27,27c-20.008,0-27-6.994-27-27C8,14.998,14.992,8,35,8
			C55.002,8,62,14.998,62,34.999"/>
		<linearGradient id="SVGID_1_" gradientUnits="userSpaceOnUse" x1="35.0005" y1="61.499" x2="35.0005" y2="8.5005">
			<stop  offset="0" style="stop-color:#CCCCCC;stop-opacity:0.5"/>
			<stop  offset="0.0234" style="stop-color:#CECECE;stop-opacity:0.5094"/>
			<stop  offset="0.404" style="stop-color:#E9E9E9;stop-opacity:0.6616"/>
			<stop  offset="0.7418" style="stop-color:#F9F9F9;stop-opacity:0.7967"/>
			<stop  offset="1" style="stop-color:#FFFFFF;stop-opacity:0.9"/>
		</linearGradient>
		<path fill="url(#SVGID_1_)" d="M35,8.5c-19.814,0-26.5,6.687-26.5,26.499c0,19.813,6.686,26.5,26.5,26.5
			c19.812,0,26.5-6.687,26.5-26.5C61.5,15.187,54.812,8.5,35,8.5z"/>
		<linearGradient id="SVGID_2_" gradientUnits="userSpaceOnUse" x1="35.0005" y1="35.499" x2="35.0005" y2="8.5">
			<stop  offset="0" style="stop-color:#FFFFFF;stop-opacity:0"/>
			<stop  offset="1" style="stop-color:#FFFFFF"/>
		</linearGradient>
		<path fill="url(#SVGID_2_)" fill-opacity="0.15" d="M35,9.499c19.643,0,26.381,6.58,26.494,26c0.002-0.168,0.006-0.33,0.006-0.5
			C61.5,15.187,54.812,8.5,35,8.5c-19.814,0-26.5,6.687-26.5,26.499c0,0.17,0.004,0.332,0.006,0.5
			C8.619,16.079,15.355,9.499,35,9.499z"/>
		<linearGradient id="SVGID_3_" gradientUnits="userSpaceOnUse" x1="35.0005" y1="61.499" x2="35.0005" y2="34.4995">
			<stop  offset="0" style="stop-color:#000000"/>
			<stop  offset="1" style="stop-color:#000000;stop-opacity:0"/>
		</linearGradient>
		<path fill="url(#SVGID_3_)" fill-opacity="0.15" d="M35,60.499c-19.643,0-26.381-6.581-26.494-26
			c-0.002,0.168-0.006,0.33-0.006,0.5c0,19.813,6.686,26.5,26.5,26.5c19.812,0,26.5-6.687,26.5-26.5c0-0.17-0.004-0.332-0.006-0.5
			C61.381,53.918,54.643,60.499,35,60.499z"/>
	</g>
	<path fill="#282828" d="M32.459,31.731c0.494-0.032,1.088-0.032,1.617-0.032c4.686,0,7.492,2.409,7.492,7.327
		c0,5.445-2.707,8.119-8.219,8.119c-1.584,0-3.367-0.298-4.918-0.727v-2.476c1.451,0.363,3.068,0.792,4.588,0.792
		c3.795,0,4.982-2.145,4.982-5.61c0-3.498-1.947-5.017-5.312-5.017c-1.09,0-2.477,0.065-3.531,0.165v-11.42h11.881v2.409h-8.58
		V31.731z"/>
</g>
</svg>
