<?xml version="1.0" encoding="utf-8"?>
<!-- Generator: Adobe Illustrator 15.0.2, SVG Export Plug-In . SVG Version: 6.00 Build 0)  -->
<!DOCTYPE svg PUBLIC "-//W3C//DTD SVG 1.1//EN" "http://www.w3.org/Graphics/SVG/1.1/DTD/svg11.dtd">
<svg version="1.1" id="Layer_1" xmlns="http://www.w3.org/2000/svg" xmlns:xlink="http://www.w3.org/1999/xlink" x="0px" y="0px"
	 width="70px" height="70px" viewBox="0 0 70 70" enable-background="new 0 0 70 70" xml:space="preserve">
<g>
	<g>
		<rect fill="none" width="70" height="70"/>
		<path fill-opacity="0.05" d="M62,35c0,20.006-6.998,27-27,27C14.994,62,8,55.006,8,35C8,14.998,14.994,8,35,8
			C55.002,8,62,14.998,62,35"/>
		<linearGradient id="SVGID_1_" gradientUnits="userSpaceOnUse" x1="35.0005" y1="61.5" x2="35.0005" y2="8.5005">
			<stop  offset="0" style="stop-color:#CCCCCC;stop-opacity:0.5"/>
			<stop  offset="0.0234" style="stop-color:#CECECE;stop-opacity:0.5094"/>
			<stop  offset="0.404" style="stop-color:#E9E9E9;stop-opacity:0.6616"/>
			<stop  offset="0.7418" style="stop-color:#F9F9F9;stop-opacity:0.7967"/>
			<stop  offset="1" style="stop-color:#FFFFFF;stop-opacity:0.9"/>
		</linearGradient>
		<path fill="url(#SVGID_1_)" d="M35,8.5C15.188,8.5,8.5,15.188,8.5,35S15.188,61.5,35,61.5c19.814,0,26.5-6.688,26.5-26.5
			S54.814,8.5,35,8.5z"/>
		<linearGradient id="SVGID_2_" gradientUnits="userSpaceOnUse" x1="35.0005" y1="35.4995" x2="35.0005" y2="8.5">
			<stop  offset="0" style="stop-color:#FFFFFF;stop-opacity:0"/>
			<stop  offset="1" style="stop-color:#FFFFFF"/>
		</linearGradient>
		<path fill="url(#SVGID_2_)" fill-opacity="0.15" d="M35,9.5c19.645,0,26.381,6.58,26.494,26c0.002-0.169,0.006-0.33,0.006-0.5
			c0-19.812-6.686-26.5-26.5-26.5C15.188,8.5,8.5,15.188,8.5,35c0,0.17,0.004,0.331,0.006,0.5C8.619,16.08,15.357,9.5,35,9.5z"/>
		<linearGradient id="SVGID_3_" gradientUnits="userSpaceOnUse" x1="35.0005" y1="61.5" x2="35.0005" y2="34.5005">
			<stop  offset="0" style="stop-color:#000000"/>
			<stop  offset="1" style="stop-color:#000000;stop-opacity:0"/>
		</linearGradient>
		<path fill="url(#SVGID_3_)" fill-opacity="0.15" d="M35,60.499c-19.643,0-26.381-6.581-26.494-25.999
			C8.504,34.668,8.5,34.83,8.5,35c0,19.812,6.688,26.5,26.5,26.5c19.814,0,26.5-6.688,26.5-26.5c0-0.17-0.004-0.332-0.006-0.5
			C61.381,53.918,54.643,60.499,35,60.499z"/>
	</g>
	<path fill="#282828" d="M33.664,25.131c-1.584,0-3.004,0.363-4.621,0.793v-2.442c1.684-0.462,3.434-0.759,5.182-0.759
		c4.027,0,7.031,1.484,7.031,5.94c0,2.706-1.65,4.852-4.258,5.61c2.971,0.496,4.588,2.674,4.588,5.611
		c0,5.248-3.104,7.393-8.119,7.393c-1.717,0-3.4-0.264-5.051-0.759v-2.442c1.85,0.43,3.367,0.792,5.084,0.792
		c3.135,0,4.521-1.617,4.521-4.653c0-4.191-2.541-4.753-7.725-4.753v-2.31c4.555,0,7.395-0.265,7.395-4.159
		C37.691,26.32,36.305,25.131,33.664,25.131z"/>
</g>
</svg>
