<?xml version="1.0" encoding="utf-8"?>
<!-- Generator: Adobe Illustrator 15.0.2, SVG Export Plug-In . SVG Version: 6.00 Build 0)  -->
<!DOCTYPE svg PUBLIC "-//W3C//DTD SVG 1.1//EN" "http://www.w3.org/Graphics/SVG/1.1/DTD/svg11.dtd">
<svg version="1.1" id="Layer_1" xmlns="http://www.w3.org/2000/svg" xmlns:xlink="http://www.w3.org/1999/xlink" x="0px" y="0px"
	 width="30px" height="30px" viewBox="0 0 30 30" enable-background="new 0 0 30 30" xml:space="preserve">
<g id="DO_NOT_EDIT_-_BOUNDING_BOX">
	<rect id="BOUNDING_BOX" fill="none" width="30" height="30"/>
</g>
<path opacity="0.15" d="M6,29c-1.654,0-3-1.346-3-3V13c0-1.654,1.346-3,3-3V8c0-3.86,3.14-7,7-7h4c3.859,0,7,3.14,7,7v2
	c1.654,0,3,1.346,3,3v13c0,1.654-1.346,3-3,3H6z M15,16.5c-0.827,0-1.5,0.673-1.5,1.5c0,0.594,0.354,1.133,0.902,1.373
	c0.363,0.16,0.598,0.52,0.598,0.916c0-0.396,0.235-0.756,0.598-0.916C16.146,19.133,16.5,18.594,16.5,18
	C16.5,17.173,15.827,16.5,15,16.5z M19,10V8c0-1.103-0.897-2-2-2h-4c-1.103,0-2,0.897-2,2v2H19z"/>
<path fill="#FFFFFF" d="M24,12h-1V9c0-3.3-2.701-6-6-6h-4C9.699,3,7,5.7,7,9v3H6c-1.1,0-2,0.9-2,2v13c0,1.1,0.9,2,2,2h18
	c1.1,0,2-0.9,2-2V14C26,12.9,25.1,12,24,12z M16,21.289V25h-2v-3.711c-0.881-0.387-1.5-1.266-1.5-2.289c0-1.381,1.121-2.5,2.5-2.5
	s2.5,1.119,2.5,2.5C17.5,20.023,16.881,20.902,16,21.289z M20,12H10V9c0-1.654,1.346-3,3-3h4c1.654,0,3,1.346,3,3V12z"/>
<path fill="#282828" d="M24,11h-1V8c0-3.3-2.701-6-6-6h-4C9.699,2,7,4.7,7,8v3H6c-1.1,0-2,0.9-2,2v13c0,1.1,0.9,2,2,2h18
	c1.1,0,2-0.9,2-2V13C26,11.9,25.1,11,24,11z M16,20.289V24h-2v-3.711c-0.881-0.387-1.5-1.266-1.5-2.289c0-1.381,1.121-2.5,2.5-2.5
	s2.5,1.119,2.5,2.5C17.5,19.023,16.881,19.902,16,20.289z M20,11H10V8c0-1.654,1.346-3,3-3h4c1.654,0,3,1.346,3,3V11z"/>
<rect fill="none" width="30" height="30"/>
</svg>
