<?xml version="1.0" encoding="utf-8"?>
<!-- Generator: Adobe Illustrator 15.0.2, SVG Export Plug-In . SVG Version: 6.00 Build 0)  -->
<!DOCTYPE svg PUBLIC "-//W3C//DTD SVG 1.1//EN" "http://www.w3.org/Graphics/SVG/1.1/DTD/svg11.dtd">
<svg version="1.1" id="Layer_1" xmlns="http://www.w3.org/2000/svg" xmlns:xlink="http://www.w3.org/1999/xlink" x="0px" y="0px"
	 width="30px" height="30px" viewBox="0 0 30 30" enable-background="new 0 0 30 30" xml:space="preserve">
<path fill-opacity="0.15" d="M1,10V6c0-1.103,0.897-2,2-2h2.586c0.265,0,0.52,0.105,0.707,0.293l7.291,7.293
	c0.391,0.391,0.391,1.023,0,1.414l-4.231,4.232c-0.188,0.188-0.442,0.293-0.707,0.293s-0.52-0.105-0.707-0.293l-6.376-6.379
	C1.233,10.686,1,10.373,1,10z M7.232,17.939l-4.525-4.525C2.516,13.223,2.26,13.121,2,13.121c-0.129,0-0.259,0.025-0.383,0.076
	C1.244,13.352,1,13.717,1,14.121v9.051c0,0.404,0.244,0.77,0.617,0.924C1.741,24.146,1.871,24.172,2,24.172
	c0.26,0,0.516-0.102,0.707-0.293l4.525-4.525C7.623,18.963,7.623,18.33,7.232,17.939z M13.586,11.586
	c0.195,0.195,0.451,0.293,0.707,0.293s0.512-0.098,0.707-0.293l5.879-5.879c0.286-0.286,0.372-0.716,0.217-1.09
	C20.941,4.244,20.576,4,20.172,4H8.414C8.01,4,7.645,4.244,7.49,4.617c-0.155,0.374-0.069,0.804,0.217,1.09L13.586,11.586z M27,4
	h-1.172c-0.266,0-0.52,0.105-0.707,0.293l-5,5c-0.391,0.391-0.391,1.023,0,1.414l7.172,7.172c0.191,0.191,0.447,0.293,0.707,0.293
	c0.129,0,0.259-0.023,0.383-0.076C28.757,17.941,29,17.576,29,17.172V6C29,4.897,28.104,4,27,4z M10.062,20.768
	c-0.188-0.188-0.441-0.293-0.707-0.293c-0.265,0-0.52,0.105-0.707,0.293l-3.527,3.525c-0.286,0.286-0.372,0.716-0.217,1.09
	C5.059,25.756,5.424,26,5.828,26h7.051c0.404,0,0.769-0.243,0.924-0.617c0.155-0.374,0.069-0.804-0.217-1.09L10.062,20.768z
	 M23.5,16.914c-0.188-0.188-0.441-0.293-0.707-0.293c-0.26,0-0.51,0.102-0.695,0.281c0.379-0.392,0.375-1.017-0.012-1.402
	l-3.379-3.379c-0.188-0.188-0.441-0.293-0.707-0.293s-0.52,0.105-0.707,0.293l-6.524,6.525c-0.391,0.391-0.391,1.022,0,1.414
	l3.379,3.379c0.188,0.188,0.442,0.293,0.707,0.293c0.253,0,0.497-0.097,0.681-0.269c-0.366,0.392-0.358,1.007,0.024,1.39
	l0.854,0.854C16.602,25.895,16.855,26,17.121,26H27c1.104,0,2-0.896,2-2v-1.172c0-0.266-0.105-0.52-0.293-0.707L23.5,16.914z"/>
<g id="DO_NOT_EDIT_-_BOUNDING_BOX">
	<rect id="BOUNDING_BOX" fill="none" width="30" height="30"/>
</g>
<path fill="#FFFFFF" d="M5.828,26h7.051l-3.524-3.525L5.828,26z M8.646,17.525l4.231-4.232L5.586,6H3C2.45,6,2,6.45,2,7v4
	l0.062-0.061L8.646,17.525z M20.172,6H8.414l5.879,5.879L20.172,6z M2,15.121v9.051l4.525-4.525L2,15.121z M27,6h-1.172l-5,5
	L28,18.172V7C28,6.45,27.551,6,27,6z M16.268,25.146L17.121,26H27c0.551,0,1-0.45,1-1v-1.172l-5.207-5.207L16.268,25.146z
	 M18,13.828l-6.524,6.525l3.379,3.379l6.524-6.525L18,13.828z"/>
<path fill="#282828" d="M5.828,25h7.051l-3.524-3.525L5.828,25z M8.646,16.525l4.231-4.232L5.586,5H3C2.45,5,2,5.45,2,6v4
	l0.062-0.061L8.646,16.525z M20.172,5H8.414l5.879,5.879L20.172,5z M2,14.121v9.051l4.525-4.525L2,14.121z M27,5h-1.172l-5,5
	L28,17.172V6C28,5.45,27.551,5,27,5z M16.268,24.146L17.121,25H27c0.551,0,1-0.45,1-1v-1.172l-5.207-5.207L16.268,24.146z
	 M18,12.828l-6.524,6.525l3.379,3.379l6.524-6.525L18,12.828z"/>
</svg>
