<?xml version="1.0" encoding="utf-8"?>
<!-- Generator: Adobe Illustrator 15.0.2, SVG Export Plug-In . SVG Version: 6.00 Build 0)  -->
<!DOCTYPE svg PUBLIC "-//W3C//DTD SVG 1.1//EN" "http://www.w3.org/Graphics/SVG/1.1/DTD/svg11.dtd">
<svg version="1.1" id="Layer_1" xmlns="http://www.w3.org/2000/svg" xmlns:xlink="http://www.w3.org/1999/xlink" x="0px" y="0px"
	 width="96px" height="96px" viewBox="0 0 96 96" enable-background="new 0 0 96 96" xml:space="preserve">
<g>
	<rect fill="none" width="96" height="96"/>
	<g>
		<path fill-opacity="0.4" d="M88,49c0,29.634-10.363,40-40,40C18.366,89,8,78.634,8,49C8,19.365,18.366,9,48,9
			C77.637,9,88,19.365,88,49z"/>
		
			<linearGradient id="SVGID_1_" gradientUnits="userSpaceOnUse" x1="-126.0005" y1="122.3984" x2="-126.0005" y2="197.2355" gradientTransform="matrix(1 0 0 -1 174 219)">
			<stop  offset="0" style="stop-color:#006325"/>
			<stop  offset="1" style="stop-color:#80C341"/>
		</linearGradient>
		<path fill="url(#SVGID_1_)" d="M88,48c0,29.634-10.363,40-40,40C18.366,88,8,77.634,8,48C8,18.365,18.366,8,48,8
			C77.637,8,88,18.365,88,48z"/>
		
			<linearGradient id="SVGID_2_" gradientUnits="userSpaceOnUse" x1="-300.2749" y1="506.6982" x2="-300.2749" y2="585.9434" gradientTransform="matrix(1 0 0 1 348.2749 -498.4453)">
			<stop  offset="0" style="stop-color:#FFFFFF"/>
			<stop  offset="1" style="stop-color:#FFFFFF;stop-opacity:0"/>
		</linearGradient>
		<path fill="url(#SVGID_2_)" fill-opacity="0.25" d="M48,8C18.366,8,8,18.365,8,48c0,29.634,10.366,40,40,40
			c29.637,0,40-10.366,40-40C88,18.365,77.637,8,48,8z M48,87C18.842,87,9,77.158,9,48S18.842,9,48,9s39,9.842,39,39
			S77.158,87,48,87z"/>
		<path opacity="0.05" d="M68,31.5H28c-4.136,0-7.5,3.364-7.5,7.5v12c0,1.379,1.121,2.5,2.5,2.5h50c1.379,0,2.5-1.121,2.5-2.5V39
			C75.5,34.864,72.136,31.5,68,31.5z M66.5,40.5v5h-7v-5H66.5z M51.5,40.5v5h-7v-5H51.5z"/>
		<path opacity="0.07" d="M68,32H28c-3.859,0-7,3.141-7,7v12c0,1.104,0.897,2,2,2h50c1.103,0,2-0.896,2-2V39
			C75,35.141,71.859,32,68,32z M67,40v6h-8v-6H67z M52,40v6h-8v-6H52z"/>
		<path opacity="0.1" d="M68,32.5H28c-3.584,0-6.5,2.916-6.5,6.5v12c0,0.827,0.673,1.5,1.5,1.5h50c0.827,0,1.5-0.673,1.5-1.5V39
			C74.5,35.416,71.584,32.5,68,32.5z M67.5,39.5v7h-9v-7H67.5z M52.5,39.5v7h-9v-7H52.5z"/>
		<path opacity="0.15" d="M68,33H28c-3.309,0-6,2.691-6,6v12c0,0.551,0.448,1,1,1h50c0.552,0,1-0.449,1-1V39
			C74,35.691,71.309,33,68,33z M68,39v8H58v-8H68z M53,39v8H43v-8H53z"/>
		<path opacity="0.15" d="M68,33.5H28c-3.032,0-5.5,2.467-5.5,5.5v12c0,0.276,0.224,0.5,0.5,0.5h50c0.276,0,0.5-0.224,0.5-0.5V39
			C73.5,35.967,71.032,33.5,68,33.5z M68,38.5c0.275,0,0.5,0.225,0.5,0.5v8.5h-11v-9H68z M53.5,38.5v9h-11v-9H53.5z"/>
		<linearGradient id="SVGID_3_" gradientUnits="userSpaceOnUse" x1="48.0005" y1="50" x2="48.0005" y2="33.0005">
			<stop  offset="0" style="stop-color:#D0CBC5"/>
			<stop  offset="0.5031" style="stop-color:#FAFCEF"/>
			<stop  offset="0.9693" style="stop-color:#FFFFFF"/>
			<stop  offset="1" style="stop-color:#FFFFFF"/>
		</linearGradient>
		<path fill="url(#SVGID_3_)" d="M68,33H28c-2.757,0-5,2.243-5,5v12h50V38C73,35.243,70.757,33,68,33z M42,47V37h12v10H42z M57,47
			V37h11c0.55,0,1,0.45,1,1v9H57z"/>
		<path fill="#FFFFFF" d="M57,48v-1h12v1H57z M54,48v-1H42v1H54z M68,33H28c-2.757,0-5,2.243-5,5v1c0-2.757,2.243-5,5-5h40
			c2.757,0,5,2.243,5,5v-1C73,35.243,70.757,33,68,33z"/>
		<linearGradient id="SVGID_4_" gradientUnits="userSpaceOnUse" x1="48.0005" y1="50" x2="48.0005" y2="36.0005">
			<stop  offset="0" style="stop-color:#000000"/>
			<stop  offset="1" style="stop-color:#000000;stop-opacity:0"/>
		</linearGradient>
		<path fill="url(#SVGID_4_)" fill-opacity="0.06" d="M54,36v1H42v-1H54z M23,50h50v-1H23V50z M68,36H57v1h11c0.55,0,1,0.45,1,1v-1
			C69,36.45,68.55,36,68,36z"/>
	</g>
</g>
</svg>
