<?xml version="1.0" encoding="utf-8"?>
<!-- Generator: Adobe Illustrator 15.0.2, SVG Export Plug-In . SVG Version: 6.00 Build 0)  -->
<!DOCTYPE svg PUBLIC "-//W3C//DTD SVG 1.1//EN" "http://www.w3.org/Graphics/SVG/1.1/DTD/svg11.dtd">
<svg version="1.1" id="Layer_1" xmlns="http://www.w3.org/2000/svg" xmlns:xlink="http://www.w3.org/1999/xlink" x="0px" y="0px"
	 width="96px" height="96px" viewBox="0 0 96 96" enable-background="new 0 0 96 96" xml:space="preserve">
<g>
	<path fill-opacity="0.4" d="M88.023,49c0,29.633-10.363,40-40,40c-29.635,0-40-10.367-40-40c0-29.635,10.365-40,40-40
		C77.66,9,88.023,19.365,88.023,49z"/>
	
		<linearGradient id="SVGID_1_" gradientUnits="userSpaceOnUse" x1="-300.022" y1="595.6016" x2="-300.022" y2="520.7645" gradientTransform="matrix(1 0 0 1 348 -499)">
		<stop  offset="0" style="stop-color:#006325"/>
		<stop  offset="1" style="stop-color:#80C341"/>
	</linearGradient>
	<path fill="url(#SVGID_1_)" d="M87.978,48c0,29.634-10.362,40-40,40c-29.634,0-40-10.366-40-40c0-29.635,10.366-40,40-40
		C77.615,8,87.978,18.365,87.978,48z"/>
	
		<linearGradient id="SVGID_2_" gradientUnits="userSpaceOnUse" x1="66.958" y1="1525.2734" x2="66.958" y2="1604.5195" gradientTransform="matrix(1 0 0 1 -18.9805 -1517.0195)">
		<stop  offset="0" style="stop-color:#FFFFFF"/>
		<stop  offset="1" style="stop-color:#FFFFFF;stop-opacity:0"/>
	</linearGradient>
	<path fill="url(#SVGID_2_)" fill-opacity="0.25" d="M47.978,8c-29.636,0-40,10.365-40,40c0,29.633,10.364,40,40,40
		c29.635,0,39.999-10.367,39.999-40C87.977,18.365,77.613,8,47.978,8z M47.978,87c-29.158,0-39-9.842-39-39s9.842-39,39-39
		c29.157,0,38.999,9.842,38.999,39C86.977,77.159,77.134,87,47.978,87z"/>
	<rect fill="none" width="96" height="96"/>
	<path fill-opacity="0.05" d="M72.499,42.105c0-0.021,0.001-6.945,0.001-6.945c0-6.43-5.23-11.66-11.661-11.66H32.16
		c-6.43,0-11.66,5.23-11.66,11.66v28.242c0,1.033,0.62,1.945,1.579,2.324c0.295,0.116,0.604,0.176,0.921,0.176
		c0.685,0,1.35-0.287,1.826-0.791l4.92-5.258H38.5v0.672c0,5.142,4.183,9.324,9.323,9.324h22.88l3.479,3.715
		c0.471,0.5,1.135,0.787,1.819,0.787c0.315,0,0.625-0.06,0.915-0.176c0.963-0.378,1.585-1.291,1.585-2.324V50.822
		C78.501,46.921,76.105,43.469,72.499,42.105z"/>
	<path fill-opacity="0.07" d="M71.959,42.445C71.984,42.312,72,42.178,72,42.042V35.16C72,29.007,66.993,24,60.839,24H32.16
		C26.007,24,21,29.007,21,35.16v28.242c0,0.828,0.497,1.558,1.263,1.858c0.235,0.095,0.483,0.142,0.737,0.142
		c0.548,0,1.079-0.229,1.461-0.633l5.068-5.416H39v1.172c0,4.865,3.958,8.824,8.823,8.824H70.92l3.624,3.873
		c0.378,0.398,0.908,0.629,1.457,0.629c0.254,0,0.502-0.047,0.731-0.141c0.771-0.303,1.269-1.031,1.269-1.859V50.822
		C78.001,46.993,75.542,43.624,71.959,42.445z"/>
	<path fill-opacity="0.1" d="M71.309,42.774c0.125-0.222,0.191-0.474,0.191-0.732V35.16c0-5.878-4.783-10.66-10.661-10.66H32.16
		c-5.878,0-10.66,4.782-10.66,10.66v28.242c0,0.621,0.373,1.168,0.948,1.396c0.177,0.07,0.362,0.104,0.552,0.104
		c0.411,0,0.81-0.172,1.096-0.476l5.217-5.573H39c0.176,0,0.344-0.029,0.5-0.086v1.758c0,4.59,3.734,8.324,8.323,8.324h23.313
		l3.771,4.028c0.282,0.302,0.682,0.474,1.093,0.474c0.188,0,0.374-0.035,0.55-0.104c0.577-0.228,0.95-0.774,0.95-1.396V50.822
		C77.501,46.975,74.917,43.718,71.309,42.774z"/>
	<path fill-opacity="0.15" d="M69.96,43.039c0.013,0.001,0.026,0.002,0.04,0.003c0.249,0,0.488-0.093,0.672-0.26
		C70.88,42.594,71,42.324,71,42.042V35.16C71,29.558,66.441,25,60.839,25H32.16C26.558,25,22,29.558,22,35.16v28.242
		c0,0.414,0.249,0.779,0.634,0.931c0.117,0.047,0.241,0.069,0.366,0.069c0.274,0,0.54-0.114,0.73-0.315l5.365-5.731H39
		c0.552,0,1-0.447,1-1v3.17c0,4.314,3.51,7.824,7.823,7.824h23.53l3.918,4.188c0.188,0.2,0.455,0.315,0.729,0.315
		c0.125,0,0.248-0.023,0.366-0.07C76.751,72.632,77,72.266,77,71.854V50.824C77.001,46.772,73.908,43.433,69.96,43.039z"/>
	<path fill-opacity="0.15" d="M47.823,42.5h21.354c0.263,0,0.521,0.016,0.775,0.04c0.016,0.001,0.03,0.002,0.047,0.002
		c0.124,0,0.244-0.046,0.336-0.13c0.104-0.095,0.164-0.229,0.164-0.37V35.16c0-5.326-4.334-9.66-9.661-9.66H32.16
		c-5.326,0-9.66,4.334-9.66,9.66v28.242c0,0.205,0.126,0.391,0.316,0.466c0.06,0.022,0.122,0.034,0.184,0.034
		c0.136,0,0.269-0.055,0.365-0.157l5.514-5.892H39c0.276,0,0.5-0.225,0.5-0.5v-6.531C39.5,46.233,43.234,42.5,47.823,42.5z
		 M69.178,43.5H47.823c-4.038,0-7.323,3.285-7.323,7.322v9.703c0,4.039,3.285,7.324,7.323,7.324H71.57l4.063,4.344
		c0.099,0.104,0.229,0.158,0.365,0.158c0.062,0,0.124-0.013,0.185-0.035c0.189-0.074,0.315-0.26,0.315-0.465V50.822
		C76.501,46.785,73.216,43.5,69.178,43.5z"/>
	
		<linearGradient id="SVGID_3_" gradientUnits="userSpaceOnUse" x1="-301.4995" y1="560.3252" x2="-301.4995" y2="524.7824" gradientTransform="matrix(1 0 0 1 348 -499)">
		<stop  offset="0" style="stop-color:#D0CBC5"/>
		<stop  offset="0.5031" style="stop-color:#FAFCEF"/>
		<stop  offset="0.9693" style="stop-color:#FFFFFF"/>
		<stop  offset="1" style="stop-color:#FFFFFF"/>
	</linearGradient>
	<path fill="url(#SVGID_3_)" d="M39,56.354h-6.84h-3.498L23,62.402V47.193v-4.458V34.16c0-5.057,4.102-9.16,9.16-9.16h28.679
		C65.898,25,70,29.104,70,34.16v6.882C69.729,41.017,69.455,41,69.178,41H47.823C42.958,41,39,44.958,39,49.822V56.354z"/>
	
		<linearGradient id="SVGID_4_" gradientUnits="userSpaceOnUse" x1="-289.4995" y1="569.0498" x2="-289.4995" y2="542.583" gradientTransform="matrix(1 0 0 1 348 -499)">
		<stop  offset="0" style="stop-color:#D0CBC5"/>
		<stop  offset="0.5031" style="stop-color:#FAFCEF"/>
		<stop  offset="0.9693" style="stop-color:#FFFFFF"/>
		<stop  offset="1" style="stop-color:#FFFFFF"/>
	</linearGradient>
	<path fill="url(#SVGID_4_)" d="M41,59.525v-9.703C41,46.056,44.058,43,47.823,43h21.354C72.947,43,76,46.056,76,49.822v6.383v3.32
		v11.326l-4.214-4.502h-2.608h-8.906H47.823C44.058,66.35,41,63.293,41,59.525z"/>
	
		<linearGradient id="SVGID_5_" gradientUnits="userSpaceOnUse" x1="-298.4995" y1="568.9639" x2="-298.4995" y2="539.6463" gradientTransform="matrix(1 0 0 1 348 -499)">
		<stop  offset="0" style="stop-color:#000000"/>
		<stop  offset="1" style="stop-color:#000000;stop-opacity:0"/>
	</linearGradient>
	<path fill="url(#SVGID_5_)" fill-opacity="0.06" d="M32.16,55.354H39v1h-6.84h-3.498L23,62.402v-1l5.662-6.049H32.16L32.16,55.354z
		 M69.18,65.35h-8.906H47.824c-3.766,0-6.823-3.057-6.823-6.824v1c0,3.77,3.058,6.824,6.823,6.824h12.447h8.906h2.608L76,70.854v-1
		l-4.214-4.504H69.18z M47.823,41h21.354c0.277,0,0.552,0.017,0.822,0.042v-1C69.729,40.017,69.455,40,69.178,40H47.823
		C42.958,40,39,43.958,39,48.822v1C39,44.958,42.958,41,47.823,41z"/>
	<path fill="#FFFFFF" d="M23,35.16v-1c0-5.057,4.102-9.16,9.16-9.16h28.679C65.898,25,70,29.104,70,34.16v1
		c0-5.057-4.102-9.16-9.161-9.16H32.16C27.102,26,23,30.104,23,35.16z M69.178,43H47.823C44.058,43,41,46.056,41,49.822v1
		C41,47.056,44.058,44,47.823,44h21.354C72.947,44,76,47.056,76,50.822v-1C76.001,46.056,72.947,43,69.178,43z"/>
</g>
</svg>
