<?xml version="1.0" encoding="utf-8"?>
<!-- Generator: Adobe Illustrator 15.0.2, SVG Export Plug-In . SVG Version: 6.00 Build 0)  -->
<!DOCTYPE svg PUBLIC "-//W3C//DTD SVG 1.1//EN" "http://www.w3.org/Graphics/SVG/1.1/DTD/svg11.dtd">
<svg version="1.1" id="Layer_1" xmlns="http://www.w3.org/2000/svg" xmlns:xlink="http://www.w3.org/1999/xlink" x="0px" y="0px"
	 width="96px" height="96px" viewBox="0 0 96 96" enable-background="new 0 0 96 96" xml:space="preserve">
<g>
	<path fill-opacity="0.4" d="M88,49c0,29.633-10.363,40-40,40C18.366,89,8,78.633,8,49C8,19.365,18.366,9,48,9
		C77.637,9,88,19.365,88,49z"/>
	
		<linearGradient id="SVGID_1_" gradientUnits="userSpaceOnUse" x1="-126.0005" y1="122.3984" x2="-126.0005" y2="197.2355" gradientTransform="matrix(1 0 0 -1 174 219)">
		<stop  offset="0" style="stop-color:#006325"/>
		<stop  offset="1" style="stop-color:#80C341"/>
	</linearGradient>
	<path fill="url(#SVGID_1_)" d="M88,48c0,29.633-10.363,40-40,40C18.366,88,8,77.633,8,48C8,18.365,18.366,8,48,8
		C77.637,8,88,18.365,88,48z"/>
	<rect fill="none" width="96" height="96"/>
	
		<linearGradient id="SVGID_2_" gradientUnits="userSpaceOnUse" x1="-300.2749" y1="506.6982" x2="-300.2749" y2="585.9434" gradientTransform="matrix(1 0 0 1 348.2749 -498.4453)">
		<stop  offset="0" style="stop-color:#FFFFFF"/>
		<stop  offset="1" style="stop-color:#FFFFFF;stop-opacity:0"/>
	</linearGradient>
	<path fill="url(#SVGID_2_)" fill-opacity="0.25" d="M48,8C18.366,8,8,18.365,8,48c0,29.633,10.366,40,40,40
		c29.637,0,40-10.367,40-40C88,18.365,77.637,8,48,8z M48,87C18.842,87,9,77.158,9,48S18.842,9,48,9s39,9.842,39,39S77.158,87,48,87
		z"/>
	<path opacity="0.05" d="M70.152,28.5H25.846c-2.396,0-4.346,1.949-4.346,4.346v33.308c0,2.396,1.949,4.347,4.346,4.347h44.307
		c2.397,0,4.348-1.95,4.348-4.347V32.846C74.5,30.449,72.55,28.5,70.152,28.5z M30.5,50.385V37.5h35v10.99l-7.484-7.482
		c-0.649-0.648-1.515-1.006-2.437-1.006c-0.923,0-1.789,0.358-2.437,1.008l-7.985,7.98l-4.198-4.199c-0.65-0.645-1.514-1-2.433-1
		c-0.915,0-1.781,0.356-2.44,1.006L30.5,50.385z"/>
	<path opacity="0.07" d="M70.152,29H25.846C23.726,29,22,30.725,22,32.846v33.308C22,68.273,23.726,70,25.846,70h44.307
		C72.274,70,74,68.273,74,66.153V32.846C74,30.725,72.274,29,70.152,29z M30,51.592V37h36v12.697l-8.338-8.336
		c-0.555-0.554-1.295-0.859-2.083-0.859c-0.789,0-1.529,0.307-2.083,0.861l-8.339,8.334l-4.551-4.551
		c-0.556-0.552-1.294-0.855-2.08-0.855c-0.783,0-1.523,0.305-2.087,0.859L30,51.592z"/>
	<path opacity="0.1" d="M70.152,29.5H25.846c-1.845,0-3.346,1.5-3.346,3.346v33.308c0,1.845,1.501,3.347,3.346,3.347h44.307
		c1.846,0,3.348-1.502,3.348-3.347V32.846C73.5,31,71.998,29.5,70.152,29.5z M29.5,52.799V36.5h37v14.404l-9.19-9.189
		c-0.461-0.459-1.076-0.713-1.73-0.713c-0.655,0-1.27,0.254-1.729,0.715l-8.692,8.688l-4.903-4.903
		c-0.461-0.458-1.074-0.71-1.728-0.71c-0.65,0-1.266,0.252-1.733,0.713L29.5,52.799z"/>
	<path opacity="0.15" d="M70.152,30H25.846C24.276,30,23,31.276,23,32.846v33.308C23,67.723,24.276,69,25.846,69h44.307
		C71.723,69,73,67.723,73,66.153V32.846C73,31.276,71.723,30,70.152,30z M67,62v1h-1C66.552,63,67,62.551,67,62z M66.707,51.818
		l-9.75-9.748c-0.367-0.366-0.856-0.568-1.378-0.568s-1.011,0.203-1.376,0.568l-9.046,9.041l-5.256-5.256
		c-0.366-0.363-0.854-0.564-1.375-0.564c-0.519,0-1.008,0.2-1.38,0.566l-7.854,7.855C29.104,53.902,29,54.153,29,54.42V36h38v16.525
		C67,52.259,66.896,52.008,66.707,51.818z M30,63h-1v-1C29,62.551,29.448,63,30,63z"/>
	<path opacity="0.15" d="M30,62.5h36c0.276,0,0.5-0.225,0.5-0.5v-9.475c0-0.133-0.053-0.26-0.146-0.354l-9.75-9.748
		c-0.272-0.271-0.637-0.422-1.024-0.422s-0.751,0.15-1.022,0.422l-9.399,9.395l-5.608-5.608c-0.271-0.271-0.634-0.419-1.022-0.419
		c-0.386,0-0.75,0.148-1.026,0.42l-7.854,7.855C29.553,54.16,29.5,54.287,29.5,54.42V62C29.5,62.275,29.724,62.5,30,62.5z
		 M70.152,30.5H25.846c-1.293,0-2.346,1.053-2.346,2.346v33.308c0,1.294,1.053,2.347,2.346,2.347h44.307
		c1.295,0,2.348-1.053,2.348-2.347V32.846C72.5,31.553,71.447,30.5,70.152,30.5z M67.5,63.5h-39v-28h39V63.5z"/>
	<linearGradient id="SVGID_3_" gradientUnits="userSpaceOnUse" x1="48.0005" y1="67" x2="48.0005" y2="30.0005">
		<stop  offset="0" style="stop-color:#D0CBC5"/>
		<stop  offset="0.5031" style="stop-color:#FAFCEF"/>
		<stop  offset="0.9693" style="stop-color:#FFFFFF"/>
		<stop  offset="1" style="stop-color:#FFFFFF"/>
	</linearGradient>
	<path fill="url(#SVGID_3_)" d="M70.152,30H25.846C24.831,30,24,30.832,24,31.846v33.308C24,66.17,24.831,67,25.846,67h44.307
		C71.169,67,72,66.17,72,65.153V31.846C72,30.832,71.169,30,70.152,30z M68,63H28V34h40V63z M66,51.525l-9.75-9.748
		c-0.368-0.367-0.974-0.367-1.34,0l-9.753,9.748l-5.961-5.961c-0.366-0.365-0.972-0.365-1.343,0L30,53.42V61h36V51.525z"/>
	<path fill="#FFFFFF" d="M66,51.525v1l-9.75-9.748c-0.368-0.367-0.974-0.367-1.34,0l-9.753,9.748l-5.961-5.961
		c-0.366-0.365-0.972-0.365-1.343,0L30,54.42v-1l7.854-7.855c0.371-0.365,0.977-0.365,1.343,0l5.961,5.961l9.753-9.748
		c0.366-0.367,0.972-0.367,1.34,0L66,51.525z M70.152,30H25.846C24.831,30,24,30.832,24,31.846v1C24,31.832,24.831,31,25.846,31
		h44.307C71.169,31,72,31.832,72,32.846v-1C72,30.832,71.169,30,70.152,30z M68,64v-1H28v1H68z"/>
	<linearGradient id="SVGID_4_" gradientUnits="userSpaceOnUse" x1="48.0005" y1="67" x2="48.0005" y2="33.0005">
		<stop  offset="0" style="stop-color:#000000"/>
		<stop  offset="1" style="stop-color:#000000;stop-opacity:0"/>
	</linearGradient>
	<path fill="url(#SVGID_4_)" fill-opacity="0.06" d="M30,61v-1h36v1H30z M28,33v1h40v-1H28z M70.152,66H25.846
		C24.831,66,24,65.17,24,64.153v1C24,66.17,24.831,67,25.846,67h44.307C71.169,67,72,66.17,72,65.153v-1
		C72,65.17,71.169,66,70.152,66z"/>
</g>
</svg>
