<?xml version="1.0" encoding="utf-8"?>
<!-- Generator: Adobe Illustrator 15.0.2, SVG Export Plug-In . SVG Version: 6.00 Build 0)  -->
<!DOCTYPE svg PUBLIC "-//W3C//DTD SVG 1.1//EN" "http://www.w3.org/Graphics/SVG/1.1/DTD/svg11.dtd">
<svg version="1.1" id="Layer_1" xmlns="http://www.w3.org/2000/svg" xmlns:xlink="http://www.w3.org/1999/xlink" x="0px" y="0px"
	 width="96px" height="96px" viewBox="0 0 96 96" enable-background="new 0 0 96 96" xml:space="preserve">
<g>
	<path fill-opacity="0.4" d="M88,49c0,29.633-10.363,40-40,40C18.366,89,8,78.633,8,49C8,19.365,18.366,9,48,9
		C77.637,9,88,19.365,88,49z"/>
	
		<linearGradient id="SVGID_1_" gradientUnits="userSpaceOnUse" x1="-126.0005" y1="122.3984" x2="-126.0005" y2="197.2355" gradientTransform="matrix(1 0 0 -1 174 219)">
		<stop  offset="0" style="stop-color:#006325"/>
		<stop  offset="1" style="stop-color:#80C341"/>
	</linearGradient>
	<path fill="url(#SVGID_1_)" d="M88,48c0,29.633-10.363,40-40,40C18.366,88,8,77.633,8,48C8,18.365,18.366,8,48,8
		C77.637,8,88,18.365,88,48z"/>
	<rect fill="none" width="96" height="96"/>
	
		<linearGradient id="SVGID_2_" gradientUnits="userSpaceOnUse" x1="-300.2749" y1="506.6973" x2="-300.2749" y2="585.9434" gradientTransform="matrix(1 0 0 1 348.2749 -498.4453)">
		<stop  offset="0" style="stop-color:#FFFFFF"/>
		<stop  offset="1" style="stop-color:#FFFFFF;stop-opacity:0"/>
	</linearGradient>
	<path fill="url(#SVGID_2_)" fill-opacity="0.25" d="M48,8C18.366,8,8,18.365,8,48c0,29.633,10.366,40,40,40
		c29.637,0,40-10.367,40-40C88,18.365,77.637,8,48,8z M48,87C18.842,87,9,77.158,9,48S18.842,9,48,9s39,9.842,39,39S77.158,87,48,87
		z"/>
	<path opacity="0.05" d="M61.162,47.939c3.354,0,6.502-1.303,8.865-3.668c2.348-2.349,3.711-4.936,3.939-7.482
		c0.176-1.962-0.334-3.848-1.438-5.311c-0.455-0.602-1.135-0.944-1.995-0.993c-0.665,0-1.313,0.271-1.78,0.745l-4.137,4.198
		c-0.924,0.922-1.297,0.969-1.361,0.969c-0.209,0-0.691-0.233-1.803-1.343c-1.773-1.777-1.643-1.908-0.387-3.162l4.207-4.147
		c0.516-0.509,0.785-1.218,0.739-1.948c-0.049-0.723-0.409-1.389-0.989-1.828c-1.274-0.961-2.844-1.469-4.541-1.469
		c-1.951,0-4.967,0.689-8.25,3.974c-2.83,2.831-4.15,7.034-3.479,11.024l-3.587,3.588l-5.561-5.561l-1.923-3.205
		c-0.148-0.248-0.337-0.466-0.561-0.648l-7.191-5.881c-0.445-0.365-1.008-0.567-1.586-0.567c-0.667,0-1.295,0.261-1.768,0.732
		l-2.04,2.038c-0.912,0.912-0.984,2.352-0.168,3.35l5.887,7.195c0.182,0.221,0.399,0.41,0.649,0.561l3.201,1.922l5.563,5.563
		L24.854,61.416l-0.164,0.193c-2.419,2.896-2.231,7.093,0.438,9.762c1.366,1.369,3.186,2.124,5.123,2.124
		c1.695,0,3.332-0.588,4.61-1.656l0.334-0.282l12.742-12.742c0.178,0.331,0.407,0.637,0.674,0.905l13.975,13.975
		c0.734,0.734,1.71,1.14,2.746,1.14c1.037,0,2.014-0.404,2.75-1.14l4.17-4.174c0.75-0.733,1.163-1.716,1.163-2.765
		c0-1.031-0.403-2.006-1.136-2.747L58.3,50.024c-0.269-0.267-0.573-0.491-0.903-0.669l1.602-1.602
		C59.715,47.877,60.441,47.939,61.162,47.939z"/>
	<path opacity="0.07" d="M61.162,47.439c3.219,0,6.242-1.251,8.512-3.521c2.265-2.266,3.576-4.746,3.795-7.174
		c0.164-1.838-0.311-3.601-1.338-4.964c-0.363-0.48-0.905-0.755-1.597-0.795c-0.532,0-1.052,0.218-1.424,0.596l-4.14,4.202
		c-0.741,0.739-1.318,1.114-1.715,1.114c-0.665,0-1.711-1.044-2.157-1.489c-1.868-1.873-1.914-2.344-0.384-3.871l4.207-4.148
		c0.413-0.406,0.629-0.974,0.592-1.558c-0.039-0.579-0.328-1.112-0.791-1.462C63.535,23.474,62.07,23,60.482,23
		c-1.857,0-4.734,0.664-7.896,3.827c-2.791,2.794-4.041,6.925-3.295,10.841l-3.771,3.771c-0.121,0.121-0.224,0.254-0.309,0.398
		l-6.002-6.003l-1.955-3.258c-0.119-0.198-0.27-0.372-0.448-0.519l-7.192-5.881c-0.355-0.293-0.806-0.454-1.268-0.454
		c-0.534,0-1.036,0.208-1.414,0.586l-2.04,2.038c-0.729,0.73-0.787,1.882-0.135,2.68l5.886,7.194c0.146,0.178,0.32,0.329,0.52,0.449
		l3.253,1.953l6.004,6.005c-0.144,0.086-0.278,0.189-0.398,0.31l-14.787,14.8l-0.162,0.191c-2.252,2.697-2.077,6.604,0.408,9.088
		c1.272,1.275,2.965,1.978,4.769,1.978c1.578,0,3.102-0.548,4.289-1.54l0.302-0.252l13.27-13.27
		c0.158,0.535,0.447,1.027,0.854,1.433l13.975,13.975c0.641,0.64,1.49,0.993,2.393,0.993c0.904,0,1.754-0.354,2.396-0.993
		l4.174-4.178c0.652-0.64,1.013-1.494,1.013-2.407c0-0.898-0.351-1.748-0.989-2.394L57.947,50.379
		c-0.406-0.403-0.897-0.691-1.433-0.849l2.315-2.315C59.601,47.363,60.384,47.439,61.162,47.439z M29.688,66.061
		c0.104-0.103,0.239-0.159,0.382-0.159c0.145,0,0.275,0.054,0.375,0.154c0.207,0.207,0.208,0.544,0.002,0.749
		c-0.102,0.102-0.235,0.156-0.377,0.156c-0.143,0-0.276-0.055-0.375-0.154C29.487,66.6,29.485,66.264,29.688,66.061z"/>
	<path opacity="0.1" d="M61.162,46.939c3.086,0,5.982-1.199,8.158-3.375c2.181-2.182,3.443-4.555,3.65-6.865
		c0.153-1.715-0.287-3.354-1.239-4.617c-0.272-0.36-0.675-0.566-1.197-0.597c-0.399,0-0.788,0.163-1.067,0.446l-4.143,4.205
		c-0.861,0.859-1.52,1.261-2.068,1.261c-0.766,0-1.66-0.787-2.512-1.637c-1.95-1.955-2.217-2.745-0.381-4.579l4.207-4.148
		c0.311-0.305,0.473-0.73,0.444-1.168c-0.029-0.435-0.245-0.834-0.594-1.098c-1.099-0.829-2.462-1.268-3.938-1.268
		c-1.762,0-4.502,0.639-7.543,3.681c-2.752,2.754-3.928,6.812-3.104,10.65l-3.961,3.962c-0.264,0.264-0.417,0.607-0.437,0.978
		l-6.625-6.626l-1.986-3.311c-0.089-0.147-0.202-0.278-0.336-0.388l-7.193-5.883c-0.267-0.22-0.604-0.34-0.951-0.34
		c-0.4,0-0.777,0.156-1.061,0.439l-2.04,2.038c-0.547,0.547-0.59,1.412-0.101,2.01l5.886,7.194c0.109,0.134,0.241,0.247,0.39,0.337
		l3.306,1.984l6.627,6.629c-0.369,0.02-0.713,0.173-0.977,0.437l-14.759,14.77l-0.16,0.188c-2.085,2.496-1.922,6.114,0.378,8.414
		c1.178,1.182,2.746,1.831,4.415,1.831c1.461,0,2.872-0.507,3.97-1.425l0.267-0.221l13.989-13.988
		c-0.002,0.037-0.002,0.074-0.002,0.111c0,0.771,0.3,1.496,0.844,2.04l13.975,13.975c0.546,0.546,1.27,0.847,2.039,0.847
		s1.496-0.301,2.043-0.847l4.178-4.182c0.557-0.544,0.862-1.272,0.862-2.05c0-0.766-0.298-1.489-0.843-2.04L57.596,50.734
		c-0.546-0.542-1.27-0.84-2.038-0.84c-0.038,0-0.077,0-0.116,0.002l3.227-3.227C59.489,46.849,60.327,46.939,61.162,46.939z
		 M29.336,65.706c0.198-0.196,0.458-0.305,0.734-0.305c0.277,0,0.536,0.106,0.729,0.301c0.401,0.401,0.402,1.056,0.001,1.456
		c-0.196,0.195-0.455,0.303-0.73,0.303c-0.276,0-0.535-0.106-0.729-0.301C28.938,66.758,28.937,66.105,29.336,65.706z"/>
	<path opacity="0.15" d="M47.208,52.754c-0.042-0.071-0.093-0.137-0.151-0.194l-4.914-4.914c-0.189-0.188-0.44-0.293-0.707-0.293
		s-0.518,0.104-0.707,0.293L26,62.383l-0.158,0.188c-1.918,2.296-1.768,5.624,0.349,7.74c1.083,1.086,2.525,1.684,4.061,1.684
		c1.344,0,2.645-0.469,3.654-1.312l0.229-0.187l14.272-14.271c0.325-0.326,0.387-0.828,0.15-1.221L47.208,52.754z M31.153,67.513
		c-0.29,0.29-0.675,0.448-1.083,0.448c-0.41,0-0.794-0.158-1.083-0.447c-0.597-0.598-0.598-1.568-0.003-2.162
		c0.292-0.291,0.678-0.45,1.086-0.45c0.411,0,0.795,0.159,1.083,0.447C31.749,65.945,31.749,66.916,31.153,67.513z M57.244,51.09
		c-0.452-0.449-1.051-0.695-1.687-0.695c-0.513,0-1.001,0.161-1.437,0.486l-3.199-1.918L38.415,36.455l-2.018-3.363
		c-0.06-0.1-0.135-0.186-0.224-0.258l-7.194-5.885c-0.178-0.146-0.403-0.226-0.633-0.226c-0.267,0-0.518,0.104-0.707,0.293
		l-2.04,2.038c-0.365,0.365-0.394,0.941-0.067,1.34l5.886,7.193c0.073,0.09,0.16,0.165,0.26,0.226l3.359,2.017l12.506,12.507
		l1.915,3.194c-0.312,0.414-0.482,0.916-0.482,1.441c0,0.638,0.248,1.236,0.697,1.687l13.975,13.975
		c0.451,0.451,1.051,0.7,1.686,0.7c0.637,0,1.236-0.248,1.689-0.7l4.182-4.186c0.459-0.45,0.712-1.05,0.712-1.692
		c0-0.633-0.247-1.231-0.696-1.687L57.244,51.09z M71.332,32.383c-0.175-0.232-0.441-0.376-0.798-0.397
		c-0.267,0-0.526,0.108-0.712,0.298l-4.145,4.207c-0.975,0.973-1.722,1.407-2.422,1.407c-0.895,0-1.793-0.714-2.865-1.784
		c-2.09-2.094-2.461-3.208-0.378-5.288l4.207-4.147c0.206-0.204,0.314-0.487,0.296-0.779c-0.02-0.289-0.164-0.557-0.396-0.731
		C63.107,24.404,61.85,24,60.482,24c-1.668,0-4.27,0.613-7.189,3.534c-2.711,2.713-3.816,6.679-2.909,10.455l-4.156,4.157
		c-0.189,0.189-0.293,0.439-0.293,0.707s0.104,0.518,0.293,0.707l4.917,4.917c0.057,0.058,0.121,0.106,0.191,0.15l2.249,1.349
		c0.155,0.092,0.333,0.142,0.514,0.142c0.263,0,0.521-0.106,0.707-0.293l3.704-3.704c0.871,0.211,1.762,0.318,2.652,0.318
		c2.951,0,5.724-1.146,7.805-3.229c2.097-2.098,3.309-4.364,3.506-6.557C72.615,35.064,72.21,33.547,71.332,32.383z"/>
	<path opacity="0.15" d="M46.779,53.01c-0.021-0.035-0.046-0.068-0.075-0.097l-4.914-4.914c-0.094-0.094-0.221-0.146-0.354-0.146
		s-0.26,0.053-0.354,0.146L26.383,62.705l-0.157,0.188c-1.751,2.096-1.614,5.133,0.319,7.066c0.989,0.99,2.306,1.536,3.707,1.536
		c1.227,0,2.419-0.433,3.342-1.204l0.188-0.148l14.272-14.271c0.162-0.162,0.193-0.414,0.075-0.611L46.779,53.01z M31.506,67.867
		c-0.384,0.383-0.895,0.594-1.437,0.594c-0.543,0-1.053-0.211-1.437-0.594c-0.792-0.792-0.792-2.08-0.002-2.871
		c0.387-0.383,0.897-0.595,1.438-0.595c0.545,0,1.054,0.21,1.436,0.594C32.297,65.787,32.297,67.075,31.506,67.867z M70.934,32.685
		c-0.088-0.116-0.221-0.188-0.366-0.198c-0.011,0-0.022-0.001-0.033-0.001c-0.134,0-0.262,0.054-0.356,0.149l-4.146,4.209
		c-1.076,1.074-1.932,1.554-2.775,1.554c-1.066,0-2.059-0.772-3.219-1.931c-2.158-2.162-2.765-3.611-0.375-5.998l4.207-4.147
		c0.104-0.103,0.156-0.244,0.147-0.39c-0.01-0.145-0.082-0.277-0.198-0.365c-0.924-0.697-2.078-1.066-3.336-1.066
		c-1.573,0-4.037,0.588-6.836,3.388c-2.65,2.653-3.693,6.563-2.721,10.202l0.013,0.052L46.581,42.5
		c-0.195,0.195-0.195,0.512,0,0.707l4.917,4.917c0.028,0.028,0.061,0.054,0.096,0.075l2.248,1.348
		c0.08,0.048,0.168,0.071,0.257,0.071c0.129,0,0.257-0.05,0.354-0.146l3.905-3.905l0.049,0.013c0.902,0.239,1.83,0.36,2.756,0.36
		c2.818,0,5.465-1.096,7.451-3.082c2.014-2.014,3.176-4.174,3.361-6.247C72.105,35.143,71.736,33.748,70.934,32.685z M56.891,51.444
		c-0.357-0.354-0.83-0.55-1.333-0.55c-0.502,0-0.976,0.195-1.337,0.553l-0.047,0.048l-3.562-2.136L38.018,36.766l-2.049-3.415
		c-0.03-0.05-0.067-0.093-0.112-0.13l-7.195-5.885c-0.092-0.075-0.205-0.112-0.316-0.112c-0.128,0-0.256,0.05-0.354,0.146
		l-2.04,2.038c-0.182,0.182-0.196,0.472-0.034,0.67l5.886,7.194c0.037,0.045,0.081,0.083,0.13,0.112l3.412,2.049l12.593,12.594
		l2.135,3.562l-0.05,0.05c-0.354,0.357-0.55,0.832-0.55,1.334c0,0.504,0.195,0.978,0.551,1.333L64,72.28
		c0.357,0.356,0.83,0.554,1.332,0.554c0.504,0,0.978-0.197,1.336-0.554l4.186-4.189c0.361-0.354,0.562-0.829,0.562-1.335
		c0-0.5-0.194-0.973-0.55-1.333L56.891,51.444z"/>
	<linearGradient id="SVGID_3_" gradientUnits="userSpaceOnUse" x1="48.5" y1="71.334" x2="48.5" y2="24.0005">
		<stop  offset="0" style="stop-color:#D0CBC5"/>
		<stop  offset="0.5031" style="stop-color:#FAFCEF"/>
		<stop  offset="0.9693" style="stop-color:#FFFFFF"/>
		<stop  offset="1" style="stop-color:#FFFFFF"/>
	</linearGradient>
	<path fill="url(#SVGID_3_)" d="M51.409,36.965c-0.927-3.472,0.066-7.197,2.591-9.724C56.68,24.562,59.003,24,60.482,24
		c1.152,0,2.206,0.34,3.035,0.965l-4.207,4.148c-2.664,2.66-1.922,4.408,0.372,6.707c1.25,1.247,2.335,2.077,3.573,2.077
		c0.987,0,1.951-0.524,3.129-1.7l4.149-4.212c0.723,0.958,1.062,2.232,0.942,3.581c-0.176,1.958-1.291,4.01-3.217,5.938
		c-1.893,1.893-4.414,2.936-7.098,2.936c-0.888,0-1.77-0.117-2.628-0.344l-0.325-0.088l-4.11,4.11l-2.247-1.348l-4.917-4.917
		l4.56-4.561L51.409,36.965z M47.699,54.518L33.427,68.789l-0.138,0.105c-0.852,0.711-1.931,1.101-3.038,1.101
		c-1.267,0-2.458-0.493-3.353-1.39c-1.748-1.748-1.873-4.497-0.289-6.393l0.156-0.186l14.671-14.675l4.914,4.914L47.699,54.518z
		 M31.859,63.642c-0.475-0.477-1.11-0.74-1.79-0.74c-0.675,0-1.311,0.264-1.791,0.74c-0.986,0.987-0.986,2.591,0,3.579
		c0.478,0.477,1.113,0.74,1.791,0.74c0.68,0,1.312-0.264,1.79-0.74C32.846,66.232,32.846,64.629,31.859,63.642z M70.915,65.756
		c0-0.368-0.144-0.717-0.403-0.979L56.539,50.799c-0.264-0.261-0.611-0.404-0.981-0.404c-0.368,0-0.718,0.144-0.981,0.404
		l-0.324,0.326l-3.951-2.369l-12.68-12.681l-2.081-3.468l-7.195-5.884l-2.04,2.038l5.886,7.194l3.464,2.08l12.679,12.681
		l2.369,3.951l-0.326,0.322c-0.261,0.264-0.404,0.611-0.404,0.982c0,0.367,0.144,0.719,0.404,0.979l13.975,13.975
		c0.262,0.262,0.611,0.407,0.979,0.407c0.372,0,0.72-0.146,0.982-0.407l4.189-4.193C70.77,66.474,70.915,66.123,70.915,65.756z"/>
	<path fill="#FFFFFF" d="M47.435,42.354l-0.5-0.5l4.378-4.379c0.035,0.163,0.053,0.328,0.097,0.49l0.085,0.328L47.435,42.354z
		 M54,28.241C56.68,25.562,59.003,25,60.482,25c0.883,0,1.705,0.203,2.415,0.576l0.62-0.611C62.688,24.34,61.635,24,60.482,24
		c-1.479,0-3.803,0.562-6.482,3.241c-2.018,2.019-3.036,4.804-2.899,7.612C51.225,32.394,52.224,30.02,54,28.241z M59.683,35.82
		c-1.096-1.098-1.831-2.07-2.017-3.077c-0.263,1.386,0.564,2.621,2.017,4.077c1.25,1.247,2.335,2.077,3.573,2.077
		c0.987,0,1.951-0.524,3.129-1.7l4.149-4.212c0.536,0.712,0.858,1.597,0.942,2.557c0.113-1.339-0.225-2.604-0.942-3.557
		l-4.149,4.212c-1.178,1.176-2.142,1.7-3.129,1.7C62.018,37.897,60.933,37.067,59.683,35.82z M28.279,68.221
		c0.478,0.477,1.113,0.74,1.791,0.74c0.68,0,1.312-0.264,1.79-0.74c0.621-0.621,0.849-1.487,0.688-2.289
		c-0.094,0.473-0.323,0.923-0.688,1.289c-0.478,0.477-1.11,0.74-1.79,0.74c-0.677,0-1.313-0.264-1.791-0.74
		c-0.366-0.366-0.594-0.816-0.688-1.289C27.43,66.733,27.659,67.6,28.279,68.221z M56.539,50.799
		c-0.264-0.261-0.611-0.404-0.981-0.404c-0.368,0-0.718,0.144-0.981,0.404l-0.324,0.326l-3.951-2.369l-12.68-12.681l-2.081-3.468
		l-7.195-5.884l-2.04,2.038l0.45,0.551l1.589-1.589l7.195,5.884l2.081,3.468l12.68,12.681l3.951,2.369l0.324-0.326
		c0.264-0.261,0.613-0.404,0.981-0.404c0.37,0,0.718,0.144,0.981,0.404l13.973,13.978c0.136,0.138,0.235,0.3,0.304,0.476
		c0.062-0.157,0.1-0.324,0.1-0.496c0-0.368-0.144-0.717-0.403-0.979L56.539,50.799z M41.437,47.353L26.766,62.027l-0.156,0.186
		c-0.851,1.018-1.192,2.279-1.07,3.502c0.102-0.891,0.452-1.762,1.07-2.502l0.156-0.186l14.671-14.675l4.914,4.914l0.974,1.626
		l0.375-0.375l-1.349-2.251L41.437,47.353z M50.705,55.668l-0.368-0.613c-0.228,0.256-0.362,0.574-0.362,0.918
		c0,0.174,0.037,0.342,0.099,0.5c0.068-0.178,0.168-0.342,0.306-0.482L50.705,55.668z"/>
	<linearGradient id="SVGID_4_" gradientUnits="userSpaceOnUse" x1="25.5078" y1="47.9551" x2="71.499" y2="47.9551">
		<stop  offset="0" style="stop-color:#000000"/>
		<stop  offset="1" style="stop-color:#000000;stop-opacity:0"/>
	</linearGradient>
	<path fill="url(#SVGID_4_)" fill-opacity="0.06" d="M32.548,64.932c-0.094-0.473-0.323-0.924-0.688-1.29
		c-0.475-0.477-1.11-0.74-1.79-0.74c-0.675,0-1.311,0.264-1.791,0.74c-0.366,0.366-0.594,0.817-0.688,1.29
		c-0.161-0.803,0.068-1.669,0.688-2.29c0.48-0.477,1.116-0.74,1.791-0.74c0.68,0,1.315,0.264,1.79,0.74
		C32.48,63.263,32.708,64.129,32.548,64.932z M51.494,36.293l-0.085-0.328c-0.187-0.697-0.274-1.406-0.309-2.111
		c-0.044,0.871,0.025,1.75,0.212,2.621L51.494,36.293z M57.666,31.743c0.152-0.802,0.668-1.655,1.645-2.63l4.207-4.148
		c-0.194-0.146-0.402-0.273-0.62-0.389l-3.587,3.537C57.92,29.502,57.463,30.643,57.666,31.743z M50.379,53.99l0.326-0.322
		l-2.369-3.951L35.657,37.036l-3.464-2.08l-5.436-6.644l-0.45,0.449l5.886,7.194l3.464,2.08l12.679,12.681l2.001,3.338
		C50.354,54.035,50.361,54.01,50.379,53.99z M71.477,34.566c-0.176,1.958-1.291,4.01-3.217,5.938
		c-1.893,1.893-4.414,2.936-7.098,2.936c-0.888,0-1.77-0.117-2.628-0.344l-0.325-0.088l-4.11,4.11l-2.247-1.348l-4.417-4.417
		l-0.5,0.5l4.917,4.917l2.247,1.348l4.11-4.11l0.325,0.088c0.858,0.227,1.74,0.344,2.628,0.344c2.684,0,5.205-1.043,7.098-2.936
		c1.926-1.928,3.041-3.979,3.217-5.938c0.031-0.348,0.028-0.69,0-1.024C71.476,34.551,71.477,34.559,71.477,34.566z M70.504,65.733
		l-4.189,4.193c-0.263,0.262-0.61,0.407-0.982,0.407c-0.367,0-0.717-0.146-0.979-0.407L50.379,55.952
		c-0.138-0.138-0.237-0.303-0.306-0.479c-0.062,0.158-0.099,0.326-0.099,0.5c0,0.367,0.144,0.719,0.404,0.979l13.975,13.975
		c0.262,0.262,0.611,0.407,0.979,0.407c0.372,0,0.72-0.146,0.982-0.407l4.189-4.193c0.266-0.26,0.411-0.61,0.411-0.978
		c0-0.176-0.037-0.346-0.1-0.504C70.746,65.43,70.645,65.596,70.504,65.733z M33.427,67.789l-0.138,0.105
		c-0.852,0.711-1.931,1.101-3.038,1.101c-1.267,0-2.458-0.493-3.353-1.39c-0.81-0.809-1.255-1.836-1.359-2.891
		c-0.16,1.389,0.294,2.826,1.359,3.891c0.895,0.896,2.085,1.39,3.353,1.39c1.107,0,2.187-0.39,3.038-1.101l0.138-0.105
		l14.272-14.271l-0.375-0.625L33.427,67.789z"/>
</g>
</svg>
