<?xml version="1.0" encoding="utf-8"?>
<!-- Generator: Adobe Illustrator 15.0.2, SVG Export Plug-In . SVG Version: 6.00 Build 0)  -->
<!DOCTYPE svg PUBLIC "-//W3C//DTD SVG 1.1//EN" "http://www.w3.org/Graphics/SVG/1.1/DTD/svg11.dtd">
<svg version="1.1" id="Layer_1" xmlns="http://www.w3.org/2000/svg" xmlns:xlink="http://www.w3.org/1999/xlink" x="0px" y="0px"
	 width="96px" height="96px" viewBox="0 0 96 96" enable-background="new 0 0 96 96" xml:space="preserve">
<path fill-opacity="0.4" d="M88,49c0,29.634-10.363,40-40,40C18.366,89,8,78.634,8,49C8,19.365,18.366,9,48,9
	C77.637,9,88,19.365,88,49z"/>
<linearGradient id="SVGID_1_" gradientUnits="userSpaceOnUse" x1="-126.0005" y1="122.3984" x2="-126.0005" y2="197.2355" gradientTransform="matrix(1 0 0 -1 174 219)">
	<stop  offset="0" style="stop-color:#006325"/>
	<stop  offset="1" style="stop-color:#80C341"/>
</linearGradient>
<path fill="url(#SVGID_1_)" d="M88,48c0,29.634-10.363,40-40,40C18.366,88,8,77.634,8,48C8,18.365,18.366,8,48,8
	C77.637,8,88,18.365,88,48z"/>
<rect fill="none" width="96" height="96"/>
<linearGradient id="SVGID_2_" gradientUnits="userSpaceOnUse" x1="-300.2749" y1="506.6982" x2="-300.2749" y2="585.9434" gradientTransform="matrix(1 0 0 1 348.2749 -498.4453)">
	<stop  offset="0" style="stop-color:#FFFFFF"/>
	<stop  offset="1" style="stop-color:#FFFFFF;stop-opacity:0"/>
</linearGradient>
<path fill="url(#SVGID_2_)" fill-opacity="0.25" d="M48,8C18.366,8,8,18.365,8,48c0,29.634,10.366,40,40,40
	c29.637,0,40-10.366,40-40C88,18.365,77.637,8,48,8z M48,87C18.842,87,9,77.158,9,48S18.842,9,48,9s39,9.842,39,39S77.158,87,48,87z
	"/>
<path opacity="0.05" d="M40.68,61.19l-2.534,0.002l-0.781-2.359c-0.41-1.196-1.533-2-2.794-2c-1.089,0-2.145,0.618-2.534,1.445
	c-0.114,0.175-0.206,0.367-0.274,0.572l-0.774,2.34l-2.53-0.002c-1.631,0-2.957,1.324-2.957,2.951c0,0.961,0.495,1.932,1.139,2.314
	c0.078,0.066,0.081,0.07,2.111,1.514l-0.638,1.961c-0.195,0.412-0.29,0.828-0.29,1.268c0,1.627,1.327,2.949,2.959,2.949
	c0.519,0,1.053-0.139,1.338-0.33c0.068-0.033,0.323-0.184,0.378-0.223l2.069-1.476l1.974,1.405c0.529,0.408,1.155,0.623,1.809,0.623
	c1.632,0,2.96-1.322,2.96-2.949c0-0.172-0.024-0.369-0.055-0.466c-0.007-0.077-0.02-0.155-0.039-0.238
	c-0.008-0.031-0.057-0.203-0.078-0.27l-0.748-2.257l1.998-1.422c0.132-0.094,0.248-0.193,0.268-0.223
	c0.622-0.561,0.979-1.355,0.979-2.182C43.633,62.532,42.342,61.237,40.68,61.19z M27.689,58.651c0.099,0,0.353-0.02,0.462-0.037
	c0.739-0.125,1.388-0.532,1.828-1.148c0.43-0.606,0.605-1.35,0.485-2.021c-0.037-0.254-0.11-0.502-0.222-0.742l-0.093-0.194
	l-0.471-0.89l0.738-0.736c0.031-0.03,0.213-0.244,0.214-0.244h-0.001c0.507-0.631,0.719-1.438,0.583-2.209
	c-0.229-1.377-1.402-2.34-2.863-2.34c-0.228,0.006-0.358,0.027-0.434,0.046l-1.045,0.177l-0.512-0.969
	c-0.491-0.908-1.438-1.474-2.47-1.474c-0.091,0-0.348,0.021-0.466,0.038c-1.021,0.173-1.893,0.9-2.152,1.763
	c-0.078,0.189-0.133,0.384-0.159,0.573l-0.165,1.066l-1.101,0.184c-0.739,0.123-1.388,0.527-1.823,1.141
	c-0.436,0.611-0.607,1.357-0.482,2.105c0.153,0.889,0.745,1.691,1.415,1.972c0.058,0.034,0.07,0.042,1.092,0.538l-0.088,0.634
	c-0.126,0.417-0.155,0.846-0.085,1.274c0.225,1.357,1.39,2.343,2.77,2.343c0.1,0,0.384-0.024,0.475-0.04
	c0.458-0.078,0.919-0.281,1.204-0.522c0.05-0.036,0.247-0.2,0.313-0.265l0.801-0.805l0.924,0.449
	C26.779,58.54,27.226,58.651,27.689,58.651z M75.151,63.431L63.966,52.245c-1.037-1.033-2.444-2.111-3.346-2.561
	c-0.33-0.165-1.315-0.896-2.046-1.625l-3.073-3.076l1.662-0.518c2.018-0.623,2.527-2.021,2.652-2.802
	c0.12-0.776,0.065-2.259-1.651-3.473l-5.023-3.551c-0.287-0.204-0.648-0.912-0.644-1.263l0.08-6.148
	c0.016-1.123-0.338-2.084-1.021-2.78c-0.613-0.621-1.402-0.95-2.284-0.95c-0.812,0-1.604,0.284-2.354,0.844l-4.938,3.682
	c-0.106,0.08-0.498,0.23-0.963,0.23c-0.174,0-0.302-0.025-0.347-0.041l-6.311-2.318c-0.512-0.188-1.017-0.283-1.499-0.283
	c-1.099,0-2.071,0.49-2.668,1.346c-0.461,0.662-0.887,1.789-0.296,3.4l2.32,6.307c0.11,0.299-0.001,1.063-0.19,1.319l-3.68,4.931
	c-1.256,1.68-0.857,3.101-0.508,3.799c0.349,0.695,1.252,1.863,3.393,1.863l6.147-0.08c0.347,0,1.065,0.367,1.261,0.643l3.553,5.027
	c0.772,1.089,1.832,1.688,2.983,1.688c1.189,0,2.68-0.706,3.293-2.685l0.507-1.632l3.061,3.062c0.729,0.727,1.462,1.713,1.63,2.049
	c0.458,0.912,1.536,2.316,2.562,3.34L67.41,71.173c0.87,0.869,2.028,1.348,3.261,1.348s2.391-0.479,3.261-1.348l1.221-1.221
	c0.869-0.868,1.348-2.026,1.348-3.261S76.021,64.3,75.151,63.431z"/>
<path opacity="0.07" d="M27.689,58.151c0.081,0,0.29-0.016,0.379-0.031c0.607-0.102,1.141-0.436,1.503-0.943
	c0.354-0.498,0.497-1.111,0.398-1.662c-0.029-0.203-0.088-0.404-0.178-0.598l-0.083-0.176l-0.644-1.215l1.006-1.006
	c0.024-0.023,0.167-0.191,0.17-0.195c0.416-0.52,0.591-1.182,0.479-1.814c-0.188-1.131-1.154-1.922-2.359-1.922
	c-0.166,0.004-0.299,0.02-0.332,0.034l-1.43,0.241l-0.68-1.283c-0.403-0.748-1.182-1.212-2.029-1.212
	c-0.075,0-0.289,0.017-0.383,0.032c-0.837,0.141-1.557,0.746-1.773,1.461c-0.062,0.15-0.105,0.305-0.127,0.457l-0.22,1.423
	l-1.458,0.245c-0.607,0.1-1.14,0.433-1.498,0.936c-0.358,0.504-0.5,1.117-0.397,1.73c0.128,0.738,0.611,1.387,1.176,1.627
	c0.062,0.035,0.071,0.041,1.384,0.678l-0.154,1.069c-0.104,0.343-0.128,0.694-0.07,1.049C20.554,58.19,21.511,59,22.646,59
	c0.081,0,0.312-0.02,0.391-0.034c0.374-0.062,0.754-0.231,0.994-0.434c0.041-0.029,0.203-0.164,0.253-0.213l1.053-1.057l1.261,0.613
	C26.94,58.06,27.308,58.151,27.689,58.151z M74.798,63.784L63.612,52.599c-1.003-1-2.355-2.037-3.216-2.467
	c-0.418-0.209-1.459-1.005-2.176-1.719l-3.658-3.66l2.453-0.764c1.759-0.544,2.199-1.736,2.306-2.402
	c0.103-0.661,0.052-1.929-1.446-2.987l-5.024-3.552c-0.421-0.299-0.86-1.16-0.854-1.676l0.08-6.149
	c0.014-0.987-0.29-1.825-0.878-2.423c-0.517-0.523-1.184-0.801-1.928-0.801c-0.703,0-1.395,0.251-2.056,0.744l-4.937,3.681
	c-0.219,0.165-0.724,0.331-1.264,0.331c-0.204,0-0.398-0.027-0.52-0.072l-6.311-2.318c-0.456-0.167-0.902-0.252-1.326-0.252
	c-0.933,0-1.756,0.412-2.258,1.133c-0.394,0.564-0.754,1.531-0.237,2.941l2.321,6.307c0.169,0.459,0.032,1.396-0.26,1.79
	l-3.68,4.931c-1.095,1.465-0.759,2.682-0.461,3.275c0.297,0.594,1.072,1.588,2.938,1.588l6.154-0.08
	c0.507,0,1.381,0.447,1.669,0.854l3.553,5.027c0.676,0.953,1.59,1.478,2.575,1.478c1.011,0,2.282-0.612,2.815-2.333l0.752-2.423
	l3.646,3.647c0.713,0.711,1.512,1.754,1.723,2.178c0.438,0.869,1.476,2.22,2.469,3.211l11.184,11.184
	c0.775,0.774,1.808,1.201,2.907,1.201s2.132-0.427,2.907-1.201l1.221-1.221C75.573,68.825,76,67.792,76,66.691
	S75.573,64.559,74.798,63.784z M40.68,61.69l-2.896,0.002l-0.893-2.697c-0.341-0.994-1.273-1.662-2.321-1.662
	c-0.916,0-1.778,0.512-2.115,1.219c-0.092,0.141-0.165,0.294-0.219,0.455l-0.888,2.684l-2.892-0.002c-1.354,0-2.457,1.1-2.457,2.451
	c0,0.805,0.411,1.6,0.964,1.935c0.061,0.052,0.062,0.054,2.375,1.7l-0.774,2.367c-0.163,0.346-0.242,0.69-0.242,1.055
	c0,1.351,1.104,2.449,2.459,2.449c0.43,0,0.869-0.116,1.121-0.281c0.055-0.025,0.26-0.146,0.305-0.178l2.359-1.684l2.278,1.623
	c0.441,0.34,0.962,0.52,1.504,0.52c1.356,0,2.46-1.098,2.46-2.449c0-0.134-0.021-0.291-0.053-0.421
	c-0.005-0.054-0.014-0.108-0.026-0.162c-0.007-0.027-0.049-0.177-0.067-0.233l-0.864-2.607l2.299-1.635
	c0.119-0.086,0.198-0.158,0.223-0.188c0.517-0.465,0.813-1.125,0.813-1.811C43.133,62.806,42.062,61.729,40.68,61.69z"/>
<path opacity="0.1" d="M27.689,57.651c0.063,0,0.228-0.013,0.296-0.023c0.476-0.08,0.894-0.342,1.178-0.739
	c0.276-0.391,0.389-0.872,0.312-1.304c-0.033-0.234-0.111-0.404-0.135-0.455l-0.073-0.154l-0.815-1.542l1.271-1.271
	c0.018-0.018,0.121-0.141,0.129-0.151c0.326-0.406,0.463-0.925,0.376-1.419c-0.147-0.885-0.904-1.504-1.856-1.504
	c-0.053,0.002-0.189,0.006-0.259,0.027l-1.786,0.302l-0.846-1.6c-0.316-0.585-0.926-0.949-1.59-0.949c-0.06,0-0.23,0.015-0.3,0.024
	c-0.654,0.111-1.221,0.594-1.395,1.16c-0.046,0.11-0.078,0.227-0.095,0.342l-0.274,1.779l-1.815,0.305
	c-0.982,0.163-1.649,1.098-1.485,2.088c0.102,0.583,0.48,1.084,0.936,1.28c0.046,0.026,0.048,0.028,1.679,0.819l-0.223,1.506
	c-0.081,0.268-0.101,0.543-0.056,0.822c0.145,0.871,0.895,1.505,1.783,1.505c0.063,0,0.243-0.015,0.307-0.026
	c0.295-0.051,0.588-0.182,0.78-0.342c0.032-0.024,0.161-0.131,0.196-0.166l1.305-1.309l1.599,0.777
	C27.103,57.579,27.392,57.651,27.689,57.651z M40.68,62.19l-3.257,0.002l-1.004-3.035c-0.271-0.792-1.014-1.324-1.849-1.324
	c-0.738,0-1.415,0.408-1.696,0.991c-0.068,0.104-0.123,0.22-0.163,0.341L31.71,62.19l-3.253-0.002c-1.079,0-1.957,0.876-1.957,1.951
	c0,0.645,0.33,1.271,0.787,1.553c0.042,0.036,0.048,0.041,2.642,1.888l-0.912,2.775c-0.131,0.276-0.194,0.552-0.194,0.841
	c0,1.075,0.879,1.949,1.959,1.949c0.342,0,0.688-0.094,0.906-0.232c0.041-0.02,0.195-0.109,0.229-0.135l2.649-1.89l2.583,1.841
	c0.354,0.272,0.768,0.416,1.199,0.416c1.081,0,1.96-0.874,1.96-1.949c0-0.104-0.02-0.246-0.05-0.341
	c0-0.041-0.005-0.081-0.015-0.121c-0.006-0.023-0.042-0.151-0.057-0.197l-0.98-2.958l2.599-1.849c0.084-0.06,0.141-0.11,0.179-0.151
	c0.412-0.371,0.648-0.893,0.648-1.439C42.633,63.077,41.781,62.222,40.68,62.19z M74.444,64.138L63.259,52.952
	c-0.97-0.967-2.269-1.965-3.086-2.373c-0.512-0.256-1.61-1.119-2.306-1.812l-4.243-4.246l3.244-1.01c1.5-0.463,1.871-1.451,1.959-2
	c0.085-0.547,0.037-1.6-1.241-2.503l-5.024-3.552c-0.556-0.395-1.073-1.41-1.064-2.09l0.08-6.15
	c0.012-0.852-0.242-1.564-0.733-2.064c-0.421-0.426-0.965-0.652-1.572-0.652c-0.592,0-1.184,0.217-1.757,0.645l-4.936,3.681
	c-0.344,0.257-0.972,0.431-1.563,0.431c-0.268,0-0.514-0.037-0.692-0.104l-6.31-2.317c-0.4-0.147-0.788-0.222-1.154-0.222
	c-0.767,0-1.44,0.335-1.848,0.918c-0.325,0.467-0.621,1.275-0.179,2.482l2.321,6.308c0.227,0.615,0.063,1.735-0.328,2.262
	l-3.68,4.932c-0.934,1.249-0.66,2.261-0.414,2.753c0.245,0.489,0.893,1.311,2.484,1.311l6.161-0.08c0.667,0,1.696,0.528,2.077,1.064
	l3.553,5.027c0.579,0.816,1.349,1.267,2.167,1.267c0.833,0,1.885-0.521,2.338-1.981l0.998-3.213l4.231,4.232
	c0.693,0.691,1.559,1.79,1.816,2.307c0.415,0.826,1.413,2.122,2.375,3.082l11.184,11.184c0.681,0.68,1.588,1.055,2.554,1.055
	s1.873-0.375,2.554-1.055l1.221-1.221c0.68-0.68,1.055-1.586,1.055-2.554C75.5,65.725,75.125,64.817,74.444,64.138z"/>
<path opacity="0.15" d="M40.68,62.69l-3.618,0.002l-1.115-3.373c-0.202-0.59-0.755-0.986-1.376-0.986
	c-0.556,0-1.055,0.31-1.276,0.762c-0.046,0.071-0.082,0.148-0.108,0.227l-1.114,3.37l-3.614-0.003C27.653,62.688,27,63.34,27,64.14
	c0,0.49,0.248,0.943,0.608,1.17c0.024,0.021,0.028,0.025,2.91,2.076l-1.05,3.184c-0.099,0.209-0.146,0.414-0.146,0.627
	c0,0.799,0.654,1.449,1.459,1.449c0.256,0,0.511-0.072,0.689-0.183c0.027-0.013,0.132-0.073,0.156-0.091l2.939-2.098l2.889,2.06
	c0.265,0.204,0.573,0.312,0.894,0.312c0.805,0,1.46-0.649,1.46-1.449c0-0.117-0.05-0.339-0.05-0.341
	c-0.005-0.02-0.035-0.128-0.046-0.161l-1.097-3.309l2.898-2.062c0.055-0.039,0.107-0.085,0.115-0.098
	c0.319-0.277,0.503-0.673,0.503-1.086C42.133,63.351,41.501,62.714,40.68,62.69z M27.689,57.151c0.046,0,0.165-0.01,0.213-0.018
	c0.346-0.058,0.647-0.247,0.853-0.533c0.199-0.282,0.28-0.633,0.225-0.945c-0.022-0.16-0.075-0.276-0.1-0.33
	c-0.007-0.016-0.049-0.104-0.055-0.115l-0.989-1.869l1.533-1.531c0.012-0.012,0.083-0.098,0.093-0.111
	c0.235-0.293,0.335-0.668,0.272-1.023c-0.104-0.629-0.644-1.086-1.349-1.086h-0.008c-0.072,0.002-0.145,0.01-0.183,0.021
	l-2.143,0.362l-1.013-1.916c-0.229-0.424-0.669-0.687-1.149-0.687c-0.044,0-0.17,0.011-0.217,0.019
	c-0.479,0.08-0.884,0.434-1.016,0.857c-0.029,0.07-0.051,0.146-0.062,0.227l-0.329,2.137c-0.685,0.115-2.123,0.356-2.173,0.365
	c-0.71,0.117-1.193,0.792-1.075,1.508c0.074,0.425,0.354,0.785,0.699,0.937c0.025,0.015,0.028,0.017,1.972,0.96l-0.293,1.94
	c-0.06,0.194-0.073,0.394-0.041,0.595C21.46,57.542,22.003,58,22.646,58c0.046,0,0.177-0.011,0.223-0.019
	c0.217-0.037,0.424-0.133,0.569-0.254c0.023-0.018,0.115-0.094,0.137-0.114l1.557-1.562l1.937,0.941
	C27.265,57.099,27.474,57.151,27.689,57.151z M74.091,64.491L62.906,53.307c-0.922-0.919-2.193-1.899-2.957-2.28
	c-0.561-0.279-1.698-1.171-2.436-1.906l-4.828-4.83l4.035-1.256c1.241-0.385,1.543-1.167,1.612-1.601
	c0.067-0.433,0.023-1.269-1.036-2.018l-5.025-3.553c-0.689-0.489-1.285-1.66-1.274-2.504l0.08-6.15
	c0.01-0.716-0.194-1.306-0.589-1.706c-0.325-0.329-0.745-0.504-1.217-0.504c-0.482,0-0.973,0.184-1.458,0.546l-4.935,3.68
	c-0.43,0.321-1.161,0.53-1.863,0.53c-0.33,0-0.629-0.047-0.865-0.134l-6.31-2.317c-0.344-0.127-0.675-0.191-0.981-0.191
	c-0.602,0-1.125,0.257-1.438,0.705c-0.258,0.369-0.487,1.02-0.119,2.023l2.32,6.307c0.284,0.771,0.095,2.074-0.396,2.733
	l-3.68,4.933c-0.772,1.032-0.562,1.839-0.367,2.229c0.193,0.387,0.715,1.035,2.03,1.035l6.168-0.08c0.827,0,2.012,0.609,2.485,1.276
	l3.553,5.026c0.482,0.681,1.107,1.056,1.759,1.056c0.318,0,1.392-0.118,1.86-1.63l1.244-4.004l4.816,4.817
	c0.735,0.733,1.628,1.872,1.91,2.437c0.388,0.773,1.369,2.043,2.281,2.953l11.184,11.184c0.586,0.586,1.367,0.908,2.2,0.908
	s1.614-0.322,2.2-0.908l1.221-1.221c0.586-0.586,0.908-1.367,0.908-2.2S74.677,65.077,74.091,64.491z"/>
<path opacity="0.15" d="M40.68,63.19L36.7,63.192l-1.227-3.711c-0.133-0.388-0.495-0.648-0.903-0.648
	c-0.368,0-0.693,0.205-0.855,0.531c-0.022,0.035-0.041,0.072-0.055,0.114l-1.228,3.714c0,0-3.967-0.004-3.976-0.004
	c-0.527,0-0.957,0.428-0.957,0.951c0,0.32,0.167,0.618,0.436,0.792c0.011,0.009,3.173,2.261,3.173,2.261l-1.188,3.592
	c-0.066,0.14-0.099,0.275-0.099,0.412c0,0.523,0.431,0.949,0.959,0.949c0.166,0,0.33-0.047,0.479-0.137
	c0.027-0.012,0.053-0.027,0.077-0.045l3.229-2.304l3.194,2.278c0.176,0.136,0.38,0.207,0.588,0.207c0.529,0,0.96-0.426,0.96-0.949
	c0-0.039-0.028-0.189-0.037-0.227l-0.008,0.002c-0.005-0.043-0.014-0.084-0.025-0.12l-1.213-3.659l3.2-2.277
	c0.028-0.02,0.054-0.043,0.077-0.068c0.208-0.18,0.33-0.438,0.33-0.707C41.633,63.623,41.223,63.206,40.68,63.19z M27.819,56.642
	c0.215-0.037,0.401-0.154,0.527-0.331c0.124-0.175,0.173-0.388,0.138-0.587c-0.013-0.091-0.045-0.158-0.06-0.191l-0.005,0.002
	c-0.01-0.031-0.022-0.062-0.037-0.091l-1.161-2.194l1.79-1.789c0.022-0.023,0.043-0.048,0.061-0.074
	c0.145-0.18,0.207-0.41,0.169-0.629c-0.064-0.389-0.4-0.671-0.798-0.671c-0.016,0-0.036,0.001-0.059,0.003
	c-0.036,0.001-0.071,0.006-0.106,0.014l-2.499,0.422l-1.179-2.23c-0.142-0.262-0.413-0.425-0.71-0.425
	c-0.027,0-0.106,0.007-0.134,0.011c-0.3,0.051-0.546,0.27-0.637,0.557c-0.015,0.035-0.024,0.072-0.03,0.111l-0.384,2.494
	c0,0-2.528,0.424-2.53,0.424c-0.438,0.073-0.737,0.488-0.665,0.93c0.046,0.264,0.223,0.484,0.464,0.594
	c0.01,0.006,2.264,1.1,2.264,1.1l-0.363,2.375c-0.037,0.122-0.046,0.244-0.026,0.367c0.064,0.387,0.399,0.669,0.797,0.669
	c0.028,0,0.109-0.007,0.138-0.012c0.134-0.022,0.259-0.081,0.367-0.171c0.024-0.017,0.048-0.035,0.069-0.057l1.809-1.814
	l2.273,1.105c0.124,0.066,0.255,0.1,0.388,0.1C27.718,56.651,27.792,56.646,27.819,56.642z M73.737,64.845L62.553,53.661
	c-0.874-0.872-2.116-1.833-2.827-2.188c-0.609-0.305-1.784-1.221-2.565-2l-5.413-5.416l4.826-1.502
	c0.984-0.305,1.215-0.883,1.266-1.199c0.05-0.318,0.009-0.939-0.831-1.532l-5.025-3.554c-0.817-0.58-1.498-1.916-1.485-2.918
	l0.08-6.15c0.008-0.579-0.146-1.045-0.445-1.348c-0.229-0.232-0.526-0.355-0.86-0.355c-0.372,0-0.763,0.15-1.159,0.447l-4.934,3.679
	c-0.519,0.388-1.348,0.63-2.163,0.63c-0.389,0-0.747-0.057-1.038-0.164l-6.31-2.318c-0.289-0.106-0.561-0.16-0.809-0.16
	c-0.441,0-0.807,0.174-1.027,0.49c-0.189,0.271-0.354,0.764-0.06,1.564l2.32,6.309c0.345,0.938,0.131,2.404-0.466,3.204l-3.68,4.933
	c-0.612,0.818-0.464,1.42-0.321,1.705c0.143,0.284,0.531,0.76,1.577,0.76l6.175-0.08c0.996,0,2.322,0.682,2.894,1.488l3.553,5.025
	c0.386,0.545,0.865,0.845,1.351,0.845c0.297,0,1.025-0.124,1.383-1.278l1.49-4.795l5.4,5.402c0.781,0.779,1.698,1.953,2.004,2.566
	c0.361,0.719,1.322,1.959,2.188,2.824l11.184,11.184c0.491,0.491,1.147,0.762,1.847,0.762s1.355-0.271,1.847-0.762l1.221-1.221
	c0.491-0.491,0.762-1.146,0.762-1.847S74.229,65.335,73.737,64.845z"/>
<linearGradient id="SVGID_3_" gradientUnits="userSpaceOnUse" x1="47.0005" y1="70.6455" x2="47.0005" y2="25">
	<stop  offset="0" style="stop-color:#D0CBC5"/>
	<stop  offset="0.5031" style="stop-color:#FAFCEF"/>
	<stop  offset="0.9693" style="stop-color:#FFFFFF"/>
	<stop  offset="1" style="stop-color:#FFFFFF"/>
</linearGradient>
<path fill="url(#SVGID_3_)" d="M73.384,64.198L62.199,53.015c-0.822-0.82-2.035-1.764-2.697-2.094
	c-0.66-0.33-1.873-1.273-2.695-2.094l-5.998-6l5.617-1.748c1.111-0.345,1.242-1.177,0.293-1.847l-5.025-3.554
	c-0.946-0.672-1.711-2.17-1.696-3.332l0.08-6.151c0.016-1.161-0.734-1.544-1.666-0.849l-4.933,3.679
	c-0.93,0.695-2.584,0.937-3.674,0.534l-6.31-2.318c-1.091-0.4-1.654,0.163-1.253,1.254l2.32,6.308c0.4,1.091,0.16,2.745-0.535,3.676
	l-3.68,4.933c-0.695,0.93-0.313,1.68,0.85,1.666l6.148-0.08c1.161-0.014,2.661,0.75,3.334,1.699l3.553,5.025
	c0.672,0.949,1.504,0.816,1.848-0.293l1.736-5.585l5.985,5.987c0.822,0.82,1.767,2.033,2.097,2.695
	c0.332,0.66,1.272,1.873,2.096,2.695l11.184,11.184c0.82,0.82,2.166,0.82,2.986,0l1.221-1.221
	C74.205,66.364,74.205,65.019,73.384,64.198z M41.133,63.14c0-0.246-0.2-0.442-0.449-0.449H40.68c-0.002,0-0.004-0.002-0.006-0.002
	c-0.003,0-0.005,0.002-0.008,0.002l-4.327,0.002L35,58.643c-0.061-0.178-0.229-0.31-0.43-0.31c-0.2,0-0.364,0.127-0.429,0.303
	h-0.007l-1.341,4.057l-4.295-0.002l-0.003,0.006c-0.014,0-0.024-0.008-0.039-0.008c-0.252,0-0.457,0.202-0.457,0.451
	c0,0.18,0.108,0.332,0.265,0.404l-0.004,0.008l3.438,2.447l-1.326,3.998c-0.029,0.062-0.051,0.126-0.051,0.199
	c0,0.248,0.205,0.449,0.459,0.449c0.1,0,0.188-0.037,0.262-0.092l0.004,0.004l3.52-2.512l3.456,2.467
	c0.005,0.004,0.009,0.006,0.014,0.01l0.029,0.02h0.001c0.079,0.062,0.173,0.104,0.282,0.104c0.253,0,0.46-0.201,0.46-0.449
	c0-0.039-0.015-0.074-0.023-0.111l0.002-0.002l-0.01-0.031c-0.004-0.014-0.007-0.029-0.014-0.043l-1.329-4.01l3.501-2.49
	l-0.002-0.008C41.051,63.421,41.133,63.292,41.133,63.14z M28.748,49.839c-0.027-0.164-0.184-0.273-0.35-0.25l-0.003,0.002
	c-0.001,0-0.002-0.002-0.004-0.002c-0.002,0.002-0.003,0.002-0.005,0.002l-2.881,0.486l-1.345-2.545
	c-0.061-0.112-0.187-0.182-0.321-0.158c-0.134,0.021-0.229,0.125-0.252,0.249l-0.004,0.001l-0.438,2.852l-2.859,0.48l-0.001,0.003
	c-0.01,0.001-0.018-0.001-0.027,0.001c-0.168,0.027-0.281,0.186-0.254,0.352c0.021,0.118,0.109,0.207,0.222,0.238l-0.002,0.006
	l2.564,1.244l-0.435,2.811c-0.014,0.045-0.02,0.09-0.012,0.139c0.027,0.164,0.188,0.275,0.356,0.246
	c0.065-0.011,0.119-0.045,0.163-0.09l0.004,0.002l2.061-2.066l2.577,1.254c0.003,0.002,0.008,0.004,0.011,0.006l0.021,0.01h0.002
	c0.059,0.031,0.125,0.05,0.199,0.037c0.168-0.027,0.282-0.186,0.254-0.35c-0.004-0.027-0.018-0.049-0.027-0.072l0.002-0.002
	l-0.01-0.02c-0.006-0.008-0.009-0.018-0.014-0.027l-1.335-2.52l2.052-2.051l-0.002-0.005C28.725,50.034,28.766,49.938,28.748,49.839
	z"/>
<path fill="#FFFFFF" d="M32.226,28.436c-0.357-1.05,0.2-1.587,1.27-1.194l6.31,2.318c1.09,0.402,2.744,0.161,3.674-0.534
	l4.933-3.679c0.932-0.695,1.682-0.312,1.666,0.849l-0.011,0.849c-0.054-1.034-0.768-1.359-1.655-0.697l-4.933,3.68
	c-0.93,0.695-2.584,0.936-3.674,0.533l-6.31-2.317C32.865,28.011,32.42,28.108,32.226,28.436z M30.348,44.412l3.68-4.933
	c0.555-0.743,0.812-1.941,0.694-2.951c-0.079,0.726-0.317,1.444-0.694,1.95l-3.68,4.933c-0.396,0.529-0.432,0.994-0.186,1.299
	C30.213,44.612,30.271,44.515,30.348,44.412z M49.997,33.347c-0.015,1.162,0.75,2.661,1.696,3.332l5.025,3.555
	c0.19,0.134,0.325,0.275,0.43,0.417c0.358-0.405,0.234-0.949-0.43-1.418l-5.025-3.554c-0.903-0.641-1.633-2.032-1.686-3.168
	L49.997,33.347z M51.571,43.59l-0.763,0.237l5.998,6c0.822,0.82,2.035,1.764,2.695,2.094c0.662,0.33,1.875,1.273,2.697,2.094
	l11.185,11.184c0.283,0.283,0.461,0.63,0.55,0.994c0.167-0.693-0.012-1.456-0.55-1.994L62.199,53.015
	c-0.822-0.82-2.035-1.764-2.697-2.094c-0.66-0.33-1.873-1.273-2.695-2.094L51.571,43.59z M20.226,51.55l-0.002,0.006l0.63,0.305
	l2.292-0.385l0.438-2.852h0.004c0.023-0.124,0.118-0.228,0.252-0.25c0.135-0.022,0.261,0.047,0.321,0.158l1.345,2.546l2.623-0.442
	l0.529-0.529l-0.002-0.005c0.068-0.067,0.109-0.163,0.092-0.263c-0.027-0.164-0.184-0.273-0.35-0.25l-0.003,0.002
	c-0.001,0-0.002-0.002-0.004-0.002c-0.002,0.002-0.003,0.002-0.005,0.002l-2.881,0.486l-1.345-2.545
	c-0.061-0.112-0.187-0.182-0.321-0.158c-0.134,0.021-0.229,0.125-0.252,0.249l-0.004,0.001l-0.438,2.852l-2.859,0.48l-0.001,0.003
	c-0.01,0.001-0.018-0.001-0.027,0.001c-0.168,0.027-0.281,0.186-0.254,0.352C20.024,51.43,20.113,51.519,20.226,51.55z
	 M38.787,70.083l-0.01-0.031c-0.004-0.014-0.007-0.029-0.014-0.043l-1.061-3.199L37.435,67l1.179,3.554
	c0.115-0.081,0.195-0.207,0.195-0.357c0-0.039-0.015-0.074-0.023-0.111L38.787,70.083z M40.684,62.69H40.68
	c-0.002,0-0.004-0.002-0.006-0.002c-0.003,0-0.005,0.002-0.008,0.002l-4.327,0.002L35,58.643c-0.061-0.178-0.229-0.31-0.43-0.31
	c-0.2,0-0.364,0.127-0.429,0.303h-0.007l-1.341,4.057l-4.295-0.002l-0.003,0.006c-0.014,0-0.024-0.008-0.039-0.008
	c-0.252,0-0.457,0.202-0.457,0.451c0,0.18,0.108,0.332,0.265,0.404l-0.004,0.008l0.194,0.139c0,0,0.001-0.001,0.002-0.001
	c0.015,0,0.025,0.007,0.039,0.007l0.003-0.006l4.295,0.002l1.341-4.057h0.007c0.064-0.175,0.229-0.303,0.429-0.303
	c0.201,0,0.369,0.133,0.43,0.311l1.339,4.049l4.327-0.002c0.003,0,0.005-0.001,0.008-0.001c0.002,0,0.004,0.001,0.006,0.001
	l0.256-0.182l-0.002-0.008c0.117-0.08,0.199-0.209,0.199-0.361C41.133,62.894,40.933,62.697,40.684,62.69z M27.965,54.724
	l-0.01-0.02c-0.006-0.008-0.009-0.018-0.014-0.027l-0.988-1.865l-0.347,0.346l1.046,1.975c0.028,0.005,0.053,0.021,0.084,0.016
	c0.168-0.027,0.282-0.186,0.254-0.35c-0.004-0.027-0.018-0.049-0.027-0.072L27.965,54.724z M30.322,70.196
	c0,0.15,0.081,0.277,0.197,0.359L31.699,67l-0.269-0.191l-1.058,3.188C30.344,70.06,30.322,70.123,30.322,70.196z M22.645,53.729
	l-0.291,1.881c-0.014,0.045-0.02,0.09-0.012,0.139c0.013,0.076,0.059,0.138,0.117,0.182l0.329-2.131L22.645,53.729z"/>
<linearGradient id="SVGID_4_" gradientUnits="userSpaceOnUse" x1="46.814" y1="70.4893" x2="46.814" y2="25.8872">
	<stop  offset="0" style="stop-color:#000000"/>
	<stop  offset="1" style="stop-color:#000000;stop-opacity:0"/>
</linearGradient>
<path fill="url(#SVGID_4_)" fill-opacity="0.06" d="M32.059,28.339c-0.17-0.461-0.158-0.82-0.017-1.06
	c0.007,0.021,0.009,0.038,0.017,0.06l2.32,6.309c0.183,0.498,0.227,1.113,0.159,1.725c-0.03-0.257-0.078-0.504-0.159-0.726
	L32.059,28.339z M22.461,52.573l0.144-0.93l-1.937-0.939L20.103,50.8l-0.001,0.003c-0.01,0.001-0.018-0.001-0.027,0.001
	c-0.168,0.027-0.281,0.186-0.254,0.352c0.021,0.118,0.109,0.207,0.222,0.238l-0.002,0.006L22.461,52.573z M28.473,49.945
	c0.068-0.067,0.109-0.163,0.092-0.263c-0.027-0.164-0.184-0.273-0.35-0.25l-0.003,0.002c-0.001,0-0.002-0.002-0.004-0.002
	c-0.002,0.002-0.003,0.002-0.005,0.002l-0.257,0.044l-1.523,1.522l0.347,0.653l1.705-1.704L28.473,49.945z M56.242,39.923
	l-5.617,1.748l0.762,0.763l4.855-1.511c0.889-0.275,1.139-0.862,0.723-1.429C56.811,39.668,56.576,39.819,56.242,39.923z
	 M49.824,31.354l0.069-5.315c0.001-0.056-0.009-0.101-0.011-0.152l-0.069,5.304C49.812,31.244,49.822,31.301,49.824,31.354z
	 M40.5,62.534h-0.003l-3.246,2.31l0.269,0.809l3.232-2.3l-0.002-0.008c0.117-0.08,0.199-0.209,0.199-0.361
	C40.949,62.737,40.749,62.541,40.5,62.534z M38.604,69.927l-0.01-0.031c-0.004-0.014-0.007-0.029-0.014-0.043l-0.15-0.454
	c-0.076,0.054-0.164,0.092-0.265,0.092c-0.109,0-0.203-0.042-0.282-0.104h-0.001l-0.029-0.021c-0.005-0.004-0.009-0.006-0.014-0.01
	l-3.456-2.467l-3.52,2.512l-0.004-0.003c-0.074,0.054-0.162,0.091-0.262,0.091s-0.187-0.037-0.262-0.09l-0.146,0.441
	c-0.029,0.062-0.051,0.126-0.051,0.199c0,0.248,0.205,0.449,0.459,0.449c0.1,0,0.188-0.037,0.262-0.092l0.004,0.004l3.52-2.512
	l3.456,2.467c0.005,0.004,0.009,0.006,0.014,0.01l0.029,0.02h0.001c0.079,0.062,0.173,0.104,0.282,0.104
	c0.253,0,0.46-0.201,0.46-0.449c0-0.039-0.015-0.074-0.023-0.111L38.604,69.927z M27.781,54.567l-0.01-0.02
	c-0.006-0.008-0.009-0.018-0.014-0.027l-0.288-0.544c-0.04-0.006-0.082-0.003-0.116-0.021h-0.002l-0.021-0.011
	c-0.003-0.002-0.008-0.003-0.011-0.005l-2.577-1.255l-2.061,2.066l-0.004-0.001c-0.044,0.044-0.098,0.079-0.163,0.09
	c-0.091,0.015-0.174-0.013-0.239-0.064l-0.105,0.679c-0.014,0.045-0.02,0.09-0.012,0.139c0.027,0.164,0.188,0.275,0.356,0.246
	c0.065-0.011,0.119-0.045,0.163-0.09l0.004,0.002l2.061-2.066l2.577,1.254c0.003,0.002,0.008,0.004,0.011,0.006l0.021,0.01h0.002
	c0.059,0.031,0.125,0.05,0.199,0.037c0.168-0.027,0.282-0.186,0.254-0.35c-0.004-0.027-0.018-0.049-0.027-0.072L27.781,54.567z
	 M73.201,66.028l-1.221,1.221c-0.82,0.82-2.166,0.82-2.986,0L57.811,56.065c-0.823-0.822-1.764-2.035-2.096-2.695
	c-0.33-0.662-1.274-1.875-2.097-2.695l-5.985-5.986l-1.736,5.584c-0.344,1.109-1.176,1.242-1.848,0.293l-3.553-5.025
	c-0.673-0.948-2.173-1.713-3.334-1.698l-6.148,0.08c-0.502,0.006-0.848-0.137-1.035-0.368c-0.411,0.786,0,1.38,1.035,1.367
	l6.148-0.08c1.161-0.014,2.661,0.75,3.334,1.699l3.553,5.025c0.672,0.949,1.504,0.816,1.848-0.293l1.736-5.585l5.985,5.987
	c0.822,0.82,1.767,2.033,2.097,2.695c0.332,0.66,1.272,1.873,2.096,2.695l11.184,11.184c0.82,0.82,2.166,0.82,2.986,0l1.221-1.221
	c0.537-0.537,0.716-1.299,0.549-1.992C73.662,65.399,73.483,65.746,73.201,66.028z M31.247,65.652l0.269-0.809l-3.246-2.311
	c-0.25,0.002-0.453,0.202-0.453,0.45c0,0.18,0.108,0.332,0.265,0.404l-0.004,0.008L31.247,65.652z"/>
</svg>
