<?xml version="1.0" encoding="utf-8"?>
<!-- Generator: Adobe Illustrator 15.0.2, SVG Export Plug-In . SVG Version: 6.00 Build 0)  -->
<!DOCTYPE svg PUBLIC "-//W3C//DTD SVG 1.1//EN" "http://www.w3.org/Graphics/SVG/1.1/DTD/svg11.dtd">
<svg version="1.1" id="Layer_1" xmlns="http://www.w3.org/2000/svg" xmlns:xlink="http://www.w3.org/1999/xlink" x="0px" y="0px"
	 width="96px" height="96px" viewBox="0 0 96 96" enable-background="new 0 0 96 96" xml:space="preserve">
<g>
	<path fill-opacity="0.4" d="M88,49c0,29.634-10.363,40-40,40C18.366,89,8,78.634,8,49C8,19.365,18.366,9,48,9
		C77.637,9,88,19.365,88,49z"/>
	
		<linearGradient id="SVGID_1_" gradientUnits="userSpaceOnUse" x1="-126.0005" y1="122.3984" x2="-126.0005" y2="197.2355" gradientTransform="matrix(1 0 0 -1 174 219)">
		<stop  offset="0" style="stop-color:#006325"/>
		<stop  offset="1" style="stop-color:#80C341"/>
	</linearGradient>
	<path fill="url(#SVGID_1_)" d="M88,48c0,29.634-10.363,40-40,40C18.366,88,8,77.634,8,48C8,18.365,18.366,8,48,8
		C77.637,8,88,18.365,88,48z"/>
	<rect fill="none" width="96" height="96"/>
	
		<linearGradient id="SVGID_2_" gradientUnits="userSpaceOnUse" x1="-300.2749" y1="506.6973" x2="-300.2749" y2="585.9434" gradientTransform="matrix(1 0 0 1 348.2749 -498.4453)">
		<stop  offset="0" style="stop-color:#FFFFFF"/>
		<stop  offset="1" style="stop-color:#FFFFFF;stop-opacity:0"/>
	</linearGradient>
	<path fill="url(#SVGID_2_)" fill-opacity="0.25" d="M48,8C18.366,8,8,18.365,8,48c0,29.634,10.366,40,40,40
		c29.637,0,40-10.366,40-40C88,18.365,77.637,8,48,8z M48,87C18.842,87,9,77.158,9,48S18.842,9,48,9s39,9.842,39,39S77.158,87,48,87
		z"/>
	<path fill-opacity="0.05" d="M75.144,42c0,0-13.573,0-13.607,0.002C59.771,36.818,55.575,34.5,48,34.5
		c-7.574,0-11.771,2.318-13.536,7.502C34.43,42,20.857,42,20.857,42c-4.195,0-7.014,2.812-7.014,6.998
		c0,4.188,2.818,7.002,7.014,7.002c0,0,13.572,0,13.606-0.002C36.229,61.182,40.425,63.5,48,63.5s11.771-2.318,13.536-7.502
		C61.57,56,75.144,56,75.144,56c4.194,0,7.013-2.812,7.013-6.998C82.156,44.814,79.338,42,75.144,42z"/>
	<path fill-opacity="0.07" d="M75.144,42.5H61.639c-0.152,0-0.304,0.018-0.45,0.051C59.582,37.334,55.486,35,48,35
		s-11.582,2.335-13.188,7.551c-0.146-0.033-0.298-0.051-0.45-0.051H20.857c-3.896,0-6.514,2.611-6.514,6.498
		c0,3.889,2.618,6.502,6.514,6.502h13.504c0.152,0,0.303-0.018,0.45-0.051C36.418,60.666,40.513,63,48,63s11.582-2.334,13.188-7.551
		c0.146,0.033,0.298,0.051,0.45,0.051h13.505c3.896,0,6.513-2.611,6.513-6.498C81.656,45.113,79.039,42.5,75.144,42.5z"/>
	<path fill-opacity="0.1" d="M75.144,43H61.639c-0.279,0-0.547,0.076-0.779,0.218C59.425,37.824,55.504,35.5,48,35.5
		s-11.424,2.324-12.859,7.717C34.909,43.076,34.641,43,34.362,43H20.857c-3.597,0-6.014,2.41-6.014,5.998
		c0,3.59,2.417,6.002,6.014,6.002h13.504c0.278,0,0.546-0.076,0.779-0.218C36.575,60.176,40.496,62.5,48,62.5
		s11.425-2.324,12.859-7.718c0.231,0.142,0.5,0.218,0.779,0.218h13.505c3.597,0,6.013-2.41,6.013-5.998
		C81.156,45.412,78.74,43,75.144,43z M61.96,49c-0.16,0-0.314,0.025-0.46,0.071v-0.143C61.646,48.975,61.8,49,61.96,49z
		 M34.5,48.929v0.143C34.354,49.025,34.2,49,34.04,49C34.2,49,34.354,48.975,34.5,48.929z"/>
	<path fill-opacity="0.15" d="M75.144,43.5H61.639c-0.297,0-0.576,0.13-0.768,0.357c-0.155,0.186-0.236,0.419-0.232,0.658
		C59.514,38.457,55.682,36,48,36c-7.681,0-11.513,2.457-12.638,8.516c0.003-0.239-0.078-0.473-0.234-0.658
		c-0.19-0.228-0.47-0.357-0.766-0.357H20.857c-3.298,0-5.514,2.209-5.514,5.498c0,3.291,2.216,5.502,5.514,5.502h13.504
		c0.296,0,0.576-0.13,0.767-0.357c0.155-0.186,0.236-0.419,0.233-0.658C36.487,59.543,40.318,62,48,62
		c7.681,0,11.513-2.457,12.638-8.515c-0.003,0.238,0.078,0.472,0.234,0.657c0.19,0.228,0.47,0.357,0.767,0.357h13.505
		c3.298,0,5.513-2.209,5.513-5.498C80.656,45.711,78.441,43.5,75.144,43.5z M35.026,50.335c-0.079-0.477-0.491-0.835-0.986-0.835
		H20.857c-0.514,0-0.514,0-0.514-0.502c0-0.498,0-0.498,0.514-0.498H34.04c0.495,0,0.908-0.358,0.986-0.835
		C35.009,48.096,35,48.541,35,49S35.009,49.904,35.026,50.335z M60.974,47.665c0.079,0.477,0.491,0.835,0.986,0.835h13.184
		c0.513,0,0.513,0,0.513,0.502c0,0.498,0,0.498-0.513,0.498H61.96c-0.495,0-0.907,0.358-0.986,0.835C60.991,49.904,61,49.459,61,49
		S60.991,48.096,60.974,47.665z"/>
	<path fill-opacity="0.15" d="M48,36.5c-9.112,0-12.5,3.388-12.5,12.5S38.888,61.5,48,61.5S60.5,58.112,60.5,49S57.112,36.5,48,36.5
		z M20.857,48H34.04c0.268,0,0.487-0.21,0.5-0.477c0.047-1.03,0.153-2.018,0.315-2.937c0.025-0.146-0.015-0.295-0.109-0.408
		C34.65,44.065,34.51,44,34.362,44H20.857c-2.999,0-5.014,2.009-5.014,4.998c0,2.992,2.015,5.002,5.014,5.002h13.504
		c0.148,0,0.288-0.065,0.383-0.179c0.095-0.113,0.135-0.263,0.109-0.408c-0.162-0.919-0.268-1.906-0.315-2.937
		C34.527,50.21,34.308,50,34.04,50H20.857c-0.867,0-1.014-0.309-1.014-1.002C19.844,48.309,19.99,48,20.857,48z M75.144,44H61.639
		c-0.148,0-0.289,0.065-0.384,0.179s-0.135,0.263-0.109,0.408c0.162,0.919,0.268,1.906,0.315,2.937C61.473,47.79,61.692,48,61.96,48
		h13.184c0.867,0,1.013,0.309,1.013,1.002c0,0.689-0.146,0.998-1.013,0.998H61.96c-0.268,0-0.487,0.21-0.499,0.477
		c-0.048,1.03-0.153,2.018-0.315,2.937c-0.025,0.146,0.015,0.295,0.109,0.408S61.49,54,61.639,54h13.505
		c2.999,0,5.013-2.009,5.013-4.998C80.156,46.01,78.143,44,75.144,44z"/>
	<linearGradient id="SVGID_3_" gradientUnits="userSpaceOnUse" x1="48.0005" y1="60" x2="48.0005" y2="36.0005">
		<stop  offset="0" style="stop-color:#D0CBC5"/>
		<stop  offset="0.5031" style="stop-color:#FAFCEF"/>
		<stop  offset="0.9693" style="stop-color:#FFFFFF"/>
		<stop  offset="1" style="stop-color:#FFFFFF"/>
	</linearGradient>
	<path fill="url(#SVGID_3_)" d="M34.362,52.5H20.857c-2.7,0-4.514-1.809-4.514-4.502c0-2.69,1.814-4.498,4.514-4.498h13.504
		c-0.163,0.926-0.272,1.922-0.322,3H20.857c-1.334,0-1.514,0.758-1.514,1.498c0,0.743,0.18,1.502,1.514,1.502H34.04
		C34.089,50.578,34.199,51.574,34.362,52.5z M75.144,43.5H61.639c0.162,0.926,0.271,1.922,0.321,3h13.184
		c1.333,0,1.513,0.76,1.513,1.502c0,0.74-0.18,1.498-1.513,1.498H61.96c-0.05,1.078-0.159,2.074-0.321,3h13.505
		c2.7,0,4.513-1.808,4.513-4.498C79.656,45.309,77.844,43.5,75.144,43.5z M48,36c-8.892,0-12,3.11-12,12s3.108,12,12,12
		c8.889,0,12-3.11,12-12S56.889,36,48,36z"/>
	<path fill="#FFFFFF" d="M61.779,44.5c-0.043-0.338-0.084-0.68-0.141-1h13.505c2.7,0,4.513,1.809,4.513,4.502
		c0,0.174-0.027,0.334-0.043,0.5c-0.215-2.408-1.945-4.002-4.47-4.002H61.779z M20.857,49.5c-1.03,0-1.369-0.453-1.472-1.001
		c-0.03,0.161-0.042,0.33-0.042,0.499c0,0.743,0.18,1.502,1.514,1.502H34.04c0.032,0.705,0.099,1.362,0.181,2h0.141
		c-0.163-0.926-0.272-1.922-0.322-3H20.857z M61.96,50.5h13.184c1.333,0,1.513-0.758,1.513-1.498c0-0.17-0.012-0.339-0.041-0.501
		c-0.104,0.547-0.442,0.999-1.472,0.999H61.96c-0.05,1.078-0.159,2.074-0.321,3h0.141C61.861,51.862,61.928,51.205,61.96,50.5z
		 M48,36c-8.892,0-12,3.11-12,12c0,0.174,0.009,0.331,0.012,0.5C36.132,40.004,39.282,37,48,37c8.715,0,11.868,3.004,11.988,11.5
		C59.99,48.331,60,48.174,60,48C60,39.11,56.889,36,48,36z M16.344,47.998c0,0.174,0.028,0.334,0.043,0.5
		c0.216-2.406,1.946-3.998,4.471-3.998h13.363c0.043-0.338,0.084-0.68,0.141-1H20.857C18.158,43.5,16.344,45.308,16.344,47.998z"/>
	<linearGradient id="SVGID_4_" gradientUnits="userSpaceOnUse" x1="48.0005" y1="60" x2="48.0005" y2="43.5005">
		<stop  offset="0" style="stop-color:#000000"/>
		<stop  offset="1" style="stop-color:#000000;stop-opacity:0"/>
	</linearGradient>
	<path fill="url(#SVGID_4_)" fill-opacity="0.06" d="M34.221,51.5c0.043,0.338,0.084,0.68,0.141,1H20.857
		c-2.7,0-4.514-1.809-4.514-4.502c0-0.174,0.028-0.334,0.043-0.5c0.216,2.408,1.946,4.002,4.471,4.002H34.221z M75.144,46.5
		c1.029,0,1.368,0.453,1.472,1.001c0.029-0.161,0.041-0.33,0.041-0.499c0-0.742-0.18-1.502-1.513-1.502H61.96
		c-0.032-0.705-0.099-1.362-0.181-2h-0.141c0.162,0.926,0.271,1.922,0.321,3H75.144z M75.144,51.5H61.779
		c-0.043,0.338-0.084,0.68-0.141,1h13.505c2.7,0,4.513-1.808,4.513-4.498c0-0.174-0.027-0.334-0.043-0.5
		C79.398,49.908,77.668,51.5,75.144,51.5z M34.04,45.5H20.857c-1.334,0-1.514,0.758-1.514,1.498c0,0.17,0.012,0.339,0.042,0.501
		c0.103-0.547,0.442-0.999,1.472-0.999H34.04c0.049-1.078,0.159-2.074,0.322-3h-0.141C34.139,44.138,34.072,44.795,34.04,45.5z
		 M48,59c-8.718,0-11.868-3.004-11.988-11.5C36.009,47.669,36,47.826,36,48c0,8.89,3.108,12,12,12c8.889,0,12-3.11,12-12
		c0-0.174-0.01-0.331-0.012-0.5C59.868,55.996,56.715,59,48,59z"/>
</g>
</svg>
