<?xml version="1.0" encoding="utf-8"?>
<!-- Generator: Adobe Illustrator 15.0.2, SVG Export Plug-In . SVG Version: 6.00 Build 0)  -->
<!DOCTYPE svg PUBLIC "-//W3C//DTD SVG 1.1//EN" "http://www.w3.org/Graphics/SVG/1.1/DTD/svg11.dtd">
<svg version="1.1" id="Layer_1" xmlns="http://www.w3.org/2000/svg" xmlns:xlink="http://www.w3.org/1999/xlink" x="0px" y="0px"
	 width="96px" height="96px" viewBox="0 0 96 96" enable-background="new 0 0 96 96" xml:space="preserve">
<g>
	<rect fill="none" width="96" height="96"/>
	<path fill-opacity="0.4" d="M88,49c0,29.634-10.363,40-40,40C18.366,89,8,78.634,8,49C8,19.365,18.366,9,48,9
		C77.637,9,88,19.365,88,49z"/>
	
		<linearGradient id="SVGID_1_" gradientUnits="userSpaceOnUse" x1="-126.0005" y1="122.3984" x2="-126.0005" y2="197.2355" gradientTransform="matrix(1 0 0 -1 174 219)">
		<stop  offset="0" style="stop-color:#006325"/>
		<stop  offset="1" style="stop-color:#80C341"/>
	</linearGradient>
	<path fill="url(#SVGID_1_)" d="M88,48c0,29.634-10.363,40-40,40C18.366,88,8,77.634,8,48C8,18.365,18.366,8,48,8
		C77.637,8,88,18.365,88,48z"/>
	
		<linearGradient id="SVGID_2_" gradientUnits="userSpaceOnUse" x1="-300.2749" y1="506.6982" x2="-300.2749" y2="585.9434" gradientTransform="matrix(1 0 0 1 348.2749 -498.4453)">
		<stop  offset="0" style="stop-color:#FFFFFF"/>
		<stop  offset="1" style="stop-color:#FFFFFF;stop-opacity:0"/>
	</linearGradient>
	<path fill="url(#SVGID_2_)" fill-opacity="0.25" d="M48,8C18.366,8,8,18.365,8,48c0,29.634,10.366,40,40,40
		c29.637,0,40-10.366,40-40C88,18.365,77.637,8,48,8z M48,87C18.842,87,9,77.158,9,48S18.842,9,48,9s39,9.842,39,39S77.158,87,48,87
		z"/>
	<path opacity="0.05" d="M73,44.5H23c-1.379,0-2.5,1.121-2.5,2.5v12c0,4.136,3.364,7.5,7.5,7.5h40c4.136,0,7.5-3.364,7.5-7.5V47
		C75.5,45.621,74.379,44.5,73,44.5z M57,57.5h-6.5v-5H57c1.939,0,2.5,0.561,2.5,2.5S58.939,57.5,57,57.5z"/>
	<path opacity="0.07" d="M73,45H23c-1.103,0-2,0.896-2,2v12c0,3.859,3.141,7,7,7h40c3.859,0,7-3.141,7-7V47
		C75,45.896,74.103,45,73,45z M57,58h-7v-6h7c2.215,0,3,0.785,3,3S59.215,58,57,58z"/>
	<path opacity="0.1" d="M73,45.5H23c-0.827,0-1.5,0.673-1.5,1.5v12c0,3.584,2.916,6.5,6.5,6.5h40c3.584,0,6.5-2.916,6.5-6.5V47
		C74.5,46.173,73.827,45.5,73,45.5z M57,58.5h-7.586C49.47,58.344,49.5,58.176,49.5,58v-6c0-0.176-0.03-0.344-0.086-0.5H57
		c2.486,0,3.5,1.014,3.5,3.5S59.486,58.5,57,58.5z"/>
	<path opacity="0.15" d="M73,46H23c-0.552,0-1,0.449-1,1v12c0,3.309,2.691,6,6,6h40c3.309,0,6-2.691,6-6V47
		C74,46.449,73.552,46,73,46z M57,59h-9c0.552,0,1-0.449,1-1v-6c0-0.551-0.448-1-1-1h9c2.767,0,4,1.233,4,4S59.767,59,57,59z"/>
	<path opacity="0.15" d="M48,51.5h-9c-2.486,0-3.5,1.014-3.5,3.5s1.014,3.5,3.5,3.5h9c0.276,0,0.5-0.224,0.5-0.5v-6
		C48.5,51.724,48.276,51.5,48,51.5z M73,46.5H23c-0.276,0-0.5,0.224-0.5,0.5v12c0,3.033,2.468,5.5,5.5,5.5h40
		c3.032,0,5.5-2.467,5.5-5.5V47C73.5,46.724,73.276,46.5,73,46.5z M57,59.5H39c-3.028,0-4.5-1.473-4.5-4.5s1.472-4.5,4.5-4.5h18
		c3.028,0,4.5,1.473,4.5,4.5S60.028,59.5,57,59.5z"/>
	<linearGradient id="SVGID_3_" gradientUnits="userSpaceOnUse" x1="48.0005" y1="63" x2="48.0005" y2="46.0005">
		<stop  offset="0" style="stop-color:#D0CBC5"/>
		<stop  offset="0.5031" style="stop-color:#FAFCEF"/>
		<stop  offset="0.9693" style="stop-color:#FFFFFF"/>
		<stop  offset="1" style="stop-color:#FFFFFF"/>
	</linearGradient>
	<path fill="url(#SVGID_3_)" d="M23,46v12c0,2.757,2.243,5,5,5h40c2.757,0,5-2.243,5-5V46H23z M57,59H39c-3.317,0-5-1.682-5-5
		s1.683-5,5-5h18c3.317,0,5,1.682,5,5S60.317,59,57,59z M48,57h-9c-2.223,0-3-0.777-3-3s0.777-3,3-3h9V57z"/>
	<path fill="#FFFFFF" d="M48,51v1h-9c-2.041,0-2.855,0.671-2.976,2.5C36.014,54.338,36,54.182,36,54c0-2.223,0.777-3,3-3H48z M39,60
		h18c3.317,0,5-1.682,5-5c0-0.178-0.024-0.332-0.033-0.5C61.796,57.475,60.14,59,57,59H39c-3.14,0-4.796-1.525-4.967-4.5
		C34.024,54.668,34,54.822,34,55C34,58.318,35.683,60,39,60z M23,46v1h50v-1H23z"/>
	<linearGradient id="SVGID_4_" gradientUnits="userSpaceOnUse" x1="48.0005" y1="63" x2="48.0005" y2="48.0005">
		<stop  offset="0" style="stop-color:#000000"/>
		<stop  offset="1" style="stop-color:#000000;stop-opacity:0"/>
	</linearGradient>
	<path fill="url(#SVGID_4_)" fill-opacity="0.06" d="M62,53c0,0.178-0.024,0.332-0.033,0.5C61.796,50.525,60.14,49,57,49H39
		c-3.14,0-4.796,1.525-4.967,4.5C34.024,53.332,34,53.178,34,53c0-3.318,1.683-5,5-5h18C60.317,48,62,49.682,62,53z M39,57h9v-1h-9
		c-2.041,0-2.855-0.671-2.976-2.5C36.014,53.662,36,53.818,36,54C36,56.223,36.777,57,39,57z M68,62H28c-2.757,0-5-2.243-5-5v1
		c0,2.757,2.243,5,5,5h40c2.757,0,5-2.243,5-5v-1C73,59.757,70.757,62,68,62z"/>
</g>
</svg>
