<?xml version="1.0" encoding="utf-8"?>
<!-- Generator: Adobe Illustrator 15.0.2, SVG Export Plug-In . SVG Version: 6.00 Build 0)  -->
<!DOCTYPE svg PUBLIC "-//W3C//DTD SVG 1.1//EN" "http://www.w3.org/Graphics/SVG/1.1/DTD/svg11.dtd">
<svg version="1.1" id="Layer_1" xmlns="http://www.w3.org/2000/svg" xmlns:xlink="http://www.w3.org/1999/xlink" x="0px" y="0px"
	 width="96px" height="96px" viewBox="0 0 96 96" enable-background="new 0 0 96 96" xml:space="preserve">
<g>
	<path fill-opacity="0.4" d="M88,49c0,29.634-10.363,40-40,40C18.366,89,8,78.634,8,49C8,19.365,18.366,9,48,9
		C77.637,9,88,19.365,88,49z"/>
	
		<linearGradient id="SVGID_1_" gradientUnits="userSpaceOnUse" x1="-126.0005" y1="122.3984" x2="-126.0005" y2="197.2355" gradientTransform="matrix(1 0 0 -1 174 219)">
		<stop  offset="0" style="stop-color:#006325"/>
		<stop  offset="1" style="stop-color:#80C341"/>
	</linearGradient>
	<path fill="url(#SVGID_1_)" d="M88,48c0,29.634-10.363,40-40,40C18.366,88,8,77.634,8,48C8,18.365,18.366,8,48,8
		C77.637,8,88,18.365,88,48z"/>
	<rect fill="none" width="96" height="96"/>
	
		<linearGradient id="SVGID_2_" gradientUnits="userSpaceOnUse" x1="-300.2749" y1="506.6973" x2="-300.2749" y2="585.9434" gradientTransform="matrix(1 0 0 1 348.2749 -498.4453)">
		<stop  offset="0" style="stop-color:#FFFFFF"/>
		<stop  offset="1" style="stop-color:#FFFFFF;stop-opacity:0"/>
	</linearGradient>
	<path fill="url(#SVGID_2_)" fill-opacity="0.25" d="M48,8C18.366,8,8,18.365,8,48c0,29.634,10.366,40,40,40
		c29.637,0,40-10.366,40-40C88,18.365,77.637,8,48,8z M48,87C18.842,87,9,77.158,9,48S18.842,9,48,9s39,9.842,39,39S77.158,87,48,87
		z"/>
	<path opacity="0.05" d="M48,21.5c-15.164,0-27.5,12.421-27.5,27.688c0,15.268,12.336,27.689,27.5,27.689
		c15.163,0,27.5-12.422,27.5-27.689C75.5,33.921,63.163,21.5,48,21.5z M48,66.688c-9.567,0-17.351-7.851-17.351-17.501
		c0-2.264,0.446-4.539,1.294-6.63c0.022,0.023,13.087,13.187,13.087,13.187c0.664,0.672,1.586,1.105,2.401,1.15
		c0.075,0.016,0.483,0.059,0.675,0.059h0.004c0.176-0.008,0.277-0.023,0.341-0.038c0.995-0.104,1.864-0.52,2.585-1.238l8.191-8.255
		c1.657-1.671,1.687-4.362,0.062-6.001c-0.776-0.777-1.816-1.205-2.929-1.205c-1.138,0-2.255,0.468-3.066,1.282l-5.297,5.339
		L37.939,36.703c-0.345-0.347-0.744-0.632-1.181-0.846c3.119-2.694,7.08-4.169,11.241-4.169c9.566,0,17.35,7.85,17.35,17.499
		C65.35,58.838,57.566,66.688,48,66.688z"/>
	<path opacity="0.07" d="M48,22c-14.888,0-27,12.196-27,27.188c0,14.992,12.112,27.189,27,27.189S75,64.18,75,49.188
		C75,34.196,62.888,22,48,22z M48,67.188c-9.843,0-17.851-8.075-17.851-18.001c0-2.63,0.575-5.237,1.672-7.603
		c0.154,0.247,0.336,0.479,0.544,0.689c12.667,12.763,13.021,13.118,13.021,13.118c0.587,0.594,1.392,0.966,2.143,1.012
		c0.064,0.013,0.416,0.049,0.558,0.049h0.002c0.111-0.005,0.229-0.016,0.271-0.031c0.896-0.084,1.676-0.452,2.322-1.098l8.191-8.255
		c1.465-1.477,1.495-3.852,0.064-5.295c-0.682-0.683-1.597-1.059-2.575-1.059c-1.005,0-1.993,0.413-2.711,1.135l-5.652,5.696
		L37.585,37.056c-0.491-0.494-1.108-0.845-1.771-1.017c3.306-3.136,7.594-4.851,12.187-4.851c9.842,0,17.85,8.074,17.85,17.999
		C65.85,59.113,57.842,67.188,48,67.188z"/>
	<path opacity="0.1" d="M48,22.5c-14.612,0-26.5,11.972-26.5,26.688c0,14.717,11.888,26.689,26.5,26.689s26.5-11.973,26.5-26.689
		C74.5,34.472,62.612,22.5,48,22.5z M48,67.688c-10.118,0-18.351-8.3-18.351-18.501c0-3.095,0.756-6.092,2.2-8.778
		c0.147,0.555,0.441,1.078,0.871,1.513c12.695,12.793,13.021,13.119,13.021,13.119c0.509,0.515,1.2,0.827,1.887,0.873
		c0.053,0.011,0.341,0.039,0.435,0.039h0.007c0.079-0.003,0.162-0.01,0.243-0.029c0.775-0.072,1.452-0.392,2.014-0.952l8.191-8.255
		c1.271-1.282,1.302-3.341,0.065-4.589c-0.587-0.588-1.376-0.912-2.222-0.912c-0.872,0-1.731,0.359-2.356,0.987l-6.007,6.054
		L37.23,37.408c-0.625-0.629-1.484-0.99-2.357-0.99c-0.049,0-0.097,0.001-0.146,0.003c3.456-3.666,8.191-5.732,13.272-5.732
		c10.118,0,18.35,8.299,18.35,18.499C66.35,59.389,58.118,67.688,48,67.688z"/>
	<path opacity="0.15" d="M48,23c-14.337,0-26,11.748-26,26.188c0,14.44,11.663,26.189,26,26.189c14.336,0,26-11.749,26-26.189
		C74,34.748,62.336,23,48,23z M48,68.188c-10.395,0-18.851-8.523-18.851-19.001c0-4.029,1.252-7.771,3.383-10.849
		c-0.521,1.025-0.336,2.343,0.543,3.23c12.724,12.821,13.021,13.12,13.021,13.12c0.428,0.433,1.009,0.689,1.629,0.734
		c0.039,0.008,0.262,0.031,0.272,0.031c0,0,0.038,0,0.048-0.001c0.082-0.004,0.166-0.018,0.171-0.024
		c0.668-0.051,1.257-0.313,1.754-0.811l8.191-8.254c1.079-1.089,1.11-2.831,0.067-3.884c-0.493-0.494-1.156-0.766-1.868-0.766
		c-0.74,0-1.47,0.306-2.001,0.84l-6.362,6.411L36.876,37.761c-0.531-0.535-1.262-0.843-2.003-0.843
		c-0.712,0-1.375,0.272-1.867,0.767c3.447-4.553,8.886-7.496,14.994-7.496c10.394,0,18.85,8.522,18.85,18.999
		C66.85,59.665,58.394,68.188,48,68.188z"/>
	<path opacity="0.15" d="M56.361,42.216c-0.608,0-1.208,0.252-1.646,0.692l-6.717,6.769L36.521,38.113
		c-0.438-0.441-1.039-0.695-1.648-0.695c-0.579,0-1.117,0.221-1.515,0.622c-0.849,0.855-0.816,2.28,0.072,3.177
		c0,0,13.013,13.113,13.021,13.121c0.344,0.348,0.815,0.552,1.364,0.595c0.026,0.005,0.175,0.022,0.182,0.022h0.021
		c0.053-0.003,0.107-0.012,0.16-0.024c0.547-0.041,1.019-0.245,1.385-0.613c0.005-0.006,0.042-0.04,0.053-0.051l8.19-8.253
		c0.888-0.896,0.919-2.32,0.069-3.179C57.477,42.436,56.939,42.216,56.361,42.216z M48,23.5c-14.061,0-25.5,11.523-25.5,25.688
		c0,14.165,11.439,25.689,25.5,25.689s25.5-11.524,25.5-25.689C73.5,35.023,62.061,23.5,48,23.5z M48,68.688
		c-10.67,0-19.351-8.748-19.351-19.501c0-10.752,8.681-19.499,19.351-19.499c10.669,0,19.35,8.747,19.35,19.499
		C67.35,59.94,58.669,68.688,48,68.688z"/>
	
		<linearGradient id="SVGID_3_" gradientUnits="userSpaceOnUse" x1="165.5" y1="-77.3765" x2="165.5" y2="-27" gradientTransform="matrix(1 0 0 -1 -117.5 -4)">
		<stop  offset="0" style="stop-color:#D0CBC5"/>
		<stop  offset="0.5031" style="stop-color:#FAFCEF"/>
		<stop  offset="0.9693" style="stop-color:#FFFFFF"/>
		<stop  offset="1" style="stop-color:#FFFFFF"/>
	</linearGradient>
	<path fill="url(#SVGID_3_)" d="M48,23c-13.805,0-25,11.277-25,25.188c0,13.914,11.195,25.189,25,25.189s25-11.275,25-25.189
		C73,34.275,61.803,23,48,23z M48,68.188c-10.947,0-19.851-8.973-19.851-20.001c0-11.024,8.903-19.999,19.851-19.999
		c10.943,0,19.85,8.975,19.85,19.999C67.85,59.216,58.943,68.188,48,68.188z M55.07,42.261l-7.072,7.126L36.167,37.466
		c-0.695-0.701-1.799-0.733-2.454-0.073c-0.655,0.661-0.621,1.772,0.072,2.472l12.95,13.05c0.013,0.015,0.032,0.019,0.045,0.029
		c0.012,0.015,0.016,0.032,0.027,0.043c0.284,0.287,0.661,0.417,1.046,0.445c0.047,0.005,0.098,0.021,0.145,0.023
		c0.047-0.002,0.097-0.019,0.145-0.023c0.385-0.028,0.76-0.158,1.046-0.445c0.012-0.013,0.015-0.029,0.027-0.043
		c0.015-0.011,0.034-0.015,0.045-0.029l8.191-8.253c0.693-0.699,0.725-1.812,0.07-2.473C56.865,41.531,55.764,41.563,55.07,42.261z"
		/>
	<path fill="#FFFFFF" d="M23.013,48.688C23.009,48.521,23,48.356,23,48.188c0-13.91,11.194-25.188,24.999-25.188
		C61.802,23.001,73,34.276,73,48.188c0,0.168-0.01,0.333-0.013,0.5c-0.266-13.681-11.352-24.688-24.988-24.688
		C34.361,24.001,23.277,35.01,23.013,48.688z M57.521,42.189c-0.656-0.657-1.758-0.625-2.452,0.072l-7.072,7.126L36.166,37.467
		c-0.695-0.701-1.799-0.733-2.453-0.073c-0.439,0.442-0.562,1.086-0.392,1.673c0.075-0.247,0.2-0.48,0.392-0.673
		c0.654-0.66,1.758-0.628,2.453,0.073l11.831,11.921l7.072-7.126c0.694-0.697,1.796-0.729,2.452-0.072
		c0.191,0.193,0.317,0.427,0.392,0.676C58.084,43.276,57.96,42.633,57.521,42.189z M48,69.231c10.943,0,19.85-8.974,19.85-20.002
		c0-0.176-0.021-0.347-0.026-0.522C67.546,59.494,58.77,68.188,48,68.188c-10.772,0-19.547-8.694-19.824-19.481
		c-0.004,0.176-0.026,0.347-0.026,0.522C28.149,60.258,37.053,69.231,48,69.231z"/>
	<linearGradient id="SVGID_4_" gradientUnits="userSpaceOnUse" x1="47.9995" y1="27.9971" x2="47.9995" y2="73.3774">
		<stop  offset="0" style="stop-color:#000000;stop-opacity:0"/>
		<stop  offset="1" style="stop-color:#000000"/>
	</linearGradient>
	<path fill="url(#SVGID_4_)" fill-opacity="0.06" d="M33.322,38.065c0.084,0.29,0.234,0.567,0.463,0.799l12.95,13.05
		c0.013,0.015,0.032,0.019,0.045,0.029c0.012,0.015,0.016,0.032,0.027,0.043c0.284,0.287,0.661,0.417,1.046,0.445
		c0.047,0.005,0.098,0.021,0.145,0.023c0.047-0.002,0.097-0.019,0.145-0.023c0.385-0.028,0.76-0.158,1.046-0.445
		c0.012-0.013,0.015-0.029,0.027-0.043c0.015-0.011,0.034-0.015,0.045-0.029l8.191-8.253c0.229-0.23,0.378-0.508,0.462-0.797
		c0.181,0.603,0.028,1.302-0.462,1.797l-8.191,8.253c-0.011,0.015-0.03,0.019-0.045,0.029c-0.013,0.014-0.016,0.03-0.027,0.043
		c-0.286,0.287-0.661,0.417-1.046,0.445c-0.048,0.005-0.098,0.021-0.145,0.023c-0.047-0.002-0.098-0.019-0.145-0.023
		c-0.385-0.028-0.762-0.158-1.046-0.445c-0.012-0.011-0.016-0.028-0.027-0.043c-0.013-0.011-0.032-0.015-0.045-0.029l-12.95-13.05
		C33.294,39.369,33.141,38.668,33.322,38.065z M48,72.377c-13.639,0-24.722-11.007-24.987-24.689C23.01,47.854,23,48.02,23,48.188
		c0,13.914,11.195,25.189,25,25.189s25-11.275,25-25.189c0-0.168-0.009-0.333-0.013-0.5C72.723,61.37,61.638,72.377,48,72.377z
		 M48,27.997c-10.504,0-19.048,8.611-19.048,19.19c0,0.169,0.021,0.332,0.025,0.5c0.267-10.347,8.686-18.69,19.022-18.69
		c10.334,0,18.756,8.344,19.021,18.69c0.005-0.168,0.025-0.331,0.025-0.5C67.047,36.608,58.501,27.997,48,27.997z"/>
</g>
</svg>
