<?xml version="1.0" encoding="utf-8"?>
<!-- Generator: Adobe Illustrator 15.0.2, SVG Export Plug-In . SVG Version: 6.00 Build 0)  -->
<!DOCTYPE svg PUBLIC "-//W3C//DTD SVG 1.1//EN" "http://www.w3.org/Graphics/SVG/1.1/DTD/svg11.dtd">
<svg version="1.1" id="Layer_1" xmlns="http://www.w3.org/2000/svg" xmlns:xlink="http://www.w3.org/1999/xlink" x="0px" y="0px"
	 width="96px" height="96px" viewBox="0 0 96 96" enable-background="new 0 0 96 96" xml:space="preserve">
<g>
	<rect fill="none" width="96" height="96"/>
	<path fill-opacity="0.4" d="M88,49c0,29.635-10.363,40-40,40C18.366,89,8,78.635,8,49S18.366,9,48,9C77.637,9,88,19.365,88,49z"/>
	
		<linearGradient id="SVGID_1_" gradientUnits="userSpaceOnUse" x1="-126.0005" y1="122.3984" x2="-126.0005" y2="197.2355" gradientTransform="matrix(1 0 0 -1 174 219)">
		<stop  offset="0" style="stop-color:#006325"/>
		<stop  offset="1" style="stop-color:#80C341"/>
	</linearGradient>
	<path fill="url(#SVGID_1_)" d="M88,48c0,29.635-10.363,40-40,40C18.366,88,8,77.635,8,48S18.366,8,48,8C77.637,8,88,18.365,88,48z"
		/>
	
		<linearGradient id="SVGID_2_" gradientUnits="userSpaceOnUse" x1="-300.2749" y1="506.6973" x2="-300.2749" y2="585.9434" gradientTransform="matrix(1 0 0 1 348.2749 -498.4453)">
		<stop  offset="0" style="stop-color:#FFFFFF"/>
		<stop  offset="1" style="stop-color:#FFFFFF;stop-opacity:0"/>
	</linearGradient>
	<path fill="url(#SVGID_2_)" fill-opacity="0.25" d="M48,8C18.366,8,8,18.365,8,48s10.366,40,40,40c29.637,0,40-10.365,40-40
		S77.637,8,48,8z M48,87C18.842,87,9,77.158,9,48S18.842,9,48,9s39,9.842,39,39S77.158,87,48,87z"/>
	<path fill-opacity="0.05" d="M68,23.5H28c-4.136,0-7.5,3.364-7.5,7.5v35c0,4.136,3.364,7.5,7.5,7.5h40c4.136,0,7.5-3.364,7.5-7.5
		V31C75.5,26.864,72.136,23.5,68,23.5z M64,62.5v-2c0-1.193-0.525-2.267-1.357-3H67.5v8h-4.857C63.475,64.767,64,63.693,64,62.5z
		 M31,34.5v2c0,1.193,0.525,2.267,1.357,3H28.5v-8h3.857C31.525,32.233,31,33.307,31,34.5z M31,60.5v2c0,1.193,0.525,2.267,1.357,3
		H28.5v-8h3.857C31.525,58.233,31,59.307,31,60.5z M64,36.5v-2c0-1.193-0.525-2.267-1.357-3H67.5v8h-4.857
		C63.475,38.767,64,37.693,64,36.5z"/>
	<path fill-opacity="0.07" d="M68,24H28c-3.86,0-7,3.141-7,7v35c0,3.859,3.14,7,7,7h40c3.859,0,7-3.141,7-7V31
		C75,27.141,71.859,24,68,24z M34,49l0.001-1H62v1H34z M28,57h7c-1.93,0-3.5,1.57-3.5,3.5v2c0,1.93,1.57,3.5,3.5,3.5h-7V57z
		 M63.5,62.5v-2c0-1.93-1.57-3.5-3.5-3.5h8v9h-8C61.93,66,63.5,64.43,63.5,62.5z M63.5,36.5v-2c0-1.93-1.57-3.5-3.5-3.5h8v9h-8
		C61.93,40,63.5,38.43,63.5,36.5z M31.5,34.5v2c0,1.93,1.57,3.5,3.5,3.5h-7v-9h7C33.07,31,31.5,32.57,31.5,34.5z"/>
	<path fill-opacity="0.1" d="M35,65.5h25c1.654,0,3-1.346,3-3v-2c0-1.654-1.346-3-3-3H35c-1.654,0-3,1.346-3,3v2
		C32,64.154,33.346,65.5,35,65.5z M60,31.5H35c-1.654,0-3,1.346-3,3v2c0,1.654,1.346,3,3,3h25c1.654,0,3-1.346,3-3v-2
		C63,32.846,61.654,31.5,60,31.5z M68,24.5H28c-3.584,0-6.5,2.916-6.5,6.5v35c0,3.584,2.916,6.5,6.5,6.5h40
		c3.584,0,6.5-2.916,6.5-6.5V31C74.5,27.416,71.584,24.5,68,24.5z M68.5,66c0,0.275-0.225,0.5-0.5,0.5H28
		c-0.276,0-0.5-0.225-0.5-0.5v-9.5h41V66z M33.5,49.5l0.001-2H62.5v2H33.5z M68.5,40.5h-41V31c0-0.275,0.224-0.5,0.5-0.5h40
		c0.275,0,0.5,0.225,0.5,0.5V40.5z"/>
	<path fill-opacity="0.15" d="M35,65h25c1.379,0,2.5-1.121,2.5-2.5v-2c0-1.379-1.121-2.5-2.5-2.5H35c-1.378,0-2.5,1.121-2.5,2.5v2
		C32.5,63.879,33.622,65,35,65z M68,25H28c-3.309,0-6,2.691-6,6v35c0,3.309,2.691,6,6,6h40c3.309,0,6-2.691,6-6V31
		C74,27.691,71.309,25,68,25z M69,66c0,0.552-0.449,1-1,1H28c-0.551,0-1-0.448-1-1V56h42V66z M33,49.5v-2c0-0.275,0.224-0.5,0.5-0.5
		h29c0.275,0,0.5,0.225,0.5,0.5v2c0,0.275-0.225,0.5-0.5,0.5h-29C33.224,50,33,49.775,33,49.5z M69,41H27V31c0-0.552,0.449-1,1-1h40
		c0.551,0,1,0.448,1,1V41z M60,32H35c-1.378,0-2.5,1.121-2.5,2.5v2c0,1.379,1.122,2.5,2.5,2.5h25c1.379,0,2.5-1.121,2.5-2.5v-2
		C62.5,33.121,61.379,32,60,32z"/>
	<path fill-opacity="0.15" d="M35,64.5h25c1.103,0,2-0.897,2-2v-2c0-1.103-0.897-2-2-2H35c-1.103,0-2,0.897-2,2v2
		C33,63.603,33.897,64.5,35,64.5z M60,32.5H35c-1.103,0-2,0.897-2,2v2c0,1.103,0.897,2,2,2h25c1.103,0,2-0.897,2-2v-2
		C62,33.397,61.103,32.5,60,32.5z M68,25.5H28c-3.033,0-5.5,2.468-5.5,5.5v35c0,3.032,2.467,5.5,5.5,5.5h40
		c3.033,0,5.5-2.468,5.5-5.5V31C73.5,27.968,71.033,25.5,68,25.5z M69.5,66c0,0.827-0.673,1.5-1.5,1.5H28
		c-0.827,0-1.5-0.673-1.5-1.5V55.5h43V66z M32.5,49.5v-2c0-0.552,0.449-1,1-1h29c0.551,0,1,0.448,1,1v2c0,0.552-0.449,1-1,1h-29
		C32.949,50.5,32.5,50.052,32.5,49.5z M69.5,41.5h-43V31c0-0.827,0.673-1.5,1.5-1.5h40c0.827,0,1.5,0.673,1.5,1.5V41.5z"/>
	<linearGradient id="SVGID_3_" gradientUnits="userSpaceOnUse" x1="48.0005" y1="70" x2="48.0005" y2="25.0005">
		<stop  offset="0" style="stop-color:#D0CBC5"/>
		<stop  offset="0.5031" style="stop-color:#FAFCEF"/>
		<stop  offset="0.9693" style="stop-color:#FFFFFF"/>
		<stop  offset="1" style="stop-color:#FFFFFF"/>
	</linearGradient>
	<path fill="url(#SVGID_3_)" d="M60,32H35c-0.825,0-1.5,0.676-1.5,1.5v2c0,0.824,0.675,1.5,1.5,1.5h25c0.825,0,1.5-0.676,1.5-1.5v-2
		C61.5,32.676,60.825,32,60,32z M60,58H35c-0.825,0-1.5,0.676-1.5,1.5v2c0,0.824,0.675,1.5,1.5,1.5h25c0.825,0,1.5-0.676,1.5-1.5v-2
		C61.5,58.676,60.825,58,60,58z M68,25H28c-2.75,0-5,2.25-5,5v35c0,2.75,2.25,5,5,5h40c2.75,0,5-2.25,5-5V30
		C73,27.25,70.75,25,68,25z M70,65c0,1.104-0.897,2-2,2H28c-1.103,0-2-0.896-2-2V54h44V65z M32,48.5v-2c0-0.824,0.675-1.5,1.5-1.5
		h29c0.825,0,1.5,0.676,1.5,1.5v2c0,0.824-0.675,1.5-1.5,1.5h-29C32.675,50,32,49.324,32,48.5z M70,41H26V30c0-1.103,0.897-2,2-2h40
		c1.103,0,2,0.897,2,2V41z"/>
	<path fill="#FFFFFF" d="M61.5,33.5v1c0-0.824-0.675-1.5-1.5-1.5H35c-0.825,0-1.5,0.676-1.5,1.5v-1c0-0.824,0.675-1.5,1.5-1.5h25
		C60.825,32,61.5,32.676,61.5,33.5z M60,58H35c-0.825,0-1.5,0.676-1.5,1.5v1c0-0.824,0.675-1.5,1.5-1.5h25
		c0.825,0,1.5,0.676,1.5,1.5v-1C61.5,58.676,60.825,58,60,58z M70,42v-1H26v1H70z M68,25H28c-2.75,0-5,2.25-5,5v1c0-2.75,2.25-5,5-5
		h40c2.75,0,5,2.25,5,5v-1C73,27.25,70.75,25,68,25z M33.5,51h29c0.825,0,1.5-0.676,1.5-1.5v-1c0,0.824-0.675,1.5-1.5,1.5h-29
		c-0.825,0-1.5-0.676-1.5-1.5v1C32,50.324,32.675,51,33.5,51z M28,68h40c1.103,0,2-0.896,2-2v-1c0,1.104-0.897,2-2,2H28
		c-1.103,0-2-0.896-2-2v1C26,67.104,26.897,68,28,68z"/>
	<linearGradient id="SVGID_4_" gradientUnits="userSpaceOnUse" x1="48.0005" y1="70" x2="48.0005" y2="27.0005">
		<stop  offset="0" style="stop-color:#000000"/>
		<stop  offset="1" style="stop-color:#000000;stop-opacity:0"/>
	</linearGradient>
	<path fill="url(#SVGID_4_)" fill-opacity="0.06" d="M33.5,61.5v-1c0,0.824,0.675,1.5,1.5,1.5h25c0.825,0,1.5-0.676,1.5-1.5v1
		c0,0.824-0.675,1.5-1.5,1.5H35C34.175,63,33.5,62.324,33.5,61.5z M35,37h25c0.825,0,1.5-0.676,1.5-1.5v-1
		c0,0.824-0.675,1.5-1.5,1.5H35c-0.825,0-1.5-0.676-1.5-1.5v1C33.5,36.324,34.175,37,35,37z M68,69H28c-2.75,0-5-2.25-5-5v1
		c0,2.75,2.25,5,5,5h40c2.75,0,5-2.25,5-5v-1C73,66.75,70.75,69,68,69z M26,53v1h44v-1H26z M62.5,44h-29c-0.825,0-1.5,0.676-1.5,1.5
		v1c0-0.824,0.675-1.5,1.5-1.5h29c0.825,0,1.5,0.676,1.5,1.5v-1C64,44.676,63.325,44,62.5,44z M68,27H28c-1.103,0-2,0.897-2,2v1
		c0-1.103,0.897-2,2-2h40c1.103,0,2,0.897,2,2v-1C70,27.897,69.103,27,68,27z"/>
</g>
</svg>
