<?xml version="1.0" encoding="utf-8"?>
<!-- Generator: Adobe Illustrator 15.0.2, SVG Export Plug-In . SVG Version: 6.00 Build 0)  -->
<!DOCTYPE svg PUBLIC "-//W3C//DTD SVG 1.1//EN" "http://www.w3.org/Graphics/SVG/1.1/DTD/svg11.dtd">
<svg version="1.1" id="Layer_1" xmlns="http://www.w3.org/2000/svg" xmlns:xlink="http://www.w3.org/1999/xlink" x="0px" y="0px"
	 width="96px" height="96px" viewBox="0 0 96 96" enable-background="new 0 0 96 96" xml:space="preserve">
<g>
	<path fill-opacity="0.4" d="M88,49c0,29.635-10.363,40-40,40C18.366,89,8,78.635,8,49S18.366,9,48,9C77.637,9,88,19.365,88,49z"/>
	
		<linearGradient id="SVGID_1_" gradientUnits="userSpaceOnUse" x1="-126.0005" y1="122.3984" x2="-126.0005" y2="197.2355" gradientTransform="matrix(1 0 0 -1 174 219)">
		<stop  offset="0" style="stop-color:#006325"/>
		<stop  offset="1" style="stop-color:#80C341"/>
	</linearGradient>
	<path fill="url(#SVGID_1_)" d="M88,48c0,29.635-10.363,40-40,40C18.366,88,8,77.635,8,48S18.366,8,48,8C77.637,8,88,18.365,88,48z"
		/>
	<rect fill="none" width="96" height="96"/>
	
		<linearGradient id="SVGID_2_" gradientUnits="userSpaceOnUse" x1="-300.2749" y1="506.6973" x2="-300.2749" y2="585.9434" gradientTransform="matrix(1 0 0 1 348.2749 -498.4453)">
		<stop  offset="0" style="stop-color:#FFFFFF"/>
		<stop  offset="1" style="stop-color:#FFFFFF;stop-opacity:0"/>
	</linearGradient>
	<path fill="url(#SVGID_2_)" fill-opacity="0.25" d="M48,8C18.366,8,8,18.365,8,48s10.366,40,40,40c29.637,0,40-10.365,40-40
		S77.637,8,48,8z M48,87C18.842,87,9,77.158,9,48S18.842,9,48,9s39,9.842,39,39S77.158,87,48,87z"/>
	<path opacity="0.05" d="M37.75,59.5h-11c-2.481,0-4.5,2.02-4.5,4.5c0,2.482,2.019,4.5,4.5,4.5h11c2.481,0,4.5-2.018,4.5-4.5
		C42.25,61.52,40.231,59.5,37.75,59.5z M75.782,61.987l-5.322-5.321c1.084-2.299,1.656-4.835,1.656-7.358
		C72.116,39.764,64.352,32,54.809,32c-4.57,0-8.732,1.78-11.829,4.684C42.993,36.541,43,36.396,43,36.25c0-2.48-2.019-4.5-4.5-4.5
		h-1.75V30c0-2.48-2.019-4.5-4.5-4.5s-4.5,2.02-4.5,4.5v1.75H26c-2.481,0-4.5,2.02-4.5,4.5c0,2.482,2.019,4.5,4.5,4.5h1.75v1.75
		c0,2.482,2.019,4.5,4.5,4.5s4.5-2.018,4.5-4.5v-1.75h1.75c0.487,0,0.957-0.077,1.396-0.221c-1.521,2.574-2.396,5.576-2.396,8.778
		c0,9.544,7.764,17.308,17.308,17.308c2.522,0,5.058-0.571,7.357-1.654l5.321,5.32c1.108,1.109,2.581,1.72,4.148,1.72
		s3.041-0.61,4.146-1.72c1.107-1.107,1.718-2.58,1.718-4.146S76.89,63.096,75.782,61.987z M54.809,56.903
		c-4.188,0-7.597-3.407-7.597-7.596s3.408-7.597,7.597-7.597s7.596,3.408,7.596,7.597S58.997,56.903,54.809,56.903z"/>
	<path opacity="0.07" d="M75.429,62.341l-5.573-5.572c1.152-2.317,1.761-4.889,1.761-7.461c0-9.268-7.54-16.808-16.808-16.808
		s-16.808,7.54-16.808,16.808s7.54,16.808,16.808,16.808c2.57,0,5.142-0.607,7.459-1.76l5.573,5.572
		c1.014,1.015,2.361,1.573,3.795,1.573c1.435,0,2.781-0.56,3.793-1.573C76.442,68.914,77,67.568,77,66.135
		S76.442,63.354,75.429,62.341z M54.809,57.403c-4.465,0-8.097-3.632-8.097-8.096s3.632-8.097,8.097-8.097
		c4.464,0,8.096,3.633,8.096,8.097S59.272,57.403,54.809,57.403z M26,40.25h2.25v2.25c0,2.206,1.795,4,4,4c2.206,0,4-1.794,4-4
		v-2.25h2.25c2.206,0,4-1.794,4-4c0-2.205-1.794-4-4-4h-2.25V30c0-2.205-1.794-4-4-4c-2.205,0-4,1.795-4,4v2.25H26
		c-2.205,0-4,1.795-4,4C22,38.456,23.795,40.25,26,40.25z M37.75,60h-11c-2.205,0-4,1.795-4,4c0,2.206,1.795,4,4,4h11
		c2.206,0,4-1.794,4-4C41.75,61.795,39.956,60,37.75,60z"/>
	<path opacity="0.1" d="M37.75,60.5h-11c-1.93,0-3.5,1.57-3.5,3.5s1.57,3.5,3.5,3.5h11c1.93,0,3.5-1.57,3.5-3.5
		S39.68,60.5,37.75,60.5z M26,39.75h2.75v2.75c0,1.93,1.57,3.5,3.5,3.5s3.5-1.57,3.5-3.5v-2.75h2.75c1.93,0,3.5-1.57,3.5-3.5
		s-1.57-3.5-3.5-3.5h-2.75V30c0-1.93-1.57-3.5-3.5-3.5s-3.5,1.57-3.5,3.5v2.75H26c-1.93,0-3.5,1.57-3.5,3.5S24.07,39.75,26,39.75z
		 M75.075,62.694l-5.831-5.829c1.226-2.332,1.872-4.938,1.872-7.558C71.116,40.315,63.801,33,54.809,33s-16.308,7.315-16.308,16.308
		s7.315,16.308,16.308,16.308c2.618,0,5.223-0.646,7.556-1.871l5.83,5.83c0.92,0.92,2.142,1.427,3.441,1.427
		c1.301,0,2.522-0.507,3.439-1.427c0.919-0.918,1.425-2.141,1.425-3.439S75.994,63.613,75.075,62.694z M54.809,57.903
		c-4.74,0-8.597-3.856-8.597-8.596s3.856-8.597,8.597-8.597c4.739,0,8.596,3.857,8.596,8.597S59.548,57.903,54.809,57.903z"/>
	<path opacity="0.15" d="M37.75,61h-11c-1.654,0-3,1.346-3,3s1.346,3,3,3h11c1.654,0,3-1.346,3-3S39.404,61,37.75,61z M26,39.25
		h3.25v3.25c0,1.654,1.346,3,3,3s3-1.346,3-3v-3.25h3.25c1.654,0,3-1.346,3-3s-1.346-3-3-3h-3.25V30c0-1.654-1.346-3-3-3
		s-3,1.346-3,3v3.25H26c-1.654,0-3,1.346-3,3S24.346,39.25,26,39.25z M74.722,63.048l-6.094-6.093
		c1.302-2.344,1.988-4.979,1.988-7.647c0-8.716-7.092-15.808-15.808-15.808c-8.717,0-15.808,7.092-15.808,15.808
		s7.091,15.808,15.808,15.808c2.665,0,5.301-0.686,7.646-1.987l6.094,6.093c0.825,0.826,1.922,1.28,3.088,1.28
		s2.263-0.454,3.086-1.28C75.546,68.396,76,67.301,76,66.135S75.546,63.873,74.722,63.048z M54.809,58.403
		c-5.016,0-9.097-4.08-9.097-9.096s4.081-9.097,9.097-9.097s9.096,4.081,9.096,9.097S59.824,58.403,54.809,58.403z"/>
	<path opacity="0.15" d="M29.75,38.75v3.75c0,1.379,1.122,2.5,2.5,2.5c1.379,0,2.5-1.121,2.5-2.5v-3.75h3.75
		c1.379,0,2.5-1.121,2.5-2.5c0-1.378-1.121-2.5-2.5-2.5h-3.75V30c0-1.378-1.121-2.5-2.5-2.5c-1.378,0-2.5,1.122-2.5,2.5v3.75H26
		c-1.378,0-2.5,1.122-2.5,2.5c0,1.379,1.122,2.5,2.5,2.5H29.75z M74.368,63.401l-6.364-6.362c1.383-2.353,2.112-5.018,2.112-7.731
		c0-8.44-6.867-15.308-15.308-15.308c-8.441,0-15.308,6.867-15.308,15.308s6.866,15.308,15.308,15.308
		c2.712,0,5.375-0.729,7.729-2.111l6.363,6.363c0.73,0.73,1.701,1.134,2.734,1.134c1.032,0,2.003-0.403,2.732-1.134
		c0.729-0.729,1.132-1.7,1.132-2.732C75.5,65.102,75.098,64.131,74.368,63.401z M54.809,58.903c-5.292,0-9.597-4.305-9.597-9.596
		c0-5.292,4.305-9.597,9.597-9.597c5.291,0,9.596,4.305,9.596,9.597C64.404,54.599,60.1,58.903,54.809,58.903z M37.75,61.5h-11
		c-1.378,0-2.5,1.122-2.5,2.5c0,1.379,1.122,2.5,2.5,2.5h11c1.379,0,2.5-1.121,2.5-2.5C40.25,62.622,39.129,61.5,37.75,61.5z"/>
	<linearGradient id="SVGID_3_" gradientUnits="userSpaceOnUse" x1="49.5" y1="68.501" x2="49.5" y2="27.0005">
		<stop  offset="0" style="stop-color:#D0CBC5"/>
		<stop  offset="0.5031" style="stop-color:#FAFCEF"/>
		<stop  offset="0.9693" style="stop-color:#FFFFFF"/>
		<stop  offset="1" style="stop-color:#FFFFFF"/>
	</linearGradient>
	<path fill="url(#SVGID_3_)" d="M74.015,62.755l-6.642-6.64c1.413-2.268,2.243-4.938,2.243-7.808
		c0-8.177-6.631-14.808-14.808-14.808c-8.18,0-14.808,6.631-14.808,14.808c0,8.18,6.628,14.808,14.808,14.808
		c2.868,0,5.537-0.83,7.806-2.241l6.642,6.64c1.314,1.316,3.445,1.316,4.759,0C75.329,66.2,75.329,64.069,74.015,62.755z
		 M54.809,58.403c-5.569,0-10.097-4.527-10.097-10.096c0-5.566,4.527-10.097,10.097-10.097c5.565,0,10.096,4.53,10.096,10.097
		C64.904,53.876,60.374,58.403,54.809,58.403z M40.5,35.25c0,1.105-0.894,2-2,2h-4.25v4.25c0,1.107-0.895,2-2,2s-2-0.893-2-2v-4.25
		H26c-1.105,0-2-0.895-2-2s0.895-2,2-2h4.25V29c0-1.105,0.895-2,2-2s2,0.895,2,2v4.25h4.25C39.606,33.25,40.5,34.145,40.5,35.25z
		 M39.75,63c0,1.105-0.894,2-2,2h-11c-1.105,0-2-0.895-2-2s0.895-2,2-2h11C38.856,61,39.75,61.895,39.75,63z"/>
	<linearGradient id="SVGID_4_" gradientUnits="userSpaceOnUse" x1="49.4951" y1="68.501" x2="49.4951" y2="34.7505">
		<stop  offset="0" style="stop-color:#000000"/>
		<stop  offset="1" style="stop-color:#000000;stop-opacity:0"/>
	</linearGradient>
	<path fill="url(#SVGID_4_)" fill-opacity="0.06" d="M67.373,55.115c1.316-2.113,2.117-4.576,2.222-7.224
		c0.004,0.14,0.021,0.275,0.021,0.416c0,2.608-0.691,5.048-1.877,7.174L67.373,55.115z M54.809,37.211
		c-5.569,0-10.097,4.53-10.097,10.097c0,0.169,0.018,0.333,0.025,0.5c0.263-5.333,4.671-9.597,10.071-9.597
		c5.396,0,9.808,4.264,10.07,9.597c0.009-0.167,0.025-0.331,0.025-0.5C64.904,41.741,60.374,37.211,54.809,37.211z M32.25,42.5
		c-1.105,0-2-0.893-2-2v1c0,1.107,0.895,2,2,2s2-0.893,2-2v-1C34.25,41.607,33.355,42.5,32.25,42.5z M40.43,34.75
		c-0.223,0.861-0.997,1.5-1.93,1.5h-4.25v1h4.25c1.106,0,2-0.895,2-2C40.5,35.076,40.472,34.911,40.43,34.75z M74.015,66.514
		c-1.313,1.316-3.444,1.316-4.759,0l-6.642-6.64c-2.269,1.411-4.938,2.241-7.806,2.241c-8.011,0-14.517-6.361-14.782-14.308
		c-0.006,0.167-0.025,0.331-0.025,0.5c0,8.18,6.628,14.808,14.808,14.808c2.868,0,5.537-0.83,7.806-2.241l6.642,6.64
		c1.314,1.316,3.445,1.316,4.759,0c0.785-0.785,1.09-1.859,0.938-2.879C74.85,65.322,74.544,65.984,74.015,66.514z M37.75,64h-11
		c-0.932,0-1.706-0.639-1.93-1.5c-0.041,0.161-0.07,0.326-0.07,0.5c0,1.105,0.895,2,2,2h11c1.106,0,2-0.895,2-2
		c0-0.174-0.028-0.339-0.07-0.5C39.457,63.361,38.683,64,37.75,64z M30.25,37.25v-1H26c-0.932,0-1.706-0.639-1.93-1.5
		c-0.041,0.161-0.07,0.326-0.07,0.5c0,1.105,0.895,2,2,2H30.25z"/>
	<path fill="#FFFFFF" d="M34.25,33.25h4.25c1.106,0,2,0.895,2,2c0,0.174-0.028,0.34-0.07,0.5c-0.223-0.861-0.997-1.5-1.93-1.5h-4.25
		V33.25z M40.026,48.808C40.292,40.864,46.798,34.5,54.809,34.5c8.036,0,14.563,6.408,14.786,14.392
		c0.008-0.194,0.021-0.388,0.021-0.584c0-8.177-6.631-14.808-14.808-14.808c-8.18,0-14.808,6.631-14.808,14.808
		C40.001,48.477,40.021,48.641,40.026,48.808z M54.809,59.403c5.565,0,10.096-4.527,10.096-10.096c0-0.169-0.017-0.333-0.025-0.5
		c-0.263,5.335-4.674,9.596-10.07,9.596c-5.4,0-9.809-4.261-10.071-9.596c-0.008,0.167-0.025,0.331-0.025,0.5
		C44.712,54.876,49.239,59.403,54.809,59.403z M67.373,57.115l6.642,6.64c0.529,0.529,0.835,1.192,0.938,1.88
		c0.152-1.02-0.152-2.095-0.938-2.88l-6.275-6.273C67.62,56.695,67.502,56.908,67.373,57.115z M32.25,28c1.105,0,2,0.895,2,2v-1
		c0-1.105-0.895-2-2-2s-2,0.895-2,2v1C30.25,28.895,31.145,28,32.25,28z M37.75,61h-11c-1.105,0-2,0.895-2,2
		c0,0.174,0.029,0.34,0.07,0.5c0.224-0.861,0.998-1.5,1.93-1.5h11c0.933,0,1.707,0.639,1.93,1.5c0.042-0.16,0.07-0.326,0.07-0.5
		C39.75,61.895,38.856,61,37.75,61z M26,34.25h4.25v-1H26c-1.105,0-2,0.895-2,2c0,0.174,0.029,0.34,0.07,0.5
		C24.294,34.889,25.068,34.25,26,34.25z"/>
</g>
</svg>
