<?xml version="1.0" encoding="utf-8"?>
<!-- Generator: Adobe Illustrator 15.0.2, SVG Export Plug-In . SVG Version: 6.00 Build 0)  -->
<!DOCTYPE svg PUBLIC "-//W3C//DTD SVG 1.1//EN" "http://www.w3.org/Graphics/SVG/1.1/DTD/svg11.dtd">
<svg version="1.1" id="Layer_1" xmlns="http://www.w3.org/2000/svg" xmlns:xlink="http://www.w3.org/1999/xlink" x="0px" y="0px"
	 width="96px" height="96px" viewBox="0 0 96 96" enable-background="new 0 0 96 96" xml:space="preserve">
<g>
	<path fill-opacity="0.4" d="M88,49c0,29.634-10.363,40-40,40C18.366,89,8,78.634,8,49C8,19.365,18.366,9,48,9
		C77.637,9,88,19.365,88,49z"/>
	
		<linearGradient id="SVGID_1_" gradientUnits="userSpaceOnUse" x1="-126.0005" y1="122.3984" x2="-126.0005" y2="197.2355" gradientTransform="matrix(1 0 0 -1 174 219)">
		<stop  offset="0" style="stop-color:#006325"/>
		<stop  offset="1" style="stop-color:#80C341"/>
	</linearGradient>
	<path fill="url(#SVGID_1_)" d="M88,48c0,29.634-10.363,40-40,40C18.366,88,8,77.634,8,48C8,18.365,18.366,8,48,8
		C77.637,8,88,18.365,88,48z"/>
	<rect fill="none" width="96" height="96"/>
	
		<linearGradient id="SVGID_2_" gradientUnits="userSpaceOnUse" x1="-300.2749" y1="506.6982" x2="-300.2749" y2="585.9434" gradientTransform="matrix(1 0 0 1 348.2749 -498.4453)">
		<stop  offset="0" style="stop-color:#FFFFFF"/>
		<stop  offset="1" style="stop-color:#FFFFFF;stop-opacity:0"/>
	</linearGradient>
	<path fill="url(#SVGID_2_)" fill-opacity="0.25" d="M48,8C18.366,8,8,18.365,8,48c0,29.634,10.366,40,40,40
		c29.637,0,40-10.366,40-40C88,18.365,77.637,8,48,8z M48,87C18.842,87,9,77.158,9,48S18.842,9,48,9s39,9.842,39,39S77.158,87,48,87
		z"/>
	<path opacity="0.05" d="M63.361,38.066L62.6,31.697C62.387,29.904,60.806,28.5,59,28.5H37c-1.806,0-3.387,1.404-3.6,3.195
		l-0.762,6.367c-0.119,0.972,0.18,1.941,0.82,2.66c0.638,0.721,1.563,1.135,2.541,1.135h0.918c1.604,0,3.189-1.15,3.688-2.678
		l0.71-2.18H42.5v24.793l-0.82,0.103c-1.783,0.224-3.18,1.808-3.18,3.604V66c0,1.93,1.57,3.5,3.5,3.5h12c1.93,0,3.5-1.57,3.5-3.5
		v-0.5c0-1.797-1.396-3.381-3.181-3.604L53.5,61.793V37.002l1.187,0.002l0.71,2.179c0.499,1.524,2.085,2.675,3.688,2.675H60
		c0.978,0,1.903-0.413,2.541-1.133C63.182,40.003,63.48,39.033,63.361,38.066z"/>
	<path opacity="0.07" d="M62.865,38.126l-0.762-6.37C61.92,30.211,60.557,29,59,29H37c-1.557,0-2.92,1.211-3.104,2.755l-0.762,6.368
		c-0.102,0.83,0.153,1.656,0.698,2.269c0.543,0.613,1.333,0.966,2.167,0.966h0.918c1.397,0,2.778-1.003,3.212-2.332l0.822-2.525H43
		v25.734l-1.258,0.157C40.205,62.584,39,63.949,39,65.5V66c0,1.654,1.346,3,3,3h12c1.654,0,3-1.346,3-3v-0.5
		c0-1.551-1.205-2.916-2.742-3.108L53,62.234V36.501l2.05,0.003l0.822,2.523c0.435,1.328,1.815,2.33,3.213,2.33H60
		c0.834,0,1.624-0.352,2.167-0.964C62.712,39.779,62.967,38.951,62.865,38.126z"/>
	<path opacity="0.1" d="M62.369,38.186l-0.762-6.37C61.453,30.518,60.308,29.5,59,29.5H37c-1.308,0-2.453,1.018-2.607,2.314
		l-0.762,6.369c-0.084,0.688,0.126,1.371,0.576,1.877c0.448,0.506,1.102,0.797,1.793,0.797h0.918c1.191,0,2.367-0.854,2.736-1.986
		L40.589,36H43.5v26.676l-1.695,0.212C40.513,63.05,39.5,64.197,39.5,65.5V66c0,1.379,1.121,2.5,2.5,2.5h12
		c1.379,0,2.5-1.121,2.5-2.5v-0.5c0-1.303-1.013-2.45-2.305-2.612L52.5,62.676V36l2.913,0.004l0.935,2.868
		c0.37,1.132,1.547,1.985,2.737,1.985H60c0.69,0,1.345-0.291,1.793-0.796C62.243,39.555,62.453,38.87,62.369,38.186z"/>
	<path opacity="0.15" d="M61.873,38.245l-0.762-6.37C60.986,30.823,60.059,30,59,30H37c-1.059,0-1.986,0.823-2.111,1.874
		l-0.762,6.37c-0.066,0.545,0.1,1.086,0.454,1.484c0.354,0.399,0.87,0.629,1.419,0.629h0.918c0.984,0,1.956-0.706,2.261-1.642
		l0.963-2.956c0.036-0.111,0.24-0.26,0.358-0.26H44V63c0,0.046-0.071,0.126-0.117,0.132l-2.016,0.252
		C40.82,63.516,40,64.445,40,65.5V66c0,1.104,0.897,2,2,2h12c1.103,0,2-0.896,2-2v-0.5c0-1.055-0.82-1.984-1.867-2.116l-2.016-0.252
		C52.071,63.126,52,63.046,52,63V35.5h3.5c0.118,0,0.323,0.148,0.359,0.26l0.964,2.957c0.306,0.936,1.278,1.641,2.262,1.641H60
		c0.549,0,1.065-0.229,1.419-0.628C61.773,39.33,61.939,38.789,61.873,38.245z"/>
	<path opacity="0.15" d="M61.377,38.305l-0.762-6.371C60.52,31.13,59.81,30.5,59,30.5H37c-0.81,0-1.52,0.63-1.615,1.434
		l-0.762,6.371c-0.049,0.402,0.072,0.801,0.332,1.092c0.259,0.293,0.64,0.461,1.045,0.461h0.918c0.765,0,1.549-0.57,1.785-1.297
		l0.963-2.955C39.769,35.289,40.166,35,40.5,35H44c0.275,0,0.5,0.225,0.5,0.5V63c0,0.297-0.259,0.591-0.555,0.628L41.93,63.88
		c-0.802,0.101-1.43,0.812-1.43,1.62V66c0,0.827,0.673,1.5,1.5,1.5h12c0.827,0,1.5-0.673,1.5-1.5v-0.5c0-0.809-0.628-1.52-1.43-1.62
		l-2.016-0.252C51.759,63.591,51.5,63.297,51.5,63V35.5c0-0.275,0.225-0.5,0.5-0.5h3.5c0.334,0,0.731,0.289,0.835,0.605l0.964,2.956
		c0.237,0.727,1.022,1.296,1.786,1.296H60c0.405,0,0.786-0.168,1.045-0.461C61.305,39.105,61.426,38.707,61.377,38.305z"/>
	<linearGradient id="SVGID_3_" gradientUnits="userSpaceOnUse" x1="48.0005" y1="66" x2="48.0005" y2="30.0005">
		<stop  offset="0" style="stop-color:#D0CBC5"/>
		<stop  offset="0.5031" style="stop-color:#FAFCEF"/>
		<stop  offset="0.9693" style="stop-color:#FFFFFF"/>
		<stop  offset="1" style="stop-color:#FFFFFF"/>
	</linearGradient>
	<path fill="url(#SVGID_3_)" d="M60.119,30.993C60.054,30.447,59.55,30,59,30H37c-0.55,0-1.054,0.447-1.119,0.993l-0.762,6.371
		C35.054,37.91,35.45,38.357,36,38.357h0.918c0.55,0,1.14-0.428,1.31-0.951l0.963-2.955c0.17-0.523,0.76-0.951,1.31-0.951H44
		c0.55,0,1,0.45,1,1V62c0,0.55-0.446,1.056-0.992,1.124l-2.016,0.252C41.446,63.444,41,63.95,41,64.5V65c0,0.55,0.45,1,1,1h12
		c0.55,0,1-0.45,1-1v-0.5c0-0.55-0.446-1.056-0.992-1.124l-2.016-0.252C51.446,63.056,51,62.55,51,62V34.5c0-0.55,0.45-1,1-1h3.5
		c0.55,0,1.14,0.428,1.311,0.951l0.964,2.955c0.171,0.523,0.761,0.951,1.311,0.951H60c0.55,0,0.946-0.447,0.881-0.993L60.119,30.993
		z"/>
	<path fill="#FFFFFF" d="M35.186,37.81c-0.054-0.136-0.086-0.283-0.066-0.445l0.762-6.371C35.946,30.447,36.45,30,37,30h22
		c0.55,0,1.054,0.447,1.119,0.993l0.762,6.371c0.02,0.162-0.013,0.31-0.066,0.445l-0.695-5.816C60.054,31.447,59.55,31,59,31H37
		c-0.55,0-1.054,0.447-1.119,0.993L35.186,37.81z M54.008,63.376l-2.016-0.252C51.446,63.056,51,62.55,51,62v1
		c0,0.55,0.446,1.056,0.992,1.124l2.016,0.252c0.459,0.058,0.83,0.428,0.942,0.87C54.972,65.165,55,65.087,55,65v-0.5
		C55,63.95,54.554,63.444,54.008,63.376z M41.992,64.376l2.016-0.252C44.554,64.056,45,63.55,45,63v-1
		c0,0.55-0.446,1.056-0.992,1.124l-2.016,0.252C41.446,63.444,41,63.95,41,64.5V65c0,0.087,0.028,0.165,0.05,0.246
		C41.162,64.804,41.533,64.434,41.992,64.376z"/>
	<linearGradient id="SVGID_4_" gradientUnits="userSpaceOnUse" x1="48.0005" y1="66" x2="48.0005" y2="32.5005">
		<stop  offset="0" style="stop-color:#000000"/>
		<stop  offset="1" style="stop-color:#000000;stop-opacity:0"/>
	</linearGradient>
	<path fill="url(#SVGID_4_)" fill-opacity="0.06" d="M44,33.5h-3.5c-0.55,0-1.14,0.428-1.31,0.951l-0.963,2.955
		c-0.17,0.523-0.76,0.951-1.31,0.951H36c-0.55,0-0.946-0.447-0.881-0.993l0.066-0.555c0.128,0.32,0.429,0.548,0.814,0.548h0.918
		c0.55,0,1.14-0.428,1.31-0.951l0.963-2.955c0.17-0.523,0.76-0.951,1.31-0.951H44c0.55,0,1,0.45,1,1v1C45,33.95,44.55,33.5,44,33.5z
		 M54,65H42c-0.463,0-0.837-0.325-0.95-0.754C41.028,64.33,41,64.412,41,64.5V65c0,0.55,0.45,1,1,1h12c0.55,0,1-0.45,1-1v-0.5
		c0-0.088-0.028-0.17-0.05-0.254C54.837,64.675,54.463,65,54,65z M60,37.357h-0.915c-0.55,0-1.14-0.428-1.311-0.951l-0.964-2.955
		C56.64,32.928,56.05,32.5,55.5,32.5H52c-0.55,0-1,0.45-1,1v1c0-0.55,0.45-1,1-1h3.5c0.55,0,1.14,0.428,1.311,0.951l0.964,2.955
		c0.171,0.523,0.761,0.951,1.311,0.951H60c0.55,0,0.946-0.447,0.881-0.993l-0.066-0.555C60.687,37.13,60.386,37.357,60,37.357z"/>
</g>
</svg>
