<?xml version="1.0" encoding="utf-8"?>
<!-- Generator: Adobe Illustrator 15.0.2, SVG Export Plug-In . SVG Version: 6.00 Build 0)  -->
<!DOCTYPE svg PUBLIC "-//W3C//DTD SVG 1.1//EN" "http://www.w3.org/Graphics/SVG/1.1/DTD/svg11.dtd">
<svg version="1.1" id="Layer_1" xmlns="http://www.w3.org/2000/svg" xmlns:xlink="http://www.w3.org/1999/xlink" x="0px" y="0px"
	 width="96px" height="96px" viewBox="0 0 96 96" enable-background="new 0 0 96 96" xml:space="preserve">
<g>
	<path fill-opacity="0.4" d="M88,49c0,29.634-10.363,40-40,40C18.366,89,8,78.634,8,49C8,19.365,18.366,9,48,9
		C77.637,9,88,19.365,88,49z"/>
	
		<linearGradient id="SVGID_1_" gradientUnits="userSpaceOnUse" x1="-126.0005" y1="122.3984" x2="-126.0005" y2="197.2355" gradientTransform="matrix(1 0 0 -1 174 219)">
		<stop  offset="0" style="stop-color:#006325"/>
		<stop  offset="1" style="stop-color:#80C341"/>
	</linearGradient>
	<path fill="url(#SVGID_1_)" d="M88,48c0,29.634-10.363,40-40,40C18.366,88,8,77.634,8,48C8,18.365,18.366,8,48,8
		C77.637,8,88,18.365,88,48z"/>
	<rect fill="none" width="96" height="96"/>
	
		<linearGradient id="SVGID_2_" gradientUnits="userSpaceOnUse" x1="-300.2749" y1="506.6982" x2="-300.2749" y2="585.9434" gradientTransform="matrix(1 0 0 1 348.2749 -498.4453)">
		<stop  offset="0" style="stop-color:#FFFFFF"/>
		<stop  offset="1" style="stop-color:#FFFFFF;stop-opacity:0"/>
	</linearGradient>
	<path fill="url(#SVGID_2_)" fill-opacity="0.25" d="M48,8C18.366,8,8,18.365,8,48c0,29.634,10.366,40,40,40
		c29.637,0,40-10.366,40-40C88,18.365,77.637,8,48,8z M48,87C18.842,87,9,77.158,9,48S18.842,9,48,9s39,9.842,39,39S77.158,87,48,87
		z"/>
	<path opacity="0.05" d="M37,43.5c1.182,0,2.175-0.549,2.723-1.502c0.556-0.959,0.534-2.095-0.06-3.114l-5.496-9.524
		c-0.59-1.021-1.562-1.608-2.667-1.608c-1.106,0-2.077,0.587-2.663,1.607l-5.5,9.522c-0.592,1.021-0.615,2.156-0.063,3.112
		C23.825,42.951,24.819,43.5,26,43.5h1.5v11H26c-1.182,0-2.175,0.549-2.723,1.502c-0.556,0.959-0.534,2.095,0.06,3.114l5.496,9.524
		c0.59,1.021,1.562,1.608,2.667,1.608c1.106,0,2.077-0.587,2.663-1.607l5.5-9.522c0.592-1.021,0.615-2.156,0.063-3.112
		C39.174,55.049,38.18,54.5,37,54.5h-1.5v-11H37z M71.5,39.5v-3c0-2.205-1.795-4-4-4h-23c-2.206,0-4.001,1.795-4.001,4v3
		c0,2.205,1.795,4,4.001,4c-2.206,0-4.001,1.795-4.001,4v3c0,2.205,1.795,4,4.001,4c-2.206,0-4.001,1.795-4.001,4v3
		c0,2.205,1.795,4,4.001,4h23c2.205,0,4-1.795,4-4v-3c0-2.205-1.795-4-4-4c2.205,0,4-1.795,4-4v-3c0-2.205-1.795-4-4-4
		C69.705,43.5,71.5,41.705,71.5,39.5z"/>
	<path opacity="0.07" d="M67.5,33h-23C42.57,33,41,34.57,41,36.5v3c0,1.93,1.57,3.5,3.501,3.5h23c1.93,0,3.5-1.57,3.5-3.5v-3
		C71,34.57,69.43,33,67.5,33z M37,43c0.998,0,1.833-0.457,2.29-1.253c0.463-0.799,0.441-1.752-0.06-2.613l-5.497-9.524
		c-0.498-0.863-1.312-1.358-2.233-1.358c-0.922,0-1.735,0.495-2.23,1.357l-5.5,9.523c-0.5,0.862-0.522,1.815-0.062,2.612
		C24.167,42.542,25.002,43,26,43h2v12h-2c-0.998,0-1.833,0.457-2.29,1.253c-0.463,0.799-0.441,1.752,0.06,2.613l5.497,9.524
		c0.498,0.863,1.312,1.358,2.233,1.358c0.922,0,1.735-0.495,2.23-1.357l5.5-9.523c0.5-0.862,0.522-1.815,0.062-2.612
		C38.833,55.458,37.997,55,37,55h-2V43H37z M67.5,55h-23C42.57,55,41,56.57,41,58.5v3c0,1.93,1.57,3.5,3.501,3.5h23
		c1.93,0,3.5-1.57,3.5-3.5v-3C71,56.57,69.43,55,67.5,55z M67.5,44h-23C42.57,44,41,45.57,41,47.5v3c0,1.93,1.57,3.5,3.501,3.5h23
		c1.93,0,3.5-1.57,3.5-3.5v-3C71,45.57,69.43,44,67.5,44z"/>
	<path opacity="0.1" d="M37,55.5h-2.5v-13H37c0.813,0,1.491-0.366,1.857-1.004c0.37-0.639,0.349-1.409-0.06-2.112l-5.498-9.524
		c-0.406-0.705-1.062-1.108-1.8-1.108c-0.738,0-1.394,0.403-1.798,1.107l-5.5,9.524c-0.408,0.704-0.43,1.475-0.062,2.111
		C24.508,42.133,25.186,42.5,26,42.5h2.5v13H26c-0.813,0-1.491,0.366-1.857,1.004c-0.37,0.639-0.349,1.409,0.06,2.112l5.498,9.524
		c0.406,0.705,1.062,1.108,1.8,1.108c0.738,0,1.394-0.403,1.798-1.107l5.5-9.524c0.408-0.704,0.43-1.475,0.062-2.111
		C38.491,55.867,37.813,55.5,37,55.5z M67.5,55.5h-23c-1.654,0-3.001,1.346-3.001,3v3c0,1.654,1.347,3,3.001,3h23
		c1.654,0,3-1.346,3-3v-3C70.5,56.846,69.154,55.5,67.5,55.5z M67.5,33.5h-23c-1.654,0-3.001,1.346-3.001,3v3
		c0,1.654,1.347,3,3.001,3h23c1.654,0,3-1.346,3-3v-3C70.5,34.846,69.154,33.5,67.5,33.5z M67.5,44.5h-23
		c-1.654,0-3.001,1.346-3.001,3v3c0,1.654,1.347,3,3.001,3h23c1.654,0,3-1.346,3-3v-3C70.5,45.846,69.154,44.5,67.5,44.5z"/>
	<path opacity="0.15" d="M67.5,56h-23C43.122,56,42,57.121,42,58.5v3c0,1.379,1.122,2.5,2.501,2.5h23c1.379,0,2.5-1.121,2.5-2.5v-3
		C70,57.121,68.879,56,67.5,56z M37,56h-3V42h3c0.63,0,1.149-0.275,1.425-0.754c0.278-0.48,0.256-1.068-0.06-1.612l-5.499-9.524
		c-0.314-0.546-0.812-0.858-1.366-0.858s-1.052,0.312-1.365,0.857l-5.5,9.524c-0.315,0.545-0.338,1.133-0.061,1.611
		C24.85,41.725,25.37,42,26,42h3v14h-3c-0.63,0-1.149,0.275-1.425,0.754c-0.278,0.48-0.256,1.068,0.06,1.612l5.499,9.524
		c0.314,0.546,0.812,0.858,1.366,0.858s1.052-0.312,1.365-0.857l5.5-9.524c0.315-0.545,0.338-1.133,0.061-1.611
		C38.149,56.275,37.629,56,37,56z M67.5,34h-23C43.122,34,42,35.121,42,36.5v3c0,1.379,1.122,2.5,2.501,2.5h23
		c1.379,0,2.5-1.121,2.5-2.5v-3C70,35.121,68.879,34,67.5,34z M67.5,45h-23C43.122,45,42,46.121,42,47.5v3
		c0,1.379,1.122,2.5,2.501,2.5h23c1.379,0,2.5-1.121,2.5-2.5v-3C70,46.121,68.879,45,67.5,45z"/>
	<path opacity="0.15" d="M37,41.5c0.445,0,0.808-0.184,0.992-0.505c0.186-0.32,0.164-0.726-0.06-1.111l-5.5-9.525
		c-0.223-0.386-0.562-0.607-0.933-0.607s-0.71,0.222-0.933,0.607l-5.5,9.525c-0.224,0.386-0.245,0.791-0.06,1.111
		C25.192,41.316,25.554,41.5,26,41.5h3.5v15H26c-0.445,0-0.808,0.184-0.992,0.505c-0.186,0.32-0.164,0.726,0.06,1.111l5.5,9.525
		c0.223,0.386,0.562,0.607,0.933,0.607s0.71-0.222,0.933-0.607l5.5-9.525c0.224-0.386,0.245-0.791,0.06-1.111
		C37.807,56.684,37.445,56.5,37,56.5h-3.5v-15H37z M67.5,56.5h-23c-1.104,0-2.001,0.896-2.001,2v3c0,1.104,0.897,2,2.001,2h23
		c1.102,0,2-0.896,2-2v-3C69.5,57.396,68.602,56.5,67.5,56.5z M67.5,34.5h-23c-1.104,0-2.001,0.896-2.001,2v3
		c0,1.104,0.897,2,2.001,2h23c1.102,0,2-0.896,2-2v-3C69.5,35.396,68.602,34.5,67.5,34.5z M67.5,45.5h-23
		c-1.104,0-2.001,0.896-2.001,2v3c0,1.104,0.897,2,2.001,2h23c1.102,0,2-0.896,2-2v-3C69.5,46.396,68.602,45.5,67.5,45.5z"/>
	<linearGradient id="SVGID_3_" gradientUnits="userSpaceOnUse" x1="47.1914" y1="67.0146" x2="47.1914" y2="29.333">
		<stop  offset="0" style="stop-color:#D0CBC5"/>
		<stop  offset="0.5031" style="stop-color:#FAFCEF"/>
		<stop  offset="0.9693" style="stop-color:#FFFFFF"/>
		<stop  offset="1" style="stop-color:#FFFFFF"/>
	</linearGradient>
	<path fill="url(#SVGID_3_)" d="M67.5,56h-23C43.675,56,43,56.676,43,57.5v3c0,0.824,0.676,1.5,1.501,1.5h23
		c0.824,0,1.5-0.676,1.5-1.5v-3C69,56.676,68.324,56,67.5,56z M67.5,45h-23C43.675,45,43,45.676,43,46.5v3
		c0,0.824,0.676,1.5,1.501,1.5h23c0.824,0,1.5-0.676,1.5-1.5v-3C69,45.676,68.324,45,67.5,45z M67.5,34h-23
		C43.675,34,43,34.676,43,35.5v3c0,0.824,0.676,1.5,1.501,1.5h23c0.824,0,1.5-0.676,1.5-1.5v-3C69,34.676,68.324,34,67.5,34z
		 M37.5,56.866L32,66.392c-0.275,0.477-0.725,0.477-1,0l-5.5-9.525C25.224,56.39,25.45,56,26,56h4V40h-4
		c-0.55,0-0.775-0.39-0.5-0.866l5.5-9.525c0.275-0.477,0.725-0.477,1,0l5.5,9.525C37.775,39.61,37.549,40,37,40h-4v16h4
		C37.549,56,37.775,56.39,37.5,56.866z"/>
	<path fill="#FFFFFF" d="M37.5,56.866l-0.129,0.223C37.272,57.035,37.152,57,37,57h-4v-1h4C37.549,56,37.775,56.39,37.5,56.866z
		 M32,29.608c-0.275-0.477-0.725-0.477-1,0l-5.5,9.525c-0.199,0.345-0.129,0.639,0.129,0.778L31,30.609c0.275-0.477,0.725-0.477,1,0
		l5.371,9.303c0.258-0.14,0.328-0.434,0.129-0.778L32,29.608z M25.628,57.089C25.727,57.035,25.847,57,26,57h4v-1h-4
		c-0.55,0-0.775,0.39-0.5,0.866L25.628,57.089z M67.5,34h-23C43.675,34,43,34.676,43,35.5v1c0-0.824,0.676-1.5,1.501-1.5h23
		c0.824,0,1.5,0.676,1.5,1.5v-1C69,34.676,68.324,34,67.5,34z M67.5,45h-23C43.675,45,43,45.676,43,46.5v1
		c0-0.824,0.676-1.5,1.501-1.5h23c0.824,0,1.5,0.676,1.5,1.5v-1C69,45.676,68.324,45,67.5,45z M67.5,56h-23
		C43.675,56,43,56.676,43,57.5v1c0-0.824,0.676-1.5,1.501-1.5h23c0.824,0,1.5,0.676,1.5,1.5v-1C69,56.676,68.324,56,67.5,56z"/>
	<linearGradient id="SVGID_4_" gradientUnits="userSpaceOnUse" x1="47.1914" y1="66.627" x2="47.1914" y2="37.4156">
		<stop  offset="0" style="stop-color:#000000"/>
		<stop  offset="1" style="stop-color:#000000;stop-opacity:0"/>
	</linearGradient>
	<path fill="url(#SVGID_4_)" fill-opacity="0.06" d="M37.5,39.134C37.775,39.61,37.549,40,37,40h-4v-1h4
		c0.152,0,0.273-0.035,0.372-0.088L37.5,39.134z M26,40h4v-1h-4c-0.152,0-0.273-0.035-0.372-0.088L25.5,39.134
		C25.224,39.61,25.45,40,26,40z M37.372,56.089L32,65.393c-0.275,0.477-0.725,0.477-1,0l-5.372-9.304
		c-0.257,0.14-0.327,0.433-0.128,0.777l5.5,9.525c0.275,0.477,0.725,0.477,1,0l5.5-9.525C37.699,56.521,37.628,56.229,37.372,56.089
		z M67.5,61h-23C43.675,61,43,60.324,43,59.5v1c0,0.824,0.676,1.5,1.501,1.5h23c0.824,0,1.5-0.676,1.5-1.5v-1
		C69,60.324,68.324,61,67.5,61z M67.5,50h-23C43.675,50,43,49.324,43,48.5v1c0,0.824,0.676,1.5,1.501,1.5h23
		c0.824,0,1.5-0.676,1.5-1.5v-1C69,49.324,68.324,50,67.5,50z M67.5,39h-23C43.675,39,43,38.324,43,37.5v1
		c0,0.824,0.676,1.5,1.501,1.5h23c0.824,0,1.5-0.676,1.5-1.5v-1C69,38.324,68.324,39,67.5,39z"/>
</g>
</svg>
