<?xml version="1.0" encoding="utf-8"?>
<!-- Generator: Adobe Illustrator 15.0.2, SVG Export Plug-In . SVG Version: 6.00 Build 0)  -->
<!DOCTYPE svg PUBLIC "-//W3C//DTD SVG 1.1//EN" "http://www.w3.org/Graphics/SVG/1.1/DTD/svg11.dtd">
<svg version="1.1" id="Layer_1" xmlns="http://www.w3.org/2000/svg" xmlns:xlink="http://www.w3.org/1999/xlink" x="0px" y="0px"
	 width="96px" height="96px" viewBox="0 0 96 96" enable-background="new 0 0 96 96" xml:space="preserve">
<g>
	<path fill-opacity="0.4" d="M88,49c0,29.634-10.363,40-40,40C18.366,89,8,78.634,8,49C8,19.365,18.366,9,48,9
		C77.637,9,88,19.365,88,49z"/>
	
		<linearGradient id="SVGID_1_" gradientUnits="userSpaceOnUse" x1="-126.0005" y1="122.3984" x2="-126.0005" y2="197.2355" gradientTransform="matrix(1 0 0 -1 174 219)">
		<stop  offset="0" style="stop-color:#006325"/>
		<stop  offset="1" style="stop-color:#80C341"/>
	</linearGradient>
	<path fill="url(#SVGID_1_)" d="M88,48c0,29.634-10.363,40-40,40C18.366,88,8,77.634,8,48C8,18.365,18.366,8,48,8
		C77.637,8,88,18.365,88,48z"/>
	<rect fill="none" width="96" height="96"/>
	
		<linearGradient id="SVGID_2_" gradientUnits="userSpaceOnUse" x1="-300.2749" y1="506.6982" x2="-300.2749" y2="585.9434" gradientTransform="matrix(1 0 0 1 348.2749 -498.4453)">
		<stop  offset="0" style="stop-color:#FFFFFF"/>
		<stop  offset="1" style="stop-color:#FFFFFF;stop-opacity:0"/>
	</linearGradient>
	<path fill="url(#SVGID_2_)" fill-opacity="0.25" d="M48,8C18.366,8,8,18.365,8,48c0,29.634,10.366,40,40,40
		c29.637,0,40-10.366,40-40C88,18.365,77.637,8,48,8z M48,87C18.842,87,9,77.158,9,48S18.842,9,48,9s39,9.842,39,39S77.158,87,48,87
		z"/>
	<path fill-opacity="0.05" d="M68,31.5H28c-4.136,0-7.5,3.364-7.5,7.5v12c0,1.378,1.121,2.5,2.5,2.5h24.219
		c-0.118,0.397-0.18,0.813-0.18,1.231v11.5c0,2.354,1.915,4.269,4.27,4.269H67.23c2.354,0,4.27-1.915,4.27-4.269v-11.5
		c0-0.418-0.062-0.834-0.18-1.231H73c1.379,0,2.5-1.122,2.5-2.5V39C75.5,34.864,72.136,31.5,68,31.5z M51.765,45.013
		c-0.174,0.188-0.338,0.383-0.491,0.587c-0.227-0.066-0.461-0.1-0.701-0.1H44.5v-5h7v3.396C51.5,44.282,51.592,44.667,51.765,45.013
		z M61.193,50.308v0.154h-3.847v-0.154c0-0.085,0.068-0.154,0.153-0.154h3.539C61.123,50.153,61.193,50.224,61.193,50.308z
		 M59.5,42.5v-2h7v4.231c-1.448-1.416-3.408-2.231-5.461-2.231H59.5z"/>
	<path fill-opacity="0.07" d="M68,32H28c-3.859,0-7,3.14-7,7v12c0,1.103,0.897,2,2,2h24.957c-0.273,0.529-0.418,1.12-0.418,1.731
		v11.5c0,2.078,1.691,3.769,3.77,3.769H67.23c2.078,0,3.77-1.69,3.77-3.769v-11.5c0-0.611-0.145-1.202-0.418-1.731H73
		c1.103,0,2-0.897,2-2V39C75,35.14,71.859,32,68,32z M59.77,58.952c0,0.197-0.12,0.377-0.308,0.459
		c-0.065,0.029-0.129,0.061-0.191,0.098c-0.062-0.037-0.128-0.07-0.195-0.1c-0.186-0.082-0.306-0.261-0.306-0.457
		c0-0.275,0.225-0.5,0.5-0.5S59.77,58.677,59.77,58.952z M61.693,50.308v0.654h-4.847v-0.654c0-0.36,0.293-0.654,0.653-0.654h3.539
		C61.399,49.653,61.693,49.947,61.693,50.308z M61.039,43H59v-3h8v6.083C65.638,44.166,63.411,43,61.039,43z M44,40h8v3.896
		c0,0.432,0.141,0.849,0.392,1.189c-0.35,0.341-0.663,0.715-0.938,1.12C51.182,46.071,50.882,46,50.572,46H44V40z"/>
	<path fill-opacity="0.1" d="M68,32.5H28c-3.584,0-6.5,2.916-6.5,6.5v12c0,0.827,0.673,1.5,1.5,1.5h25.914
		c-0.544,0.584-0.875,1.368-0.875,2.231v11.5c0,1.803,1.467,3.269,3.27,3.269H67.23c1.803,0,3.27-1.466,3.27-3.269v-11.5
		c0-0.863-0.331-1.647-0.875-2.231H73c0.827,0,1.5-0.673,1.5-1.5V39C74.5,35.416,71.584,32.5,68,32.5z M60.27,58.952
		c0,0.395-0.237,0.755-0.605,0.916c-0.145,0.064-0.276,0.15-0.393,0.254c-0.115-0.104-0.249-0.189-0.396-0.255
		c-0.368-0.161-0.605-0.521-0.605-0.915c0-0.552,0.448-1,1-1S60.27,58.4,60.27,58.952z M62.193,50.308v1.154h-5.847v-1.154
		c0-0.637,0.518-1.154,1.153-1.154h3.539C61.676,49.153,62.193,49.671,62.193,50.308z M66.938,46.909
		c-1.201-2.079-3.44-3.409-5.898-3.409h-2.616c0.05-0.149,0.077-0.31,0.077-0.475V39.5h9v7.075
		C67.292,46.644,67.1,46.758,66.938,46.909z M43.5,46.5v-7h9v4.396c0,0.479,0.232,0.932,0.612,1.209
		c-0.604,0.51-1.115,1.121-1.511,1.805c-0.276-0.26-0.645-0.409-1.029-0.409H43.5z"/>
	<path fill-opacity="0.15" d="M68,33H28c-3.309,0-6,2.691-6,6v12c0,0.552,0.448,1,1,1h27.192c0.552,0,1-0.448,1-1v0.964
		c-1.474,0.062-2.653,1.279-2.653,2.768v11.5c0,1.526,1.242,2.769,2.77,2.769H67.23c1.527,0,2.77-1.242,2.77-2.769v-11.5
		c0-1.488-1.18-2.706-2.653-2.768V51c0,0.552,0.448,1,1,1H73c0.552,0,1-0.448,1-1V39C74,35.691,71.309,33,68,33z M60.77,58.952
		c0,0.594-0.354,1.133-0.903,1.373c-0.349,0.154-0.579,0.493-0.596,0.871c-0.017-0.378-0.247-0.717-0.597-0.871
		c-0.55-0.241-0.904-0.78-0.904-1.373c0-0.827,0.673-1.5,1.5-1.5S60.77,58.125,60.77,58.952z M55.847,51.962v-1.654
		c0-0.912,0.741-1.654,1.653-1.654h3.539c0.912,0,1.654,0.742,1.654,1.654v1.654H55.847z M50.572,47H43v-8h10v4.896
		c0,0.353,0.188,0.682,0.49,0.859c0.153,0.092,0.33,0.141,0.51,0.141c0.15,0,0.301-0.035,0.438-0.101
		c-1.335,0.744-2.373,1.96-2.888,3.419c0.06-0.275,0.001-0.566-0.166-0.799C51.195,47.155,50.893,47,50.572,47z M67.154,47.416
		c-0.166,0.231-0.225,0.522-0.164,0.799C66.125,45.763,63.784,44,61.039,44H57.5c-0.104,0-0.208,0.003-0.312,0.008
		c0.464-0.089,0.812-0.5,0.812-0.982V39h10v8h-0.033C67.646,47,67.344,47.155,67.154,47.416z"/>
	<path fill-opacity="0.15" d="M68,33.5H28c-3.032,0-5.5,2.468-5.5,5.5v12c0,0.276,0.224,0.5,0.5,0.5h27.192
		c0.276,0,0.5-0.224,0.5-0.5v-0.692c0-0.725,0.119-1.447,0.354-2.148c0.051-0.152,0.025-0.32-0.068-0.451
		c-0.095-0.131-0.245-0.208-0.406-0.208H42.5v-9h11v5.396c0,0.177,0.093,0.34,0.245,0.43c0.078,0.047,0.167,0.07,0.255,0.07
		c0.083,0,0.165-0.021,0.24-0.062c0.855-0.47,1.796-0.741,2.794-0.81c0.262-0.018,0.466-0.236,0.466-0.499V38.5H68
		c0.275,0,0.5,0.224,0.5,0.5v8.5h-0.533c-0.161,0-0.312,0.077-0.406,0.208c-0.094,0.131-0.119,0.299-0.068,0.451
		c0.235,0.701,0.354,1.424,0.354,2.148V51c0,0.276,0.224,0.5,0.5,0.5H73c0.276,0,0.5-0.224,0.5-0.5V39
		C73.5,35.968,71.032,33.5,68,33.5z M67.23,52.462h-0.384v-2.154c0-3.202-2.605-5.808-5.808-5.808H57.5
		c-3.202,0-5.808,2.605-5.808,5.808v2.154h-0.384c-1.251,0-2.27,1.018-2.27,2.27v11.5c0,1.25,1.019,2.269,2.27,2.269H67.23
		c1.251,0,2.27-1.019,2.27-2.269v-11.5C69.5,53.479,68.481,52.462,67.23,52.462z M60.068,60.783c-0.182,0.08-0.299,0.26-0.299,0.458
		v3.211h-0.998v-3.211c0-0.198-0.117-0.378-0.299-0.458c-0.73-0.321-1.203-1.04-1.203-1.831c0-1.104,0.897-2,2-2s2,0.896,2,2
		C61.27,59.745,60.798,60.464,60.068,60.783z M63.193,52.462h-7.847v-2.154c0-1.188,0.966-2.154,2.153-2.154h3.539
		c1.188,0,2.154,0.967,2.154,2.154V52.462z"/>
	<linearGradient id="SVGID_3_" gradientUnits="userSpaceOnUse" x1="48.0005" y1="50" x2="48.0005" y2="33.0005">
		<stop  offset="0" style="stop-color:#D0CBC5"/>
		<stop  offset="0.5031" style="stop-color:#FAFCEF"/>
		<stop  offset="0.9693" style="stop-color:#FFFFFF"/>
		<stop  offset="1" style="stop-color:#FFFFFF"/>
	</linearGradient>
	<path fill="url(#SVGID_3_)" d="M73,38v12h-4.653v-0.692c0-0.807-0.137-1.581-0.38-2.308H69v-9c0-0.55-0.45-1-1-1H57v5.025
		c-1.08,0.073-2.099,0.376-3,0.87V37H42v10h8.572c-0.243,0.727-0.38,1.501-0.38,2.308V50H23V38c0-2.757,2.243-5,5-5h40
		C70.757,33,73,35.243,73,38z"/>
	<linearGradient id="SVGID_4_" gradientUnits="userSpaceOnUse" x1="59.2695" y1="67" x2="59.2695" y2="44.0005">
		<stop  offset="0" style="stop-color:#D0CBC5"/>
		<stop  offset="0.5031" style="stop-color:#FAFCEF"/>
		<stop  offset="0.9693" style="stop-color:#FFFFFF"/>
		<stop  offset="1" style="stop-color:#FFFFFF"/>
	</linearGradient>
	<path fill="url(#SVGID_4_)" d="M67.23,51.962h-0.884v-2.654c0-2.919-2.39-5.308-5.308-5.308H57.5c-2.92,0-5.308,2.389-5.308,5.308
		v2.654h-0.884c-0.974,0-1.77,0.796-1.77,1.77v11.5c0,0.972,0.796,1.769,1.77,1.769H67.23c0.974,0,1.77-0.797,1.77-1.769v-11.5
		C69,52.758,68.204,51.962,67.23,51.962z M60.27,60.241v3.711h-1.998v-3.711c-0.882-0.387-1.502-1.266-1.502-2.289
		c0-1.381,1.122-2.5,2.5-2.5c1.379,0,2.5,1.119,2.5,2.5C61.77,58.976,61.152,59.854,60.27,60.241z M63.693,51.962h-8.847v-2.654
		c0-1.463,1.19-2.654,2.653-2.654h3.539c1.464,0,2.654,1.191,2.654,2.654V51.962z"/>
	<path fill="#FFFFFF" d="M56.77,58.952c0-0.177,0.02-0.348,0.054-0.514c0.162,0.809,0.711,1.479,1.448,1.803v1
		C57.39,60.854,56.77,59.976,56.77,58.952z M60.27,60.241v1c0.883-0.387,1.5-1.266,1.5-2.289c0-0.176-0.02-0.348-0.054-0.514
		C61.555,59.247,61.008,59.917,60.27,60.241z M60.27,63.952h-1.998v1h1.998V63.952z M49.539,53.731v1c0-0.974,0.796-1.77,1.77-1.77
		h0.884v-1h-0.884C50.335,51.962,49.539,52.758,49.539,53.731z M63.693,52.962v-1h-8.847v1H63.693z M67.23,51.962h-0.884v1h0.884
		c0.974,0,1.77,0.796,1.77,1.77v-1C69,52.758,68.204,51.962,67.23,51.962z M68,33H28c-2.757,0-5,2.243-5,5v1c0-2.757,2.243-5,5-5h40
		c2.757,0,5,2.243,5,5v-1C73,35.243,70.757,33,68,33z M69,47h-1.033c0.108,0.323,0.187,0.659,0.25,1H69V47z M66.347,49.308
		c0-2.919-2.39-5.308-5.308-5.308H57.5c-2.92,0-5.308,2.389-5.308,5.308v1C52.192,47.389,54.58,45,57.5,45h3.539
		c2.918,0,5.308,2.389,5.308,5.308V49.308z M50.322,48c0.063-0.341,0.142-0.677,0.25-1H42v1H50.322z"/>
	<linearGradient id="SVGID_5_" gradientUnits="userSpaceOnUse" x1="48.0005" y1="50" x2="48.0005" y2="36.0005">
		<stop  offset="0" style="stop-color:#000000"/>
		<stop  offset="1" style="stop-color:#000000;stop-opacity:0"/>
	</linearGradient>
	<path fill="url(#SVGID_5_)" fill-opacity="0.06" d="M54,37H42v-1h12V37z M68,36H57v1h11c0.55,0,1,0.45,1,1v-1
		C69,36.45,68.55,36,68,36z M54,42.896c0.901-0.494,1.92-0.797,3-0.87v-1c-1.08,0.073-2.099,0.376-3,0.87V42.896z M68.347,48.308
		c0-0.447-0.051-0.883-0.13-1.308h-0.25c0.243,0.727,0.38,1.501,0.38,2.308V50H73v-1h-4.653V48.308z M50.192,49.308
		c0-0.807,0.137-1.581,0.38-2.308h-0.25c-0.079,0.425-0.13,0.86-0.13,1.308V49H23v1h27.192V49.308z"/>
	<linearGradient id="SVGID_6_" gradientUnits="userSpaceOnUse" x1="59.2695" y1="67" x2="59.2695" y2="45.6538">
		<stop  offset="0" style="stop-color:#000000"/>
		<stop  offset="1" style="stop-color:#000000;stop-opacity:0"/>
	</linearGradient>
	<path fill="url(#SVGID_6_)" fill-opacity="0.06" d="M61.77,56.952c0,0.167-0.022,0.328-0.054,0.486
		c-0.237-1.134-1.243-1.986-2.446-1.986c-1.202,0-2.209,0.853-2.446,1.986c-0.031-0.158-0.054-0.319-0.054-0.486
		c0-1.381,1.122-2.5,2.5-2.5C60.648,54.452,61.77,55.571,61.77,56.952z M67.23,66H51.309c-0.974,0-1.77-0.797-1.77-1.769v1
		c0,0.972,0.796,1.769,1.77,1.769H67.23c0.974,0,1.77-0.797,1.77-1.769v-1C69,65.203,68.204,66,67.23,66z M61.039,45.653H57.5
		c-1.463,0-2.653,1.191-2.653,2.654v1c0-1.463,1.19-2.654,2.653-2.654h3.539c1.464,0,2.654,1.191,2.654,2.654v-1
		C63.693,46.845,62.503,45.653,61.039,45.653z"/>
</g>
</svg>
