<?xml version="1.0" encoding="utf-8"?>
<!-- Generator: Adobe Illustrator 15.0.2, SVG Export Plug-In . SVG Version: 6.00 Build 0)  -->
<!DOCTYPE svg PUBLIC "-//W3C//DTD SVG 1.1//EN" "http://www.w3.org/Graphics/SVG/1.1/DTD/svg11.dtd">
<svg version="1.1" id="Layer_1" xmlns="http://www.w3.org/2000/svg" xmlns:xlink="http://www.w3.org/1999/xlink" x="0px" y="0px"
	 width="96px" height="96px" viewBox="0 0 96 96" enable-background="new 0 0 96 96" xml:space="preserve">
<g>
	<path fill-opacity="0.4" d="M88,49c0,29.634-10.363,40-40,40C18.366,89,8,78.634,8,49C8,19.365,18.366,9,48,9
		C77.637,9,88,19.365,88,49z"/>
	
		<linearGradient id="SVGID_1_" gradientUnits="userSpaceOnUse" x1="-126.0005" y1="122.3984" x2="-126.0005" y2="197.2355" gradientTransform="matrix(1 0 0 -1 174 219)">
		<stop  offset="0" style="stop-color:#006325"/>
		<stop  offset="1" style="stop-color:#80C341"/>
	</linearGradient>
	<path fill="url(#SVGID_1_)" d="M88,48c0,29.634-10.363,40-40,40C18.366,88,8,77.634,8,48C8,18.365,18.366,8,48,8
		C77.637,8,88,18.365,88,48z"/>
	<rect fill="none" width="96" height="96"/>
	
		<linearGradient id="SVGID_2_" gradientUnits="userSpaceOnUse" x1="-300.2749" y1="506.6973" x2="-300.2749" y2="585.9434" gradientTransform="matrix(1 0 0 1 348.2749 -498.4453)">
		<stop  offset="0" style="stop-color:#FFFFFF"/>
		<stop  offset="1" style="stop-color:#FFFFFF;stop-opacity:0"/>
	</linearGradient>
	<path fill="url(#SVGID_2_)" fill-opacity="0.25" d="M48,8C18.366,8,8,18.365,8,48c0,29.634,10.366,40,40,40
		c29.637,0,40-10.366,40-40C88,18.365,77.637,8,48,8z M48,87C18.842,87,9,77.158,9,48S18.842,9,48,9s39,9.842,39,39S77.158,87,48,87
		z"/>
	<path opacity="0.05" d="M67.5,38.5v-3c0-2.206-1.794-4-4-4H32.501c-2.206,0-4.001,1.794-4.001,4v3c0,2.206,1.795,4,4.001,4
		c-2.206,0-4.001,1.794-4.001,4v3c0,2.206,1.795,4,4.001,4c-2.206,0-4.001,1.794-4.001,4v3c0,2.206,1.795,4,4.001,4H63.5
		c2.206,0,4-1.794,4-4v-3c0-2.206-1.794-4-4-4c2.206,0,4-1.794,4-4v-3c0-2.206-1.794-4-4-4C65.706,42.5,67.5,40.706,67.5,38.5z"/>
	<path opacity="0.07" d="M63.5,54H32.501C30.57,54,29,55.57,29,57.5v3c0,1.93,1.57,3.5,3.501,3.5H63.5c1.93,0,3.5-1.57,3.5-3.5v-3
		C67,55.57,65.43,54,63.5,54z M63.5,32H32.501C30.57,32,29,33.57,29,35.5v3c0,1.93,1.57,3.5,3.501,3.5H63.5c1.93,0,3.5-1.57,3.5-3.5
		v-3C67,33.57,65.43,32,63.5,32z M63.5,43H32.501C30.57,43,29,44.57,29,46.5v3c0,1.93,1.57,3.5,3.501,3.5H63.5
		c1.93,0,3.5-1.57,3.5-3.5v-3C67,44.57,65.43,43,63.5,43z"/>
	<path opacity="0.1" d="M63.5,54.5H32.501c-1.654,0-3.001,1.346-3.001,3v3c0,1.654,1.347,3,3.001,3H63.5c1.654,0,3-1.346,3-3v-3
		C66.5,55.846,65.154,54.5,63.5,54.5z M63.5,43.5H32.501c-1.654,0-3.001,1.346-3.001,3v3c0,1.654,1.347,3,3.001,3H63.5
		c1.654,0,3-1.346,3-3v-3C66.5,44.846,65.154,43.5,63.5,43.5z M63.5,32.5H32.501c-1.654,0-3.001,1.346-3.001,3v3
		c0,1.654,1.347,3,3.001,3H63.5c1.654,0,3-1.346,3-3v-3C66.5,33.846,65.154,32.5,63.5,32.5z"/>
	<path opacity="0.15" d="M63.5,55H32.501C31.122,55,30,56.121,30,57.5v3c0,1.379,1.122,2.5,2.501,2.5H63.5
		c1.379,0,2.5-1.121,2.5-2.5v-3C66,56.121,64.879,55,63.5,55z M63.5,33H32.501C31.122,33,30,34.121,30,35.5v3
		c0,1.379,1.122,2.5,2.501,2.5H63.5c1.379,0,2.5-1.121,2.5-2.5v-3C66,34.121,64.879,33,63.5,33z M63.5,44H32.501
		C31.122,44,30,45.121,30,46.5v3c0,1.379,1.122,2.5,2.501,2.5H63.5c1.379,0,2.5-1.121,2.5-2.5v-3C66,45.121,64.879,44,63.5,44z"/>
	<path opacity="0.15" d="M63.5,44.5H32.501c-1.104,0-2.001,0.897-2.001,2v3c0,1.103,0.897,2,2.001,2H63.5c1.103,0,2-0.897,2-2v-3
		C65.5,45.397,64.603,44.5,63.5,44.5z M63.5,55.5H32.501c-1.104,0-2.001,0.897-2.001,2v3c0,1.103,0.897,2,2.001,2H63.5
		c1.103,0,2-0.897,2-2v-3C65.5,56.397,64.603,55.5,63.5,55.5z M63.5,33.5H32.501c-1.104,0-2.001,0.897-2.001,2v3
		c0,1.103,0.897,2,2.001,2H63.5c1.103,0,2-0.897,2-2v-3C65.5,34.397,64.603,33.5,63.5,33.5z"/>
	<linearGradient id="SVGID_3_" gradientUnits="userSpaceOnUse" x1="48.0005" y1="61.875" x2="48.0005" y2="33.3331">
		<stop  offset="0" style="stop-color:#D0CBC5"/>
		<stop  offset="0.5031" style="stop-color:#FAFCEF"/>
		<stop  offset="0.9693" style="stop-color:#FFFFFF"/>
		<stop  offset="1" style="stop-color:#FFFFFF"/>
	</linearGradient>
	<path fill="url(#SVGID_3_)" d="M65,56.5v3c0,0.824-0.675,1.5-1.5,1.5H32.501C31.676,61,31,60.324,31,59.5v-3
		c0-0.824,0.676-1.5,1.501-1.5H63.5C64.325,55,65,55.676,65,56.5z M63.5,33H32.501C31.676,33,31,33.676,31,34.5v3
		c0,0.824,0.676,1.5,1.501,1.5H63.5c0.825,0,1.5-0.676,1.5-1.5v-3C65,33.676,64.325,33,63.5,33z M63.5,44H32.501
		C31.676,44,31,44.676,31,45.5v3c0,0.824,0.676,1.5,1.501,1.5H63.5c0.825,0,1.5-0.676,1.5-1.5v-3C65,44.676,64.325,44,63.5,44z"/>
	<path fill="#FFFFFF" d="M65,45.5v1c0-0.824-0.675-1.5-1.5-1.5H32.501C31.676,45,31,45.676,31,46.5v-1c0-0.824,0.676-1.5,1.501-1.5
		H63.5C64.325,44,65,44.676,65,45.5z M63.5,55H32.501C31.676,55,31,55.676,31,56.5v1c0-0.824,0.676-1.5,1.501-1.5H63.5
		c0.825,0,1.5,0.676,1.5,1.5v-1C65,55.676,64.325,55,63.5,55z M63.5,33H32.501C31.676,33,31,33.676,31,34.5v1
		c0-0.824,0.676-1.5,1.501-1.5H63.5c0.825,0,1.5,0.676,1.5,1.5v-1C65,33.676,64.325,33,63.5,33z"/>
	<linearGradient id="SVGID_4_" gradientUnits="userSpaceOnUse" x1="48.0005" y1="61.7656" x2="48.0005" y2="36.7916">
		<stop  offset="0" style="stop-color:#000000"/>
		<stop  offset="1" style="stop-color:#000000;stop-opacity:0"/>
	</linearGradient>
	<path fill="url(#SVGID_4_)" fill-opacity="0.06" d="M65,58.5v1c0,0.824-0.675,1.5-1.5,1.5H32.501C31.676,61,31,60.324,31,59.5v-1
		c0,0.824,0.676,1.5,1.501,1.5H63.5C64.325,60,65,59.324,65,58.5z M63.5,38H32.501C31.676,38,31,37.324,31,36.5v1
		c0,0.824,0.676,1.5,1.501,1.5H63.5c0.825,0,1.5-0.676,1.5-1.5v-1C65,37.324,64.325,38,63.5,38z M63.5,49H32.501
		C31.676,49,31,48.324,31,47.5v1c0,0.824,0.676,1.5,1.501,1.5H63.5c0.825,0,1.5-0.676,1.5-1.5v-1C65,48.324,64.325,49,63.5,49z"/>
</g>
</svg>
