<?xml version="1.0" encoding="utf-8"?>
<!-- Generator: Adobe Illustrator 15.0.2, SVG Export Plug-In . SVG Version: 6.00 Build 0)  -->
<!DOCTYPE svg PUBLIC "-//W3C//DTD SVG 1.1//EN" "http://www.w3.org/Graphics/SVG/1.1/DTD/svg11.dtd">
<svg version="1.1" id="Layer_1" xmlns="http://www.w3.org/2000/svg" xmlns:xlink="http://www.w3.org/1999/xlink" x="0px" y="0px"
	 width="96px" height="96px" viewBox="0 0 96 96" enable-background="new 0 0 96 96" xml:space="preserve">
<g>
	<g>
		<g opacity="0.05">
			<path d="M73.605,63.889l-7.584-7.584c1.35-2.945,2.061-6.193,2.061-9.416c0-12.51-10.178-22.688-22.688-22.688
				C32.88,24.201,22.7,34.379,22.7,46.889c0,12.514,10.181,22.695,22.694,22.695c3.8,0,7.55-0.961,10.872-2.783l7.214,7.213
				c1.353,1.354,3.151,2.098,5.065,2.098c1.907,0,3.705-0.745,5.064-2.1C76.391,71.224,76.389,66.682,73.605,63.889z M33.912,46.889
				c0-6.326,5.15-11.475,11.48-11.475c6.327,0,11.475,5.148,11.475,11.475c0,6.33-5.148,11.48-11.475,11.48
				C39.062,58.369,33.912,53.219,33.912,46.889z"/>
		</g>
	</g>
	<path fill-opacity="0.4" d="M88,49c0,29.635-10.363,40-40,40C18.366,89,8,78.635,8,49S18.366,9,48,9C77.637,9,88,19.365,88,49z"/>
	
		<linearGradient id="SVGID_1_" gradientUnits="userSpaceOnUse" x1="-126.0005" y1="122.3984" x2="-126.0005" y2="197.2355" gradientTransform="matrix(1 0 0 -1 174 219)">
		<stop  offset="0" style="stop-color:#006325"/>
		<stop  offset="1" style="stop-color:#80C341"/>
	</linearGradient>
	<path fill="url(#SVGID_1_)" d="M88,48c0,29.635-10.363,40-40,40C18.366,88,8,77.635,8,48S18.366,8,48,8C77.637,8,88,18.365,88,48z"
		/>
	<rect fill="none" width="96" height="96"/>
	
		<linearGradient id="SVGID_2_" gradientUnits="userSpaceOnUse" x1="-300.2749" y1="506.6973" x2="-300.2749" y2="585.9434" gradientTransform="matrix(1 0 0 1 348.2749 -498.4453)">
		<stop  offset="0" style="stop-color:#FFFFFF"/>
		<stop  offset="1" style="stop-color:#FFFFFF;stop-opacity:0"/>
	</linearGradient>
	<path fill="url(#SVGID_2_)" fill-opacity="0.25" d="M48,8C18.366,8,8,18.365,8,48s10.366,40,40,40c29.637,0,40-10.365,40-40
		S77.637,8,48,8z M48,87C18.842,87,9,77.158,9,48S18.842,9,48,9s39,9.842,39,39S77.158,87,48,87z"/>
	<path fill-opacity="0.05" d="M72.463,63.087l-7.217-7.215c1.279-2.819,1.954-5.924,1.954-9.002
		c0-12.047-9.801-21.848-21.848-21.848c-12.05,0-21.853,9.801-21.853,21.848c0,12.05,9.803,21.853,21.853,21.853
		c3.632,0,7.219-0.912,10.399-2.641l6.859,6.856c1.316,1.315,3.066,2.04,4.928,2.04c1.855,0,3.605-0.725,4.928-2.043
		C75.172,70.224,75.17,65.805,72.463,63.087z M33.849,46.87c0-6.34,5.16-11.498,11.502-11.498c6.34,0,11.498,5.158,11.498,11.498
		c0,6.342-5.157,11.501-11.498,11.501C39.009,58.371,33.849,53.212,33.849,46.87z"/>
	<path fill-opacity="0.07" d="M72.109,63.44l-7.465-7.462c1.346-2.838,2.056-5.979,2.056-9.108c0-11.771-9.577-21.348-21.348-21.348
		C33.579,25.522,24,35.1,24,46.87c0,11.774,9.579,21.353,21.353,21.353c3.68,0,7.297-0.953,10.487-2.762l7.125,7.124
		c1.222,1.222,2.846,1.894,4.574,1.894c1.723,0,3.347-0.673,4.573-1.896C74.623,70.064,74.623,65.964,72.109,63.44z M33.349,46.87
		c0-6.616,5.384-11.998,12.002-11.998c6.616,0,11.998,5.382,11.998,11.998c0,6.618-5.382,12.001-11.998,12.001
		C38.733,58.871,33.349,53.488,33.349,46.87z"/>
	<path fill-opacity="0.1" d="M71.756,63.794L64.04,56.08c1.414-2.855,2.16-6.031,2.16-9.21c0-11.495-9.353-20.848-20.848-20.848
		c-11.498,0-20.853,9.353-20.853,20.848c0,11.498,9.354,20.853,20.853,20.853c3.728,0,7.372-0.996,10.569-2.887l7.396,7.396
		c1.127,1.126,2.626,1.747,4.221,1.747c1.59,0,3.088-0.621,4.219-1.748C74.076,69.906,74.074,66.123,71.756,63.794z M32.849,46.87
		c0-6.892,5.608-12.498,12.502-12.498c6.891,0,12.498,5.606,12.498,12.498c0,6.894-5.606,12.501-12.498,12.501
		C38.457,59.371,32.849,53.764,32.849,46.87z"/>
	<path fill-opacity="0.15" d="M71.402,64.147l-7.973-7.97c1.486-2.871,2.271-6.08,2.271-9.308c0-11.22-9.128-20.348-20.348-20.348
		C34.13,26.522,25,35.65,25,46.87c0,11.223,9.13,20.353,20.353,20.353c3.774,0,7.446-1.042,10.646-3.017l7.674,7.672
		c1.033,1.032,2.406,1.601,3.867,1.601c1.457,0,2.829-0.568,3.865-1.602C73.527,69.748,73.527,66.281,71.402,64.147z M32.349,46.87
		c0-7.167,5.833-12.998,13.002-12.998c7.167,0,12.998,5.831,12.998,12.998c0,7.169-5.831,13.001-12.998,13.001
		C38.182,59.871,32.349,54.039,32.349,46.87z"/>
	<path fill-opacity="0.15" d="M71.049,64.501l-8.233-8.231c1.562-2.883,2.385-6.125,2.385-9.399
		c0-10.944-8.903-19.848-19.848-19.848c-10.947,0-19.853,8.903-19.853,19.848c0,10.946,8.906,19.853,19.853,19.853
		c3.821,0,7.517-1.089,10.717-3.152l7.956,7.954c0.938,0.938,2.186,1.454,3.514,1.454c1.323,0,2.57-0.516,3.512-1.455
		C72.979,69.59,72.979,66.439,71.049,64.501z M45.351,33.372c7.443,0,13.498,6.056,13.498,13.498
		c0,7.444-6.055,13.501-13.498,13.501c-7.445,0-13.502-6.057-13.502-13.501C31.849,39.428,37.906,33.372,45.351,33.372z"/>
	
		<linearGradient id="SVGID_3_" gradientUnits="userSpaceOnUse" x1="166.5" y1="-75.478" x2="166.5" y2="-30.5225" gradientTransform="matrix(1 0 0 -1 -117.5 -4)">
		<stop  offset="0" style="stop-color:#D0CBC5"/>
		<stop  offset="0.5031" style="stop-color:#FAFCEF"/>
		<stop  offset="0.9693" style="stop-color:#FFFFFF"/>
		<stop  offset="1" style="stop-color:#FFFFFF"/>
	</linearGradient>
	<path fill="url(#SVGID_3_)" d="M70.695,63.854l-8.5-8.497c1.59-2.805,2.505-6.039,2.505-9.487c0-10.669-8.683-19.348-19.348-19.348
		C34.683,26.522,26,35.201,26,45.87s8.683,19.353,19.353,19.353c3.986,0,7.698-1.215,10.782-3.295l8.244,8.243
		c0.871,0.871,2.014,1.308,3.16,1.308c1.14,0,2.283-0.437,3.157-1.308C72.436,68.427,72.436,65.602,70.695,63.854z M31.349,45.87
		c0-7.718,6.279-13.998,14.002-13.998c7.719,0,13.998,6.28,13.998,13.998c0,7.72-6.277,14.001-13.998,14.001
		C37.628,59.871,31.349,53.59,31.349,45.87z"/>
	<path fill="#FFFFFF" d="M62.541,55.702l8.154,8.152c0.998,1.001,1.403,2.356,1.258,3.659c-0.109-0.971-0.516-1.914-1.258-2.659
		l-8.5-8.497C62.317,56.143,62.428,55.922,62.541,55.702z M45.353,27.522c10.531,0,19.114,8.468,19.327,18.952
		c0.007-0.201,0.021-0.4,0.021-0.604c0-10.669-8.683-19.348-19.348-19.348C34.683,26.522,26,35.201,26,45.87
		c0,0.169,0.021,0.333,0.025,0.5C26.294,35.934,34.852,27.522,45.353,27.522z M45.351,60.871c7.72,0,13.998-6.281,13.998-14.001
		c0-0.169-0.02-0.333-0.025-0.5c-0.267,7.487-6.421,13.501-13.972,13.501c-7.554,0-13.711-6.014-13.977-13.501
		c-0.006,0.167-0.025,0.331-0.025,0.5C31.349,54.59,37.628,60.871,45.351,60.871z"/>
	<linearGradient id="SVGID_4_" gradientUnits="userSpaceOnUse" x1="48.9912" y1="30.8721" x2="48.9912" y2="71.479">
		<stop  offset="0" style="stop-color:#000000"/>
		<stop  offset="1" style="stop-color:#000000;stop-opacity:0"/>
	</linearGradient>
	<path fill="url(#SVGID_4_)" fill-opacity="0.06" d="M62.195,54.357c1.496-2.639,2.385-5.662,2.484-8.883
		c0.003,0.133,0.021,0.262,0.021,0.396c0,3.185-0.788,6.183-2.159,8.832L62.195,54.357z M45.351,30.872
		c-7.723,0-14.002,6.28-14.002,13.998c0,0.169,0.02,0.333,0.025,0.5c0.266-7.485,6.423-13.498,13.977-13.498
		c7.55,0,13.706,6.013,13.972,13.498c0.006-0.167,0.025-0.331,0.025-0.5C59.349,37.152,53.07,30.872,45.351,30.872z M70.696,69.171
		c-0.874,0.871-2.018,1.308-3.157,1.308c-1.146,0-2.289-0.437-3.16-1.308l-8.244-8.243c-3.084,2.08-6.796,3.295-10.782,3.295
		c-10.501,0-19.059-8.416-19.327-18.853C26.021,45.537,26,45.701,26,45.87c0,10.669,8.683,19.353,19.353,19.353
		c3.986,0,7.698-1.215,10.782-3.295l8.244,8.243c0.871,0.871,2.014,1.308,3.16,1.308c1.14,0,2.283-0.437,3.157-1.308
		c0.997-0.999,1.402-2.353,1.257-3.657C71.844,67.484,71.438,68.427,70.696,69.171z"/>
</g>
</svg>
