<?xml version="1.0" encoding="utf-8"?>
<!-- Generator: Adobe Illustrator 15.0.2, SVG Export Plug-In . SVG Version: 6.00 Build 0)  -->
<!DOCTYPE svg PUBLIC "-//W3C//DTD SVG 1.1//EN" "http://www.w3.org/Graphics/SVG/1.1/DTD/svg11.dtd">
<svg version="1.1" id="Layer_1" xmlns="http://www.w3.org/2000/svg" xmlns:xlink="http://www.w3.org/1999/xlink" x="0px" y="0px"
	 width="96px" height="96px" viewBox="0 0 96 96" enable-background="new 0 0 96 96" xml:space="preserve">
<g>
	<path fill-opacity="0.4" d="M88,49c0,29.635-10.363,40-40,40C18.366,89,8,78.635,8,49S18.366,9,48,9C77.637,9,88,19.365,88,49z"/>
	
		<linearGradient id="SVGID_1_" gradientUnits="userSpaceOnUse" x1="-126.0005" y1="122.3984" x2="-126.0005" y2="197.2355" gradientTransform="matrix(1 0 0 -1 174 219)">
		<stop  offset="0" style="stop-color:#006325"/>
		<stop  offset="1" style="stop-color:#80C341"/>
	</linearGradient>
	<path fill="url(#SVGID_1_)" d="M88,48c0,29.635-10.363,40-40,40C18.366,88,8,77.635,8,48S18.366,8,48,8C77.637,8,88,18.365,88,48z"
		/>
	<rect fill="none" width="96" height="96"/>
	
		<linearGradient id="SVGID_2_" gradientUnits="userSpaceOnUse" x1="-300.2749" y1="506.6973" x2="-300.2749" y2="585.9434" gradientTransform="matrix(1 0 0 1 348.2749 -498.4453)">
		<stop  offset="0" style="stop-color:#FFFFFF"/>
		<stop  offset="1" style="stop-color:#FFFFFF;stop-opacity:0"/>
	</linearGradient>
	<path fill="url(#SVGID_2_)" fill-opacity="0.25" d="M48,8C18.366,8,8,18.365,8,48s10.366,40,40,40c29.637,0,40-10.365,40-40
		S77.637,8,48,8z M48,87C18.842,87,9,77.158,9,48S18.842,9,48,9s39,9.842,39,39S77.158,87,48,87z"/>
	<path opacity="0.05" d="M48,20.501c-15.715,0-28.5,12.785-28.5,28.501C19.5,64.716,32.285,77.5,48,77.5s28.5-12.784,28.5-28.498
		C76.5,33.286,63.715,20.501,48,20.501z M48.002,67.502c-10.201,0-18.5-8.299-18.5-18.5s8.299-18.5,18.5-18.5
		c10.2,0,18.499,8.299,18.499,18.5S58.202,67.502,48.002,67.502z"/>
	<path opacity="0.07" d="M48,21.001c-15.439,0-28,12.562-28,28.001C20,64.439,32.561,77,48,77s28-12.561,28-27.998
		C76,33.562,63.439,21.001,48,21.001z M48.002,68.002c-10.477,0-19-8.523-19-19s8.523-19,19-19s18.999,8.523,18.999,19
		S58.479,68.002,48.002,68.002z"/>
	<path opacity="0.1" d="M48,21.501c-15.163,0-27.5,12.337-27.5,27.501C20.5,64.164,32.837,76.5,48,76.5
		c15.164,0,27.5-12.336,27.5-27.498C75.5,33.838,63.164,21.501,48,21.501z M48.002,68.502c-10.752,0-19.5-8.748-19.5-19.5
		c0-10.753,8.748-19.5,19.5-19.5s19.499,8.747,19.499,19.5C67.501,59.754,58.754,68.502,48.002,68.502z"/>
	<path opacity="0.15" d="M48,22.001c-14.888,0-27,12.112-27,27.001C21,63.889,33.112,76,48,76s27-12.111,27-26.998
		C75,34.113,62.888,22.001,48,22.001z M48.002,69.002c-11.028,0-20-8.973-20-20c0-11.028,8.972-20,20-20
		c11.027,0,19.999,8.972,19.999,20C68.001,60.029,59.029,69.002,48.002,69.002z"/>
	<path opacity="0.15" d="M48,22.501c-14.612,0-26.5,11.888-26.5,26.501C21.5,63.613,33.388,75.5,48,75.5s26.5-11.887,26.5-26.498
		C74.5,34.389,62.612,22.501,48,22.501z M48.002,69.502c-11.304,0-20.5-9.197-20.5-20.5c0-11.305,9.196-20.5,20.5-20.5
		s20.499,9.195,20.499,20.5C68.501,60.305,59.306,69.502,48.002,69.502z"/>
	
		<linearGradient id="SVGID_3_" gradientUnits="userSpaceOnUse" x1="66.3848" y1="29.7036" x2="29.6156" y2="66.4728" gradientTransform="matrix(1 0 0 1 0 -0.0869)">
		<stop  offset="0" style="stop-color:#FFFFFF"/>
		<stop  offset="0.5" style="stop-color:#FAFCEF;stop-opacity:0.55"/>
		<stop  offset="1" style="stop-color:#D0CBC5;stop-opacity:0.1"/>
	</linearGradient>
	<path fill="url(#SVGID_3_)" d="M48,22.001c-14.358,0-26,11.641-26,26.001C22,62.359,33.642,74,48,74c14.36,0,26-11.641,26-25.998
		C74,33.642,62.36,22.001,48,22.001z M48.002,69.002c-11.599,0-21-9.402-21-21c0-11.6,9.401-21,21-21s20.999,9.4,20.999,21
		C69.001,59.6,59.601,69.002,48.002,69.002z"/>
	<path fill="#FFFFFF" fill-opacity="0.2" d="M22.013,48.502C22.01,48.334,22,48.17,22,48.002c0-14.36,11.642-26.001,26-26.001
		c14.36,0,26,11.641,26,26.001c0,0.168-0.009,0.332-0.013,0.5C73.72,34.373,62.192,23.002,48,23.002
		C33.81,23.002,22.28,34.373,22.013,48.502z M48.002,70.002c11.599,0,20.999-9.402,20.999-21c0-0.169-0.021-0.332-0.025-0.5
		c-0.268,11.363-9.544,20.5-20.974,20.5s-20.706-9.137-20.975-20.5c-0.004,0.168-0.025,0.331-0.025,0.5
		C27.002,60.6,36.403,70.002,48.002,70.002z"/>
	<linearGradient id="SVGID_4_" gradientUnits="userSpaceOnUse" x1="47.9995" y1="26.001" x2="47.9995" y2="74.0005">
		<stop  offset="0" style="stop-color:#000000;stop-opacity:0"/>
		<stop  offset="1" style="stop-color:#000000"/>
	</linearGradient>
	<path fill="url(#SVGID_4_)" fill-opacity="0.06" d="M69.001,47.001c0,0.169-0.021,0.333-0.025,0.5
		c-0.268-11.366-9.544-20.499-20.974-20.499s-20.706,9.133-20.975,20.499c-0.004-0.167-0.025-0.331-0.025-0.5c0-11.6,9.401-21,21-21
		S69.001,35.401,69.001,47.001z M48,73c-14.19,0-25.72-11.373-25.987-25.499C22.01,47.668,22,47.834,22,48.002
		C22,62.359,33.642,74,48,74c14.36,0,26-11.641,26-25.998c0-0.168-0.009-0.334-0.013-0.501C73.72,61.627,62.192,73,48,73z"/>
</g>
</svg>
