<?xml version="1.0" encoding="utf-8"?>
<!-- Generator: Adobe Illustrator 15.0.2, SVG Export Plug-In . SVG Version: 6.00 Build 0)  -->
<!DOCTYPE svg PUBLIC "-//W3C//DTD SVG 1.1//EN" "http://www.w3.org/Graphics/SVG/1.1/DTD/svg11.dtd">
<svg version="1.1" id="Layer_1" xmlns="http://www.w3.org/2000/svg" xmlns:xlink="http://www.w3.org/1999/xlink" x="0px" y="0px"
	 width="96px" height="96px" viewBox="0 0 96 96" enable-background="new 0 0 96 96" xml:space="preserve">
<g>
	<path fill-opacity="0.4" d="M88,49c0,29.634-10.363,40-40,40C18.366,89,8,78.634,8,49C8,19.365,18.366,9,48,9
		C77.637,9,88,19.365,88,49z"/>
	
		<linearGradient id="SVGID_1_" gradientUnits="userSpaceOnUse" x1="-126.0005" y1="122.3984" x2="-126.0005" y2="197.2355" gradientTransform="matrix(1 0 0 -1 174 219)">
		<stop  offset="0" style="stop-color:#006325"/>
		<stop  offset="1" style="stop-color:#80C341"/>
	</linearGradient>
	<path fill="url(#SVGID_1_)" d="M88,48c0,29.634-10.363,40-40,40C18.366,88,8,77.634,8,48C8,18.365,18.366,8,48,8
		C77.637,8,88,18.365,88,48z"/>
	<rect fill="none" width="96" height="96"/>
	
		<linearGradient id="SVGID_2_" gradientUnits="userSpaceOnUse" x1="-300.2749" y1="506.6982" x2="-300.2749" y2="585.9434" gradientTransform="matrix(1 0 0 1 348.2749 -498.4453)">
		<stop  offset="0" style="stop-color:#FFFFFF"/>
		<stop  offset="1" style="stop-color:#FFFFFF;stop-opacity:0"/>
	</linearGradient>
	<path fill="url(#SVGID_2_)" fill-opacity="0.25" d="M48,8C18.366,8,8,18.365,8,48c0,29.634,10.366,40,40,40
		c29.637,0,40-10.366,40-40C88,18.365,77.637,8,48,8z M48,87C18.842,87,9,77.158,9,48S18.842,9,48,9s39,9.842,39,39S77.158,87,48,87
		z"/>
	<path opacity="0.05" d="M67.5,38.5v-3c0-2.205-1.795-4-4-4H40.501c-1.032,0-2.007,0.391-2.744,1.088
		c-0.906-0.721-2.133-1.086-3.651-1.086L33.922,31.5c-3.547,0-5.422,1.898-5.422,5.491c0,3.603,1.863,5.506,5.379,5.506l0.198,0.003
		c1.534,0,2.769-0.365,3.679-1.088c0.736,0.696,1.711,1.088,2.745,1.088c-1.032,0-2.007,0.391-2.744,1.088
		c-0.906-0.721-2.133-1.086-3.651-1.086L33.922,42.5c-3.547,0-5.422,1.898-5.422,5.491c0,3.603,1.863,5.506,5.379,5.506l0.198,0.003
		c1.534,0,2.769-0.365,3.679-1.088c0.736,0.696,1.711,1.088,2.745,1.088c-1.032,0-2.007,0.391-2.744,1.088
		c-0.906-0.721-2.133-1.086-3.651-1.086L33.922,53.5c-3.547,0-5.422,1.898-5.422,5.491c0,3.603,1.863,5.506,5.379,5.506l0.198,0.003
		c1.534,0,2.769-0.365,3.679-1.088c0.736,0.696,1.711,1.088,2.745,1.088H63.5c2.205,0,4-1.795,4-4v-3c0-2.205-1.795-4-4-4
		c2.205,0,4-1.795,4-4v-3c0-2.205-1.795-4-4-4C65.705,42.5,67.5,40.705,67.5,38.5z"/>
	<path opacity="0.07" d="M63.5,54H40.501c-1.069,0-2.056,0.48-2.713,1.287c-0.834-0.854-2.072-1.285-3.688-1.285L33.922,54
		C30.656,54,29,55.68,29,58.991c0,3.321,1.647,5.006,4.887,5.006L34.077,64c1.628,0,2.873-0.434,3.71-1.289
		C38.444,63.52,39.432,64,40.501,64H63.5c1.93,0,3.5-1.57,3.5-3.5v-3C67,55.57,65.43,54,63.5,54z M63.5,43H40.501
		c-1.069,0-2.056,0.48-2.713,1.287c-0.834-0.854-2.072-1.285-3.688-1.285L33.922,43C30.656,43,29,44.68,29,47.991
		c0,3.321,1.647,5.006,4.887,5.006L34.077,53c1.628,0,2.873-0.434,3.71-1.289C38.444,52.52,39.432,53,40.501,53H63.5
		c1.93,0,3.5-1.57,3.5-3.5v-3C67,44.57,65.43,43,63.5,43z M63.5,32H40.501c-1.069,0-2.056,0.48-2.713,1.287
		c-0.834-0.854-2.072-1.285-3.688-1.285L33.922,32C30.656,32,29,33.68,29,36.991c0,3.321,1.647,5.006,4.887,5.006L34.077,42
		c1.628,0,2.873-0.434,3.71-1.289C38.444,41.52,39.432,42,40.501,42H63.5c1.93,0,3.5-1.57,3.5-3.5v-3C67,33.57,65.43,32,63.5,32z"/>
	<path opacity="0.1" d="M63.5,54.5H40.501c-1.164,0-2.174,0.665-2.672,1.635c-0.585-0.897-1.681-1.633-3.733-1.633L33.922,54.5
		c-4.422,0-4.422,3.381-4.422,4.491c0,1.114,0,4.506,4.395,4.506l0.182,0.003c2.063,0,3.164-0.736,3.751-1.636
		c0.498,0.97,1.509,1.636,2.672,1.636H63.5c1.654,0,3-1.346,3-3v-3C66.5,55.846,65.154,54.5,63.5,54.5z M63.5,32.5H40.501
		c-1.164,0-2.174,0.665-2.672,1.635c-0.585-0.897-1.681-1.633-3.733-1.633L33.922,32.5c-4.422,0-4.422,3.381-4.422,4.491
		c0,1.114,0,4.506,4.395,4.506c0,0,0.179,0.003,0.182,0.003c2.063,0,3.164-0.736,3.751-1.636c0.498,0.97,1.509,1.636,2.672,1.636
		H63.5c1.654,0,3-1.346,3-3v-3C66.5,33.846,65.154,32.5,63.5,32.5z M63.5,43.5H40.501c-1.164,0-2.174,0.665-2.672,1.635
		c-0.585-0.897-1.681-1.633-3.733-1.633L33.922,43.5c-4.422,0-4.422,3.381-4.422,4.491c0,1.114,0,4.506,4.395,4.506l0.182,0.003
		c2.063,0,3.164-0.736,3.751-1.636c0.498,0.97,1.509,1.636,2.672,1.636H63.5c1.654,0,3-1.346,3-3v-3
		C66.5,44.846,65.154,43.5,63.5,43.5z"/>
	<path opacity="0.15" d="M34.089,44.002L33.922,44C30.446,44,30,46.133,30,47.991c0,1.865,0.445,4.006,3.903,4.006L34.077,52
		C37.554,52,38,49.863,38,48.003C38,46.141,37.555,44.002,34.089,44.002z M34.089,55.002L33.922,55C30.446,55,30,57.133,30,58.991
		c0,1.865,0.445,4.006,3.903,4.006L34.077,63C37.554,63,38,60.863,38,59.003C38,57.141,37.555,55.002,34.089,55.002z M63.5,55
		H40.501C39.122,55,38,56.121,38,57.5v1.503V60.5c0,1.379,1.122,2.5,2.501,2.5H63.5c1.379,0,2.5-1.121,2.5-2.5v-3
		C66,56.121,64.879,55,63.5,55z M63.5,44H40.501C39.122,44,38,45.121,38,46.5v1.503V49.5c0,1.379,1.122,2.5,2.501,2.5H63.5
		c1.379,0,2.5-1.121,2.5-2.5v-3C66,45.121,64.879,44,63.5,44z M63.5,33H40.501C39.122,33,38,34.121,38,35.5v1.503V38.5
		c0,1.379,1.122,2.5,2.501,2.5H63.5c1.379,0,2.5-1.121,2.5-2.5v-3C66,34.121,64.879,33,63.5,33z M34.089,33.002L33.922,33
		C30.446,33,30,35.133,30,36.991c0,1.865,0.445,4.006,3.903,4.006L34.077,41C37.554,41,38,38.863,38,37.003
		C38,35.141,37.555,33.002,34.089,33.002z"/>
	<path opacity="0.15" d="M34.083,44.502L33.922,44.5c-3.007,0-3.422,1.678-3.422,3.491c0,1.821,0.415,3.506,3.413,3.506
		c0,0,0.162,0.003,0.165,0.003c3.008,0,3.423-1.681,3.423-3.497C37.5,46.185,37.085,44.502,34.083,44.502z M63.5,33.5H40.501
		c-1.104,0-2.001,0.896-2.001,2v3c0,1.104,0.897,2,2.001,2H63.5c1.104,0,2-0.896,2-2v-3C65.5,34.396,64.604,33.5,63.5,33.5z
		 M34.083,55.502L33.922,55.5c-3.007,0-3.422,1.678-3.422,3.491c0,1.821,0.415,3.506,3.413,3.506c0,0,0.162,0.003,0.165,0.003
		c3.008,0,3.423-1.681,3.423-3.497C37.5,57.185,37.085,55.502,34.083,55.502z M34.083,33.502L33.922,33.5
		c-3.007,0-3.422,1.678-3.422,3.491c0,1.821,0.415,3.506,3.413,3.506c0,0,0.162,0.003,0.165,0.003c3.008,0,3.423-1.681,3.423-3.497
		C37.5,35.185,37.085,33.502,34.083,33.502z M63.5,44.5H40.501c-1.104,0-2.001,0.896-2.001,2v3c0,1.104,0.897,2,2.001,2H63.5
		c1.104,0,2-0.896,2-2v-3C65.5,45.396,64.604,44.5,63.5,44.5z M63.5,55.5H40.501c-1.104,0-2.001,0.896-2.001,2v3
		c0,1.104,0.897,2,2.001,2H63.5c1.104,0,2-0.896,2-2v-3C65.5,56.396,64.604,55.5,63.5,55.5z"/>
	
		<linearGradient id="SVGID_3_" gradientUnits="userSpaceOnUse" x1="-126.0005" y1="157.125" x2="-126.0005" y2="185.6675" gradientTransform="matrix(1 0 0 -1 174 219)">
		<stop  offset="0" style="stop-color:#D0CBC5"/>
		<stop  offset="0.5031" style="stop-color:#FAFCEF"/>
		<stop  offset="0.9693" style="stop-color:#FFFFFF"/>
		<stop  offset="1" style="stop-color:#FFFFFF"/>
	</linearGradient>
	<path fill="url(#SVGID_3_)" d="M63.5,55H40.501C39.676,55,39,55.676,39,56.5v3c0,0.824,0.676,1.5,1.501,1.5H63.5
		c0.825,0,1.5-0.676,1.5-1.5v-3C65,55.676,64.325,55,63.5,55z M34.077,55.002L33.922,55C31.524,55,31,56.052,31,57.991
		c0,1.948,0.537,3.006,2.922,3.006L34.077,61c2.4,0,2.923-1.059,2.923-2.997C37,56.059,36.467,55.002,34.077,55.002z M63.5,44
		H40.501C39.676,44,39,44.676,39,45.5v3c0,0.824,0.676,1.5,1.501,1.5H63.5c0.825,0,1.5-0.676,1.5-1.5v-3
		C65,44.676,64.325,44,63.5,44z M34.077,44.002L33.922,44C31.524,44,31,45.052,31,46.991c0,1.948,0.537,3.006,2.922,3.006L34.077,50
		c2.4,0,2.923-1.059,2.923-2.997C37,45.059,36.467,44.002,34.077,44.002z M63.5,33H40.501C39.676,33,39,33.676,39,34.5v3
		c0,0.824,0.676,1.5,1.501,1.5H63.5c0.825,0,1.5-0.676,1.5-1.5v-3C65,33.676,64.325,33,63.5,33z M34.077,33.002L33.922,33
		C31.524,33,31,34.052,31,35.991c0,1.948,0.537,3.006,2.922,3.006L34.077,39c2.4,0,2.923-1.059,2.923-2.997
		C37,34.059,36.467,33.002,34.077,33.002z"/>
	
		<linearGradient id="SVGID_4_" gradientUnits="userSpaceOnUse" x1="-126.0005" y1="158" x2="-126.0005" y2="183.5098" gradientTransform="matrix(1 0 0 -1 174 219)">
		<stop  offset="0" style="stop-color:#000000"/>
		<stop  offset="1" style="stop-color:#000000;stop-opacity:0"/>
	</linearGradient>
	<path fill="url(#SVGID_4_)" fill-opacity="0.06" d="M36.98,35.506c0.011,0.161,0.02,0.321,0.02,0.497
		C37,37.941,36.477,39,34.077,39l-0.155-0.003c-2.385,0-2.922-1.058-2.922-3.006c0-0.179,0.009-0.341,0.02-0.502
		c0.097,1.625,0.731,2.508,2.902,2.508L34.077,38C36.258,38,36.883,37.119,36.98,35.506z M63.5,38H40.501
		C39.676,38,39,37.324,39,36.5v1c0,0.824,0.676,1.5,1.501,1.5H63.5c0.825,0,1.5-0.676,1.5-1.5v-1C65,37.324,64.325,38,63.5,38z
		 M34.077,49l-0.155-0.003c-2.171,0-2.805-0.883-2.902-2.508C31.009,46.65,31,46.812,31,46.991c0,1.948,0.537,3.006,2.922,3.006
		L34.077,50c2.4,0,2.923-1.059,2.923-2.997c0-0.176-0.009-0.336-0.02-0.497C36.883,48.119,36.258,49,34.077,49z M34.077,60
		l-0.155-0.003c-2.171,0-2.805-0.883-2.902-2.509C31.009,57.652,31,57.812,31,57.991c0,1.948,0.537,3.006,2.922,3.006L34.077,61
		c2.4,0,2.923-1.059,2.923-2.997c0-0.176-0.009-0.336-0.02-0.497C36.883,59.119,36.258,60,34.077,60z M63.5,60H40.501
		C39.676,60,39,59.324,39,58.5v1c0,0.824,0.676,1.5,1.501,1.5H63.5c0.825,0,1.5-0.676,1.5-1.5v-1C65,59.324,64.325,60,63.5,60z
		 M63.5,49H40.501C39.676,49,39,48.324,39,47.5v1c0,0.824,0.676,1.5,1.501,1.5H63.5c0.825,0,1.5-0.676,1.5-1.5v-1
		C65,48.324,64.325,49,63.5,49z"/>
	<path fill="#FFFFFF" d="M65,56.5v1c0-0.824-0.675-1.5-1.5-1.5H40.501C39.676,56,39,56.676,39,57.5v-1c0-0.824,0.676-1.5,1.501-1.5
		H63.5C64.325,55,65,55.676,65,56.5z M63.5,33H40.501C39.676,33,39,33.676,39,34.5v1c0-0.824,0.676-1.5,1.501-1.5H63.5
		c0.825,0,1.5,0.676,1.5,1.5v-1C65,33.676,64.325,33,63.5,33z M34.077,44.002L33.922,44C31.524,44,31,45.052,31,46.991
		c0,0.176,0.009,0.336,0.02,0.498C31.118,45.876,31.744,45,33.922,45l0.155,0.002c2.174,0,2.806,0.882,2.903,2.504
		c0.011-0.162,0.02-0.324,0.02-0.503C37,45.059,36.467,44.002,34.077,44.002z M34.077,33.002L33.922,33
		C31.524,33,31,34.052,31,35.991c0,0.176,0.009,0.336,0.02,0.498C31.118,34.876,31.744,34,33.922,34l0.155,0.002
		c2.174,0,2.806,0.882,2.903,2.504c0.011-0.162,0.02-0.324,0.02-0.503C37,34.059,36.467,33.002,34.077,33.002z M63.5,44H40.501
		C39.676,44,39,44.676,39,45.5v1c0-0.824,0.676-1.5,1.501-1.5H63.5c0.825,0,1.5,0.676,1.5,1.5v-1C65,44.676,64.325,44,63.5,44z
		 M34.077,55.002L33.922,55C31.524,55,31,56.052,31,57.991c0,0.176,0.009,0.336,0.02,0.497C31.118,56.876,31.744,56,33.922,56
		l0.155,0.002c2.174,0,2.806,0.882,2.903,2.504c0.011-0.163,0.02-0.324,0.02-0.503C37,56.059,36.467,55.002,34.077,55.002z"/>
</g>
</svg>
