<?xml version="1.0" encoding="utf-8"?>
<!-- Generator: Adobe Illustrator 15.0.2, SVG Export Plug-In . SVG Version: 6.00 Build 0)  -->
<!DOCTYPE svg PUBLIC "-//W3C//DTD SVG 1.1//EN" "http://www.w3.org/Graphics/SVG/1.1/DTD/svg11.dtd">
<svg version="1.1" id="Layer_1" xmlns="http://www.w3.org/2000/svg" xmlns:xlink="http://www.w3.org/1999/xlink" x="0px" y="0px"
	 width="96px" height="96px" viewBox="0 0 96 96" enable-background="new 0 0 96 96" xml:space="preserve">
<g>
	<path fill-opacity="0.4" d="M88,49c0,29.633-10.363,40-40,40C18.366,89,8,78.633,8,49C8,19.365,18.366,9,48,9
		C77.637,9,88,19.365,88,49z"/>
	
		<linearGradient id="SVGID_1_" gradientUnits="userSpaceOnUse" x1="-126.0005" y1="122.3984" x2="-126.0005" y2="197.2355" gradientTransform="matrix(1 0 0 -1 174 219)">
		<stop  offset="0" style="stop-color:#006325"/>
		<stop  offset="1" style="stop-color:#80C341"/>
	</linearGradient>
	<path fill="url(#SVGID_1_)" d="M88,48c0,29.633-10.363,40-40,40C18.366,88,8,77.633,8,48C8,18.365,18.366,8,48,8
		C77.637,8,88,18.365,88,48z"/>
	<rect fill="none" width="96" height="96"/>
	
		<linearGradient id="SVGID_2_" gradientUnits="userSpaceOnUse" x1="-300.2749" y1="506.6973" x2="-300.2749" y2="585.9434" gradientTransform="matrix(1 0 0 1 348.2749 -498.4453)">
		<stop  offset="0" style="stop-color:#FFFFFF"/>
		<stop  offset="1" style="stop-color:#FFFFFF;stop-opacity:0"/>
	</linearGradient>
	<path fill="url(#SVGID_2_)" fill-opacity="0.25" d="M48,8C18.366,8,8,18.365,8,48c0,29.633,10.366,40,40,40
		c29.637,0,40-10.367,40-40C88,18.365,77.637,8,48,8z M48,87C18.842,87,9,77.158,9,48S18.842,9,48,9s39,9.842,39,39S77.158,87,48,87
		z"/>
	<path opacity="0.05" d="M39.898,67.5c-8.633,0-15.685-6.904-15.924-15.481h-2.155c-1.169,0-2.164-0.54-2.729-1.479
		c-0.566-0.939-0.576-2.072-0.026-3.106l7.811-14.733c0.576-1.083,1.557-1.705,2.693-1.705c0.896,0,1.694,0.387,2.274,1.08
		c0.049-0.125,0.108-0.246,0.178-0.361c0.452-0.749,1.273-1.213,2.144-1.213h21.938c8.634,0,15.686,6.904,15.924,15.48h2.155
		c1.167,0,2.162,0.539,2.729,1.478c0.566,0.942,0.577,2.073,0.03,3.106l-7.814,14.734c-0.575,1.084-1.557,1.705-2.692,1.705
		c-0.896,0-1.694-0.385-2.274-1.078c-0.049,0.124-0.107,0.244-0.178,0.361c-0.451,0.748-1.273,1.213-2.144,1.213H39.898z
		 M35.192,52.019c0.246,2.421,2.263,4.282,4.706,4.282h18.652c0.148,0,0.295,0.014,0.438,0.038l-3.062-5.772
		c-0.545-1.035-0.535-2.166,0.028-3.105c0.567-0.941,1.562-1.48,2.73-1.48h2.124c-0.247-2.42-2.264-4.282-4.707-4.282H37.45
		c-0.148,0-0.295-0.013-0.438-0.038l3.062,5.773c0.547,1.035,0.537,2.167-0.03,3.106c-0.565,0.939-1.56,1.479-2.729,1.479H35.192z"
		/>
	<path opacity="0.05" d="M60.316,57.863c-0.348-0.656-1.024-1.062-1.766-1.062H39.898c-2.885,0-5.231-2.348-5.231-5.232v-0.05h2.648
		c0.99,0,1.828-0.45,2.301-1.236c0.474-0.786,0.479-1.739,0.016-2.614l-7.813-14.732c-0.485-0.916-1.306-1.441-2.251-1.441
		c-0.945,0-1.765,0.525-2.251,1.439l-7.812,14.733c-0.465,0.875-0.46,1.828,0.014,2.614c0.473,0.786,1.312,1.237,2.301,1.237h2.649
		v0.05C24.468,60.077,31.39,67,39.898,67h21.938c0.696,0,1.354-0.372,1.715-0.971c0.358-0.596,0.378-1.35,0.053-1.967L60.316,57.863
		z M76.48,47.717c-0.473-0.785-1.312-1.236-2.3-1.236h-2.648V46.43c0-8.508-6.922-15.43-15.431-15.43H34.163
		c-0.697,0-1.354,0.371-1.715,0.97c-0.358,0.596-0.378,1.349-0.053,1.968l3.288,6.198c0.348,0.655,1.025,1.062,1.767,1.062h18.651
		c2.885,0,5.232,2.347,5.232,5.231v0.051h-2.649c-0.989,0-1.827,0.451-2.302,1.238c-0.471,0.785-0.477,1.737-0.016,2.613
		l7.814,14.73c0.484,0.916,1.305,1.441,2.251,1.441c0.944,0,1.765-0.523,2.251-1.439l7.814-14.734
		C76.961,49.457,76.955,48.504,76.48,47.717z"/>
	<path opacity="0.07" d="M60.316,57.863c-0.348-0.656-1.024-1.062-1.766-1.062H39.898c-2.885,0-5.231-2.348-5.231-5.232v-0.05h2.648
		c0.99,0,1.828-0.45,2.301-1.236c0.474-0.786,0.479-1.739,0.016-2.614l-7.813-14.732c-0.485-0.916-1.306-1.441-2.251-1.441
		c-0.945,0-1.765,0.525-2.251,1.439l-7.812,14.733c-0.465,0.875-0.46,1.828,0.014,2.614c0.473,0.786,1.312,1.237,2.301,1.237h2.649
		v0.05C24.468,60.077,31.39,67,39.898,67h21.938c0.696,0,1.354-0.372,1.715-0.971c0.358-0.596,0.378-1.35,0.053-1.967L60.316,57.863
		z M76.48,47.717c-0.473-0.785-1.312-1.236-2.3-1.236h-2.648V46.43c0-8.508-6.922-15.43-15.431-15.43H34.163
		c-0.697,0-1.354,0.371-1.715,0.97c-0.358,0.596-0.378,1.349-0.053,1.968l3.288,6.198c0.348,0.655,1.025,1.062,1.767,1.062h18.651
		c2.885,0,5.232,2.347,5.232,5.231v0.051h-2.649c-0.989,0-1.827,0.451-2.302,1.238c-0.471,0.785-0.477,1.737-0.016,2.613
		l7.814,14.73c0.484,0.916,1.305,1.441,2.251,1.441c0.944,0,1.765-0.523,2.251-1.439l7.814-14.734
		C76.961,49.457,76.955,48.504,76.48,47.717z"/>
	<path opacity="0.1" d="M59.875,58.098c-0.261-0.492-0.769-0.797-1.324-0.797H39.898c-3.16,0-5.731-2.571-5.731-5.732v-0.55h3.148
		c0.81,0,1.493-0.362,1.873-0.995c0.381-0.631,0.382-1.404,0.002-2.121L31.377,33.17c-0.396-0.747-1.055-1.176-1.81-1.176
		c-0.754,0-1.413,0.428-1.809,1.174l-7.812,14.734c-0.38,0.715-0.38,1.488,0,2.121c0.38,0.633,1.063,0.995,1.873,0.995h3.149v0.55
		c0,8.233,6.698,14.932,14.93,14.932h21.938c0.522,0,1.015-0.279,1.286-0.729c0.269-0.447,0.283-1.012,0.039-1.475L59.875,58.098z
		 M76.053,47.975c-0.381-0.632-1.062-0.994-1.872-0.994h-3.148V46.43c0-8.232-6.698-14.93-14.931-14.93H34.163
		c-0.522,0-1.015,0.277-1.286,0.727c-0.269,0.447-0.284,1.013-0.04,1.477l3.288,6.198c0.261,0.491,0.769,0.797,1.325,0.797h18.651
		c3.16,0,5.732,2.571,5.732,5.731v0.551h-3.149c-0.81,0-1.492,0.363-1.873,0.995c-0.38,0.632-0.38,1.405-0.002,2.122l7.813,14.731
		c0.396,0.747,1.055,1.175,1.81,1.175c0.754,0,1.413-0.428,1.81-1.174l7.813-14.734C76.435,49.381,76.434,48.607,76.053,47.975z"/>
	<path opacity="0.15" d="M75.625,48.232c-0.289-0.478-0.814-0.752-1.444-0.752h-3.648V46.43c0-7.957-6.474-14.43-14.431-14.43
		H34.163c-0.348,0-0.677,0.186-0.857,0.484c-0.179,0.299-0.189,0.675-0.026,0.984l3.288,6.198c0.174,0.327,0.512,0.531,0.883,0.531
		h18.651c3.437,0,6.232,2.796,6.232,6.231v1.051h-3.649c-0.63,0-1.157,0.274-1.444,0.752c-0.287,0.479-0.283,1.072,0.012,1.631
		l7.812,14.732c0.307,0.577,0.805,0.908,1.368,0.908s1.062-0.33,1.367-0.908l7.813-14.733
		C75.908,49.306,75.912,48.712,75.625,48.232z M59.434,58.332c-0.174-0.328-0.513-0.531-0.883-0.531H39.898
		c-3.436,0-6.231-2.795-6.231-6.232v-1.05h3.648c0.63,0,1.157-0.274,1.444-0.753c0.288-0.479,0.284-1.072-0.011-1.629l-7.814-14.732
		c-0.306-0.578-0.804-0.91-1.368-0.91c-0.563,0-1.061,0.332-1.367,0.908l-7.812,14.734c-0.296,0.557-0.3,1.15-0.013,1.629
		c0.288,0.479,0.814,0.753,1.444,0.753h3.649v1.05c0,7.957,6.473,14.432,14.43,14.432h21.938c0.349,0,0.677-0.186,0.857-0.485
		c0.179-0.298,0.189-0.675,0.026-0.983L59.434,58.332z"/>
	<path opacity="0.15" d="M58.992,58.566c-0.087-0.164-0.257-0.266-0.441-0.266H39.898c-3.712,0-6.731-3.02-6.731-6.732v-1.55h4.148
		c0.451,0,0.821-0.187,1.016-0.511s0.187-0.738-0.024-1.137l-7.814-14.733c-0.216-0.409-0.554-0.644-0.926-0.644
		c-0.372,0-0.709,0.234-0.925,0.643l-7.813,14.734c-0.211,0.398-0.221,0.812-0.025,1.137s0.565,0.511,1.016,0.511h4.149v1.55
		c0,7.682,6.249,13.932,13.93,13.932h21.938c0.175,0,0.338-0.092,0.429-0.242c0.09-0.15,0.096-0.338,0.014-0.492L58.992,58.566z
		 M75.196,48.49c-0.195-0.324-0.565-0.51-1.016-0.51h-4.148V46.43c0-7.681-6.249-13.93-13.931-13.93H34.163
		c-0.175,0-0.338,0.092-0.429,0.242c-0.09,0.15-0.095,0.336-0.013,0.492l3.287,6.198c0.087,0.163,0.257,0.266,0.442,0.266h18.651
		c3.712,0,6.732,3.021,6.732,6.731v1.551h-4.149c-0.45,0-0.821,0.186-1.016,0.51c-0.195,0.325-0.187,0.739,0.024,1.139l7.813,14.732
		c0.216,0.408,0.554,0.643,0.926,0.643s0.709-0.234,0.925-0.643l7.814-14.733C75.383,49.23,75.392,48.815,75.196,48.49z"/>
	<linearGradient id="SVGID_3_" gradientUnits="userSpaceOnUse" x1="48.0005" y1="64" x2="48.0005" y2="32.0005">
		<stop  offset="0" style="stop-color:#D0CBC5"/>
		<stop  offset="0.5031" style="stop-color:#FAFCEF"/>
		<stop  offset="0.9693" style="stop-color:#FFFFFF"/>
		<stop  offset="1" style="stop-color:#FFFFFF"/>
	</linearGradient>
	<path fill="url(#SVGID_3_)" d="M74.73,48.395l-7.814,14.732c-0.266,0.503-0.701,0.503-0.967,0l-7.814-14.732
		c-0.266-0.503-0.019-0.914,0.55-0.914h4.649V45.43c0-3.987-3.244-7.231-7.232-7.231H37.45L34.163,32h21.938
		c7.405,0,13.431,6.025,13.431,13.43v2.051h4.648C74.748,47.48,74.996,47.892,74.73,48.395z M21.819,48.519h4.649v2.05
		c0,7.406,6.025,13.432,13.43,13.432h21.938l-3.286-6.199H39.898c-3.987,0-7.231-3.244-7.231-7.232v-2.05h4.648
		c0.568,0,0.816-0.411,0.55-0.913l-7.814-14.734c-0.266-0.502-0.701-0.502-0.967,0l-7.813,14.734
		C21.004,48.107,21.251,48.519,21.819,48.519z"/>
	<linearGradient id="SVGID_4_" gradientUnits="userSpaceOnUse" x1="47.9976" y1="64" x2="47.9976" y2="32.0005">
		<stop  offset="0" style="stop-color:#000000"/>
		<stop  offset="1" style="stop-color:#000000;stop-opacity:0"/>
	</linearGradient>
	<path fill="url(#SVGID_4_)" fill-opacity="0.06" d="M37.315,47.519c0.187,0,0.323-0.056,0.433-0.134l0.117,0.221
		c0.266,0.502,0.019,0.913-0.55,0.913h-4.648v-1H37.315z M56.102,38.198c3.988,0,7.232,3.244,7.232,7.231v-1
		c0-3.987-3.244-7.231-7.232-7.231H37.45L34.693,32h-0.53l3.287,6.198H56.102z M39.898,63c-7.405,0-13.43-6.025-13.43-13.432v1
		c0,7.406,6.025,13.432,13.43,13.432h21.938l-0.53-1H39.898z M26.468,47.519h-4.649c-0.186,0-0.322-0.056-0.433-0.134l-0.116,0.221
		c-0.267,0.502-0.019,0.913,0.549,0.913h4.649V47.519z M74.613,47.613l-7.697,14.514c-0.266,0.503-0.701,0.503-0.967,0
		l-7.697-14.514c-0.227,0.158-0.295,0.443-0.117,0.781l7.814,14.732c0.266,0.503,0.701,0.503,0.967,0l7.814-14.732
		C74.908,48.057,74.84,47.771,74.613,47.613z"/>
	<path fill="#FFFFFF" d="M69.532,47.48h4.648c0.567,0,0.815,0.411,0.55,0.914l-0.117,0.219c-0.11-0.076-0.246-0.133-0.433-0.133
		h-4.648V47.48z M63.334,48.48v-1h-4.649c-0.568,0-0.815,0.411-0.55,0.914l0.117,0.219c0.11-0.076,0.246-0.133,0.433-0.133H63.334z
		 M56.102,33c7.405,0,13.431,6.025,13.431,13.43v-1c0-7.404-6.025-13.43-13.431-13.43H34.163l0.53,1H56.102z M39.898,57.801
		c-3.987,0-7.231-3.244-7.231-7.232v1c0,3.988,3.244,7.232,7.231,7.232h18.652L61.307,64h0.53l-3.286-6.199H39.898z M21.387,48.385
		l7.697-14.514c0.266-0.502,0.701-0.502,0.967,0l7.697,14.514c0.227-0.158,0.295-0.441,0.117-0.779l-7.814-14.734
		c-0.266-0.502-0.701-0.502-0.967,0l-7.813,14.734C21.091,47.943,21.16,48.228,21.387,48.385z"/>
</g>
</svg>
