<?xml version="1.0" encoding="utf-8"?>
<!-- Generator: Adobe Illustrator 15.0.2, SVG Export Plug-In . SVG Version: 6.00 Build 0)  -->
<!DOCTYPE svg PUBLIC "-//W3C//DTD SVG 1.1//EN" "http://www.w3.org/Graphics/SVG/1.1/DTD/svg11.dtd">
<svg version="1.1" id="Layer_1" xmlns="http://www.w3.org/2000/svg" xmlns:xlink="http://www.w3.org/1999/xlink" x="0px" y="0px"
	 width="96px" height="96px" viewBox="0 0 96 96" enable-background="new 0 0 96 96" xml:space="preserve">
<g>
	<path fill-opacity="0.4" d="M88,49c0,29.634-10.363,40-40,40C18.366,89,8,78.634,8,49C8,19.365,18.366,9,48,9
		C77.637,9,88,19.365,88,49z"/>
	
		<linearGradient id="SVGID_1_" gradientUnits="userSpaceOnUse" x1="-126.0005" y1="122.3984" x2="-126.0005" y2="197.2355" gradientTransform="matrix(1 0 0 -1 174 219)">
		<stop  offset="0" style="stop-color:#006325"/>
		<stop  offset="1" style="stop-color:#80C341"/>
	</linearGradient>
	<path fill="url(#SVGID_1_)" d="M88,48c0,29.634-10.363,40-40,40C18.366,88,8,77.634,8,48C8,18.365,18.366,8,48,8
		C77.637,8,88,18.365,88,48z"/>
	<rect fill="none" width="96" height="96"/>
	
		<linearGradient id="SVGID_2_" gradientUnits="userSpaceOnUse" x1="-300.2749" y1="506.6973" x2="-300.2749" y2="585.9434" gradientTransform="matrix(1 0 0 1 348.2749 -498.4453)">
		<stop  offset="0" style="stop-color:#FFFFFF"/>
		<stop  offset="1" style="stop-color:#FFFFFF;stop-opacity:0"/>
	</linearGradient>
	<path fill="url(#SVGID_2_)" fill-opacity="0.25" d="M48,8C18.366,8,8,18.365,8,48c0,29.634,10.366,40,40,40
		c29.637,0,40-10.366,40-40C88,18.365,77.637,8,48,8z M48,87C18.842,87,9,77.158,9,48S18.842,9,48,9s39,9.842,39,39S77.158,87,48,87
		z"/>
	<path opacity="0.05" d="M48,28.5c-14.943,0-20.5,5.557-20.5,20.5S33.057,69.5,48,69.5S68.5,63.943,68.5,49S62.943,28.5,48,28.5z
		 M48.5,40c0-0.275,0.225-0.5,0.501-0.5c0.275,0,0.499,0.225,0.499,0.5s-0.224,0.5-0.499,0.5C48.725,40.5,48.5,40.275,48.5,40z"/>
	<path opacity="0.07" d="M48,29c-14.58,0-20,5.42-20,20s5.42,20,20,20s20-5.42,20-20S62.58,29,48,29z M48,40
		c0-0.551,0.449-1,1.001-1C49.552,39,50,39.449,50,40s-0.448,1-0.999,1C48.449,41,48,40.551,48,40z M49.4,47.4V59H48.6V49
		c0-0.57-0.15-1.12-0.428-1.6H49.4z"/>
	<path opacity="0.1" d="M48,29.5c-14.215,0-19.5,5.285-19.5,19.5S33.785,68.5,48,68.5S67.5,63.215,67.5,49S62.215,29.5,48,29.5z
		 M47.096,46.9H49.9v12.6H48.1V49C48.1,48.152,47.708,47.396,47.096,46.9z M49.001,41.5c-0.828,0-1.501-0.673-1.501-1.5
		s0.673-1.5,1.501-1.5c0.827,0,1.499,0.673,1.499,1.5S49.828,41.5,49.001,41.5z"/>
	<path opacity="0.15" d="M48,30c-13.851,0-19,5.149-19,19s5.149,19,19,19s19-5.149,19-19S61.851,30,48,30z M47.6,59.8V49
		c0-1.213-0.986-2.2-2.199-2.2h-1.201C44.09,46.8,44,46.711,44,46.6c0-0.109,0.09-0.199,0.199-0.199H50.2
		c0.103,0,0.2,0.097,0.2,0.199v13.2c0,0.11-0.09,0.2-0.2,0.2h-2.4C47.689,60,47.6,59.91,47.6,59.8z M49.001,42
		C47.897,42,47,41.104,47,40s0.897-2,2.001-2C50.104,38,51,38.896,51,40S50.104,42,49.001,42z"/>
	<path opacity="0.15" d="M48,30.5c-13.658,0-18.5,4.842-18.5,18.5S34.342,67.5,48,67.5S66.5,62.658,66.5,49S61.658,30.5,48,30.5z
		 M47.1,59.8V49c0-0.938-0.762-1.7-1.699-1.7h-1.201c-0.385,0-0.699-0.313-0.699-0.7c0-0.386,0.314-0.699,0.699-0.699H50.2
		c0.38,0,0.7,0.32,0.7,0.699v13.2c0,0.386-0.314,0.7-0.7,0.7h-2.4C47.414,60.5,47.1,60.186,47.1,59.8z M49.001,42.5
		c-1.38,0-2.501-1.121-2.501-2.5s1.121-2.5,2.501-2.5c1.378,0,2.499,1.121,2.499,2.5S50.379,42.5,49.001,42.5z"/>
	<linearGradient id="SVGID_3_" gradientUnits="userSpaceOnUse" x1="48.0005" y1="66" x2="48.0005" y2="30.0005">
		<stop  offset="0" style="stop-color:#D0CBC5"/>
		<stop  offset="0.5031" style="stop-color:#FAFCEF"/>
		<stop  offset="0.9693" style="stop-color:#FFFFFF"/>
		<stop  offset="1" style="stop-color:#FFFFFF"/>
	</linearGradient>
	<path fill="url(#SVGID_3_)" d="M48,30c-13.338,0-18,4.666-18,18c0,13.337,4.662,18,18,18c13.335,0,18-4.663,18-18
		C66,34.666,61.335,30,48,30z M51.4,58.8c0,0.661-0.542,1.2-1.2,1.2h-2.4c-0.659,0-1.2-0.539-1.2-1.2V48c0-0.658-0.54-1.2-1.199-1.2
		h-1.201C43.54,46.8,43,46.262,43,45.6c0-0.658,0.54-1.199,1.199-1.199H50.2c0.658,0,1.2,0.541,1.2,1.199V58.8z M49.001,42
		C47.346,42,46,40.654,46,39s1.346-3,3.001-3C50.657,36,52,37.346,52,39S50.657,42,49.001,42z"/>
</g>
</svg>
