<?xml version="1.0" encoding="utf-8"?>
<!-- Generator: Adobe Illustrator 15.0.2, SVG Export Plug-In . SVG Version: 6.00 Build 0)  -->
<!DOCTYPE svg PUBLIC "-//W3C//DTD SVG 1.1//EN" "http://www.w3.org/Graphics/SVG/1.1/DTD/svg11.dtd">
<svg version="1.1" id="Layer_1" xmlns="http://www.w3.org/2000/svg" xmlns:xlink="http://www.w3.org/1999/xlink" x="0px" y="0px"
	 width="96px" height="96px" viewBox="0 0 96 96" enable-background="new 0 0 96 96" xml:space="preserve">
<g>
	<path fill-opacity="0.4" d="M88,49c0,29.634-10.363,40-40,40C18.366,89,8,78.634,8,49C8,19.365,18.366,9,48,9
		C77.637,9,88,19.365,88,49z"/>
	
		<linearGradient id="SVGID_1_" gradientUnits="userSpaceOnUse" x1="-126.0005" y1="122.3984" x2="-126.0005" y2="197.2355" gradientTransform="matrix(1 0 0 -1 174 219)">
		<stop  offset="0" style="stop-color:#006325"/>
		<stop  offset="1" style="stop-color:#80C341"/>
	</linearGradient>
	<path fill="url(#SVGID_1_)" d="M88,48c0,29.634-10.363,40-40,40C18.366,88,8,77.634,8,48C8,18.365,18.366,8,48,8
		C77.637,8,88,18.365,88,48z"/>
	<rect fill="none" width="96" height="96"/>
	
		<linearGradient id="SVGID_2_" gradientUnits="userSpaceOnUse" x1="-300.2749" y1="506.6973" x2="-300.2749" y2="585.9434" gradientTransform="matrix(1 0 0 1 348.2749 -498.4453)">
		<stop  offset="0" style="stop-color:#FFFFFF"/>
		<stop  offset="1" style="stop-color:#FFFFFF;stop-opacity:0"/>
	</linearGradient>
	<path fill="url(#SVGID_2_)" fill-opacity="0.25" d="M48,8C18.366,8,8,18.365,8,48c0,29.634,10.366,40,40,40
		c29.637,0,40-10.366,40-40C88,18.365,77.637,8,48,8z M48,87C18.842,87,9,77.158,9,48S18.842,9,48,9s39,9.842,39,39S77.158,87,48,87
		z"/>
	<path opacity="0.05" d="M69.308,55.776v-0.469c0-4.306-3.503-7.808-7.808-7.808h-3.539c-1.605,0-3.156,0.491-4.461,1.4V37.002
		l1.188,0.002l0.711,2.178c0.498,1.525,2.082,2.676,3.687,2.676H60c0.977,0,1.902-0.413,2.539-1.132
		c0.639-0.718,0.939-1.687,0.824-2.659l-0.762-6.371C62.387,29.903,60.805,28.5,59,28.5H37c-1.805,0-3.387,1.403-3.602,3.195
		l-0.762,6.375c-0.115,0.969,0.186,1.936,0.822,2.652c0.639,0.721,1.564,1.135,2.541,1.135h0.918c1.605,0,3.191-1.151,3.688-2.678
		L41.314,37H42.5v24.793l-0.818,0.103C39.897,62.119,38.5,63.702,38.5,65.5V66c0,1.93,1.57,3.5,3.5,3.5h5.5v1.73
		c0,2.354,1.916,4.27,4.27,4.27h15.922c2.354,0,4.27-1.915,4.27-4.27v-11.5C71.961,57.971,70.909,56.425,69.308,55.776z
		 M57.961,55.154H61.5c0.085,0,0.154,0.068,0.154,0.153v0.154h-3.847v-0.154C57.808,55.223,57.877,55.154,57.961,55.154z"/>
	<path opacity="0.07" d="M68.808,56.129v-0.821c0-4.029-3.278-7.308-7.308-7.308h-3.539c-1.847,0-3.623,0.709-4.961,1.941v-13.44
		l2.051,0.003l0.823,2.523c0.433,1.328,1.813,2.33,3.211,2.33H60c0.834,0,1.623-0.352,2.166-0.965
		c0.543-0.61,0.799-1.437,0.701-2.267l-0.762-6.371C61.92,30.21,60.556,29,59,29H37c-1.556,0-2.92,1.21-3.105,2.755l-0.762,6.374
		c-0.098,0.827,0.158,1.652,0.7,2.263c0.544,0.613,1.333,0.966,2.167,0.966h0.918c1.398,0,2.779-1.003,3.212-2.332l0.822-2.525H43
		v25.734l-1.256,0.157C40.205,62.584,39,63.949,39,65.5V66c0,1.654,1.346,3,3,3h6v2.23c0,2.078,1.691,3.77,3.77,3.77h15.922
		c2.078,0,3.77-1.691,3.77-3.77v-11.5C71.461,58.062,70.367,56.609,68.808,56.129z M60.23,63.951c0,0.197-0.119,0.378-0.304,0.459
		c-0.067,0.029-0.132,0.062-0.194,0.099c-0.063-0.036-0.129-0.069-0.196-0.1c-0.186-0.081-0.306-0.261-0.306-0.458
		c0-0.275,0.225-0.499,0.5-0.499S60.23,63.676,60.23,63.951z M57.961,54.654H61.5c0.361,0,0.654,0.293,0.654,0.653v0.654h-4.847
		v-0.654C57.308,54.947,57.601,54.654,57.961,54.654z"/>
	<path opacity="0.1" d="M68.308,56.52v-1.212c0-3.754-3.054-6.808-6.808-6.808h-3.539c-2.197,0-4.201,1.047-5.461,2.74V36
		l2.913,0.004l0.937,2.868c0.369,1.132,1.545,1.985,2.735,1.985H60c0.69,0,1.344-0.291,1.793-0.797
		c0.448-0.504,0.658-1.188,0.578-1.875l-0.762-6.371C61.453,30.517,60.307,29.5,59,29.5H37c-1.307,0-2.453,1.017-2.609,2.314
		l-0.762,6.373c-0.08,0.686,0.13,1.368,0.578,1.873c0.449,0.506,1.102,0.797,1.793,0.797h0.918c1.191,0,2.368-0.854,2.736-1.986
		L40.59,36h2.91v26.676l-1.693,0.212C40.513,63.05,39.5,64.197,39.5,65.5V66c0,1.379,1.121,2.5,2.5,2.5h6
		c0.176,0,0.344-0.03,0.5-0.086v2.816c0,1.803,1.467,3.27,3.27,3.27h15.922c1.803,0,3.27-1.467,3.27-3.27v-11.5
		C70.961,58.136,69.829,56.807,68.308,56.52z M60.73,63.951c0,0.396-0.236,0.756-0.604,0.917c-0.146,0.063-0.277,0.15-0.394,0.255
		c-0.116-0.104-0.25-0.19-0.397-0.256c-0.368-0.161-0.605-0.521-0.605-0.916c0-0.551,0.449-0.999,1-0.999S60.73,63.4,60.73,63.951z
		 M57.961,54.154H61.5c0.637,0,1.154,0.518,1.154,1.153v1.154h-5.847v-1.154C56.808,54.672,57.325,54.154,57.961,54.154z"/>
	<path opacity="0.15" d="M67.808,56.965v-1.657C67.808,51.83,64.979,49,61.5,49h-3.539c-2.789,0-5.161,1.819-5.991,4.334
		c0.021-0.08,0.03-0.162,0.03-0.245V35.5h3.5c0.118,0,0.323,0.148,0.359,0.261l0.965,2.956c0.305,0.936,1.277,1.641,2.261,1.641H60
		c0.548,0,1.064-0.229,1.419-0.629c0.354-0.398,0.52-0.939,0.455-1.483l-0.762-6.371C60.986,30.823,60.059,30,59,30H37
		c-1.059,0-1.986,0.823-2.112,1.874l-0.762,6.372c-0.064,0.543,0.101,1.084,0.455,1.482c0.354,0.399,0.871,0.629,1.419,0.629h0.918
		c0.984,0,1.957-0.706,2.261-1.642l0.963-2.956c0.036-0.111,0.241-0.26,0.358-0.26H44V63c0,0.046-0.07,0.126-0.116,0.132
		l-2.016,0.252C40.82,63.516,40,64.445,40,65.5V66c0,1.104,0.896,2,2,2h6c0.551,0,1-0.449,1-1v4.23c0,1.527,1.242,2.77,2.77,2.77
		h15.922c1.527,0,2.77-1.242,2.77-2.77v-11.5C70.461,58.243,69.281,57.025,67.808,56.965z M50.589,57.23
		c-0.304,0.144-0.577,0.338-0.809,0.576C50.01,57.57,50.281,57.375,50.589,57.23z M50.95,57.086
		c0.421-0.131,0.703-0.516,0.703-0.955v0.834c-0.329,0.014-0.64,0.092-0.93,0.211C50.799,57.146,50.871,57.109,50.95,57.086z
		 M49.773,57.814c-0.109,0.114-0.208,0.239-0.297,0.371C49.565,58.054,49.663,57.93,49.773,57.814z M61.23,63.951
		c0,0.595-0.354,1.134-0.902,1.375c-0.35,0.153-0.58,0.492-0.597,0.871c-0.017-0.379-0.247-0.718-0.597-0.872
		c-0.549-0.241-0.904-0.78-0.904-1.374c0-0.826,0.673-1.499,1.5-1.499S61.23,63.125,61.23,63.951z M57.961,53.654H61.5
		c0.912,0,1.654,0.741,1.654,1.653v1.654h-6.847v-1.654C56.308,54.396,57.049,53.654,57.961,53.654z M49.052,59.213
		c-0.03,0.164-0.051,0.332-0.052,0.504C49.001,59.545,49.021,59.378,49.052,59.213z M49.43,58.261
		c-0.07,0.11-0.132,0.228-0.186,0.349C49.297,58.488,49.359,58.372,49.43,58.261z M49.193,58.727
		c-0.045,0.115-0.08,0.234-0.109,0.356C49.113,58.961,49.149,58.842,49.193,58.727z"/>
	<path opacity="0.15" d="M51.153,56.131v-0.823c0-0.7,0.108-1.396,0.323-2.066c0.016-0.05,0.023-0.101,0.023-0.152V35.5
		c0-0.275,0.225-0.5,0.5-0.5h3.5c0.334,0,0.731,0.289,0.835,0.605l0.964,2.956c0.238,0.727,1.021,1.296,1.786,1.296H60
		c0.404,0,0.785-0.168,1.045-0.461c0.26-0.291,0.381-0.689,0.332-1.092l-0.762-6.371C60.52,31.13,59.81,30.5,59,30.5H37
		c-0.81,0-1.52,0.63-1.615,1.434l-0.762,6.371c-0.049,0.402,0.072,0.801,0.332,1.092c0.26,0.293,0.641,0.461,1.045,0.461h0.918
		c0.765,0,1.549-0.57,1.785-1.297l0.963-2.955C39.77,35.289,40.166,35,40.5,35H44c0.275,0,0.5,0.225,0.5,0.5V63
		c0,0.297-0.259,0.591-0.555,0.628L41.93,63.88c-0.802,0.101-1.43,0.812-1.43,1.62V66c0,0.827,0.673,1.5,1.5,1.5h6
		c0.276,0,0.5-0.224,0.5-0.5v-7.27c0-1.439,0.925-2.695,2.302-3.123C51.011,56.543,51.153,56.35,51.153,56.131z M67.691,57.462
		h-0.384v-2.154c0-3.202-2.605-5.808-5.808-5.808h-3.539c-3.202,0-5.808,2.605-5.808,5.808v2.154H51.77
		c-1.252,0-2.27,1.019-2.27,2.269v11.5c0,1.252,1.018,2.27,2.27,2.27h15.922c1.252,0,2.27-1.018,2.27-2.27v-11.5
		C69.961,58.48,68.943,57.462,67.691,57.462z M60.529,65.783c-0.182,0.08-0.299,0.26-0.299,0.458v3.211h-0.998v-3.211
		c0-0.198-0.117-0.378-0.299-0.458c-0.73-0.32-1.203-1.039-1.203-1.832c0-1.102,0.896-1.999,2-1.999s2,0.897,2,1.999
		C61.73,64.744,61.26,65.463,60.529,65.783z M63.654,57.462h-7.847v-2.154c0-1.188,0.966-2.153,2.153-2.153H61.5
		c1.188,0,2.154,0.966,2.154,2.153V57.462z"/>
	<linearGradient id="SVGID_3_" gradientUnits="userSpaceOnUse" x1="52.2861" y1="72" x2="52.2861" y2="30.0005">
		<stop  offset="0" style="stop-color:#D0CBC5"/>
		<stop  offset="0.5031" style="stop-color:#FAFCEF"/>
		<stop  offset="0.9693" style="stop-color:#FFFFFF"/>
		<stop  offset="1" style="stop-color:#FFFFFF"/>
	</linearGradient>
	<path fill="url(#SVGID_3_)" d="M48,66h-6c-0.55,0-1-0.45-1-1v-0.5c0-0.55,0.446-1.056,0.992-1.124l2.016-0.252
		C44.554,63.056,45,62.55,45,62V34.5c0-0.55-0.45-1-1-1h-3.5c-0.55,0-1.14,0.428-1.31,0.951l-0.963,2.955
		c-0.17,0.523-0.76,0.951-1.31,0.951H36c-0.55,0-0.946-0.447-0.881-0.993l0.762-6.371C35.946,30.447,36.45,30,37,30h22
		c0.55,0,1.054,0.447,1.119,0.993l0.762,6.371c0.065,0.546-0.331,0.993-0.881,0.993h-0.915c-0.55,0-1.14-0.428-1.311-0.951
		l-0.964-2.955C56.64,33.928,56.05,33.5,55.5,33.5H52c-0.55,0-1,0.45-1,1v17.589c-0.224,0.7-0.347,1.445-0.347,2.219v0.823
		C49.118,55.607,48,57.041,48,58.73V66z M69.461,58.73v11.5c0,0.973-0.796,1.77-1.77,1.77H51.77C50.796,72,50,71.203,50,70.23v-11.5
		c0-0.973,0.796-1.769,1.77-1.769h0.884v-2.654c0-2.919,2.388-5.308,5.308-5.308H61.5c2.918,0,5.308,2.389,5.308,5.308v2.654h0.884
		C68.665,56.962,69.461,57.758,69.461,58.73z M62.23,62.951c0-1.38-1.121-2.499-2.5-2.499c-1.378,0-2.5,1.119-2.5,2.499
		c0,1.023,0.62,1.902,1.502,2.29v3.711h1.998v-3.711C61.613,64.854,62.23,63.975,62.23,62.951z M64.154,54.308
		c0-1.464-1.19-2.653-2.654-2.653h-3.539c-1.463,0-2.653,1.189-2.653,2.653v2.654h8.847V54.308z"/>
	<path fill="#FFFFFF" d="M55.308,57.962v-1h8.847v1H55.308z M60.73,65.241v1c0.883-0.388,1.5-1.267,1.5-2.29
		c0-0.176-0.02-0.347-0.054-0.512C62.016,64.248,61.469,64.918,60.73,65.241z M52.653,54.308v1c0-2.919,2.388-5.308,5.308-5.308
		H61.5c2.918,0,5.308,2.389,5.308,5.308v-1c0-2.919-2.39-5.308-5.308-5.308h-3.539C55.041,49,52.653,51.389,52.653,54.308z
		 M50,58.73v1c0-0.973,0.796-1.769,1.77-1.769h0.884v-1H51.77C50.796,56.962,50,57.758,50,58.73z M58.732,66.241v-1
		c-0.738-0.323-1.287-0.993-1.448-1.803c-0.034,0.166-0.054,0.337-0.054,0.513C57.23,64.975,57.851,65.854,58.732,66.241z
		 M67.691,56.962h-0.884v1h0.884c0.974,0,1.77,0.796,1.77,1.769v-1C69.461,57.758,68.665,56.962,67.691,56.962z M60.73,68.952
		h-1.998v1h1.998V68.952z M41.992,64.376l2.016-0.252C44.554,64.056,45,63.55,45,63v-1c0,0.55-0.446,1.056-0.992,1.124l-2.016,0.252
		C41.446,63.444,41,63.95,41,64.5V65c0,0.087,0.029,0.165,0.05,0.246C41.162,64.804,41.533,64.434,41.992,64.376z M35.881,31.993
		C35.946,31.447,36.45,31,37,31h22c0.55,0,1.054,0.447,1.119,0.993l0.695,5.816c0.055-0.136,0.086-0.283,0.066-0.445l-0.762-6.371
		C60.054,30.447,59.55,30,59,30H37c-0.55,0-1.054,0.447-1.119,0.993l-0.762,6.371c-0.02,0.162,0.012,0.31,0.066,0.445L35.881,31.993
		z"/>
	<linearGradient id="SVGID_4_" gradientUnits="userSpaceOnUse" x1="52.2861" y1="72" x2="52.2861" y2="32.5005">
		<stop  offset="0" style="stop-color:#000000"/>
		<stop  offset="1" style="stop-color:#000000;stop-opacity:0"/>
	</linearGradient>
	<path fill="url(#SVGID_4_)" fill-opacity="0.06" d="M64.154,53.308v1c0-1.464-1.19-2.653-2.654-2.653h-3.539
		c-1.463,0-2.653,1.189-2.653,2.653v-1c0-1.464,1.19-2.653,2.653-2.653H61.5C62.964,50.654,64.154,51.844,64.154,53.308z
		 M59.73,59.452c-1.378,0-2.5,1.119-2.5,2.499c0,0.168,0.021,0.329,0.054,0.487c0.237-1.134,1.244-1.986,2.446-1.986
		c1.203,0,2.209,0.853,2.446,1.987c0.032-0.158,0.054-0.32,0.054-0.488C62.23,60.571,61.109,59.452,59.73,59.452z M52,33.5h3.5
		c0.55,0,1.14,0.428,1.311,0.951l0.964,2.955c0.171,0.523,0.761,0.951,1.311,0.951H60c0.55,0,0.946-0.447,0.881-0.993l-0.066-0.555
		c-0.128,0.32-0.428,0.548-0.814,0.548h-0.915c-0.55,0-1.14-0.428-1.311-0.951l-0.964-2.955C56.64,32.928,56.05,32.5,55.5,32.5H52
		c-0.55,0-1,0.45-1,1v1C51,33.95,51.45,33.5,52,33.5z M45,34.5v-1c0-0.55-0.45-1-1-1h-3.5c-0.55,0-1.14,0.428-1.31,0.951
		l-0.963,2.955c-0.17,0.523-0.76,0.951-1.31,0.951H36c-0.387,0-0.687-0.228-0.814-0.548l-0.066,0.555
		C35.054,37.91,35.45,38.357,36,38.357h0.918c0.55,0,1.14-0.428,1.31-0.951l0.963-2.955c0.17-0.523,0.76-0.951,1.31-0.951H44
		C44.55,33.5,45,33.95,45,34.5z M67.691,71H51.77C50.796,71,50,70.203,50,69.23v1c0,0.973,0.796,1.77,1.77,1.77h15.922
		c0.974,0,1.77-0.797,1.77-1.77v-1C69.461,70.203,68.665,71,67.691,71z M50.653,54.308c0-0.773,0.123-1.519,0.347-2.219v-1
		c-0.224,0.7-0.347,1.445-0.347,2.219v0.823C49.118,54.607,48,56.041,48,57.73v1c0-1.689,1.118-3.123,2.653-3.6V54.308z
		 M41.05,64.246C41.029,64.33,41,64.412,41,64.5V65c0,0.55,0.45,1,1,1h6v-1h-6C41.537,65,41.162,64.675,41.05,64.246z"/>
</g>
</svg>
