<?xml version="1.0" encoding="utf-8"?>
<!-- Generator: Adobe Illustrator 15.0.0, SVG Export Plug-In . SVG Version: 6.00 Build 0)  -->
<!DOCTYPE svg PUBLIC "-//W3C//DTD SVG 1.1//EN" "http://www.w3.org/Graphics/SVG/1.1/DTD/svg11.dtd">
<svg version="1.1" id="Layer_1" xmlns="http://www.w3.org/2000/svg" xmlns:xlink="http://www.w3.org/1999/xlink" x="0px" y="0px"
	 width="25px" height="25px" viewBox="0 0 25 25" enable-background="new 0 0 25 25" xml:space="preserve">
<rect display="none" opacity="0.8" fill="#CCCCCC" enable-background="new    " width="11404.002" height="12156"/>
<path opacity="0.15" enable-background="new    " d="M5.377,14.91c-0.813,0-1.471-0.66-1.471-1.467v-1.885
	c0-0.811,0.658-1.469,1.471-1.469h14.25c0.809,0,1.467,0.658,1.467,1.469v1.885c0,0.809-0.658,1.467-1.467,1.467H5.377z"/>
<path opacity="0.3" enable-background="new    " d="M19.627,10.871H5.377c-0.383,0-0.689,0.309-0.689,0.684v1.885
	c0,0.377,0.307,0.689,0.689,0.689h14.25c0.379,0,0.686-0.311,0.686-0.689v-1.885C20.313,11.18,20.006,10.871,19.627,10.871z"/>
<rect x="0.002" fill="none" width="24.996" height="25"/>
<path fill="#282828" d="M19.627,10.871H5.377c-0.383,0-0.689,0.313-0.689,0.689v1.885c0,0.375,0.307,0.684,0.689,0.684h14.25
	c0.379,0,0.686-0.309,0.686-0.684v-1.885C20.313,11.184,20.006,10.871,19.627,10.871z"/>
</svg>
