<?xml version="1.0" encoding="utf-8"?>
<!-- Generator: Adobe Illustrator 15.0.2, SVG Export Plug-In . SVG Version: 6.00 Build 0)  -->
<!DOCTYPE svg PUBLIC "-//W3C//DTD SVG 1.1//EN" "http://www.w3.org/Graphics/SVG/1.1/DTD/svg11.dtd">
<svg version="1.1" id="Layer_1" xmlns="http://www.w3.org/2000/svg" xmlns:xlink="http://www.w3.org/1999/xlink" x="0px" y="0px"
	 width="30px" height="30px" viewBox="0 0 30 30" enable-background="new 0 0 30 30" xml:space="preserve">
<g id="DO_NOT_EDIT_-_BOUNDING_BOX">
	<rect id="BOUNDING_BOX" fill="none" width="30" height="30"/>
</g>
<path opacity="0.15" d="M22.123,30c-1.328,0-2.491-0.461-3.24-1.192C18.714,28.931,18.508,29,18.293,29H4c-1.103,0-2-0.897-2-2V3
	c0-1.103,0.897-2,2-2h20c1.103,0,2,0.897,2,2v11.626c0,0.05-0.004,0.101-0.012,0.149c1.067,0.172,2.205,0.387,3.342,0.681
	c0.441,0.114,0.75,0.512,0.75,0.968v3.654c0,0.312-0.146,0.607-0.396,0.796c-0.176,0.134-0.389,0.204-0.604,0.204
	c-0.09,0-0.18-0.012-0.269-0.037c-0.822-0.229-1.695-0.432-2.571-0.599v6.375C26.24,28.603,24.432,30,22.123,30z M6.901,20.971
	h14.194H6.903H6.901z M6.902,16.971h14.194H6.902L6.902,16.971z M6.901,12.971h14.194H6.903H6.901z M6.901,8.971h14.194H6.903H6.901
	z"/>
<path fill="#FFFFFF" d="M22.123,24.637c0.227,0,0.453,0.016,0.678,0.045v-7.453c0-1.096,0.832-1.668,1.654-1.668
	c0.035,0,0.119,0.004,0.152,0.006c0.129,0.02,0.262,0.039,0.393,0.06V4c0-0.551-0.449-1-1-1H4C3.45,3,3,3.449,3,4v24
	c0,0.55,0.45,1,1,1h14.293C18.107,28.636,18,28.239,18,27.818C18,26.034,19.811,24.637,22.123,24.637z M6.903,8.971h14.193
	c0.553,0,1,0.447,1,1c0,0.553-0.447,1-1,1H6.903c-0.553,0-1-0.447-1-1C5.903,9.418,6.351,8.971,6.903,8.971z M6.903,12.971h14.193
	c0.553,0,1,0.447,1,1c0,0.553-0.447,1-1,1H6.903c-0.553,0-1-0.447-1-1C5.903,13.418,6.351,12.971,6.903,12.971z M6.903,16.971
	h14.193c0.553,0,1,0.447,1,1s-0.447,1-1,1H6.903c-0.553,0-1-0.447-1-1S6.351,16.971,6.903,16.971z M6.903,22.971
	c-0.553,0-1-0.447-1-1s0.447-1,1-1h14.193c0.553,0,1,0.447,1,1s-0.447,1-1,1H6.903z M24.506,16.562c0,0-0.705-0.072-0.705,0.666
	v8.762c-0.488-0.221-1.061-0.354-1.678-0.354c-1.727,0-3.123,0.977-3.123,2.182S20.396,30,22.123,30
	c1.723,0,3.117-0.977,3.117-2.182v-7.562c1.436,0.22,2.75,0.519,3.84,0.822v-3.654C27.422,16.996,25.773,16.743,24.506,16.562z"/>
<path fill="#282828" d="M22.123,23.637c0.227,0,0.453,0.016,0.678,0.045v-7.453c0-1.096,0.832-1.668,1.654-1.668
	c0.035,0,0.119,0.004,0.152,0.007c0.129,0.019,0.262,0.039,0.393,0.059V3c0-0.551-0.449-1-1-1H4C3.45,2,3,2.449,3,3v24
	c0,0.55,0.45,1,1,1h14.293C18.107,27.636,18,27.239,18,26.818C18,25.034,19.811,23.637,22.123,23.637z M6.903,7.971h14.193
	c0.553,0,1,0.447,1,1c0,0.553-0.447,1-1,1H6.903c-0.553,0-1-0.447-1-1C5.903,8.418,6.351,7.971,6.903,7.971z M6.903,11.971h14.193
	c0.553,0,1,0.447,1,1c0,0.553-0.447,1-1,1H6.903c-0.553,0-1-0.447-1-1C5.903,12.418,6.351,11.971,6.903,11.971z M6.903,15.971
	h14.193c0.553,0,1,0.447,1,1s-0.447,1-1,1H6.903c-0.553,0-1-0.447-1-1S6.351,15.971,6.903,15.971z M6.903,21.971
	c-0.553,0-1-0.447-1-1s0.447-1,1-1h14.193c0.553,0,1,0.447,1,1s-0.447,1-1,1H6.903z M24.506,15.562c0,0-0.705-0.072-0.705,0.666
	v8.762c-0.488-0.221-1.061-0.354-1.678-0.354c-1.727,0-3.123,0.977-3.123,2.182S20.396,29,22.123,29
	c1.723,0,3.117-0.977,3.117-2.182v-7.562c1.436,0.22,2.75,0.519,3.84,0.822v-3.654C27.422,15.996,25.773,15.743,24.506,15.562z"/>
</svg>
