<?xml version="1.0" encoding="utf-8"?>
<!-- Generator: Adobe Illustrator 15.0.2, SVG Export Plug-In . SVG Version: 6.00 Build 0)  -->
<!DOCTYPE svg PUBLIC "-//W3C//DTD SVG 1.1//EN" "http://www.w3.org/Graphics/SVG/1.1/DTD/svg11.dtd">
<svg version="1.1" id="Layer_1" xmlns="http://www.w3.org/2000/svg" xmlns:xlink="http://www.w3.org/1999/xlink" x="0px" y="0px"
	 width="30px" height="30px" viewBox="0 0 30 30" enable-background="new 0 0 30 30" xml:space="preserve">
<g id="DO_NOT_EDIT_-_BOUNDING_BOX">
	<rect id="BOUNDING_BOX" fill="none" width="30" height="30"/>
</g>
<path opacity="0.15" d="M7.168,29c-1.755,0-3.182-0.742-3.818-1.986c-0.414-0.81-0.464-1.742-0.143-2.698
	c0.476-1.419,1.75-2.744,3.408-3.547c1.03-0.497,2.132-0.76,3.186-0.76c0.067,0,0.133,0.001,0.199,0.003V6.701
	c0-1.008,0.735-1.964,1.71-2.223l12.067-3.189c0.164-0.043,0.33-0.065,0.494-0.065c0.466,0,0.898,0.177,1.218,0.497
	c0.33,0.33,0.511,0.785,0.51,1.281v18.459c0.005,1.832-1.414,3.705-3.615,4.77c-1.041,0.504-2.153,0.771-3.215,0.771l0,0
	c-1.755,0-3.183-0.743-3.818-1.987c-0.415-0.808-0.465-1.741-0.145-2.697c0.476-1.419,1.75-2.745,3.408-3.547
	c1.029-0.497,2.131-0.76,3.185-0.76c0.067,0,0.134,0.002,0.2,0.004v-8.36l-8,2.116v11.696c0,1.831-1.418,3.701-3.614,4.765
	C9.342,28.733,8.23,29,7.168,29z"/>
<path fill="#FFFFFF" d="M24.033,3.256L11.967,6.445C11.435,6.586,11,7.15,11,7.701v14.458c-1.125-0.302-2.567-0.157-3.949,0.51
	c-2.352,1.138-3.61,3.326-2.81,4.89c0.799,1.563,3.354,1.908,5.708,0.771c1.87-0.905,3.05-2.473,3.05-3.864V12l10-2.645V20.16
	c-1.125-0.301-2.565-0.158-3.949,0.51c-2.352,1.137-3.61,3.326-2.809,4.889c0.799,1.563,3.354,1.91,5.707,0.771
	c1.875-0.906,3.055-2.477,3.051-3.869V4C25,3.45,24.564,3.115,24.033,3.256z"/>
<path fill="#282828" d="M24.033,2.256L11.967,5.445C11.435,5.586,11,6.15,11,6.701v14.458c-1.125-0.302-2.567-0.157-3.949,0.51
	c-2.352,1.138-3.61,3.326-2.81,4.89c0.799,1.563,3.354,1.908,5.708,0.771c1.87-0.905,3.05-2.473,3.05-3.864V11l10-2.645V19.16
	c-1.125-0.301-2.565-0.158-3.949,0.51c-2.352,1.137-3.61,3.326-2.809,4.889c0.799,1.563,3.354,1.91,5.707,0.771
	c1.875-0.906,3.055-2.477,3.051-3.869V3C25,2.45,24.564,2.115,24.033,2.256z"/>
</svg>
