<?xml version="1.0" encoding="utf-8"?>
<!-- Generator: Adobe Illustrator 15.0.2, SVG Export Plug-In . SVG Version: 6.00 Build 0)  -->
<!DOCTYPE svg PUBLIC "-//W3C//DTD SVG 1.1//EN" "http://www.w3.org/Graphics/SVG/1.1/DTD/svg11.dtd">
<svg version="1.1" id="Layer_1" xmlns="http://www.w3.org/2000/svg" xmlns:xlink="http://www.w3.org/1999/xlink" x="0px" y="0px"
	 width="30px" height="30px" viewBox="0 0 30 30" enable-background="new 0 0 30 30" xml:space="preserve">
<g id="DO_NOT_EDIT_-_BOUNDING_BOX">
	<rect id="BOUNDING_BOX" fill="none" width="30" height="30"/>
</g>
<path opacity="0.15" d="M2,30c-0.537,0-1.04-0.209-1.417-0.589C0.208,29.037-0.001,28.535-0.001,28s0.209-1.037,0.588-1.415l5.5-5.5
	c-0.229-0.062-0.431-0.203-0.567-0.402C5.18,20.184,5,19.602,5,19v-7c0-1.654,1.346-3,3-3h4.339l4.499-3.937
	c0.484-0.424,0.982-0.639,1.48-0.639C19.155,4.425,20,5.066,20,6.5v0.671l6.586-6.585C26.963,0.208,27.466,0,28,0
	s1.037,0.208,1.415,0.587c0.778,0.779,0.778,2.048,0,2.827L19.258,13.571c0.042,0.011,0.084,0.025,0.125,0.042
	C19.757,13.768,20,14.133,20,14.537V24.5c0,0.539-0.118,0.992-0.351,1.348c-0.304,0.462-0.789,0.728-1.331,0.728l0,0
	c-0.498,0-0.996-0.215-1.48-0.639l-4.528-3.962c-0.31-0.072-0.573-0.289-0.698-0.592c-0.017-0.041-0.031-0.082-0.042-0.124
	l-8.155,8.155C3.038,29.792,2.535,30,2,30z"/>
<path fill="#FFFFFF" d="M12.715,22l4.781,4.184C18.322,26.906,19,26.6,19,25.5v-9.963L12.535,22H12.715z M19,8.465V7.5
	c0-1.1-0.678-1.407-1.504-0.684L12.715,11H8c-1.1,0-2,0.9-2,2v7c0,0.414,0.128,0.799,0.346,1.119L19,8.465z M2,30
	c-0.256,0-0.513-0.098-0.707-0.293c-0.392-0.391-0.392-1.023,0-1.414l26-26c0.391-0.391,1.023-0.391,1.414,0s0.391,1.023,0,1.414
	l-26,26C2.512,29.902,2.256,30,2,30L2,30z"/>
<path fill="#282828" d="M12.715,21l4.781,4.184C18.322,25.906,19,25.6,19,24.5v-9.963L12.535,21H12.715z"/>
<path fill="#282828" d="M19,7.465V6.5c0-1.1-0.678-1.407-1.504-0.684L12.715,10H8c-1.1,0-2,0.9-2,2v7
	c0,0.414,0.128,0.799,0.346,1.119L19,7.465z"/>
<path fill="#EA2227" d="M2,29c-0.256,0-0.513-0.098-0.707-0.293c-0.392-0.391-0.392-1.023,0-1.414l26-26
	c0.391-0.391,1.023-0.391,1.414,0s0.391,1.023,0,1.414l-26,26C2.512,28.902,2.256,29,2,29L2,29z"/>
</svg>
