<?xml version="1.0" encoding="utf-8"?>
<!-- Generator: Adobe Illustrator 15.1.0, SVG Export Plug-In . SVG Version: 6.00 Build 0)  -->
<!DOCTYPE svg PUBLIC "-//W3C//DTD SVG 1.1//EN" "http://www.w3.org/Graphics/SVG/1.1/DTD/svg11.dtd">
<svg version="1.1" id="Layer_1" xmlns="http://www.w3.org/2000/svg" xmlns:xlink="http://www.w3.org/1999/xlink" x="0px" y="0px"
	 width="30px" height="30px" viewBox="0 0 30 30" enable-background="new 0 0 30 30" xml:space="preserve">
<g id="DO_NOT_EDIT_-_BOUNDING_BOX">
	<rect id="BOUNDING_BOX" fill="none" width="30" height="30"/>
</g>
<g id="PLACE_YOUR_GRAPHIC_HERE">
	<path opacity="0.3" enable-background="new    " d="M3,13.001v2c0,0.549,0.45,1,1,1h15l-5.293,5.293
		c-0.389,0.389-0.389,1.025,0,1.414l1.586,1.586c0.389,0.389,1.025,0.389,1.414,0l9.586-9.586c0.389-0.391,0.389-1.025,0-1.414
		l-9.586-9.586c-0.389-0.391-1.025-0.391-1.414,0l-1.586,1.586c-0.389,0.389-0.389,1.023,0,1.414L19,12.001H4
		C3.45,12.001,3,12.45,3,13.001z"/>
	<path opacity="0.15" enable-background="new    " d="M14.586,26.001L13,24.415c-0.779-0.779-0.779-2.049,0-2.828l3.586-3.586H4
		c-1.104,0-2-0.896-2-2v-2c0-1.104,0.896-2,2-2h12.586l-3.588-3.587C12.223,7.633,12.223,6.364,13,5.587l1.584-1.585
		c0.377-0.379,0.88-0.587,1.416-0.587s1.039,0.209,1.414,0.586L27,13.586c0.779,0.778,0.779,2.047,0,2.829l-9.586,9.586
		c-0.377,0.377-0.879,0.585-1.414,0.585S14.963,26.378,14.586,26.001z"/>
	<path opacity="0.15" enable-background="new    " d="M3,14.001v2c0,0.549,0.45,1,1,1h15l-5.293,5.293
		c-0.389,0.389-0.389,1.025,0,1.414l1.586,1.586c0.389,0.389,1.025,0.389,1.414,0l9.586-9.586c0.389-0.391,0.389-1.025,0-1.414
		l-9.586-9.586c-0.389-0.391-1.025-0.391-1.414,0l-1.586,1.586c-0.389,0.389-0.389,1.023,0,1.414L19,13.001H4
		C3.45,13.001,3,13.45,3,14.001z"/>
	<path fill="#FFFFFF" d="M3,14.001v2c0,0.549,0.45,1,1,1h15l-5.293,5.293c-0.389,0.389-0.389,1.025,0,1.414l1.586,1.586
		c0.389,0.389,1.025,0.389,1.414,0l9.586-9.586c0.389-0.391,0.389-1.025,0-1.414l-9.586-9.586c-0.389-0.391-1.025-0.391-1.414,0
		l-1.586,1.586c-0.389,0.389-0.389,1.023,0,1.414L19,13.001H4C3.45,13.001,3,13.45,3,14.001z"/>
	<rect fill="none" width="30" height="30"/>
</g>
</svg>
