<?xml version="1.0" encoding="utf-8"?>
<!-- Generator: Adobe Illustrator 15.0.2, SVG Export Plug-In . SVG Version: 6.00 Build 0)  -->
<!DOCTYPE svg PUBLIC "-//W3C//DTD SVG 1.1//EN" "http://www.w3.org/Graphics/SVG/1.1/DTD/svg11.dtd">
<svg version="1.1" id="Layer_1" xmlns="http://www.w3.org/2000/svg" xmlns:xlink="http://www.w3.org/1999/xlink" x="0px" y="0px"
	 width="30px" height="30px" viewBox="0 0 30 30" enable-background="new 0 0 30 30" xml:space="preserve">
<g id="DO_NOT_EDIT_-_BOUNDING_BOX">
	<rect id="BOUNDING_BOX" fill="none" width="30" height="30"/>
</g>
<path opacity="0.15" enable-background="new    " d="M10.998,28c-1.037,0-1.917-0.566-2.614-1.686L1.888,17.17
	c-0.638-0.889-0.439-2.142,0.446-2.788l2.421-1.769c0.343-0.25,0.749-0.383,1.172-0.383c0.642,0,1.248,0.312,1.621,0.835l3.425,4.76
	l10.46-14.964c0.363-0.535,0.979-0.86,1.637-0.86c0.408,0,0.804,0.125,1.139,0.359l2.454,1.714c0.897,0.631,1.121,1.879,0.5,2.783
	l-13.7,19.614C13.228,26.831,12.46,28,10.998,28z"/>
<path fill="#FFFFFF" d="M26.09,5.895L23.635,4.18c-0.451-0.316-1.072-0.201-1.383,0.254L10.986,20.555l-4.252-5.908
	c-0.32-0.449-0.943-0.551-1.389-0.225l-2.42,1.768c-0.443,0.324-0.543,0.953-0.221,1.402l6.529,9.193
	C9.709,27.549,10.268,28,10.998,28c0.693,0,1.191-0.409,1.645-1.102L26.338,7.292C26.65,6.837,26.539,6.211,26.09,5.895z"/>
<path fill="#282828" d="M26.09,4.894l-2.455-1.715c-0.451-0.316-1.072-0.201-1.383,0.254l-11.266,16.12l-4.252-5.907
	c-0.32-0.449-0.943-0.551-1.389-0.225l-2.42,1.769c-0.443,0.323-0.543,0.952-0.221,1.401l6.529,9.193
	c0.476,0.764,1.035,1.215,1.765,1.215c0.693,0,1.191-0.409,1.645-1.102L26.338,6.291C26.65,5.835,26.539,5.209,26.09,4.894z"/>
<rect fill="none" width="30" height="30"/>
</svg>
