<?xml version="1.0" encoding="utf-8"?>
<!-- Generator: Adobe Illustrator 15.0.2, SVG Export Plug-In . SVG Version: 6.00 Build 0)  -->
<!DOCTYPE svg PUBLIC "-//W3C//DTD SVG 1.1//EN" "http://www.w3.org/Graphics/SVG/1.1/DTD/svg11.dtd">
<svg version="1.1" id="Layer_1" xmlns="http://www.w3.org/2000/svg" xmlns:xlink="http://www.w3.org/1999/xlink" x="0px" y="0px"
	 width="30px" height="30px" viewBox="0 0 30 30" enable-background="new 0 0 30 30" xml:space="preserve">
<path fill-opacity="0.06" d="M5,25c-1.654,0-3-1.346-3-3s1.346-3,3-3h20c1.654,0,3,1.346,3,3s-1.346,3-3,3H5z M5,18
	c-1.654,0-3-1.346-3-3c0-1.654,1.346-3,3-3h20c1.654,0,3,1.346,3,3c0,1.654-1.346,3-3,3H5z M5,11c-1.654,0-3-1.346-3-3s1.346-3,3-3
	h20c1.654,0,3,1.346,3,3s-1.346,3-3,3H5z"/>
<g id="DO_NOT_EDIT_-_BOUNDING_BOX">
	<rect id="BOUNDING_BOX" fill="none" width="30" height="30"/>
</g>
<path fill="#FFFFFF" fill-opacity="0.5" d="M25,21H5c-1.1,0-2,0.9-2,2s0.9,2,2,2h20c1.1,0,2-0.9,2-2S26.1,21,25,21z M5,11h20
	c1.1,0,2-0.9,2-2c0-1.101-0.9-2-2-2H5C3.9,7,3,7.899,3,9C3,10.1,3.9,11,5,11z M25,14H5c-1.1,0-2,0.899-2,2c0,1.1,0.9,2,2,2h20
	c1.1,0,2-0.9,2-2C27,14.899,26.1,14,25,14z"/>
<path fill="#282828" fill-opacity="0.5" d="M25,20H5c-1.1,0-2,0.9-2,2s0.9,2,2,2h20c1.1,0,2-0.9,2-2S26.1,20,25,20z M5,10h20
	c1.1,0,2-0.9,2-2c0-1.101-0.9-2-2-2H5C3.9,6,3,6.899,3,8C3,9.1,3.9,10,5,10z M25,13H5c-1.1,0-2,0.899-2,2c0,1.1,0.9,2,2,2h20
	c1.1,0,2-0.9,2-2C27,13.899,26.1,13,25,13z"/>
<rect fill="none" width="30" height="30"/>
</svg>
