<?xml version="1.0" encoding="utf-8"?>
<!-- Generator: Adobe Illustrator 15.0.2, SVG Export Plug-In . SVG Version: 6.00 Build 0)  -->
<!DOCTYPE svg PUBLIC "-//W3C//DTD SVG 1.1//EN" "http://www.w3.org/Graphics/SVG/1.1/DTD/svg11.dtd">
<svg version="1.1" id="Layer_1" xmlns="http://www.w3.org/2000/svg" xmlns:xlink="http://www.w3.org/1999/xlink" x="0px" y="0px"
	 width="30px" height="30px" viewBox="0 0 30 30" enable-background="new 0 0 30 30" xml:space="preserve">
<g id="DO_NOT_EDIT_-_BOUNDING_BOX">
	<rect id="BOUNDING_BOX" fill="none" width="30" height="30"/>
</g>
<path opacity="0.15" d="M19,26c-1.103,0-2-0.897-2-2V6c0-1.103,0.897-2,2-2h3c1.103,0,2,0.897,2,2v18c0,1.103-0.897,2-2,2H19z M8,26
	c-1.103,0-2-0.897-2-2V6c0-1.103,0.897-2,2-2h3c1.103,0,2,0.897,2,2v18c0,1.103-0.897,2-2,2H8z"/>
<path fill="#FFFFFF" d="M11,6H8C7.447,6,7,6.447,7,7v18c0,0.553,0.447,1,1,1h3c0.553,0,1-0.447,1-1V7C12,6.447,11.553,6,11,6z M22,6
	h-3c-0.553,0-1,0.447-1,1v18c0,0.553,0.447,1,1,1h3c0.553,0,1-0.447,1-1V7C23,6.447,22.553,6,22,6z"/>
<path fill="#282828" d="M11,5H8C7.447,5,7,5.447,7,6v18c0,0.553,0.447,1,1,1h3c0.553,0,1-0.447,1-1V6C12,5.447,11.553,5,11,5z M22,5
	h-3c-0.553,0-1,0.447-1,1v18c0,0.553,0.447,1,1,1h3c0.553,0,1-0.447,1-1V6C23,5.447,22.553,5,22,5z"/>
</svg>
