<?xml version="1.0" encoding="utf-8"?>
<!-- Generator: Adobe Illustrator 15.0.2, SVG Export Plug-In . SVG Version: 6.00 Build 0)  -->
<!DOCTYPE svg PUBLIC "-//W3C//DTD SVG 1.1//EN" "http://www.w3.org/Graphics/SVG/1.1/DTD/svg11.dtd">
<svg version="1.1" id="Layer_1" xmlns="http://www.w3.org/2000/svg" xmlns:xlink="http://www.w3.org/1999/xlink" x="0px" y="0px"
	 width="30px" height="30px" viewBox="0 0 30 30" enable-background="new 0 0 30 30" xml:space="preserve">
<g id="DO_NOT_EDIT_-_BOUNDING_BOX">
	<rect id="BOUNDING_BOX" fill="none" width="30" height="30"/>
</g>
<path opacity="0.15" d="M15.948,25.3c-2.636,0-6.018-0.166-8.797-1.462c-2.185-1.238-2.726-2.555-2.807-3.447
	c-0.073-0.804,0.151-2.023,1.633-3.27c0.715-0.601,0.756-0.891,0.756-0.894c-0.183-0.429-2.155-1.035-3.103-1.326
	C-0.044,13.771-0.003,11.176,0,11.066c-0.015-1.004,0.393-1.958,1.212-2.789C4.003,5.448,11.29,4.7,14.753,4.7
	c0.174,0,0.341,0.002,0.499,0.006c12.833,0.291,14.748,6.598,14.747,10.331C29.998,20.791,23.826,25.3,15.948,25.3z M10.343,18.85
	c-0.645,0-1.17,0.524-1.17,1.17s0.525,1.17,1.17,1.17c0.313,0,0.607-0.122,0.829-0.344c0.221-0.221,0.343-0.514,0.342-0.825
	C11.514,19.374,10.989,18.85,10.343,18.85z M23.264,11.017c-0.374,0-0.679,0.129-0.775,0.329c-0.07,0.146-0.036,0.316,0.004,0.434
	c0.128,0.367,0.489,0.731,0.943,0.95c0.297,0.144,0.608,0.22,0.901,0.22c0.38,0,0.677-0.126,0.775-0.329
	c0.17-0.352-0.2-1.02-0.95-1.384C23.867,11.093,23.557,11.017,23.264,11.017z M10.205,9.283c-0.12,0-0.243,0.01-0.367,0.03
	c-0.5,0.082-0.951,0.328-1.178,0.643c-0.073,0.101-0.154,0.254-0.128,0.412c0.049,0.295,0.524,0.615,1.207,0.615
	c0.12,0,0.243-0.01,0.368-0.03c0.499-0.082,0.95-0.328,1.176-0.644c0.072-0.101,0.153-0.253,0.127-0.41
	C11.362,9.602,10.887,9.283,10.205,9.283z M17.04,8.855c-0.768,0-1.328,0.387-1.352,0.734c-0.011,0.162,0.084,0.306,0.165,0.4
	c0.256,0.292,0.728,0.496,1.232,0.53c0.053,0.003,0.105,0.005,0.157,0.005c0.767,0,1.327-0.387,1.351-0.734
	c0.012-0.161-0.083-0.306-0.164-0.399c-0.254-0.293-0.726-0.497-1.23-0.531C17.146,8.857,17.093,8.855,17.04,8.855z"/>
<path fill="#FFFFFF" d="M15.229,6.705C11.211,6.614,0.938,7.697,1,12.098c0,0-0.062,1.929,2.924,2.848
	c2.665,0.82,5.395,1.673,2.696,3.941c-1.952,1.641-1.726,3.521,0.953,5.045c2.661,1.24,5.998,1.368,8.375,1.368
	c7.226,0,13.05-4.017,13.05-9.264C28.999,10.791,25.15,6.93,15.229,6.705z M7.545,11.53c-0.164-0.999,0.791-1.986,2.131-2.204
	c1.339-0.219,2.559,0.414,2.721,1.411c0.164,0.997-0.789,1.984-2.13,2.203C8.926,13.158,7.709,12.527,7.545,11.53z M10.343,23.189
	c-1.198,0-2.17-0.974-2.17-2.17c0-1.199,0.973-2.17,2.17-2.17c1.198,0,2.171,0.971,2.171,2.17
	C12.515,22.217,11.542,23.189,10.343,23.189z M17.018,12.517c-1.355-0.092-2.396-0.986-2.327-1.994
	c0.067-1.008,1.223-1.753,2.577-1.66c1.353,0.093,2.396,0.985,2.324,1.995C19.523,11.867,18.372,12.609,17.018,12.517z
	 M26.012,14.056C25.57,14.967,24.225,15.223,23,14.63c-1.223-0.591-1.854-1.81-1.412-2.719c0.439-0.91,1.789-1.169,3.012-0.574
	C25.818,11.929,26.451,13.147,26.012,14.056z"/>
<path fill="#282828" d="M15.229,5.705C11.211,5.614,0.938,6.697,1,11.098c0,0-0.062,1.929,2.924,2.848
	c2.665,0.819,5.395,1.673,2.696,3.941c-1.952,1.641-1.726,3.521,0.953,5.045c2.661,1.24,5.998,1.368,8.375,1.368
	c7.226,0,13.05-4.017,13.05-9.264C28.999,9.791,25.15,5.93,15.229,5.705z M7.545,10.53C7.381,9.531,8.336,8.544,9.676,8.326
	c1.339-0.219,2.559,0.414,2.721,1.411c0.164,0.997-0.789,1.984-2.13,2.203C8.926,12.158,7.709,11.527,7.545,10.53z M10.343,22.189
	c-1.198,0-2.17-0.974-2.17-2.17c0-1.199,0.973-2.17,2.17-2.17c1.198,0,2.171,0.971,2.171,2.17
	C12.515,21.217,11.542,22.189,10.343,22.189z M17.018,11.517c-1.355-0.092-2.396-0.986-2.327-1.994
	c0.067-1.008,1.223-1.753,2.577-1.66c1.353,0.093,2.396,0.985,2.324,1.995C19.523,10.867,18.372,11.609,17.018,11.517z
	 M26.012,13.056C25.57,13.967,24.225,14.223,23,13.63c-1.223-0.591-1.854-1.81-1.412-2.719c0.439-0.91,1.789-1.169,3.012-0.574
	C25.818,10.929,26.451,12.147,26.012,13.056z"/>
</svg>
