<?xml version="1.0" encoding="utf-8"?>
<!-- Generator: Adobe Illustrator 15.0.2, SVG Export Plug-In . SVG Version: 6.00 Build 0)  -->
<!DOCTYPE svg PUBLIC "-//W3C//DTD SVG 1.1//EN" "http://www.w3.org/Graphics/SVG/1.1/DTD/svg11.dtd">
<svg version="1.1" id="Layer_1" xmlns="http://www.w3.org/2000/svg" xmlns:xlink="http://www.w3.org/1999/xlink" x="0px" y="0px"
	 width="30px" height="30px" viewBox="0 0 30 30" enable-background="new 0 0 30 30" xml:space="preserve">
<g id="DO_NOT_EDIT_-_BOUNDING_BOX">
	<rect id="BOUNDING_BOX" fill="none" width="30" height="30"/>
</g>
<path fill="#FFFFFF" d="M15.834,17.486l4.436-4.789c0,0,0.193-0.193,0.441-0.193c0.246,0,0.441,0.193,0.441,0.193L24,16.229V20H10
	v-2.516l2.616-2.517c0,0,0.197-0.193,0.443-0.193c0.248,0,0.441,0.193,0.441,0.193L15.834,17.486L15.834,17.486z"/>
<path opacity="0.15" d="M5.75,26C5.451,26,5.183,25.869,5,25.661C4.817,25.869,4.549,26,4.25,26H3c-1.103,0-2-0.897-2-2V6
	c0-1.103,0.897-2,2-2h1.25C4.549,4,4.817,4.131,5,4.338C5.183,4.131,5.451,4,5.75,4h22.252c0.553,0,1,0.448,1,1v20
	c0,0.553-0.447,1-1,1H5.75z M24.752,21v-0.341C24.568,20.868,24.3,21,24,21H24.752z M9,21h1c-0.552,0-1-0.447-1-1v-2.516
	c0-0.272,0.111-0.532,0.307-0.721l2.617-2.515c0.107-0.105,0.528-0.472,1.136-0.472c0.615,0,1.034,0.372,1.148,0.486l1.625,1.753
	l3.703-3.998c0.141-0.142,0.561-0.514,1.175-0.514c0.407,0,0.923,0.208,1.214,0.571l0.006-0.005l2.821,3.498V9H9V21z"/>
<path fill="#FFFFFF" d="M20.711,13.504c-0.248,0-0.441,0.193-0.441,0.193l-4.436,4.789l-2.333-2.517c0,0-0.193-0.192-0.441-0.192
	c-0.246,0-0.443,0.192-0.443,0.192L10,18.484V21h14v-3.771l-2.848-3.53C21.152,13.697,20.957,13.504,20.711,13.504z M2,7v18
	c0,0.553,0.446,1,1,1h1.25V6H3C2.446,6,2,6.447,2,7z M5.75,6v20h22.252V6H5.75z M25.752,22c0,0.553-0.445,1-1,1H9
	c-0.554,0-1-0.447-1-1V10c0-0.553,0.446-1,1-1h15.752c0.555,0,1,0.447,1,1V22z"/>
<path fill="#282828" d="M20.711,12.504c-0.248,0-0.441,0.193-0.441,0.193l-4.436,4.789l-2.333-2.517c0,0-0.193-0.193-0.441-0.193
	c-0.246,0-0.443,0.193-0.443,0.193L10,17.484V20h14v-3.771l-2.848-3.53C21.152,12.697,20.957,12.504,20.711,12.504z M2,6v18
	c0,0.553,0.446,1,1,1h1.25V5H3C2.446,5,2,5.447,2,6z M5.75,5v20h22.252V5H5.75z M25.752,21c0,0.553-0.445,1-1,1H9
	c-0.554,0-1-0.447-1-1V9c0-0.553,0.446-1,1-1h15.752c0.555,0,1,0.447,1,1V21z"/>
</svg>
