<?xml version="1.0" encoding="utf-8"?>
<!-- Generator: Adobe Illustrator 15.0.2, SVG Export Plug-In . SVG Version: 6.00 Build 0)  -->
<!DOCTYPE svg PUBLIC "-//W3C//DTD SVG 1.1//EN" "http://www.w3.org/Graphics/SVG/1.1/DTD/svg11.dtd">
<svg version="1.1" id="Layer_1" xmlns="http://www.w3.org/2000/svg" xmlns:xlink="http://www.w3.org/1999/xlink" x="0px" y="0px"
	 width="30px" height="30px" viewBox="0 0 30 30" enable-background="new 0 0 30 30" xml:space="preserve">
<path opacity="0.15" d="M7.5,26c-0.36,0-0.711-0.096-1.017-0.278C5.88,25.37,5.5,24.708,5.5,24V6c0-0.71,0.381-1.372,0.994-1.728
	C6.791,4.096,7.142,4,7.5,4c0.343,0,0.683,0.089,0.981,0.258l15.023,9.014C24.11,13.614,24.5,14.281,24.5,15
	c0,0.72-0.39,1.387-1.018,1.741L8.505,25.729C8.183,25.911,7.843,26,7.5,26z"/>
<path fill="#FFFFFF" d="M22.99,15.129l-15-9C7.838,6.043,7.67,6,7.5,6C7.326,6,7.15,6.046,6.996,6.137C6.688,6.316,6.5,6.645,6.5,7
	v18c0,0.355,0.188,0.684,0.496,0.863C7.15,25.955,7.326,26,7.5,26c0.17,0,0.338-0.043,0.49-0.129l15-9
	c0.314-0.178,0.51-0.51,0.51-0.871S23.305,15.307,22.99,15.129z"/>
<path fill="#282828" d="M22.99,14.129l-15-9C7.838,5.043,7.67,5,7.5,5C7.326,5,7.15,5.046,6.996,5.137C6.688,5.316,6.5,5.645,6.5,6
	v18c0,0.355,0.188,0.684,0.496,0.863C7.15,24.955,7.326,25,7.5,25c0.17,0,0.338-0.043,0.49-0.129l15-9
	c0.314-0.178,0.51-0.51,0.51-0.871S23.305,14.307,22.99,14.129z"/>
<g id="DO_NOT_EDIT_-_BOUNDING_BOX">
	<rect id="BOUNDING_BOX" fill="none" width="30" height="30"/>
</g>
</svg>
