<?xml version="1.0" encoding="utf-8"?>
<!-- Generator: Adobe Illustrator 15.0.0, SVG Export Plug-In . SVG Version: 6.00 Build 0)  -->
<!DOCTYPE svg PUBLIC "-//W3C//DTD SVG 1.1//EN" "http://www.w3.org/Graphics/SVG/1.1/DTD/svg11.dtd">
<svg version="1.1" id="Layer_1" xmlns="http://www.w3.org/2000/svg" xmlns:xlink="http://www.w3.org/1999/xlink" x="0px" y="0px"
	 width="25px" height="25px" viewBox="0 0 25 25" enable-background="new 0 0 25 25" xml:space="preserve">
<rect display="none" opacity="0.8" fill="#CCCCCC" enable-background="new    " width="11404.002" height="12156"/>
<path opacity="0.15" enable-background="new    " d="M11.561,21.094c-0.809,0-1.467-0.658-1.467-1.469v-4.717H5.376
	c-0.813,0-1.471-0.66-1.471-1.467v-1.885c0-0.809,0.658-1.469,1.471-1.469h4.717V5.373c0-0.811,0.658-1.467,1.467-1.467h1.879
	c0.811,0,1.469,0.658,1.469,1.467v4.715h4.72c0.809,0,1.467,0.66,1.467,1.469v1.885c0,0.809-0.658,1.467-1.467,1.467h-4.72v4.717
	c0,0.811-0.658,1.469-1.469,1.469H11.561z"/>
<path opacity="0.3" enable-background="new    " d="M19.629,10.868h-5.501V5.372c0-0.379-0.307-0.686-0.688-0.686h-1.879
	c-0.379,0-0.688,0.307-0.688,0.686v5.496H5.377c-0.383,0-0.691,0.314-0.691,0.689v1.885c0,0.377,0.309,0.684,0.691,0.684h5.497v5.5
	c0,0.377,0.309,0.688,0.688,0.688h1.879c0.379,0,0.688-0.309,0.688-0.688v-5.5h5.501c0.379,0,0.686-0.307,0.686-0.684v-1.885
	C20.314,11.183,20.008,10.868,19.629,10.868z"/>
<rect fill="none" width="25" height="25"/>
<path fill="#282828" d="M19.629,10.87h-5.501V5.374c0-0.377-0.307-0.688-0.688-0.688h-1.879c-0.379,0-0.688,0.309-0.688,0.688v5.496
	H5.377c-0.383,0-0.691,0.313-0.691,0.688v1.885c0,0.377,0.309,0.686,0.691,0.686h5.497v5.5c0,0.377,0.309,0.686,0.688,0.686h1.879
	c0.379,0,0.688-0.309,0.688-0.686v-5.5h5.501c0.379,0,0.686-0.309,0.686-0.686v-1.885C20.314,11.183,20.008,10.87,19.629,10.87z"/>
</svg>
