<?xml version="1.0" encoding="UTF-8" standalone="no"?>
<svg
   xmlns:dc="http://purl.org/dc/elements/1.1/"
   xmlns:cc="http://creativecommons.org/ns#"
   xmlns:rdf="http://www.w3.org/1999/02/22-rdf-syntax-ns#"
   xmlns:svg="http://www.w3.org/2000/svg"
   xmlns="http://www.w3.org/2000/svg"
   xmlns:sodipodi="http://sodipodi.sourceforge.net/DTD/sodipodi-0.dtd"
   xmlns:inkscape="http://www.inkscape.org/namespaces/inkscape"
   height="54"
   version="1.1"
   viewBox="0 0 54 54"
   width="54"
   x="0px"
   y="0px"
   id="svg3175"
   inkscape:version="0.48.2 r9819"
   sodipodi:docname="qgn_prop_checkbox_offf.svg">
  <metadata
     id="metadata3216">
    <rdf:RDF>
      <cc:Work
         rdf:about="">
        <dc:format>image/svg+xml</dc:format>
        <dc:type
           rdf:resource="http://purl.org/dc/dcmitype/StillImage" />
      </cc:Work>
    </rdf:RDF>
  </metadata>
  <defs
     id="defs3214" />
  <sodipodi:namedview
     pagecolor="#ffffff"
     bordercolor="#666666"
     borderopacity="1"
     objecttolerance="10"
     gridtolerance="10"
     guidetolerance="10"
     inkscape:pageopacity="0"
     inkscape:pageshadow="2"
     inkscape:window-width="1280"
     inkscape:window-height="1002"
     id="namedview3212"
     showgrid="false"
     inkscape:zoom="8.7407407"
     inkscape:cx="-5.4915254"
     inkscape:cy="13.5"
     inkscape:window-x="1272"
     inkscape:window-y="-8"
     inkscape:window-maximized="1"
     inkscape:current-layer="svg3175" />
  <linearGradient
     gradientTransform="matrix(2,0,0,-2,-582,-708)"
     gradientUnits="userSpaceOnUse"
     id="SVGID_1_"
     x1="304.5"
     x2="304.5"
     y1="-378.19821"
     y2="-356.70831">
    <stop
       offset="0"
       style="stop-color:#FFFFFF"
       id="stop3178" />
    <stop
       offset="1"
       style="stop-color:#FFFFFF;stop-opacity:0"
       id="stop3180" />
  </linearGradient>
  <path
     d="M 26.998,48 C 9.568,48 6,39.602 6,26.982 6,14.388 9.568,6 26.998,6 44.428,6 48,14.408 48,27.036 48,39.618 44.428,48 26.998,48 z"
     id="path3182"
     inkscape:connector-curvature="0"
     style="fill:url(#SVGID_1_);fill-opacity:0.5" />
  <linearGradient
     gradientTransform="matrix(2,0,0,-2,-581.999,-708)"
     gradientUnits="userSpaceOnUse"
     id="SVGID_2_"
     x1="304.49899"
     x2="304.49899"
     y1="-357.5972"
     y2="-377.72171">
    <stop
       offset="0"
       style="stop-color:#333333"
       id="stop3185" />
    <stop
       offset="0.1365"
       style="stop-color:#4A4A4A"
       id="stop3187" />
    <stop
       offset="0.321"
       style="stop-color:#616161"
       id="stop3189" />
    <stop
       offset="0.5176"
       style="stop-color:#727272"
       id="stop3191" />
    <stop
       offset="0.7325"
       style="stop-color:#7C7C7C"
       id="stop3193" />
    <stop
       offset="1"
       style="stop-color:#808080"
       id="stop3195" />
  </linearGradient>
  <path
     d="m 26.999,6.876 c -16.51,0 -20.104,7.08 -20.104,20.106 0,13.052 3.696,20.142 20.104,20.142 16.51,0 20.106,-7.062 20.106,-20.09 0,-13.056 -3.694,-20.158 -20.106,-20.158 z"
     id="path3197"
     inkscape:connector-curvature="0"
     style="fill:url(#SVGID_2_);fill-opacity:0.3" />
  <path
     d="m 26.999,6.876 c -16.51,0 -20.104,7.08 -20.104,20.106 0,13.052 3.696,20.142 20.104,20.142 16.51,0 20.106,-7.062 20.106,-20.09 0,-13.056 -3.694,-20.158 -20.106,-20.158 z m 0,38.376 c -15.492,0 -18.43,-6.422 -18.43,-18.27 0,-12.094 2.854,-18.234 18.43,-18.234 15.492,0 18.43,6.426 18.43,18.292 0,12.082 -2.85,18.212 -18.43,18.212 z"
     id="path3199"
     inkscape:connector-curvature="0"
     style="fill:#1d1d1b;fill-opacity:0.1" />
  <linearGradient
     gradientTransform="matrix(2,0,0,-2,-581.999,-708)"
     gradientUnits="userSpaceOnUse"
     id="SVGID_3_"
     x1="304.49899"
     x2="304.49899"
     y1="-357.14011"
     y2="-379.2601">
    <stop
       offset="0"
       style="stop-color:#000000"
       id="stop3202" />
    <stop
       offset="0.972"
       style="stop-color:#000000;stop-opacity:0.028"
       id="stop3204" />
    <stop
       offset="1"
       style="stop-color:#000000;stop-opacity:0"
       id="stop3206" />
  </linearGradient>
  <path
     d="m 26.999,6.876 c -16.51,0 -20.104,7.08 -20.104,20.106 0,13.052 3.696,20.142 20.104,20.142 16.51,0 20.106,-7.062 20.106,-20.09 0,-13.056 -3.694,-20.158 -20.106,-20.158 z m 0,39.316 c -16.114,0 -19.264,-7.042 -19.264,-19.208 0,-12.434 3.066,-19.17 19.264,-19.17 16.116,0 19.268,7.048 19.268,19.222 0,12.422 -3.07,19.156 -19.268,19.156 z"
     id="path3208"
     inkscape:connector-curvature="0"
     style="fill:url(#SVGID_3_);fill-opacity:0.2" />
  <rect
     height="54"
     width="54"
     id="rect3210"
     x="0"
     y="0"
     style="fill:none" />
</svg>
