<?xml version="1.0" encoding="UTF-8" standalone="no"?>
<svg
   xmlns:dc="http://purl.org/dc/elements/1.1/"
   xmlns:cc="http://creativecommons.org/ns#"
   xmlns:rdf="http://www.w3.org/1999/02/22-rdf-syntax-ns#"
   xmlns:svg="http://www.w3.org/2000/svg"
   xmlns="http://www.w3.org/2000/svg"
   xmlns:sodipodi="http://sodipodi.sourceforge.net/DTD/sodipodi-0.dtd"
   xmlns:inkscape="http://www.inkscape.org/namespaces/inkscape"
   height="30px"
   version="1.1"
   viewBox="-0.001 0 30 30"
   width="30px"
   x="0px"
   y="0px"
   id="svg3074"
   inkscape:version="0.48.2 r9819"
   sodipodi:docname="qtg_graf_slider_handle_normal_inverse.svg">
  <metadata
     id="metadata3109">
    <rdf:RDF>
      <cc:Work
         rdf:about="">
        <dc:format>image/svg+xml</dc:format>
        <dc:type
           rdf:resource="http://purl.org/dc/dcmitype/StillImage" />
      </cc:Work>
    </rdf:RDF>
  </metadata>
  <defs
     id="defs3107" />
  <sodipodi:namedview
     pagecolor="#ffffff"
     bordercolor="#666666"
     borderopacity="1"
     objecttolerance="10"
     gridtolerance="10"
     guidetolerance="10"
     inkscape:pageopacity="0"
     inkscape:pageshadow="2"
     inkscape:window-width="1280"
     inkscape:window-height="1002"
     id="namedview3105"
     showgrid="false"
     inkscape:zoom="22.250293"
     inkscape:cx="12.709296"
     inkscape:cy="21.7934"
     inkscape:window-x="1272"
     inkscape:window-y="-8"
     inkscape:window-maximized="1"
     inkscape:current-layer="svg3074" />
  <path
     d="M 30.08136,15.4 C 30.08136,26.217 26.186044,30 15.044943,30 3.9017827,30 0.00646585,26.217 0.00646585,15.4 0.00646585,4.583 3.9017827,0.799 15.044943,0.799 26.186044,0.799 30.08136,4.583 30.08136,15.4 z"
     id="path3076"
     inkscape:connector-curvature="0"
     style="fill-opacity:0.2;stroke-opacity:0.2" />
  <path
     d="m 29.995874,14.515 c 0,10.757 -3.874718,14.517 -14.950931,14.517 C 3.9666704,29.032 0.09401263,25.272 0.09401263,14.515 0.09401263,3.762 3.9666704,0 15.044943,0 26.121156,0 29.995874,3.762 29.995874,14.515 z"
     id="path3078"
     inkscape:connector-curvature="0"
     style="fill:#ffffff" />
  <path
     d="m 15.044943,28.063 c -10.5653515,0 -13.952897,-3.291 -13.952897,-13.549 0,-10.256 3.3875455,-13.545 13.952897,-13.545 10.565352,0 13.952897,3.289 13.952897,13.546 0,10.257 -3.387545,13.548 -13.952897,13.548 z"
     id="path3080"
     inkscape:connector-curvature="0"
     style="fill:#e1e1e1" />
  <linearGradient
     gradientUnits="userSpaceOnUse"
     id="SVGID_1_"
     x1="14.9995"
     x2="14.9995"
     y1="1.0596"
     y2="15.2087"
     gradientTransform="matrix(1.0299622,0,0,1,-0.40448905,0)">
    <stop
       offset="0"
       style="stop-color:#FFFFFF"
       id="stop3083" />
    <stop
       offset="1"
       style="stop-color:#FFFFFF;stop-opacity:0"
       id="stop3085" />
  </linearGradient>
  <path
     d="m 15.044943,1.937 c 10.391288,0 13.834452,3.198 13.945688,13.063 0.002,-0.165 0.0072,-0.315 0.0072,-0.484 0,-10.258 -3.387545,-13.547 -13.952897,-13.547 -10.5653514,0 -13.9528969,3.289 -13.9528969,13.546 0,0.169 0.00721,0.319 0.00927,0.484 C 1.2104916,5.135 4.6536551,1.937 15.044943,1.937 z"
     id="path3087"
     style="fill:url(#SVGID_1_);fill-opacity:0.25;stroke-opacity:0.25"
     inkscape:connector-curvature="0" />
  <linearGradient
     gradientUnits="userSpaceOnUse"
     id="SVGID_2_"
     x1="15.0005"
     x2="15.0005"
     y1="27.9238"
     y2="1.0494"
     gradientTransform="matrix(1.0299622,0,0,1,-0.40448905,0)">
    <stop
       offset="0"
       style="stop-color:#FFFFFF;stop-opacity:0"
       id="stop3090" />
    <stop
       offset="1"
       style="stop-color:#FFFFFF"
       id="stop3092" />
  </linearGradient>
  <path
     d="m 15.044943,28.063 c -10.5653515,0 -13.952897,-3.291 -13.952897,-13.549 0,-10.256 3.3875455,-13.545 13.952897,-13.545 10.565352,0 13.952897,3.289 13.952897,13.546 0,10.257 -3.387545,13.548 -13.952897,13.548 z"
     id="path3094"
     style="fill:url(#SVGID_2_);fill-opacity:0.7;stroke-opacity:0.7"
     inkscape:connector-curvature="0" />
  <linearGradient
     gradientUnits="userSpaceOnUse"
     id="SVGID_3_"
     x1="15.0005"
     x2="15.0005"
     y1="27.9912"
     y2="14.0568"
     gradientTransform="matrix(1.0299622,0,0,1,-0.40448905,0)">
    <stop
       offset="0"
       style="stop-color:#000000"
       id="stop3097" />
    <stop
       offset="1"
       style="stop-color:#000000;stop-opacity:0"
       id="stop3099" />
  </linearGradient>
  <path
     d="m 15.044943,27.063 c -10.3861381,0 -13.8282717,-3.196 -13.9415675,-13.049 -0.00206,0.17 -0.011329,0.326 -0.011329,0.5 0,10.258 3.3875455,13.549 13.9528967,13.549 10.565353,0 13.952898,-3.291 13.952898,-13.549 0,-0.174 -0.0092,-0.33 -0.01133,-0.5 -0.113295,9.853 -3.555429,13.049 -13.941568,13.049 z"
     id="path3101"
     style="fill:url(#SVGID_3_);fill-opacity:0.05;stroke-opacity:0.05"
     inkscape:connector-curvature="0" />
  <rect
     height="30"
     width="30.898865"
     id="rect3103"
     x="-0.40448904"
     y="0"
     style="fill:none" />
</svg>
