<?xml version="1.0" encoding="UTF-8" standalone="no"?>
<svg
   xmlns:dc="http://purl.org/dc/elements/1.1/"
   xmlns:cc="http://creativecommons.org/ns#"
   xmlns:rdf="http://www.w3.org/1999/02/22-rdf-syntax-ns#"
   xmlns:svg="http://www.w3.org/2000/svg"
   xmlns="http://www.w3.org/2000/svg"
   xmlns:sodipodi="http://sodipodi.sourceforge.net/DTD/sodipodi-0.dtd"
   xmlns:inkscape="http://www.inkscape.org/namespaces/inkscape"
   height="30px"
   version="1.1"
   viewBox="0 0 30 30"
   width="30px"
   x="0px"
   y="0px"
   id="svg3111"
   inkscape:version="0.48.2 r9819"
   sodipodi:docname="qtg_graf_slider_handle_pressed.svg">
  <metadata
     id="metadata3136">
    <rdf:RDF>
      <cc:Work
         rdf:about="">
        <dc:format>image/svg+xml</dc:format>
        <dc:type
           rdf:resource="http://purl.org/dc/dcmitype/StillImage" />
      </cc:Work>
    </rdf:RDF>
  </metadata>
  <sodipodi:namedview
     pagecolor="#ffffff"
     bordercolor="#666666"
     borderopacity="1"
     objecttolerance="10"
     gridtolerance="10"
     guidetolerance="10"
     inkscape:pageopacity="0"
     inkscape:pageshadow="2"
     inkscape:window-width="1280"
     inkscape:window-height="1002"
     id="namedview3134"
     showgrid="false"
     inkscape:zoom="22.250293"
     inkscape:cx="17.493626"
     inkscape:cy="17.978225"
     inkscape:window-x="1272"
     inkscape:window-y="-8"
     inkscape:window-maximized="1"
     inkscape:current-layer="svg3111" />
  <path
     d="M 30.038642,15.484 C 30.038642,26.238 26.144947,30 15.022471,30 3.8958578,30 0.00630143,26.238 0.00630143,15.484 0.00630143,4.73 3.8958578,0.969 15.022471,0.969 c 11.122476,0 15.016171,3.761 15.016171,14.515 z"
     id="path3113"
     inkscape:connector-curvature="0"
     style="fill-opacity:0.5;stroke-opacity:0.5" />
  <path
     d="m 30.038642,14.516 c 0,10.756 -3.893695,14.516 -15.016171,14.516 C 3.8958578,29.032 0.00630143,25.272 0.00630143,14.516 0.00630143,3.762 3.8958578,0 15.022471,0 26.144947,0 30.038642,3.762 30.038642,14.516 z"
     id="path3115"
     inkscape:connector-curvature="0"
     style="fill:#1080dd" />
  <path
     d="m 30.038642,15 c 0,10.398 -3.893695,14.031 -15.016171,14.031 C 3.8958578,29.031 0.00630143,25.398 0.00630143,15 0.00630143,4.602 3.8958578,0.969 15.022471,0.969 26.144947,0.969 30.038642,4.602 30.038642,15 z"
     id="path3117"
     style="fill:url(#SVGID_1_);fill-opacity:0.3;stroke-opacity:0.3"
     inkscape:connector-curvature="0" />
  <rect
     height="30"
     width="31.033693"
     id="rect3119"
     x="-0.4943755"
     y="0"
     style="fill:none" />
  <defs
     id="defs3121">
    <linearGradient
       gradientUnits="userSpaceOnUse"
       id="SVGID_1_"
       x1="15.0005"
       x2="15.0005"
       y1="29.6758"
       y2="-0.3284"
       gradientTransform="matrix(1.0344565,0,0,1,-0.4943755,0)">
      <stop
         offset="0"
         style="stop-color:#FFFFFF;stop-opacity:0.7"
         id="stop3124" />
      <stop
         offset="0.0816"
         style="stop-color:#FFFFFF;stop-opacity:0.7"
         id="stop3126" />
      <stop
         offset="0.3178"
         style="stop-color:#C1C1C1;stop-opacity:0.6743"
         id="stop3128" />
      <stop
         offset="0.861"
         style="stop-color:#282828;stop-opacity:0.6151"
         id="stop3130" />
      <stop
         offset="1"
         style="stop-color:#000000;stop-opacity:0.6"
         id="stop3132" />
    </linearGradient>
  </defs>
</svg>
