<?xml version="1.0" encoding="UTF-8" standalone="no"?>
<svg
   xmlns:dc="http://purl.org/dc/elements/1.1/"
   xmlns:cc="http://creativecommons.org/ns#"
   xmlns:rdf="http://www.w3.org/1999/02/22-rdf-syntax-ns#"
   xmlns:svg="http://www.w3.org/2000/svg"
   xmlns="http://www.w3.org/2000/svg"
   xmlns:sodipodi="http://sodipodi.sourceforge.net/DTD/sodipodi-0.dtd"
   xmlns:inkscape="http://www.inkscape.org/namespaces/inkscape"
   height="30px"
   version="1.1"
   viewBox="0 0 30 30"
   width="30px"
   x="0px"
   y="0px"
   id="svg3038"
   inkscape:version="0.48.2 r9819"
   sodipodi:docname="qtg_graf_slider_handle_normal.svg">
  <metadata
     id="metadata3072">
    <rdf:RDF>
      <cc:Work
         rdf:about="">
        <dc:format>image/svg+xml</dc:format>
        <dc:type
           rdf:resource="http://purl.org/dc/dcmitype/StillImage" />
      </cc:Work>
    </rdf:RDF>
  </metadata>
  <defs
     id="defs3070" />
  <sodipodi:namedview
     pagecolor="#ffffff"
     bordercolor="#666666"
     borderopacity="1"
     objecttolerance="10"
     gridtolerance="10"
     guidetolerance="10"
     inkscape:pageopacity="0"
     inkscape:pageshadow="2"
     inkscape:window-width="1280"
     inkscape:window-height="1002"
     id="namedview3068"
     showgrid="false"
     inkscape:zoom="11.125147"
     inkscape:cx="15.562247"
     inkscape:cy="10.476963"
     inkscape:window-x="1272"
     inkscape:window-y="-8"
     inkscape:window-maximized="1"
     inkscape:current-layer="svg3038" />
  <path
     d="M 30.039367,15.484 C 30.039367,26.239 26.153377,30 15.044942,30 3.934443,30 0.05051958,26.239 0.05051958,15.484 0.05051958,4.729 3.934443,0.969 15.044942,0.969 c 11.108435,0 14.994425,3.76 14.994425,14.515 z"
     id="path3040"
     inkscape:connector-curvature="0"
     style="fill-opacity:0.2;stroke-opacity:0.2" />
  <path
     d="m 30.039367,14.515 c 0,10.757 -3.88599,14.517 -14.994425,14.517 C 3.934443,29.032 0.05051958,25.272 0.05051958,14.515 0.05051958,3.762 3.934443,0 15.044942,0 26.153377,0 30.039367,3.762 30.039367,14.515 z"
     id="path3042"
     inkscape:connector-curvature="0"
     style="fill:#0f0f0f" />
  <linearGradient
     gradientUnits="userSpaceOnUse"
     id="SVGID_1_"
     x1="14.9995"
     x2="14.9995"
     y1="0.9688"
     y2="27.9784"
     gradientTransform="matrix(1.0329584,0,0,1,-0.44943228,0)">
    <stop
       offset="0"
       style="stop-color:#505050"
       id="stop3045" />
    <stop
       offset="0.0761"
       style="stop-color:#454545"
       id="stop3047" />
    <stop
       offset="0.2736"
       style="stop-color:#2D2D2D"
       id="stop3049" />
    <stop
       offset="0.4839"
       style="stop-color:#1C1C1C"
       id="stop3051" />
    <stop
       offset="0.7138"
       style="stop-color:#121212"
       id="stop3053" />
    <stop
       offset="1"
       style="stop-color:#0F0F0F"
       id="stop3055" />
  </linearGradient>
  <path
     d="m 15.044942,28.063 c -10.5960857,0 -13.9934858,-3.291 -13.9934858,-13.549 0,-10.256 3.3974001,-13.545 13.9934858,-13.545 10.596088,0 13.993488,3.289 13.993488,13.546 0,10.257 -3.3974,13.548 -13.993488,13.548 z"
     id="path3057"
     style="fill:url(#SVGID_1_)"
     inkscape:connector-curvature="0" />
  <linearGradient
     gradientUnits="userSpaceOnUse"
     id="SVGID_2_"
     x1="14.9995"
     x2="14.9995"
     y1="1.0596"
     y2="15.2087"
     gradientTransform="matrix(1.0329584,0,0,1,-0.44943228,0)">
    <stop
       offset="0"
       style="stop-color:#FFFFFF"
       id="stop3060" />
    <stop
       offset="1"
       style="stop-color:#FFFFFF;stop-opacity:0"
       id="stop3062" />
  </linearGradient>
  <path
     d="M 15.044942,1.937 C 25.46646,1.937 28.91964,5.135 29.0312,15 c 0.002,-0.165 0.0072,-0.315 0.0072,-0.484 0,-10.258 -3.3974,-13.547 -13.993488,-13.547 -10.5960858,0 -13.9934859,3.289 -13.9934859,13.546 0,0.169 0.00723,0.319 0.00929,0.484 C 1.1702464,5.135 4.6234263,1.937 15.044942,1.937 z"
     id="path3064"
     style="fill:url(#SVGID_2_);fill-opacity:0.25;stroke-opacity:0.25"
     inkscape:connector-curvature="0" />
  <rect
     height="30"
     width="30.98875"
     id="rect3066"
     x="-0.44943225"
     y="0"
     style="fill:none" />
</svg>
