<?xml version="1.0" encoding="utf-8"?>
<!-- Generator: Adobe Illustrator 15.0.0, SVG Export Plug-In . SVG Version: 6.00 Build 0)  -->
<!DOCTYPE svg PUBLIC "-//W3C//DTD SVG 1.1//EN" "http://www.w3.org/Graphics/SVG/1.1/DTD/svg11.dtd">
<svg version="1.1" id="Layer_1" xmlns="http://www.w3.org/2000/svg" xmlns:xlink="http://www.w3.org/1999/xlink" x="0px" y="0px"
	 width="30px" height="30px" viewBox="0 0 30 30" enable-background="new 0 0 30 30" xml:space="preserve">
<g>
	<g id="DO_NOT_EDIT_-_BOUNDING_BOX">
		<rect id="BOUNDING_BOX" fill="none" width="30" height="30"/>
	</g>
	<g>
		<path opacity="0.3" enable-background="new    " d="M8.627,5.029C8.552,5.02,8.478,5,8.4,5C8.476,5,8.553,5.01,8.627,5.029z"/>
		<path opacity="0.3" enable-background="new    " d="M8.4,5C8.32,5,8.244,5.021,8.165,5.031C8.242,5.01,8.321,5,8.4,5z"/>
		<path opacity="0.15" enable-background="new    " d="M18.5,6v1v5.456L8.839,5.115C8.772,5.077,8.701,5.048,8.627,5.029
			c0.25,0.03,0.493,0.094,0.71,0.219C9.374,5.269,9.41,5.293,9.445,5.319L17.5,11.44V7c0-1.103,0.896-2,2-2
			C18.946,5,18.5,5.447,18.5,6z"/>
		<path opacity="0.15" enable-background="new    " d="M7.441,5.258c0.221-0.129,0.47-0.195,0.724-0.227
			c-0.076,0.021-0.149,0.051-0.22,0.091C7.668,5.286,7.5,5.579,7.5,5.898v1v15.204v1c0,0.319,0.168,0.614,0.445,0.776
			C8.086,23.962,8.244,24,8.4,24c0.152,0,0.305-0.038,0.441-0.115l9.658-7.341V22v1c0,0.553,0.446,1,1,1h2c0.553,0,1-0.447,1-1v-1V7
			V6c0-0.553-0.447-1-1-1c1.103,0,2,0.897,2,2v16c0,1.104-0.897,2-2,2h-2c-1.104,0-2-0.896-2-2v-4.439l-8.053,6.121
			c-0.036,0.026-0.074,0.053-0.114,0.074C9.049,24.915,8.727,25,8.4,25c-0.344,0-0.678-0.091-0.961-0.258
			c-0.58-0.34-0.939-0.969-0.939-1.641V6.898C6.5,6.23,6.857,5.603,7.441,5.258z"/>
		<line opacity="0.15" enable-background="new    " x1="7.5" y1="12.456" x2="7.5" y2="13.456"/>
		<path opacity="0.3" enable-background="new    " d="M22.5,6v1c0-0.553-0.447-1-1-1h-2c-0.554,0-1,0.447-1,1V6c0-0.553,0.446-1,1-1
			h2C22.053,5,22.5,5.447,22.5,6z"/>
		<path opacity="0.15" enable-background="new    " d="M22.5,6v1c0-0.553-0.447-1-1-1h-2c-0.554,0-1,0.447-1,1V6
			c0-0.553,0.446-1,1-1h2C22.053,5,22.5,5.447,22.5,6z"/>
		<path opacity="0.3" enable-background="new    " d="M18.5,12.456v1L8.839,6.115C8.705,6.038,8.55,6,8.4,6
			C8.244,6,8.086,6.04,7.945,6.122C7.668,6.286,7.5,6.579,7.5,6.898v-1c0-0.319,0.168-0.612,0.445-0.776
			c0.07-0.041,0.144-0.071,0.22-0.091C8.244,5.021,8.32,5,8.4,5c0.077,0,0.151,0.02,0.227,0.029
			c0.074,0.019,0.146,0.047,0.212,0.085L18.5,12.456z"/>
		<path opacity="0.15" enable-background="new    " d="M18.5,12.456v1L8.839,6.115C8.705,6.038,8.55,6,8.4,6
			C8.244,6,8.086,6.04,7.945,6.122C7.668,6.286,7.5,6.579,7.5,6.898v-1c0-0.319,0.168-0.612,0.445-0.776
			c0.07-0.041,0.144-0.071,0.22-0.091C8.244,5.021,8.32,5,8.4,5c0.077,0,0.151,0.02,0.227,0.029
			c0.074,0.019,0.146,0.047,0.212,0.085L18.5,12.456z"/>
		<path fill="#FFFFFF" d="M19.5,23h2c0.553,0,1-0.447,1-1v1c0,0.553-0.447,1-1,1h-2c-0.554,0-1-0.447-1-1v-1
			C18.5,22.553,18.946,23,19.5,23z"/>
		<path fill="#FFFFFF" d="M7.945,22.878C8.086,22.962,8.244,23,8.4,23c0.152,0,0.305-0.038,0.441-0.115l9.658-7.341v1l-9.658,7.341
			C8.705,23.962,8.553,24,8.4,24c-0.156,0-0.314-0.038-0.455-0.122C7.668,23.716,7.5,23.421,7.5,23.102v-1
			C7.5,22.421,7.668,22.716,7.945,22.878z"/>
		<path fill="#FFFFFF" d="M7.5,6.898c0-0.319,0.168-0.612,0.445-0.776C8.086,6.04,8.244,6,8.4,6C8.55,6,8.705,6.038,8.839,6.115
			l9.661,7.341v-1V7c0-0.553,0.446-1,1-1h2c0.553,0,1,0.447,1,1v15c0,0.553-0.447,1-1,1h-2c-0.554,0-1-0.447-1-1v-5.456v-1
			l-9.658,7.341C8.705,22.962,8.553,23,8.4,23c-0.156,0-0.314-0.038-0.455-0.122C7.668,22.716,7.5,22.421,7.5,22.102V6.898z"/>
	</g>
</g>
</svg>
