<?xml version="1.0" encoding="utf-8"?>
<!-- Generator: Adobe Illustrator 15.0.0, SVG Export Plug-In . SVG Version: 6.00 Build 0)  -->
<!DOCTYPE svg PUBLIC "-//W3C//DTD SVG 1.1//EN" "http://www.w3.org/Graphics/SVG/1.1/DTD/svg11.dtd">
<svg version="1.1" id="Layer_1" xmlns="http://www.w3.org/2000/svg" xmlns:xlink="http://www.w3.org/1999/xlink" x="0px" y="0px"
	 width="30px" height="30px" viewBox="0 0 30 30" enable-background="new 0 0 30 30" xml:space="preserve">
<g>
	<g id="DO_NOT_EDIT_-_BOUNDING_BOX">
		<rect id="BOUNDING_BOX" fill="none" width="30" height="30"/>
	</g>
	<g>
		<path opacity="0.3" enable-background="new    " d="M21.373,5.029C21.448,5.02,21.522,5,21.6,5C21.524,5,21.447,5.01,21.373,5.029
			z"/>
		<path opacity="0.3" enable-background="new    " d="M21.6,5c0.08,0,0.156,0.021,0.235,0.031C21.758,5.01,21.679,5,21.6,5z"/>
		<path opacity="0.15" enable-background="new    " d="M11.5,6v1v5.456l9.661-7.341c0.066-0.038,0.138-0.066,0.212-0.085
			c-0.25,0.03-0.493,0.094-0.71,0.219c-0.037,0.021-0.073,0.045-0.108,0.071L12.5,11.44V7c0-1.103-0.897-2-2-2
			C11.053,5,11.5,5.447,11.5,6z"/>
		<path opacity="0.15" enable-background="new    " d="M22.559,5.258c-0.221-0.129-0.47-0.195-0.724-0.227
			c0.076,0.021,0.149,0.051,0.22,0.091C22.332,5.286,22.5,5.579,22.5,5.898v1v15.204v1c0,0.319-0.168,0.614-0.445,0.776
			C21.914,23.962,21.756,24,21.6,24c-0.152,0-0.305-0.038-0.441-0.115L11.5,16.544V22v1c0,0.553-0.447,1-1,1h-2
			c-0.553,0-1-0.447-1-1v-1V7V6c0-0.553,0.447-1,1-1c-1.103,0-2,0.897-2,2v16c0,1.104,0.897,2,2,2h2c1.103,0,2-0.896,2-2v-4.439
			l8.053,6.121c0.036,0.026,0.074,0.053,0.114,0.074C20.951,24.915,21.273,25,21.6,25c0.344,0,0.678-0.091,0.961-0.258
			c0.58-0.34,0.939-0.969,0.939-1.641V6.898C23.5,6.23,23.143,5.603,22.559,5.258z"/>
		<line opacity="0.15" enable-background="new    " x1="22.5" y1="12.456" x2="22.5" y2="13.456"/>
		<path opacity="0.3" enable-background="new    " d="M7.5,6v1c0-0.553,0.447-1,1-1h2c0.553,0,1,0.447,1,1V6c0-0.553-0.447-1-1-1h-2
			C7.947,5,7.5,5.447,7.5,6z"/>
		<path opacity="0.15" enable-background="new    " d="M7.5,6v1c0-0.553,0.447-1,1-1h2c0.553,0,1,0.447,1,1V6c0-0.553-0.447-1-1-1
			h-2C7.947,5,7.5,5.447,7.5,6z"/>
		<path opacity="0.3" enable-background="new    " d="M11.5,12.456v1l9.661-7.341C21.295,6.038,21.45,6,21.6,6
			c0.156,0,0.314,0.04,0.455,0.122C22.332,6.286,22.5,6.579,22.5,6.898v-1c0-0.319-0.168-0.612-0.445-0.776
			c-0.07-0.041-0.144-0.071-0.22-0.091C21.756,5.021,21.68,5,21.6,5c-0.077,0-0.151,0.02-0.227,0.029
			c-0.074,0.019-0.146,0.047-0.212,0.085L11.5,12.456z"/>
		<path opacity="0.15" enable-background="new    " d="M11.5,12.456v1l9.661-7.341C21.295,6.038,21.45,6,21.6,6
			c0.156,0,0.314,0.04,0.455,0.122C22.332,6.286,22.5,6.579,22.5,6.898v-1c0-0.319-0.168-0.612-0.445-0.776
			c-0.07-0.041-0.144-0.071-0.22-0.091C21.756,5.021,21.68,5,21.6,5c-0.077,0-0.151,0.02-0.227,0.029
			c-0.074,0.019-0.146,0.047-0.212,0.085L11.5,12.456z"/>
		<path fill="#FFFFFF" d="M10.5,23h-2c-0.553,0-1-0.447-1-1v1c0,0.553,0.447,1,1,1h2c0.553,0,1-0.447,1-1v-1
			C11.5,22.553,11.053,23,10.5,23z"/>
		<path fill="#FFFFFF" d="M22.055,22.878C21.914,22.962,21.756,23,21.6,23c-0.152,0-0.305-0.038-0.441-0.115L11.5,15.544v1
			l9.658,7.341C21.295,23.962,21.447,24,21.6,24c0.156,0,0.314-0.038,0.455-0.122c0.277-0.162,0.445-0.457,0.445-0.776v-1
			C22.5,22.421,22.332,22.716,22.055,22.878z"/>
		<path fill="#FFFFFF" d="M22.5,6.898c0-0.319-0.168-0.612-0.445-0.776C21.914,6.04,21.756,6,21.6,6
			c-0.149,0-0.305,0.038-0.438,0.115L11.5,13.456v-1V7c0-0.553-0.447-1-1-1h-2c-0.553,0-1,0.447-1,1v15c0,0.553,0.447,1,1,1h2
			c0.553,0,1-0.447,1-1v-5.456v-1l9.658,7.341C21.295,22.962,21.447,23,21.6,23c0.156,0,0.314-0.038,0.455-0.122
			c0.277-0.162,0.445-0.457,0.445-0.776V6.898z"/>
	</g>
</g>
</svg>
