<?xml version="1.0" encoding="UTF-8" standalone="no"?>
<svg
   xmlns:dc="http://purl.org/dc/elements/1.1/"
   xmlns:cc="http://creativecommons.org/ns#"
   xmlns:rdf="http://www.w3.org/1999/02/22-rdf-syntax-ns#"
   xmlns:svg="http://www.w3.org/2000/svg"
   xmlns="http://www.w3.org/2000/svg"
   xmlns:sodipodi="http://sodipodi.sourceforge.net/DTD/sodipodi-0.dtd"
   xmlns:inkscape="http://www.inkscape.org/namespaces/inkscape"
   height="20px"
   version="1.1"
   viewBox="0 0 100 20"
   width="100px"
   x="0px"
   y="0px"
   id="svg6879"
   inkscape:version="0.48.2 r9819"
   sodipodi:docname="qtg_fr_slider_h_track_normal.svg">
  <metadata
     id="metadata6900">
    <rdf:RDF>
      <cc:Work
         rdf:about="">
        <dc:format>image/svg+xml</dc:format>
        <dc:type
           rdf:resource="http://purl.org/dc/dcmitype/StillImage" />
        <dc:title></dc:title>
      </cc:Work>
    </rdf:RDF>
  </metadata>
  <sodipodi:namedview
     pagecolor="#ffffff"
     bordercolor="#666666"
     borderopacity="1"
     objecttolerance="10"
     gridtolerance="10"
     guidetolerance="10"
     inkscape:pageopacity="0"
     inkscape:pageshadow="2"
     inkscape:window-width="1280"
     inkscape:window-height="1002"
     id="namedview6898"
     showgrid="false"
     inkscape:zoom="5.84"
     inkscape:cx="53.100664"
     inkscape:cy="49.164874"
     inkscape:window-x="1272"
     inkscape:window-y="-8"
     inkscape:window-maximized="1"
     inkscape:current-layer="svg6879" />
  <path
     d="M94.955,5H5.045C0.6,5,0,7.527,0,9.994C0,12.471,0.6,15,5.045,15h89.91C99.4,15,100,12.475,100,10.008  C100,7.533,99.4,5,94.955,5L94.955,5z"
     fill-opacity="0.9"
     stroke-opacity="0.9"
     id="path6881"
     style="fill:#ff0000" />
  <path
     d="M 94.847979,4.9999995 H 4.9379794 c -4.44499994,0 -5.04499994,2.5270004 -5.04499994,4.9940004 0,2.4770001 0.6,5.0060001 5.04499994,5.0060001 H 94.847979 c 4.445,0 5.045001,-2.525 5.045001,-4.992 0,-2.4750001 -0.600001,-5.0080005 -5.045001,-5.0080005 l 0,0 z"
     id="path6883"
     style="fill:url(#SVGID_1_);fill-opacity:0.25;stroke-opacity:0.25"
     inkscape:connector-curvature="0" />
  <path
     d="M5.045,6h89.91C99.1,6,99.9,8.203,99.99,10.508c0.006-0.166,0.01-0.333,0.01-0.5  C100,7.533,99.4,5,94.955,5H5.045C0.6,5,0,7.527,0,9.994c0,0.168,0.004,0.334,0.01,0.502C0.1,8.197,0.898,6,5.045,6z"
     fill="#6F6F6E"
     fill-opacity="0.4"
     stroke-opacity="0.4"
     id="path6885"
     style="fill:#ff0000" />
  <path
     d="M5.045,14h89.91c4.145,0,4.945-2.202,5.035-4.506C99.996,9.66,100,9.826,100,9.992  C100,12.468,99.4,15,94.955,15H5.045C0.6,15,0,12.475,0,10.006c0-0.166,0.004-0.334,0.01-0.5C0.1,11.803,0.898,14,5.045,14z"
     fill="#FFFFFF"
     fill-opacity="0.05"
     stroke-opacity="0.05"
     id="path6887"
     style="fill:#ff0000" />
  <rect
     fill="none"
     height="20"
     width="100"
     id="rect6889" />
  <defs
     id="defs6891">
    <linearGradient
       gradientUnits="userSpaceOnUse"
       id="SVGID_1_"
       x1="50.0005"
       x2="50.0005"
       y1="15"
       y2="5.0005"
       gradientTransform="translate(-0.10702054,-4.5146314e-7)">
      <stop
         offset="0"
         style="stop-color:#FFFFFF"
         id="stop6894" />
      <stop
         offset="1"
         style="stop-color:#FFFFFF;stop-opacity:0"
         id="stop6896" />
    </linearGradient>
  </defs>
</svg>
