<?xml version="1.0" encoding="utf-8"?>
<!-- Generator: Adobe Illustrator 15.0.2, SVG Export Plug-In . SVG Version: 6.00 Build 0)  -->
<!DOCTYPE svg PUBLIC "-//W3C//DTD SVG 1.1//EN" "http://www.w3.org/Graphics/SVG/1.1/DTD/svg11.dtd">
<svg version="1.1" id="Layer_1" xmlns="http://www.w3.org/2000/svg" xmlns:xlink="http://www.w3.org/1999/xlink" x="0px" y="0px"
	 width="30px" height="30px" viewBox="0 0 30 30" enable-background="new 0 0 30 30" xml:space="preserve">
<g id="DO_NOT_EDIT_-_BOUNDING_BOX">
	<rect id="BOUNDING_BOX" fill="none" width="30" height="30"/>
</g>
<rect fill="none" width="30" height="30"/>
<path opacity="0.15" d="M5,28c-1.654,0-3-1.346-3-3V5c0-1.654,1.346-3,3-3h20c1.654,0,3,1.346,3,3v20c0,1.654-1.346,3-3,3H5z"/>
<path fill="#FFFFFF" d="M25,4H5C3.896,4,3,4.896,3,6v20c0,1.104,0.896,2,2,2h20c1.104,0,2-0.896,2-2V6C27,4.896,26.104,4,25,4z"/>
<path fill="#282828" d="M25,3H5C3.896,3,3,3.896,3,5v20c0,1.104,0.896,2,2,2h20c1.104,0,2-0.896,2-2V5C27,3.896,26.104,3,25,3z"/>
</svg>
