<?xml version="1.0" encoding="utf-8"?>
<!-- Generator: Adobe Illustrator 15.0.2, SVG Export Plug-In . SVG Version: 6.00 Build 0)  -->
<!DOCTYPE svg PUBLIC "-//W3C//DTD SVG 1.1//EN" "http://www.w3.org/Graphics/SVG/1.1/DTD/svg11.dtd">
<svg version="1.1" id="Layer_1" xmlns="http://www.w3.org/2000/svg" xmlns:xlink="http://www.w3.org/1999/xlink" x="0px" y="0px"
	 width="30px" height="30px" viewBox="0 0 30 30" enable-background="new 0 0 30 30" xml:space="preserve">
<path opacity="0.15" d="M15,27C6.701,27,3,23.299,3,15S6.701,3,15,3s12,3.701,12,12S23.299,27,15,27z M15,7.5
	c-5.748,0-7.5,1.752-7.5,7.5c0,5.748,1.752,7.5,7.5,7.5c5.748,0,7.5-1.752,7.5-7.5C22.5,9.252,20.748,7.5,15,7.5z"/>
<path id="TAB_x5F_Icons_1_" fill="#FFFFFF" d="M15,7.5c6.295,0,8.5,2.204,8.5,8.5c0,6.297-2.205,8.5-8.5,8.5
	c-6.297,0-8.5-2.203-8.5-8.5C6.5,9.704,8.703,7.5,15,7.5 M15,5C7.29,5,4,8.29,4,16s3.29,11,11,11s11-3.29,11-11S22.71,5,15,5L15,5z"
	/>
<path id="TAB_x5F_Icons_2_" fill="#282828" d="M15,6.5c6.295,0,8.5,2.204,8.5,8.5c0,6.297-2.205,8.5-8.5,8.5
	c-6.297,0-8.5-2.203-8.5-8.5C6.5,8.704,8.703,6.5,15,6.5 M15,4C7.29,4,4,7.29,4,15s3.29,11,11,11s11-3.29,11-11S22.71,4,15,4L15,4z"
	/>
<rect fill="none" width="30" height="30"/>
</svg>
