<?xml version="1.0" encoding="utf-8"?>
<!-- Generator: Adobe Illustrator 15.0.2, SVG Export Plug-In . SVG Version: 6.00 Build 0)  -->
<!DOCTYPE svg PUBLIC "-//W3C//DTD SVG 1.1//EN" "http://www.w3.org/Graphics/SVG/1.1/DTD/svg11.dtd">
<svg version="1.1" id="Layer_1" xmlns="http://www.w3.org/2000/svg" xmlns:xlink="http://www.w3.org/1999/xlink" x="0px" y="0px"
	 width="30px" height="30px" viewBox="0 0 30 30" enable-background="new 0 0 30 30" xml:space="preserve">
<rect fill="none" width="30" height="30"/>
<path opacity="0.15" d="M16.057,26c-0.553,0-1-0.447-1-1v-2c0-0.553,0.447-1,1-1h3.537C24.623,22,26,20.603,26,15.5
	c0-5.103-1.377-6.5-6.406-6.5h-3.537c-0.553,0-1-0.448-1-1V6c0-0.552,0.447-1,1-1h3.537C26.791,5,30,8.238,30,15.5
	S26.791,26,19.594,26H16.057z M10.407,26C3.209,26,0,22.762,0,15.5S3.209,5,10.406,5h3.65c0.552,0,1,0.448,1,1v2
	c0,0.552-0.448,1-1,1h-3.65C5.377,9,4,10.397,4,15.5C4,10.397,5.377,9,10.407,9h3.65c0.265,0,0.52,0.105,0.707,0.293
	S15.057,9.735,15.057,10l-0.001,11c0,0.553-0.448,1-1,1c0.552,0,1,0.447,1,1v2c0,0.553-0.448,1-1,1H10.407z"/>
<path fill-opacity="0.3" d="M14.057,24h-3.65C3.725,24,1,21.248,1,14.5S3.725,5,10.406,5h3.65v2h-3.65C4.799,7,3,8.822,3,14.5
	S4.799,22,10.406,22h3.65L14.057,24L14.057,24z M19.594,5h-3.537v2h3.537C25.201,7,27,8.822,27,14.5S25.201,22,19.594,22h-3.537v2
	h3.537C26.273,24,29,21.248,29,14.5S26.273,5,19.594,5z M14.057,9h-3.65C5.909,9,5,9.926,5,14.5c0,4.575,0.909,5.5,5.406,5.5h3.65
	L14.057,9L14.057,9z"/>
<path fill="#FFFFFF" d="M14.057,25h-3.65C3.725,25,1,22.248,1,15.5S3.725,6,10.406,6h3.65v2h-3.65C4.799,8,3,9.822,3,15.5
	S4.799,23,10.406,23h3.65L14.057,25L14.057,25z M19.594,6h-3.537v2h3.537C25.201,8,27,9.822,27,15.5S25.201,23,19.594,23h-3.537v2
	h3.537C26.273,25,29,22.248,29,15.5S26.273,6,19.594,6z M14.057,10h-3.65C5.909,10,5,10.926,5,15.5c0,4.575,0.909,5.5,5.406,5.5
	h3.65L14.057,10L14.057,10z"/>
</svg>
