<?xml version="1.0" encoding="utf-8"?>
<!-- Generator: Adobe Illustrator 15.0.2, SVG Export Plug-In . SVG Version: 6.00 Build 0)  -->
<!DOCTYPE svg PUBLIC "-//W3C//DTD SVG 1.1//EN" "http://www.w3.org/Graphics/SVG/1.1/DTD/svg11.dtd">
<svg version="1.1" id="Layer_1" xmlns="http://www.w3.org/2000/svg" xmlns:xlink="http://www.w3.org/1999/xlink" x="0px" y="0px"
	 width="30px" height="30px" viewBox="0 0 30 30" enable-background="new 0 0 30 30" xml:space="preserve">
<rect fill="none" width="30" height="30"/>
<path opacity="0.15" enable-background="new    " d="M16,26c-0.552,0-1-0.447-1-1c0,0.553-0.448,1-1,1h-3.651
	C3.152,26-0.057,22.762-0.057,15.5C-0.057,8.238,3.152,5,10.349,5H14c0.552,0,1,0.448,1,1c0-0.552,0.448-1,1-1h3.537
	c7.197,0,10.406,3.238,10.406,10.5c0,7.262-3.209,10.5-10.406,10.5H16z M14,22c0.552,0,1,0.447,1,1c0-0.553,0.448-1,1-1h3.537
	c5.029,0,6.406-1.396,6.406-6.5c0-5.103-1.377-6.5-6.406-6.5H16c-0.552,0-1-0.448-1-1c0,0.552-0.448,1-1,1h-3.651
	c-5.029,0-6.406,1.397-6.406,6.5c0-5.103,1.377-6.5,6.406-6.5H14c0.552,0,1,0.448,1,1v11C15,21.553,14.552,22,14,22z"/>
<path fill="#FFFFFF" d="M14,26h-3.651c-6.681,0-9.406-2.752-9.406-9.5S3.668,7,10.349,7H14v2h-3.651c-5.607,0-7.406,1.822-7.406,7.5
	S4.742,24,10.349,24H14V26z M19.537,7H16v2h3.537c5.607,0,7.406,1.822,7.406,7.5S25.145,24,19.537,24H16v2h3.537
	c6.681,0,9.406-2.752,9.406-9.5S26.218,7,19.537,7z M14,11h-3.651c-4.497,0-5.406,0.925-5.406,5.5s0.91,5.5,5.406,5.5H14V11z"/>
<path fill="#282828" d="M14,25h-3.651c-6.681,0-9.406-2.752-9.406-9.5S3.668,6,10.349,6H14v2h-3.651c-5.607,0-7.406,1.822-7.406,7.5
	S4.742,23,10.349,23H14V25z M19.537,6H16v2h3.537c5.607,0,7.406,1.822,7.406,7.5S25.145,23,19.537,23H16v2h3.537
	c6.681,0,9.406-2.752,9.406-9.5S26.218,6,19.537,6z M14,10h-3.651c-4.497,0-5.406,0.925-5.406,5.5s0.91,5.5,5.406,5.5H14V10z"/>
</svg>
