<?xml version="1.0" encoding="utf-8"?>
<!-- Generator: Adobe Illustrator 15.0.2, SVG Export Plug-In . SVG Version: 6.00 Build 0)  -->
<!DOCTYPE svg PUBLIC "-//W3C//DTD SVG 1.1//EN" "http://www.w3.org/Graphics/SVG/1.1/DTD/svg11.dtd">
<svg version="1.1" id="Layer_1" xmlns="http://www.w3.org/2000/svg" xmlns:xlink="http://www.w3.org/1999/xlink" x="0px" y="0px"
	 width="30px" height="30px" viewBox="0 0 30 30" enable-background="new 0 0 30 30" xml:space="preserve">
<g id="DO_NOT_EDIT_-_BOUNDING_BOX">
	<rect id="BOUNDING_BOX" fill="none" width="30" height="30"/>
</g>
<rect fill="none" width="30" height="30"/>
<path opacity="0.15" enable-background="new    " d="M10.904,26c-0.552,0-1-0.447-1-1v-1.348c0-0.478,0.336-0.887,0.804-0.98
	l1.119-0.224V7.896h-1.085l-0.668,2.056c-0.134,0.412-0.518,0.691-0.951,0.691H7.5c-0.275,0-0.539-0.113-0.728-0.314
	c-0.189-0.2-0.287-0.469-0.271-0.744l0.271-4.643C6.804,4.413,7.241,4,7.771,4H22.23c0.528,0,0.968,0.413,0.998,0.942l0.27,4.643
	c0.018,0.275-0.082,0.544-0.271,0.745c-0.188,0.2-0.451,0.313-0.728,0.313H20.88c-0.435,0-0.817-0.279-0.95-0.691l-0.668-2.056
	H18.18v14.553l1.114,0.225c0.466,0.096,0.802,0.506,0.802,0.98V25c0,0.553-0.447,1-1,1H10.904z"/>
<polygon fill="#FFFFFF" points="22.23,6 7.771,6 7.5,10.643 9.121,10.643 10.014,7.896 12.826,7.896 12.826,24.268 10.904,24.652 
	10.904,26 19.096,26 19.096,24.654 17.18,24.268 17.18,7.896 19.988,7.896 20.881,10.643 22.5,10.643 "/>
<polygon fill="#282828" points="22.23,5 7.771,5 7.5,9.643 9.121,9.643 10.014,6.896 12.826,6.896 12.826,23.268 10.904,23.652 
	10.904,25 19.096,25 19.096,23.654 17.18,23.268 17.18,6.896 19.988,6.896 20.881,9.643 22.5,9.643 "/>
</svg>
