<?xml version="1.0" encoding="utf-8"?>
<!-- Generator: Adobe Illustrator 15.0.2, SVG Export Plug-In . SVG Version: 6.00 Build 0)  -->
<!DOCTYPE svg PUBLIC "-//W3C//DTD SVG 1.1//EN" "http://www.w3.org/Graphics/SVG/1.1/DTD/svg11.dtd">
<svg version="1.1" id="Layer_1" xmlns="http://www.w3.org/2000/svg" xmlns:xlink="http://www.w3.org/1999/xlink" x="0px" y="0px"
	 width="30px" height="30px" viewBox="0 0 30 30" enable-background="new 0 0 30 30" xml:space="preserve">
<g>
	<rect fill="none" width="30" height="30"/>
</g>
<path opacity="0.15" d="M15,30c-1.103,0-2-0.897-2-2v-4c0-1.103,0.897-2,2-2c1.103,0,2,0.897,2,2v4C17,29.103,16.103,30,15,30z
	 M28.488,19.764c-0.065,0-0.131-0.007-0.196-0.02l-6.844-1.371c-0.351-0.07-0.637-0.321-0.751-0.66
	c-0.114-0.338-0.04-0.712,0.196-0.98l0.749-0.853c-2.402-1.613-4.533-2.37-6.642-2.37c-2.108,0-4.238,0.757-6.64,2.37l0.748,0.851
	c0.236,0.269,0.311,0.643,0.196,0.98c-0.114,0.339-0.4,0.59-0.751,0.66L1.71,19.742c-0.065,0.013-0.131,0.02-0.196,0.02
	c-0.284,0-0.559-0.121-0.751-0.34c-0.236-0.268-0.311-0.642-0.196-0.98l2.234-6.612c0.114-0.338,0.4-0.59,0.751-0.66
	c0.065-0.013,0.131-0.02,0.196-0.02c0.285,0,0.559,0.122,0.751,0.34l0.872,0.992C8.708,10.148,11.865,9.011,15,9.011
	s6.292,1.137,9.629,3.472l0.873-0.993c0.192-0.218,0.467-0.339,0.751-0.339c0.065,0,0.131,0.006,0.196,0.02
	c0.351,0.07,0.637,0.322,0.751,0.66l2.235,6.613c0.114,0.339,0.04,0.712-0.196,0.98C29.048,19.643,28.772,19.764,28.488,19.764z
	 M15,19c-1.103,0-2-0.897-2-2v-2.41c0-0.503,0.374-0.928,0.873-0.992c0.331-0.042,0.723-0.086,1.127-0.086s0.797,0.043,1.127,0.086
	C16.626,13.662,17,14.087,17,14.59V17C17,18.103,16.103,19,15,19z M15,9c-1.103,0-2-0.897-2-2V3c0-1.103,0.897-2,2-2
	c1.103,0,2,0.897,2,2v4C17,8.103,16.103,9,15,9z"/>
<path fill="#FFFFFF" d="M14,8V4c0-0.553,0.447-1,1-1c0.553,0,1,0.447,1,1v4c0,0.553-0.447,1-1,1C14.447,9,14,8.553,14,8z M15,24
	c-0.553,0-1,0.447-1,1v4c0,0.553,0.447,1,1,1c0.553,0,1-0.447,1-1v-4C16,24.447,15.553,24,15,24z M15,15.512
	c-0.331,0-0.665,0.035-1,0.078V18c0,0.553,0.447,1,1,1c0.553,0,1-0.447,1-1v-2.41C15.665,15.547,15.331,15.512,15,15.512z
	 M28.488,19.764l-2.235-6.613l-1.474,1.675c-6.809-5.087-12.75-5.087-19.559-0.001L3.748,13.15l-2.234,6.612l6.844-1.371
	l-1.482-1.687c5.772-4.259,10.478-4.259,16.252,0l-1.483,1.688L28.488,19.764z"/>
<path fill="#282828" d="M14,7V3c0-0.553,0.447-1,1-1c0.553,0,1,0.447,1,1v4c0,0.553-0.447,1-1,1C14.447,8,14,7.553,14,7z M15,23
	c-0.553,0-1,0.447-1,1v4c0,0.553,0.447,1,1,1c0.553,0,1-0.447,1-1v-4C16,23.447,15.553,23,15,23z M15,14.512
	c-0.331,0-0.665,0.035-1,0.078V17c0,0.553,0.447,1,1,1c0.553,0,1-0.447,1-1v-2.41C15.665,14.547,15.331,14.512,15,14.512z
	 M28.488,18.764l-2.235-6.613l-1.474,1.675c-6.809-5.087-12.75-5.087-19.559-0.001L3.748,12.15l-2.234,6.612l6.844-1.371
	l-1.482-1.687c5.772-4.259,10.478-4.259,16.252,0l-1.483,1.688L28.488,18.764z"/>
</svg>
