<?xml version="1.0"?>
<!-- Converted with SVG Converter - Version 0.9.5 (Compiled Mon May 30 09:25:05 2011) - Copyright (C) 2011 Nokia -->
<svg xmlns="http://www.w3.org/2000/svg" width="30px" x="0px" version="1.1" y="0px" height="30px" viewBox="0 0 30 30" xmlns:xlink="http://www.w3.org/1999/xlink" baseProfile="tiny" id="Layer_1" xml:space="preserve">
 <g>
  <rect width="30" fill="none" height="30"/>
 </g>
 <path fill-opacity="0.15" d="M17,24v4c0,1.103-0.897,2-2,2c-1.104,0-2-0.897-2-2v-4c0-1.103,0.896-2,2-2C16.103,22,17,22.897,17,24z&#xd;&#xa;&#x9; M15,9c1.103,0,2-0.896,2-2V3c0-1.104-0.897-2-2-2c-1.104,0-2,0.896-2,2v4C13,8.104,13.896,9,15,9z M13,14.59V17&#xd;&#xa;&#x9;c0,1.103,0.896,2,2,2c1.103,0,2-0.897,2-2v-2.41c0-0.502-0.373-0.927-0.871-0.991C15.795,13.556,15.4,13.512,15,13.512&#xd;&#xa;&#x9;s-0.795,0.044-1.129,0.087C13.373,13.663,13,14.088,13,14.59z M29.436,18.442L27.2,11.83c-0.114-0.338-0.4-0.59-0.751-0.66&#xd;&#xa;&#x9;c-0.065-0.014-0.131-0.02-0.196-0.02c-0.284,0-0.56,0.121-0.751,0.34l-0.872,0.992C21.292,10.146,18.135,9.01,15,9.01&#xd;&#xa;&#x9;s-6.291,1.137-9.629,3.471L4.5,11.489c-0.192-0.218-0.467-0.339-0.752-0.339c-0.064,0-0.131,0.006-0.195,0.02&#xd;&#xa;&#x9;c-0.352,0.07-0.637,0.321-0.752,0.66l-2.234,6.612c-0.114,0.339-0.039,0.712,0.196,0.98c0.192,0.219,0.467,0.34,0.751,0.34&#xd;&#xa;&#x9;c0.065,0,0.131-0.007,0.196-0.02l6.845-1.371c0.35-0.07,0.637-0.322,0.75-0.66c0.115-0.339,0.04-0.713-0.195-0.98L8.36,15.881&#xd;&#xa;&#x9;c2.401-1.613,4.532-2.369,6.64-2.369c2.108,0,4.238,0.756,6.641,2.369l-0.748,0.852c-0.236,0.269-0.311,0.642-0.196,0.98&#xd;&#xa;&#x9;s0.4,0.59,0.751,0.66l6.845,1.37c0.065,0.013,0.131,0.02,0.196,0.02c0.284,0,0.56-0.121,0.751-0.34&#xd;&#xa;&#x9;C29.476,19.154,29.55,18.781,29.436,18.442z"/>
 <path fill-opacity="0.3" d="M14,6V2c0-0.553,0.447-1,1-1s1,0.447,1,1v4c0,0.553-0.447,1-1,1S14,6.553,14,6z M15,22&#xd;&#xa;&#x9;c-0.553,0-1,0.447-1,1v4c0,0.553,0.447,1,1,1s1-0.447,1-1v-4C16,22.447,15.553,22,15,22z M15,13.512c-0.331,0-0.665,0.035-1,0.078&#xd;&#xa;&#x9;V16c0,0.553,0.447,1,1,1s1-0.447,1-1v-2.41C15.665,13.547,15.331,13.512,15,13.512z M28.488,17.763l-2.235-6.612l-1.473,1.675&#xd;&#xa;&#x9;c-6.81-5.087-12.751-5.087-19.56-0.001L3.748,11.15l-2.234,6.612l6.844-1.371l-1.482-1.687c5.772-4.259,10.478-4.259,16.252,0&#xd;&#xa;&#x9;l-1.483,1.688L28.488,17.763z"/>
 <path fill="#FFFFFF" d="M14,7V3c0-0.553,0.447-1,1-1s1,0.447,1,1v4c0,0.553-0.447,1-1,1S14,7.553,14,7z M15,23c-0.553,0-1,0.447-1,1&#xd;&#xa;&#x9;v4c0,0.553,0.447,1,1,1s1-0.447,1-1v-4C16,23.447,15.553,23,15,23z M15,14.512c-0.331,0-0.665,0.035-1,0.078V17c0,0.553,0.447,1,1,1&#xd;&#xa;&#x9;s1-0.447,1-1v-2.41C15.665,14.547,15.331,14.512,15,14.512z M28.488,18.763l-2.235-6.612l-1.473,1.675&#xd;&#xa;&#x9;c-6.81-5.087-12.751-5.087-19.56-0.001L3.748,12.15l-2.234,6.612l6.844-1.371l-1.482-1.687c5.772-4.259,10.478-4.259,16.252,0&#xd;&#xa;&#x9;l-1.483,1.688L28.488,18.763z"/>
</svg>
