<?xml version="1.0" encoding="utf-8"?>
<!-- Generator: Adobe Illustrator 15.0.2, SVG Export Plug-In . SVG Version: 6.00 Build 0)  -->
<!DOCTYPE svg PUBLIC "-//W3C//DTD SVG 1.1//EN" "http://www.w3.org/Graphics/SVG/1.1/DTD/svg11.dtd">
<svg version="1.1" id="Layer_1" xmlns="http://www.w3.org/2000/svg" xmlns:xlink="http://www.w3.org/1999/xlink" x="0px" y="0px"
	 width="30px" height="30px" viewBox="0 0 30 30" enable-background="new 0 0 30 30" xml:space="preserve">
<g id="DO_NOT_EDIT_-_BOUNDING_BOX">
	<rect id="BOUNDING_BOX" fill="none" width="30" height="30"/>
</g>
<path opacity="0.15" d="M23.27,28.75c-0.438,0-0.864-0.127-1.233-0.367c-0.507-0.334-0.85-0.841-0.971-1.431
	c-0.12-0.59-0.005-1.189,0.327-1.691c2.014-3.055,3.078-6.603,3.078-10.261c0-3.656-1.064-7.205-3.079-10.262
	c-0.331-0.5-0.447-1.101-0.326-1.69s0.465-1.095,0.967-1.426c0.369-0.243,0.797-0.371,1.237-0.371c0.759,0,1.461,0.377,1.879,1.01
	c2.501,3.793,3.822,8.198,3.822,12.737c0,4.542-1.321,8.946-3.821,12.739C24.734,28.371,24.031,28.75,23.27,28.75z M14.318,26.076
	c-0.499,0-0.998-0.216-1.482-0.641L8.338,21.5H4c-1.654,0-3-1.346-3-3v-7c0-1.654,1.346-3,3-3h4.338l4.499-3.937
	c0.485-0.424,0.983-0.639,1.481-0.639C15.155,3.925,16,4.566,16,6v18c0,0.539-0.118,0.992-0.352,1.348
	C15.345,25.811,14.86,26.076,14.318,26.076z M19.279,24.759c-0.38,0-0.758-0.098-1.092-0.281c-0.531-0.298-0.911-0.778-1.074-1.357
	c-0.162-0.579-0.09-1.186,0.204-1.709c1.093-1.952,1.671-4.17,1.671-6.411c0-2.24-0.578-4.457-1.672-6.412
	c-0.293-0.522-0.365-1.13-0.202-1.709c0.164-0.579,0.543-1.059,1.069-1.352c0.332-0.187,0.713-0.287,1.097-0.287
	c0.816,0,1.568,0.442,1.965,1.154c1.467,2.625,2.243,5.601,2.243,8.604s-0.776,5.979-2.244,8.608
	C20.848,24.317,20.095,24.759,19.279,24.759z"/>
<path fill="#FFFFFF" d="M13.496,6.316L8.714,10.5H4c-1.1,0-2,0.9-2,2v7c0,1.1,0.9,2,2,2h4.714l4.782,4.184
	C14.322,26.408,15,26.1,15,25V7C15,5.9,14.322,5.594,13.496,6.316z M20.371,7.881c-0.336-0.604-1.1-0.818-1.701-0.48
	c-0.604,0.336-0.818,1.098-0.48,1.699c1.179,2.107,1.799,4.494,1.799,6.9c0,2.408-0.62,4.795-1.799,6.9
	c-0.338,0.602-0.123,1.363,0.48,1.701c0.193,0.106,0.402,0.157,0.609,0.157c0.438,0,0.863-0.229,1.092-0.639
	c1.385-2.479,2.117-5.287,2.117-8.121S21.756,10.359,20.371,7.881z M24.314,3.813c-0.381-0.576-1.156-0.734-1.732-0.355
	s-0.736,1.154-0.355,1.73C24.35,8.41,25.471,12.148,25.471,16c0,3.852-1.121,7.592-3.244,10.812
	c-0.381,0.576-0.221,1.353,0.355,1.732c0.213,0.139,0.451,0.205,0.688,0.205c0.406,0,0.806-0.197,1.045-0.562
	c2.394-3.631,3.656-7.845,3.656-12.188C27.971,11.658,26.707,7.443,24.314,3.813z"/>
<path fill="#282828" d="M13.496,5.316L8.714,9.5H4c-1.1,0-2,0.9-2,2v7c0,1.1,0.9,2,2,2h4.714l4.782,4.184
	C14.322,25.408,15,25.1,15,24V6C15,4.9,14.322,4.594,13.496,5.316z M20.371,6.881c-0.336-0.604-1.1-0.818-1.701-0.48
	c-0.604,0.336-0.818,1.098-0.48,1.699c1.179,2.107,1.799,4.494,1.799,6.9c0,2.408-0.62,4.795-1.799,6.9
	c-0.338,0.602-0.123,1.363,0.48,1.701c0.193,0.106,0.402,0.157,0.609,0.157c0.438,0,0.863-0.229,1.092-0.639
	c1.385-2.479,2.117-5.287,2.117-8.121S21.756,9.359,20.371,6.881z M24.314,2.813c-0.381-0.576-1.156-0.734-1.732-0.355
	s-0.736,1.154-0.355,1.73C24.35,7.41,25.471,11.148,25.471,15c0,3.852-1.121,7.592-3.244,10.812
	c-0.381,0.576-0.221,1.353,0.355,1.732c0.213,0.139,0.451,0.205,0.688,0.205c0.406,0,0.806-0.197,1.045-0.562
	c2.394-3.631,3.656-7.845,3.656-12.188C27.971,10.658,26.707,6.443,24.314,2.813z"/>
</svg>
