<?xml version="1.0" encoding="utf-8"?>
<!-- Generator: Adobe Illustrator 15.0.2, SVG Export Plug-In  -->
<!DOCTYPE svg PUBLIC "-//W3C//DTD SVG 1.1//EN" "http://www.w3.org/Graphics/SVG/1.1/DTD/svg11.dtd" [
	<!ENTITY ns_flows "http://ns.adobe.com/Flows/1.0/">
]>
<svg version="1.1"
	 xmlns="http://www.w3.org/2000/svg" xmlns:xlink="http://www.w3.org/1999/xlink" xmlns:a="http://ns.adobe.com/AdobeSVGViewerExtensions/3.0/"
	 x="0px" y="0px" width="54px" height="54px" viewBox="0 0 54 54" overflow="visible" enable-background="new 0 0 54 54"
	 xml:space="preserve">
<defs>
</defs>
<path fill="#EC1C24" d="M27,8.012c14.196,0,18.989,4.792,18.989,18.988c0,14.197-4.793,18.988-18.989,18.988S8.012,41.197,8.012,27
	C8.012,12.803,12.804,8.012,27,8.012"/>
<rect fill="none" width="54" height="54"/>
<linearGradient id="SVGID_1_" gradientUnits="userSpaceOnUse" x1="27.0005" y1="46.6865" x2="27.0005" y2="7.2423">
	<stop  offset="0" style="stop-color:#FFFFFF;stop-opacity:0.3"/>
	<stop  offset="1" style="stop-color:#FFFFFF;stop-opacity:0"/>
</linearGradient>
<path fill="url(#SVGID_1_)" d="M27,8.012c14.196,0,18.989,4.792,18.989,18.988c0,14.197-4.793,18.988-18.989,18.988
	S8.012,41.197,8.012,27C8.012,12.803,12.804,8.012,27,8.012 M27,6.895C12.107,6.895,6.895,12.106,6.895,27
	c0,14.896,5.213,20.105,20.105,20.105S47.105,41.896,47.105,27C47.105,12.106,41.893,6.895,27,6.895L27,6.895z"/>
<linearGradient id="SVGID_2_" gradientUnits="userSpaceOnUse" x1="27.0005" y1="8.645" x2="27.0005" y2="45.6991">
	<stop  offset="0" style="stop-color:#000000"/>
	<stop  offset="1" style="stop-color:#000000;stop-opacity:0"/>
</linearGradient>
<path opacity="0.1" fill="url(#SVGID_2_)" d="M27,8.012C12.804,8.012,8.012,12.803,8.012,27c0,14.197,4.792,18.988,18.988,18.988
	c14.198,0,18.989-4.791,18.989-18.988C45.989,12.803,41.198,8.012,27,8.012z M27,44.871C13.472,44.871,9.128,40.529,9.128,27
	S13.472,9.128,27,9.128c13.53,0,17.872,4.342,17.872,17.872S40.53,44.871,27,44.871z"/>
<linearGradient id="SVGID_3_" gradientUnits="userSpaceOnUse" x1="27.0005" y1="8.645" x2="27.0005" y2="45.6991">
	<stop  offset="0" style="stop-color:#000000"/>
	<stop  offset="1" style="stop-color:#000000;stop-opacity:0"/>
</linearGradient>
<path opacity="0.05" fill="url(#SVGID_3_)" d="M27,8.012C12.804,8.012,8.012,12.803,8.012,27c0,14.197,4.792,18.988,18.988,18.988
	c14.198,0,18.989-4.791,18.989-18.988C45.989,12.803,41.198,8.012,27,8.012z M27,43.754c-12.839,0-16.755-3.914-16.755-16.754
	S14.161,10.246,27,10.246c12.841,0,16.755,3.915,16.755,16.754S39.841,43.754,27,43.754z"/>
<linearGradient id="SVGID_4_" gradientUnits="userSpaceOnUse" x1="27.0005" y1="8.645" x2="27.0005" y2="45.6991">
	<stop  offset="0" style="stop-color:#000000"/>
	<stop  offset="1" style="stop-color:#000000;stop-opacity:0"/>
</linearGradient>
<path opacity="0.03" fill="url(#SVGID_4_)" d="M27,8.012C12.804,8.012,8.012,12.803,8.012,27c0,14.197,4.792,18.988,18.988,18.988
	c14.198,0,18.989-4.791,18.989-18.988C45.989,12.803,41.198,8.012,27,8.012z M27,42.637c-12.276,0-15.638-3.359-15.638-15.637
	c0-12.276,3.361-15.638,15.638-15.638S42.638,14.724,42.638,27C42.638,39.277,39.276,42.637,27,42.637z"/>
<rect fill="none" width="54" height="54"/>
<path opacity="0.5" d="M30.249,27.512l7.143-7.144c0.357-0.358,0.357-0.942,0-1.3l-1.95-1.948c-0.358-0.358-0.938-0.358-1.296,0
	l-7.145,7.143l-7.143-7.143c-0.359-0.358-0.939-0.358-1.299,0l-1.948,1.948c-0.36,0.358-0.36,0.942,0,1.3l7.142,7.144l-7.142,7.141
	c-0.36,0.357-0.36,0.939,0,1.299l1.948,1.947c0.359,0.362,0.939,0.362,1.299,0l7.143-7.141l7.145,7.141
	c0.357,0.362,0.938,0.362,1.296,0l1.95-1.947c0.357-0.359,0.357-0.941,0-1.299L30.249,27.512z"/>
<path opacity="0.15" enable-background="new    " d="M30.249,26.491l7.143-7.144c0.357-0.358,0.357-0.942,0-1.299l-1.95-1.948
	c-0.357-0.358-0.938-0.358-1.296,0l-7.145,7.143l-7.141-7.143c-0.361-0.358-0.941-0.358-1.3,0l-1.948,1.948
	c-0.361,0.357-0.361,0.941,0,1.299l7.142,7.144l-7.142,7.14c-0.361,0.358-0.361,0.939,0,1.299l1.948,1.948
	c0.358,0.362,0.938,0.362,1.3,0l7.141-7.142l7.145,7.142c0.357,0.362,0.938,0.362,1.296,0l1.95-1.948
	c0.357-0.359,0.357-0.94,0-1.299L30.249,26.491z"/>
<path fill="#EC1C24" d="M30.249,26.491l7.143-7.144c0.357-0.358,0.357-0.942,0-1.299l-1.95-1.948c-0.357-0.358-0.938-0.358-1.296,0
	l-7.145,7.143l-7.141-7.143c-0.361-0.358-0.941-0.358-1.3,0l-1.948,1.948c-0.361,0.357-0.361,0.941,0,1.299l7.142,7.144l-7.142,7.14
	c-0.361,0.358-0.361,0.939,0,1.299l1.948,1.948c0.358,0.362,0.938,0.362,1.3,0l7.141-7.142l7.145,7.142
	c0.357,0.362,0.938,0.362,1.296,0l1.95-1.948c0.357-0.359,0.357-0.94,0-1.299L30.249,26.491z"/>
<linearGradient id="SVGID_5_" gradientUnits="userSpaceOnUse" x1="27.0005" y1="36.7402" x2="27.0005" y2="16.0683">
	<stop  offset="0" style="stop-color:#000000"/>
	<stop  offset="1" style="stop-color:#000000;stop-opacity:0"/>
</linearGradient>
<path opacity="0.2" fill="url(#SVGID_5_)" d="M30.249,26.491l7.143-7.144c0.357-0.358,0.357-0.942,0-1.299l-1.95-1.948
	c-0.357-0.358-0.938-0.358-1.296,0l-7.145,7.143l-7.141-7.143c-0.361-0.358-0.941-0.358-1.3,0l-1.948,1.948
	c-0.361,0.357-0.361,0.941,0,1.299l7.142,7.144l-7.142,7.14c-0.361,0.358-0.361,0.939,0,1.299l1.948,1.948
	c0.358,0.362,0.938,0.362,1.3,0l7.141-7.142l7.145,7.142c0.357,0.362,0.938,0.362,1.296,0l1.95-1.948
	c0.357-0.359,0.357-0.94,0-1.299L30.249,26.491z"/>
</svg>
