<?xml version="1.0" encoding="utf-8"?>
<!-- Generator: Adobe Illustrator 15.0.2, SVG Export Plug-In . SVG Version: 6.00 Build 0)  -->
<!DOCTYPE svg PUBLIC "-//W3C//DTD SVG 1.1//EN" "http://www.w3.org/Graphics/SVG/1.1/DTD/svg11.dtd">
<svg version="1.1" id="Layer_1" xmlns="http://www.w3.org/2000/svg" xmlns:xlink="http://www.w3.org/1999/xlink" x="0px" y="0px"
	 width="30px" height="30px" viewBox="0 0 30 30" enable-background="new 0 0 30 30" xml:space="preserve">
<g id="DO_NOT_EDIT_-_BOUNDING_BOX">
	<rect id="BOUNDING_BOX" fill="none" width="30" height="30"/>
</g>
<rect fill="none" width="30" height="30"/>
<path fill-opacity="0.06" d="M25.502,29.002c-0.936,0-1.814-0.365-2.477-1.027l-4.393-4.391C16.896,24.514,14.964,25,13,25
	C6.383,25,1,19.617,1,13S6.383,1,13,1s12,5.383,12,12c0,1.968-0.486,3.9-1.416,5.636l4.391,4.39C28.637,23.688,29,24.564,29,25.5
	s-0.363,1.814-1.025,2.475C27.316,28.636,26.438,29.002,25.502,29.002z M6.674,14.496C7.351,17.361,9.93,19.5,13,19.5
	c3.068,0,5.648-2.139,6.326-5.004C18.973,14.809,18.509,15,18,15H8C7.492,15,7.027,14.809,6.674,14.496z M18,11
	c0.509,0,0.973,0.191,1.326,0.504C18.648,8.639,16.068,6.5,13,6.5c-3.07,0-5.649,2.139-6.326,5.004C7.027,11.191,7.492,11,8,11H18z"
	/>
<path fill="#FFFFFF" fill-opacity="0.5" d="M8,13c-0.553,0-1,0.447-1,1s0.447,1,1,1h10c0.553,0,1-0.447,1-1s-0.447-1-1-1H8z
	 M27.268,24.732L22.334,19.8C23.385,18.115,24,16.132,24,14c0-6.074-4.926-11-11-11C6.924,3,2,7.926,2,14c0,6.076,4.924,11,11,11
	c2.131,0,4.113-0.616,5.799-1.665l4.934,4.933c0.979,0.979,2.562,0.979,3.535,0C28.244,27.292,28.244,25.709,27.268,24.732z
	 M13,21.5c-4.137,0-7.5-3.363-7.5-7.5c0-4.135,3.363-7.5,7.5-7.5c4.135,0,7.5,3.365,7.5,7.5C20.5,18.137,17.135,21.5,13,21.5z"/>
<path fill="#282828" fill-opacity="0.5" d="M8,12c-0.553,0-1,0.447-1,1s0.447,1,1,1h10c0.553,0,1-0.447,1-1s-0.447-1-1-1H8z
	 M27.268,23.732L22.334,18.8C23.385,17.115,24,15.132,24,13c0-6.074-4.926-11-11-11C6.924,2,2,6.926,2,13c0,6.076,4.924,11,11,11
	c2.131,0,4.113-0.616,5.799-1.665l4.934,4.933c0.979,0.979,2.562,0.979,3.535,0C28.244,26.292,28.244,24.709,27.268,23.732z
	 M13,20.5c-4.137,0-7.5-3.363-7.5-7.5c0-4.135,3.363-7.5,7.5-7.5c4.135,0,7.5,3.365,7.5,7.5C20.5,17.137,17.135,20.5,13,20.5z"/>
</svg>
